<svg width="19" height="16" viewBox="0 0 19 16" fill="none" xmlns="http://www.w3.org/2000/svg">
<path d="M17.9999 6.99994H4.40994L8.70994 2.70994C8.80318 2.6167 8.87714 2.50601 8.9276 2.38419C8.97806 2.26237 9.00403 2.1318 9.00403 1.99994C9.00403 1.86808 8.97806 1.73751 8.9276 1.61569C8.87714 1.49387 8.80318 1.38318 8.70994 1.28994C8.6167 1.1967 8.50601 1.12274 8.38419 1.07228C8.26237 1.02182 8.1318 0.99585 7.99994 0.99585C7.86808 0.99585 7.73751 1.02182 7.61569 1.07228C7.49387 1.12274 7.38318 1.1967 7.28994 1.28994L1.28994 7.28994C1.19621 7.3829 1.12182 7.49351 1.07105 7.61536C1.02028 7.73722 0.994141 7.86793 0.994141 7.99994C0.994141 8.13195 1.02028 8.26266 1.07105 8.38452C1.12182 8.50638 1.19621 8.61698 1.28994 8.70994L7.28994 14.7099C7.3829 14.8037 7.4935 14.8781 7.61536 14.9288C7.73722 14.9796 7.86793 15.0057 7.99994 15.0057C8.13195 15.0057 8.26266 14.9796 8.38452 14.9288C8.50637 14.8781 8.61698 14.8037 8.70994 14.7099C8.80367 14.617 8.87806 14.5064 8.92883 14.3845C8.9796 14.2627 9.00574 14.132 9.00574 13.9999C9.00574 13.8679 8.9796 13.7372 8.92883 13.6154C8.87806 13.4935 8.80367 13.3829 8.70994 13.2899L4.40994 8.99994H17.9999C18.2652 8.99994 18.5195 8.89458 18.707 8.70705C18.8946 8.51951 18.9999 8.26516 18.9999 7.99994C18.9999 7.73472 18.8946 7.48037 18.707 7.29283C18.5195 7.1053 18.2652 6.99994 17.9999 6.99994Z" fill="#755EC6"/>
</svg>
