<svg width="18" height="22" viewBox="0 0 18 22" fill="none" xmlns="http://www.w3.org/2000/svg">
<path fill-rule="evenodd" clip-rule="evenodd" d="M16 15.93H17C17.2652 15.93 17.5196 16.0354 17.7071 16.2229C17.8946 16.4104 18 16.6648 18 16.93C18 17.1952 17.8946 17.4496 17.7071 17.6371C17.5196 17.8246 17.2652 17.93 17 17.93H15.36C15.2453 17.9753 15.1233 17.9991 15 18H3C2.8936 17.9933 2.78894 17.9697 2.69 17.93H1C0.734784 17.93 0.48043 17.8246 0.292893 17.6371C0.105357 17.4496 0 17.1952 0 16.93C0 16.6648 0.105357 16.4104 0.292893 16.2229C0.48043 16.0354 0.734784 15.93 1 15.93H2V8.46C2.00915 6.78332 2.61983 5.16563 3.72096 3.90117C4.82208 2.63672 6.34049 1.8095 8 1.57V1C8 0.734784 8.10536 0.48043 8.29289 0.292893C8.48043 0.105357 8.73478 0 9 0C9.26522 0 9.51957 0.105357 9.70711 0.292893C9.89464 0.48043 10 0.734784 10 1V1.58C11.6578 1.81924 13.1749 2.64501 14.2758 3.90739C15.3767 5.16976 15.9885 6.78505 16 8.46V15.93ZM5.46447 4.92447C4.52678 5.86215 4 7.13392 4 8.46V15.93H14V8.46C14 7.13392 13.4732 5.86215 12.5355 4.92447C11.5979 3.98678 10.3261 3.46 9 3.46C7.67392 3.46 6.40215 3.98678 5.46447 4.92447Z" fill="#556980"/>
<path d="M10.8764 20.7944C10.3625 21.2581 9.69218 21.5102 9.00007 21.5C8.32349 21.4878 7.67537 21.2256 7.18056 20.764C6.68574 20.3025 6.37923 19.6741 6.32007 19H11.7701C11.7095 19.6895 11.3902 20.3306 10.8764 20.7944Z" fill="#556980"/>
</svg>
