<svg width="18" height="18" viewBox="0 0 18 18" fill="none" xmlns="http://www.w3.org/2000/svg">
<path d="M16 0H2C1.46957 0 0.960859 0.210714 0.585786 0.585786C0.210714 0.960859 0 1.46957 0 2V16C0 16.5304 0.210714 17.0391 0.585786 17.4142C0.960859 17.7893 1.46957 18 2 18H16C16.5304 18 17.0391 17.7893 17.4142 17.4142C17.7893 17.0391 18 16.5304 18 16V2C18 1.46957 17.7893 0.960859 17.4142 0.585786C17.0391 0.210714 16.5304 0 16 0ZM14.75 6.15L7.87 13C7.7056 13.1575 7.48763 13.2468 7.26 13.25C7.035 13.2484 6.81959 13.1586 6.66 13L3.25 9.62C3.09061 9.45898 3.00121 9.24157 3.00121 9.015C3.00121 8.78843 3.09061 8.57102 3.25 8.41C3.32907 8.32988 3.42327 8.26626 3.52713 8.22284C3.63098 8.17941 3.74243 8.15705 3.855 8.15705C3.96757 8.15705 4.07902 8.17941 4.18287 8.22284C4.28673 8.26626 4.38093 8.32988 4.46 8.41L7.26 11.21L13.54 4.93C13.701 4.77061 13.9184 4.68121 14.145 4.68121C14.3716 4.68121 14.589 4.77061 14.75 4.93C14.9077 5.09394 14.9957 5.31255 14.9957 5.54C14.9957 5.76745 14.9077 5.98606 14.75 6.15Z" fill="#755EC6"/>
</svg>
