<svg width="13" height="13" viewBox="0 0 13 13" fill="none" xmlns="http://www.w3.org/2000/svg">
<path d="M7.21354 6.00351L11.7564 1.46922C11.9178 1.30782 12.0085 1.08891 12.0085 0.86065C12.0085 0.632391 11.9178 0.413482 11.7564 0.252079C11.595 0.0906754 11.3761 0 11.1478 0C10.9196 0 10.7007 0.0906754 10.5393 0.252079L6.00497 4.79494L1.47068 0.252079C1.30928 0.0906754 1.09037 -1.70066e-09 0.862113 0C0.633854 1.70066e-09 0.414945 0.0906754 0.253541 0.252079C0.0921382 0.413482 0.0014628 0.632391 0.0014628 0.86065C0.0014628 1.08891 0.0921382 1.30782 0.253541 1.46922L4.7964 6.00351L0.253541 10.5378C0.173203 10.6175 0.109436 10.7123 0.0659204 10.8167C0.0224044 10.9212 0 11.0332 0 11.1464C0 11.2595 0.0224044 11.3715 0.0659204 11.476C0.109436 11.5805 0.173203 11.6753 0.253541 11.7549C0.333224 11.8353 0.428025 11.899 0.532476 11.9426C0.636926 11.9861 0.74896 12.0085 0.862113 12.0085C0.975266 12.0085 1.0873 11.9861 1.19175 11.9426C1.2962 11.899 1.391 11.8353 1.47068 11.7549L6.00497 7.21208L10.5393 11.7549C10.6189 11.8353 10.7137 11.899 10.8182 11.9426C10.9226 11.9861 11.0347 12.0085 11.1478 12.0085C11.261 12.0085 11.373 11.9861 11.4775 11.9426C11.5819 11.899 11.6767 11.8353 11.7564 11.7549C11.8367 11.6753 11.9005 11.5805 11.944 11.476C11.9875 11.3715 12.0099 11.2595 12.0099 11.1464C12.0099 11.0332 11.9875 10.9212 11.944 10.8167C11.9005 10.7123 11.8367 10.6175 11.7564 10.5378L7.21354 6.00351Z" fill="#556980"/>
</svg>
