<svg width="6" height="20" viewBox="0 0 6 20" fill="none" xmlns="http://www.w3.org/2000/svg">
<path d="M3 4C4.10457 4 5 3.10457 5 2C5 0.89543 4.10457 0 3 0C1.89543 0 1 0.89543 1 2C1 3.10457 1.89543 4 3 4Z" fill="#556980"/>
<path d="M3 13C4.65685 13 6 11.6569 6 10C6 8.34315 4.65685 7 3 7C1.34315 7 0 8.34315 0 10C0 11.6569 1.34315 13 3 13Z" fill="#556980"/>
<path d="M3 20C4.10457 20 5 19.1046 5 18C5 16.8954 4.10457 16 3 16C1.89543 16 1 16.8954 1 18C1 19.1046 1.89543 20 3 20Z" fill="#556980"/>
</svg>
