<svg width="22" height="16" viewBox="0 0 22 16" fill="none" xmlns="http://www.w3.org/2000/svg">
<path fill-rule="evenodd" clip-rule="evenodd" d="M8.77797 4.67412C9.43576 4.2346 10.2091 4 11.0002 4C12.0611 4 13.0785 4.42143 13.8287 5.17157C14.5788 5.92172 15.0002 6.93913 15.0002 8C15.0002 8.79113 14.7657 9.56448 14.3261 10.2223C13.8866 10.8801 13.2619 11.3928 12.531 11.6955C11.8001 11.9983 10.9958 12.0775 10.2199 11.9231C9.44396 11.7688 8.73123 11.3878 8.17182 10.8284C7.61241 10.269 7.23145 9.55628 7.07711 8.78036C6.92276 8.00444 7.00198 7.20017 7.30473 6.46927C7.60748 5.73836 8.12017 5.11365 8.77797 4.67412ZM9.88911 9.66294C10.218 9.8827 10.6047 10 11.0002 10C11.5307 10 12.0394 9.78929 12.4145 9.41421C12.7895 9.03914 13.0002 8.53043 13.0002 8C13.0002 7.60444 12.8829 7.21776 12.6632 6.88886C12.4434 6.55996 12.1311 6.30362 11.7656 6.15224C11.4002 6.00087 10.998 5.96126 10.6101 6.03843C10.2221 6.1156 9.86574 6.30608 9.58603 6.58579C9.30633 6.86549 9.11585 7.22186 9.03868 7.60982C8.9615 7.99778 9.00111 8.39991 9.15249 8.76537C9.30386 9.13082 9.56021 9.44318 9.88911 9.66294Z" fill="#556980"/>
<path fill-rule="evenodd" clip-rule="evenodd" d="M11.0003 0C17.0003 0 21.6503 7.16 21.8403 7.46C21.9437 7.62113 21.9986 7.80855 21.9986 8C21.9986 8.19145 21.9437 8.37887 21.8403 8.54C21.6503 8.84 17.0003 16 11.0003 16C5.00029 16 0.350288 8.84 0.160288 8.54C0.0569076 8.37887 0.00195312 8.19145 0.00195312 8C0.00195312 7.80855 0.0569076 7.62113 0.160288 7.46C0.350288 7.16 5.00029 0 11.0003 0ZM2.22029 8C3.36029 9.56 6.94029 14 11.0003 14C15.0703 14 18.6503 9.57 19.7803 8C18.6403 6.44 15.0703 2 11.0003 2C6.93029 2 3.35029 6.43 2.22029 8Z" fill="#556980"/>
</svg>
