<svg width="18" height="18" viewBox="0 0 18 18" fill="none" xmlns="http://www.w3.org/2000/svg">
<path d="M2 16H10C10.2652 16 10.5196 16.1054 10.7071 16.2929C10.8946 16.4804 11 16.7348 11 17C11 17.2652 10.8946 17.5196 10.7071 17.7071C10.5196 17.8946 10.2652 18 10 18H1C0.734784 18 0.48043 17.8946 0.292893 17.7071C0.105357 17.5196 0 17.2652 0 17V1C0 0.734784 0.105357 0.48043 0.292893 0.292893C0.48043 0.105357 0.734784 0 1 0H10C10.2652 0 10.5196 0.105357 10.7071 0.292893C10.8946 0.48043 11 0.734784 11 1C11 1.26522 10.8946 1.51957 10.7071 1.70711C10.5196 1.89464 10.2652 2 10 2H2V16Z" fill="#E74C3C"/>
<path d="M12.71 4.29L16.71 8.29C16.8037 8.38297 16.8781 8.49357 16.9289 8.61543C16.9797 8.73728 17.0058 8.86799 17.0058 9C17.0058 9.13201 16.9797 9.26272 16.9289 9.38458C16.8781 9.50644 16.8037 9.61704 16.71 9.71L12.71 13.71C12.617 13.8037 12.5064 13.8781 12.3846 13.9289C12.2627 13.9797 12.132 14.0058 12 14.0058C11.868 14.0058 11.7373 13.9797 11.6154 13.9289C11.4936 13.8781 11.383 13.8037 11.29 13.71C11.1963 13.617 11.1219 13.5064 11.0711 13.3846C11.0203 13.2627 10.9942 13.132 10.9942 13C10.9942 12.868 11.0203 12.7373 11.0711 12.6154C11.1219 12.4936 11.1963 12.383 11.29 12.29L13.59 10H5C4.73478 10 4.48043 9.89465 4.29289 9.70711C4.10536 9.51957 4 9.26522 4 9C4 8.73479 4.10536 8.48043 4.29289 8.2929C4.48043 8.10536 4.73478 8 5 8H13.59L11.29 5.71C11.1017 5.5217 10.9959 5.2663 10.9959 5C10.9959 4.86814 11.0219 4.73758 11.0723 4.61575C11.1228 4.49393 11.1968 4.38324 11.29 4.29C11.4783 4.1017 11.7337 3.99591 12 3.99591C12.1319 3.99591 12.2624 4.02188 12.3842 4.07234C12.5061 4.1228 12.6168 4.19676 12.71 4.29Z" fill="#E74C3C"/>
</svg>
