<svg width="20" height="20" viewBox="0 0 20 20" fill="none" xmlns="http://www.w3.org/2000/svg">
<path d="M9.20041 19.51C7.8459 19.5161 6.50358 19.2541 5.25072 18.7392C3.99787 18.2244 2.85925 17.4667 1.90041 16.51C1.54053 16.147 1.20639 15.7594 0.900412 15.35C0.665103 15.0343 0.528196 14.6562 0.506849 14.2631C0.485502 13.87 0.580665 13.4793 0.780412 13.14C0.976269 12.7931 1.27127 12.5125 1.6276 12.3344C1.98394 12.1562 2.38536 12.0885 2.78041 12.14C4.05031 12.3169 5.34396 12.1957 6.55894 11.7861C7.77391 11.3765 8.87684 10.6897 9.78041 9.78C10.6927 8.87826 11.3812 7.77554 11.791 6.56004C12.2008 5.34454 12.3205 4.05001 12.1404 2.78C12.0889 2.38495 12.1566 1.98352 12.3348 1.62719C12.513 1.27086 12.7935 0.975855 13.1404 0.779998C13.4776 0.580957 13.8658 0.48528 14.2569 0.504834C14.648 0.524388 15.0247 0.658313 15.3404 0.889998C15.9138 1.31987 16.443 1.80558 16.9204 2.34C18.6365 4.28297 19.5618 6.79871 19.5137 9.39057C19.4655 11.9824 18.4475 14.4621 16.6604 16.34C15.7145 17.3382 14.5769 18.1352 13.3157 18.6834C12.0544 19.2315 10.6956 19.5195 9.32041 19.53L9.20041 19.51ZM2.54041 14.14C2.76937 14.4748 3.03062 14.7863 3.32041 15.07C4.10393 15.8544 5.03632 16.4743 6.0628 16.8933C7.08928 17.3122 8.18915 17.5218 9.29777 17.5097C10.4064 17.4976 11.5014 17.264 12.5185 16.8228C13.5356 16.3815 14.4542 15.7413 15.2204 14.94C16.6349 13.4139 17.4381 11.4205 17.4768 9.34005C17.5155 7.25961 16.7871 5.23771 15.4304 3.66C15.0431 3.22899 14.6144 2.8371 14.1504 2.49C14.3702 4.06782 14.2217 5.67511 13.7166 7.18597C13.2115 8.69683 12.3635 10.0702 11.239 11.1986C10.1145 12.327 8.74398 13.1798 7.23486 13.6901C5.72575 14.2004 4.11898 14.3544 2.54041 14.14Z" fill="#556980"/>
</svg>
