<svg width="9" height="13" viewBox="0 0 9 13" fill="none" xmlns="http://www.w3.org/2000/svg">
<path d="M2.00189 12.9999C1.87029 13.0007 1.73982 12.9755 1.61799 12.9257C1.49615 12.8759 1.38533 12.8026 1.29189 12.7099C1.19816 12.617 1.12377 12.5064 1.073 12.3845C1.02223 12.2627 0.996094 12.132 0.996094 11.9999C0.996094 11.8679 1.02223 11.7372 1.073 11.6154C1.12377 11.4935 1.19816 11.3829 1.29189 11.2899L5.59189 6.99994L1.29189 2.70994C1.10359 2.52164 0.997801 2.26624 0.997801 1.99994C0.997801 1.73364 1.10359 1.47825 1.29189 1.28994C1.4802 1.10164 1.73559 0.99585 2.00189 0.99585C2.26819 0.99585 2.52359 1.10164 2.71189 1.28994L7.71189 6.28994C7.80562 6.3829 7.88001 6.49351 7.93078 6.61536C7.98155 6.73722 8.00769 6.86793 8.00769 6.99994C8.00769 7.13195 7.98155 7.26266 7.93078 7.38452C7.88001 7.50638 7.80562 7.61698 7.71189 7.70994L2.71189 12.7099C2.61845 12.8026 2.50764 12.8759 2.3858 12.9257C2.26396 12.9755 2.1335 13.0007 2.00189 12.9999Z" fill="white"/>
</svg>
