<svg width="19" height="20" viewBox="0 0 19 20" fill="none" xmlns="http://www.w3.org/2000/svg">
<path d="M17.7141 17.29L1.71409 1.29C1.52579 1.1017 1.27039 0.995908 1.00409 0.995908C0.73779 0.995908 0.482395 1.1017 0.294091 1.29C0.105788 1.4783 1.98456e-09 1.7337 0 2C-1.98365e-09 2.2663 0.105788 2.5217 0.294091 2.71L1.00409 3.41V18C1.00409 18.5304 1.21481 19.0391 1.58988 19.4142C1.96495 19.7893 2.47366 20 3.00409 20H15.0041C15.3565 20.0014 15.703 19.9096 16.0086 19.734C16.3142 19.5584 16.5679 19.3052 16.7441 19C16.8305 19.0095 16.9177 19.0095 17.0041 19C17.1357 19.0008 17.2662 18.9755 17.388 18.9258C17.5098 18.876 17.6206 18.8027 17.7141 18.71C17.8078 18.617 17.8822 18.5064 17.933 18.3846C17.9838 18.2627 18.0099 18.132 18.0099 18C18.0099 17.868 17.9838 17.7373 17.933 17.6154C17.8822 17.4936 17.8078 17.383 17.7141 17.29ZM3.00409 18V5.42L7.59409 10H6.00409C5.73887 10 5.48452 10.1054 5.29698 10.2929C5.10945 10.4804 5.00409 10.7348 5.00409 11C5.00409 11.2652 5.10945 11.5196 5.29698 11.7071C5.48452 11.8946 5.73887 12 6.00409 12H9.59409L11.5941 14H6.00409C5.73887 14 5.48452 14.1054 5.29698 14.2929C5.10945 14.4804 5.00409 14.7348 5.00409 15C5.00409 15.2652 5.10945 15.5196 5.29698 15.7071C5.48452 15.8946 5.73887 16 6.00409 16H12.0041C12.2079 15.9979 12.4062 15.9335 12.5724 15.8156C12.7386 15.6976 12.8648 15.5317 12.9341 15.34L15.0041 17.4V18H3.00409Z" fill="#556980"/>
<path d="M4.41409 2H11.0041V5C11.0041 5.26522 11.1094 5.51957 11.297 5.70711C11.4845 5.89464 11.7389 6 12.0041 6H15.0041V12.58L17.0041 14.58V5C17.0041 5 17.0041 5 17.0041 4.94C16.9937 4.84813 16.9736 4.75763 16.9441 4.67V4.58C16.8938 4.4754 16.8299 4.37789 16.7541 4.29L12.7541 0.29C12.6662 0.214192 12.5687 0.150308 12.4641 0.0999999C12.4342 0.0957601 12.4039 0.0957601 12.3741 0.0999999L12.0641 0H3.00409C2.80341 0.00229213 2.60432 0.0360351 2.41409 0.0999999C2.51869 0.150308 2.6162 0.214192 2.70409 0.29L4.41409 2Z" fill="#556980"/>
</svg>
