<svg width="19" height="19" viewBox="0 0 19 19" fill="none" xmlns="http://www.w3.org/2000/svg">
<path d="M17.71 5.86L13.14 1.29C13.0471 1.19627 12.9365 1.12188 12.8146 1.07111C12.6927 1.02034 12.562 0.994202 12.43 0.994202C12.298 0.994202 12.1673 1.02034 12.0454 1.07111C11.9236 1.12188 11.813 1.19627 11.72 1.29L0.290017 12.72C0.197335 12.8134 0.12401 12.9243 0.0742455 13.0461C0.0244809 13.1679 -0.000744179 13.2984 1.67143e-05 13.43V18C1.67143e-05 18.2652 0.105374 18.5196 0.29291 18.7071C0.480446 18.8946 0.7348 19 1.00002 19H5.57002C5.70162 19.0008 5.83209 18.9755 5.95392 18.9258C6.07576 18.876 6.18658 18.8027 6.28002 18.71L17.71 7.28C17.8037 7.18704 17.8781 7.07644 17.9289 6.95458C17.9797 6.83272 18.0058 6.70201 18.0058 6.57C18.0058 6.43799 17.9797 6.30728 17.9289 6.18542C17.8781 6.06356 17.8037 5.95296 17.71 5.86ZM5.16002 17H2.00002V13.84L9.38002 6.46L12.54 9.62L5.16002 17ZM14 8.21L10.79 5.05L12.43 3.41L15.59 6.57L14 8.21Z" fill="white"/>
</svg>
