<svg width="20" height="20" viewBox="0 0 20 20" fill="none" xmlns="http://www.w3.org/2000/svg">
<path d="M10 0C8.02219 0 6.08879 0.58649 4.4443 1.6853C2.79981 2.78412 1.51809 4.3459 0.761209 6.17317C0.00433284 8.00043 -0.193701 10.0111 0.192152 11.9509C0.578004 13.8907 1.53041 15.6725 2.92894 17.0711C4.32746 18.4696 6.10929 19.422 8.0491 19.8079C9.98891 20.1937 11.9996 19.9957 13.8268 19.2388C15.6541 18.4819 17.2159 17.2002 18.3147 15.5557C19.4135 13.9112 20 11.9778 20 10C20 8.68678 19.7413 7.38642 19.2388 6.17317C18.7363 4.95991 17.9997 3.85752 17.0711 2.92893C16.1425 2.00035 15.0401 1.26375 13.8268 0.761205C12.6136 0.258658 11.3132 0 10 0ZM10 2C11.4891 2.00182 12.9482 2.41924 14.213 3.20526C15.4777 3.99128 16.498 5.11471 17.159 6.44911C17.8199 7.7835 18.0953 9.2759 17.9542 10.7583C17.813 12.2407 17.2609 13.6543 16.36 14.84C14.4728 13.602 12.2567 12.9609 10 13C7.74335 12.9609 5.52719 13.602 3.64 14.84C2.73908 13.6543 2.18698 12.2407 2.04583 10.7583C1.90467 9.2759 2.18007 7.7835 2.84104 6.44911C3.502 5.11471 4.52228 3.99128 5.78706 3.20526C7.05183 2.41924 8.51088 2.00182 10 2ZM5.07 16.29C6.56341 15.4147 8.2693 14.9684 10 15C11.7307 14.9684 13.4366 15.4147 14.93 16.29C13.5226 17.3913 11.787 17.9896 10 17.9896C8.21297 17.9896 6.47739 17.3913 5.07 16.29Z" fill="#556980"/>
<path d="M10 12C10.7911 12 11.5645 11.7654 12.2223 11.3259C12.8801 10.8864 13.3928 10.2616 13.6955 9.53073C13.9983 8.79983 14.0775 7.99556 13.9231 7.21964C13.7688 6.44371 13.3878 5.73098 12.8284 5.17157C12.269 4.61216 11.5563 4.2312 10.7804 4.07686C10.0044 3.92252 9.20018 4.00173 8.46927 4.30448C7.73837 4.60723 7.11365 5.11992 6.67413 5.77772C6.2346 6.43552 6 7.20887 6 8C6 9.06087 6.42143 10.0783 7.17158 10.8284C7.92172 11.5786 8.93914 12 10 12ZM10 6C10.3956 6 10.7822 6.1173 11.1111 6.33706C11.44 6.55682 11.6964 6.86918 11.8478 7.23463C11.9991 7.60009 12.0387 8.00222 11.9616 8.39018C11.8844 8.77814 11.6939 9.13451 11.4142 9.41421C11.1345 9.69392 10.7781 9.8844 10.3902 9.96157C10.0022 10.0387 9.60009 9.99913 9.23464 9.84776C8.86919 9.69638 8.55683 9.44004 8.33707 9.11114C8.1173 8.78224 8 8.39556 8 8C8 7.46957 8.21072 6.96086 8.58579 6.58579C8.96086 6.21071 9.46957 6 10 6Z" fill="#556980"/>
</svg>
