<svg width="14" height="18" viewBox="0 0 14 18" fill="none" xmlns="http://www.w3.org/2000/svg">
<path d="M2 17.13C1.67172 17.1284 1.34889 17.0459 1.06 16.89C0.740642 16.72 0.473395 16.4665 0.286727 16.1565C0.10006 15.8466 0.000965421 15.4918 0 15.13V2.87001C0.000668945 2.50826 0.0994387 2.15347 0.285791 1.84341C0.472143 1.53336 0.7391 1.27965 1.05823 1.10931C1.37736 0.938972 1.73672 0.858376 2.09803 0.876108C2.45934 0.893839 2.80908 1.00924 3.11 1.21001L12.3 7.33001C12.5764 7.51217 12.8033 7.76011 12.9603 8.05159C13.1173 8.34306 13.1995 8.66894 13.1995 9C13.1995 9.33107 13.1173 9.65695 12.9603 9.94842C12.8033 10.2399 12.5764 10.4878 12.3 10.67L3.11 16.79C2.78338 17.014 2.39603 17.1326 2 17.13ZM2 2.87001V15.13L11.19 9L2 2.87001Z" fill="white"/>
</svg>
