<svg width="12" height="12" viewBox="0 0 12 12" fill="none" xmlns="http://www.w3.org/2000/svg">
<path d="M10.666 5.33332H6.66602V1.33332C6.66602 1.15651 6.59578 0.986943 6.47075 0.861919C6.34573 0.736895 6.17616 0.666656 5.99935 0.666656C5.82254 0.666656 5.65297 0.736895 5.52794 0.861919C5.40292 0.986943 5.33268 1.15651 5.33268 1.33332V5.33332H1.33268C1.15587 5.33332 0.986302 5.40356 0.861278 5.52858C0.736254 5.65361 0.666016 5.82318 0.666016 5.99999C0.666016 6.1768 0.736254 6.34637 0.861278 6.47139C0.986302 6.59642 1.15587 6.66666 1.33268 6.66666H5.33268V10.6667C5.33268 10.8435 5.40292 11.013 5.52794 11.1381C5.65297 11.2631 5.82254 11.3333 5.99935 11.3333C6.17616 11.3333 6.34573 11.2631 6.47075 11.1381C6.59578 11.013 6.66602 10.8435 6.66602 10.6667V6.66666H10.666C10.8428 6.66666 11.0124 6.59642 11.1374 6.47139C11.2624 6.34637 11.3327 6.1768 11.3327 5.99999C11.3327 5.82318 11.2624 5.65361 11.1374 5.52858C11.0124 5.40356 10.8428 5.33332 10.666 5.33332Z" fill="white"/>
</svg>
