<svg width="16" height="10" viewBox="0 0 16 10" fill="none" xmlns="http://www.w3.org/2000/svg">
<path d="M15.6576 0.957552C15.5879 0.887256 15.5049 0.83146 15.4135 0.793383C15.3221 0.755307 15.2241 0.735703 15.1251 0.735703C15.0261 0.735703 14.9281 0.755307 14.8367 0.793383C14.7453 0.83146 14.6623 0.887256 14.5926 0.957552L8.09761 7.45255L5.15761 4.50505C5.08788 4.43476 5.00493 4.37896 4.91354 4.34088C4.82214 4.30281 4.72411 4.2832 4.62511 4.2832C4.5261 4.2832 4.42807 4.30281 4.33667 4.34088C4.24528 4.37896 4.16233 4.43476 4.09261 4.50505C3.95292 4.64557 3.87451 4.83566 3.87451 5.0338C3.87451 5.23194 3.95292 5.42203 4.09261 5.56255L7.57261 9.04255C7.71313 9.18224 7.90322 9.26065 8.10136 9.26065C8.29949 9.26065 8.48958 9.18224 8.63011 9.04255L15.6576 2.00005C15.7928 1.8602 15.8683 1.67331 15.8683 1.4788C15.8683 1.2843 15.7928 1.0974 15.6576 0.957552Z" fill="#21B1AC"/>
<path d="M0.342606 4.50505C0.202918 4.64557 0.124512 4.83566 0.124512 5.0338C0.124512 5.23194 0.202918 5.42203 0.342606 5.56255L3.82261 9.04255C3.96313 9.18224 4.15322 9.26064 4.35136 9.26064C4.5495 9.26064 4.73958 9.18224 4.88011 9.04255L5.41261 8.51005L1.40761 4.50505C1.33788 4.43476 1.25493 4.37896 1.16354 4.34088C1.07214 4.30281 0.974115 4.2832 0.875106 4.2832C0.776097 4.2832 0.678068 4.30281 0.586674 4.34088C0.495279 4.37896 0.412328 4.43476 0.342606 4.50505Z" fill="#21B1AC"/>
<path d="M11.9076 2.00005C12.0473 1.85953 12.1257 1.66944 12.1257 1.4713C12.1257 1.27316 12.0473 1.08307 11.9076 0.942552C11.8379 0.872256 11.7549 0.81646 11.6635 0.778383C11.5721 0.740307 11.4741 0.720703 11.3751 0.720703C11.2761 0.720703 11.1781 0.740307 11.0867 0.778383C10.9953 0.81646 10.9123 0.872256 10.8426 0.942552L6.97261 4.81255L8.03761 5.87005L11.9076 2.00005Z" fill="#21B1AC"/>
</svg>
