<svg width="22" height="18" viewBox="0 0 22 18" fill="none" xmlns="http://www.w3.org/2000/svg">
<path d="M12.0001 7.50924e-05C7.27009 7.50924e-05 3.82009 3.86007 3.13009 7.82007L2.35009 7.00007C2.16272 6.81382 1.90927 6.70928 1.64509 6.70928C1.3809 6.70928 1.12745 6.81382 0.940085 7.00007C0.846357 7.09304 0.771963 7.20364 0.721194 7.3255C0.670425 7.44736 0.644287 7.57806 0.644287 7.71007C0.644287 7.84209 0.670425 7.97279 0.721194 8.09465C0.771963 8.21651 0.846357 8.32711 0.940085 8.42008L3.44009 11.0001C3.53353 11.0928 3.64434 11.1661 3.76618 11.2158C3.88802 11.2656 4.01848 11.2908 4.15009 11.2901C4.41243 11.289 4.66382 11.1848 4.85009 11.0001L7.35009 8.50008C7.44381 8.40711 7.51821 8.29651 7.56898 8.17465C7.61975 8.05279 7.64588 7.92209 7.64588 7.79007C7.64588 7.65806 7.61975 7.52736 7.56898 7.4055C7.51821 7.28364 7.44381 7.17304 7.35009 7.08007C7.16272 6.89382 6.90927 6.78928 6.64509 6.78928C6.3809 6.78928 6.12745 6.89382 5.94009 7.08007L5.17009 7.85008C5.81009 5.07008 8.18009 2.00008 12.0001 2.00008C13.8566 2.00008 15.6371 2.73757 16.9498 4.05033C18.2626 5.36308 19.0001 7.14356 19.0001 9.00008C19.0001 10.8566 18.2626 12.6371 16.9498 13.9498C15.6371 15.2626 13.8566 16.0001 12.0001 16.0001C10.4052 15.9836 8.86229 15.4305 7.62009 14.4301C7.41189 14.2656 7.1469 14.1906 6.88341 14.2216C6.61992 14.2525 6.37952 14.3869 6.21509 14.5951C6.05065 14.8033 5.97566 15.0683 6.0066 15.3317C6.03754 15.5952 6.17189 15.8356 6.38009 16.0001C7.50117 16.906 8.82344 17.5295 10.2357 17.8179C11.6479 18.1064 13.1087 18.0514 14.4953 17.6577C15.8818 17.264 17.1535 16.543 18.2034 15.5554C19.2533 14.5678 20.0506 13.3425 20.5283 11.9826C21.0059 10.6227 21.15 9.16793 20.9483 7.74073C20.7466 6.31354 20.2051 4.95566 19.3693 3.78134C18.5336 2.60702 17.428 1.65061 16.1455 0.992593C14.8631 0.334573 13.4414 -0.00581234 12.0001 7.50924e-05Z" fill="#E74C3C"/>
<path d="M9.29009 11.7101C9.38305 11.8038 9.49365 11.8782 9.61551 11.929C9.73737 11.9797 9.86807 12.0059 10.0001 12.0059C10.1321 12.0059 10.2628 11.9797 10.3847 11.929C10.5065 11.8782 10.6171 11.8038 10.7101 11.7101L12.0001 10.4101L13.2901 11.7101C13.383 11.8038 13.4936 11.8782 13.6155 11.929C13.7374 11.9797 13.8681 12.0059 14.0001 12.0059C14.1321 12.0059 14.2628 11.9797 14.3847 11.929C14.5065 11.8782 14.6171 11.8038 14.7101 11.7101C14.8038 11.6171 14.8782 11.5065 14.929 11.3847C14.9797 11.2628 15.0059 11.1321 15.0059 11.0001C15.0059 10.8681 14.9797 10.7374 14.929 10.6155C14.8782 10.4936 14.8038 10.383 14.7101 10.2901L13.4101 9.00008L14.7101 7.71007C14.8984 7.52177 15.0042 7.26638 15.0042 7.00007C15.0042 6.73377 14.8984 6.47838 14.7101 6.29007C14.5218 6.10177 14.2664 5.99598 14.0001 5.99598C13.7338 5.99598 13.4784 6.10177 13.2901 6.29007L12.0001 7.59008L10.7101 6.29007C10.5218 6.10177 10.2664 5.99598 10.0001 5.99598C9.73378 5.99598 9.47839 6.10177 9.29009 6.29007C9.10178 6.47838 8.99599 6.73377 8.99599 7.00007C8.99599 7.26638 9.10178 7.52177 9.29009 7.71007L10.5901 9.00008L9.29009 10.2901C9.19636 10.383 9.12196 10.4936 9.07119 10.6155C9.02043 10.7374 8.99429 10.8681 8.99429 11.0001C8.99429 11.1321 9.02043 11.2628 9.07119 11.3847C9.12196 11.5065 9.19636 11.6171 9.29009 11.7101Z" fill="#E74C3C"/>
</svg>
