<svg width="23" height="20" viewBox="0 0 23 20" fill="none" xmlns="http://www.w3.org/2000/svg">
<path d="M11.25 7.99988V11.9999C11.25 12.1988 11.329 12.3896 11.4697 12.5302C11.6103 12.6709 11.8011 12.7499 12 12.7499C12.1989 12.7499 12.3897 12.6709 12.5303 12.5302C12.671 12.3896 12.75 12.1988 12.75 11.9999V7.99988C12.75 7.80097 12.671 7.6102 12.5303 7.46955C12.3897 7.3289 12.1989 7.24988 12 7.24988C11.8011 7.24988 11.6103 7.3289 11.4697 7.46955C11.329 7.6102 11.25 7.80097 11.25 7.99988Z" fill="#E74C3C"/>
<path d="M13 14.9999C13 15.5522 12.5523 15.9999 12 15.9999C11.4477 15.9999 11 15.5522 11 14.9999C11 14.4476 11.4477 13.9999 12 13.9999C12.5523 13.9999 13 14.4476 13 14.9999Z" fill="#E74C3C"/>
<path fill-rule="evenodd" clip-rule="evenodd" d="M22.8701 18.5099L12.8701 0.509878C12.7829 0.35598 12.6564 0.227972 12.5035 0.138912C12.3507 0.049853 12.177 0.00292969 12.0001 0.00292969C11.8232 0.00292969 11.6494 0.049853 11.4966 0.138912C11.3438 0.227972 11.2173 0.35598 11.1301 0.509878L1.13007 18.5099C1.0423 18.6619 0.996094 18.8343 0.996094 19.0099C0.996094 19.1854 1.0423 19.3579 1.13007 19.5099C1.21943 19.6606 1.34684 19.7852 1.49953 19.8712C1.65223 19.9572 1.82483 20.0016 2.00007 19.9999H22.0001C22.1736 19.9998 22.3442 19.9547 22.4949 19.8687C22.6457 19.7828 22.7716 19.6592 22.8601 19.5099C22.9494 19.3587 22.9973 19.1868 22.9991 19.0112C23.0008 18.8357 22.9563 18.6628 22.8701 18.5099ZM3.70007 17.9999L12.0001 3.05988L20.3001 17.9999H3.70007Z" fill="#E74C3C"/>
</svg>
