<svg width="22" height="20" viewBox="0 0 22 20" fill="none" xmlns="http://www.w3.org/2000/svg">
<path d="M20.6797 18.1L16.5397 14C17.8284 12.3317 18.4651 10.2511 18.3308 8.14731C18.1964 6.04354 17.3002 4.0608 15.8097 2.57001C14.8009 1.55861 13.558 0.811855 12.1913 0.395979C10.8246 -0.0198974 9.37644 -0.0920346 7.97521 0.185967C6.57398 0.463968 5.26302 1.08351 4.15863 1.98964C3.05425 2.89577 2.19058 4.06047 1.64424 5.38041C1.0979 6.70035 0.88579 8.13474 1.02672 9.55631C1.16764 10.9779 1.65725 12.3427 2.45211 13.5297C3.24697 14.7167 4.32251 15.6891 5.58331 16.3608C6.84411 17.0324 8.25119 17.3825 9.67973 17.38C11.6093 17.3808 13.483 16.7328 14.9997 15.54L19.1297 19.68C19.3421 19.8841 19.6252 19.9981 19.9197 19.9981C20.2143 19.9981 20.4974 19.8841 20.7097 19.68C20.9122 19.465 21.0225 19.1792 21.0168 18.8839C21.0112 18.5886 20.8902 18.3072 20.6797 18.1ZM5.10973 13.24C4.05247 12.1837 3.39416 10.7935 3.24696 9.30629C3.09976 7.81906 3.47277 6.32679 4.30244 5.08374C5.13212 3.84068 6.36712 2.92375 7.79704 2.48917C9.22696 2.05458 10.7633 2.12922 12.1444 2.70038C13.5254 3.27154 14.6657 4.30388 15.371 5.6215C16.0763 6.93913 16.3029 8.46053 16.0122 9.92649C15.7215 11.3925 14.9315 12.7123 13.7768 13.6611C12.6222 14.6099 11.1742 15.129 9.67973 15.13C8.83118 15.1306 7.99084 14.9639 7.20671 14.6396C6.42258 14.3153 5.71001 13.8397 5.10973 13.24Z" fill="#556980"/>
</svg>
