<svg width="18" height="18" viewBox="0 0 18 18" fill="none" xmlns="http://www.w3.org/2000/svg">
<path d="M17.4499 8.10997L1.44995 0.109973C1.25895 0.0149952 1.04259 -0.0164217 0.832472 0.020312C0.622352 0.0570457 0.429484 0.160005 0.282041 0.31415C0.134599 0.468294 0.0403088 0.665546 0.0129454 0.87709C-0.014418 1.08863 0.0265792 1.30339 0.129948 1.48997L4.29995 8.99997L0.129948 16.51C0.0253188 16.6968 -0.0165771 16.9123 0.0104256 17.1247C0.0374282 17.3371 0.131903 17.5353 0.279948 17.69C0.372894 17.7875 0.484581 17.8652 0.608306 17.9185C0.732031 17.9717 0.865243 17.9995 0.999948 18C1.15682 18.0019 1.31163 17.964 1.44995 17.89L17.4499 9.88997C17.6138 9.80606 17.7512 9.67856 17.8472 9.52153C17.9432 9.3645 17.994 9.18402 17.994 8.99997C17.994 8.81593 17.9432 8.63545 17.8472 8.47842C17.7512 8.32139 17.6138 8.19389 17.4499 8.10997ZM3.44995 3.33997L12.7599 7.99997H5.99995L3.44995 3.33997ZM5.99995 9.99997H12.7299L3.43995 14.66L5.99995 9.99997Z" fill="white"/>
</svg>
