<svg width="20" height="20" viewBox="0 0 20 20" fill="none" xmlns="http://www.w3.org/2000/svg">
<path d="M10 0C8.02219 0 6.08879 0.58649 4.4443 1.6853C2.79981 2.78412 1.51809 4.3459 0.761209 6.17317C0.00433284 8.00043 -0.193701 10.0111 0.192152 11.9509C0.578004 13.8907 1.53041 15.6725 2.92894 17.0711C4.32746 18.4696 6.10929 19.422 8.0491 19.8079C9.98891 20.1937 11.9996 19.9957 13.8268 19.2388C15.6541 18.4819 17.2159 17.2002 18.3147 15.5557C19.4135 13.9112 20 11.9778 20 10C20 8.68678 19.7413 7.38642 19.2388 6.17317C18.7363 4.95991 17.9997 3.85752 17.0711 2.92893C16.1425 2.00035 15.0401 1.26375 13.8268 0.761205C12.6136 0.258658 11.3132 0 10 0ZM10 18C8.41775 18 6.87104 17.5308 5.55544 16.6518C4.23985 15.7727 3.21447 14.5233 2.60897 13.0615C2.00347 11.5997 1.84504 9.99113 2.15372 8.43928C2.4624 6.88743 3.22433 5.46197 4.34315 4.34315C5.46197 3.22433 6.88743 2.4624 8.43928 2.15372C9.99113 1.84504 11.5997 2.00346 13.0615 2.60896C14.5233 3.21447 15.7727 4.23984 16.6518 5.55544C17.5308 6.87103 18 8.41775 18 10C18 12.1217 17.1572 14.1566 15.6569 15.6569C14.1566 17.1571 12.1217 18 10 18Z" fill="#556980"/>
<path d="M14.5 12.48C14.3865 12.4135 14.2609 12.37 14.1305 12.3521C14.0002 12.3342 13.8675 12.3422 13.7403 12.3756C13.613 12.4091 13.4936 12.4673 13.3889 12.547C13.2841 12.6267 13.1962 12.7262 13.13 12.84C12.8137 13.3905 12.3577 13.8478 11.8082 14.1659C11.2586 14.4839 10.6349 14.6513 10 14.6513C9.36508 14.6513 8.74138 14.4839 8.19184 14.1659C7.6423 13.8478 7.18635 13.3905 6.87 12.84C6.7374 12.6093 6.51856 12.4407 6.26163 12.3713C6.00471 12.3019 5.73074 12.3374 5.5 12.47C5.26927 12.6026 5.10066 12.8214 5.03127 13.0784C4.96188 13.3353 4.9974 13.6093 5.13 13.84C5.62692 14.6907 6.33798 15.3963 7.19241 15.8868C8.04685 16.3772 9.01483 16.6352 10 16.6352C10.9852 16.6352 11.9532 16.3772 12.8076 15.8868C13.662 15.3963 14.3731 14.6907 14.87 13.84C15.0004 13.6104 15.0346 13.3385 14.9653 13.0837C14.896 12.8289 14.7287 12.6119 14.5 12.48Z" fill="#556980"/>
<path d="M6.5 9C7.32843 9 8 8.32843 8 7.5C8 6.67157 7.32843 6 6.5 6C5.67158 6 5 6.67157 5 7.5C5 8.32843 5.67158 9 6.5 9Z" fill="#556980"/>
<path d="M13.5 9C14.3284 9 15 8.32843 15 7.5C15 6.67157 14.3284 6 13.5 6C12.6716 6 12 6.67157 12 7.5C12 8.32843 12.6716 9 13.5 9Z" fill="#556980"/>
</svg>
