<svg width="16" height="25" viewBox="0 0 16 25" fill="none" xmlns="http://www.w3.org/2000/svg">
<path d="M2.99988 25C2.73666 25.0015 2.47574 24.9511 2.23207 24.8515C1.98839 24.752 1.76676 24.6054 1.57988 24.42C1.39242 24.2341 1.24363 24.0129 1.1421 23.7692C1.04056 23.5254 0.988281 23.264 0.988281 23C0.988281 22.736 1.04056 22.4746 1.1421 22.2308C1.24363 21.9871 1.39242 21.7659 1.57988 21.58L10.1799 13L1.57988 4.42C1.20327 4.0434 0.991695 3.53261 0.991695 3C0.991695 2.4674 1.20327 1.95661 1.57988 1.58C1.95649 1.2034 2.46727 0.991821 2.99988 0.991821C3.53248 0.991821 4.04327 1.2034 4.41988 1.58L14.4199 11.58C14.6073 11.7659 14.7561 11.9871 14.8577 12.2309C14.9592 12.4746 15.0115 12.736 15.0115 13C15.0115 13.264 14.9592 13.5254 14.8577 13.7692C14.7561 14.0129 14.6073 14.2341 14.4199 14.42L4.41988 24.42C4.233 24.6054 4.01137 24.752 3.76769 24.8515C3.52402 24.9511 3.26309 25.0015 2.99988 25Z" fill="white"/>
</svg>
