<svg width="16" height="25" viewBox="0 0 16 25" fill="none" xmlns="http://www.w3.org/2000/svg">
<path d="M13.0001 0.991817C13.2633 0.990295 13.5243 1.04074 13.7679 1.14027C14.0116 1.2398 14.2332 1.38646 14.4201 1.57182C14.6076 1.75775 14.7564 1.97894 14.8579 2.22266C14.9594 2.46638 15.0117 2.72779 15.0117 2.99182C15.0117 3.25584 14.9594 3.51725 14.8579 3.76097C14.7564 4.00469 14.6076 4.22589 14.4201 4.41182L5.82012 12.9918L14.4201 21.5718C14.7967 21.9484 15.0083 22.4592 15.0083 22.9918C15.0083 23.5244 14.7967 24.0352 14.4201 24.4118C14.0435 24.7884 13.5327 25 13.0001 25C12.4675 25 11.9567 24.7884 11.5801 24.4118L1.58012 14.4118C1.39266 14.2259 1.24388 14.0047 1.14234 13.761C1.0408 13.5173 0.988525 13.2558 0.988525 12.9918C0.988525 12.7278 1.0408 12.4664 1.14234 12.2227C1.24388 11.9789 1.39267 11.7577 1.58012 11.5718L11.5801 1.57182C11.767 1.38646 11.9886 1.2398 12.2323 1.14027C12.476 1.04074 12.7369 0.990295 13.0001 0.991817Z" fill="white"/>
</svg>
