<svg width="16" height="14" viewBox="0 0 16 14" fill="none" xmlns="http://www.w3.org/2000/svg">
<path d="M5.02857 13.9999C11.0743 13.9999 14.3771 8.60994 14.3771 3.9433C14.3771 3.79164 14.3771 3.63997 14.3771 3.48831C15.0202 2.98077 15.5697 2.36057 16 1.65665C15.4026 1.93919 14.7669 2.12798 14.1143 2.21665C14.8099 1.76176 15.3213 1.06576 15.5543 0.256665C14.9196 0.684153 14.2152 0.992336 13.4743 1.16666C13.1795 0.807984 12.8127 0.518185 12.3986 0.316897C11.9845 0.115609 11.5329 0.00753532 11.0743 0C10.191 0.0391106 9.3566 0.425052 8.74541 1.07723C8.13421 1.72942 7.79346 2.59741 7.79429 3.49997C7.79711 3.77022 7.82389 4.03965 7.87429 4.30497C6.56005 4.22511 5.27821 3.85645 4.11644 3.2242C2.95466 2.59195 1.94034 1.71102 1.14286 0.641662C0.85634 1.19108 0.707163 1.80423 0.708571 2.42665C0.697685 2.9966 0.820662 3.56092 1.06721 4.07241C1.31376 4.5839 1.67672 5.02768 2.12571 5.36663C1.60217 5.34663 1.09167 5.1943 0.64 4.9233C0.618937 5.72756 0.869952 6.51468 1.35079 7.15215C1.83163 7.78962 2.51293 8.23851 3.28 8.42327C2.99781 8.50746 2.70542 8.55066 2.41143 8.5516C2.20376 8.55271 1.99666 8.52922 1.79429 8.4816C1.98501 9.16838 2.38434 9.77563 2.93477 10.2159C3.48519 10.6562 4.15829 10.9068 4.85714 10.9316C3.71879 11.9115 2.2776 12.4487 0.788572 12.4482C0.526013 12.4663 0.262558 12.4663 0 12.4482C1.48607 13.468 3.23796 14.0086 5.02857 13.9999Z" fill="white"/>
</svg>
