<svg width="12" height="10" viewBox="0 0 12 10" fill="none" xmlns="http://www.w3.org/2000/svg">
<path d="M4.22261 9.25994C4.02585 9.25912 3.8373 9.181 3.69761 9.04244L0.217606 5.56244C0.077918 5.42192 -0.000488281 5.23183 -0.000488281 5.03369C-0.000488281 4.83555 0.077918 4.64547 0.217606 4.50494C0.287328 4.43465 0.370279 4.37885 0.461674 4.34078C0.553068 4.3027 0.651097 4.2831 0.750106 4.2831C0.849115 4.2831 0.947144 4.3027 1.03854 4.34078C1.12993 4.37885 1.21288 4.43465 1.28261 4.50494L4.22261 7.45244L10.7176 0.957444C10.7873 0.887148 10.8703 0.831352 10.9617 0.793276C11.0531 0.755199 11.1511 0.735596 11.2501 0.735596C11.3491 0.735596 11.4471 0.755199 11.5385 0.793276C11.6299 0.831352 11.7129 0.887148 11.7826 0.957444C11.9223 1.09797 12.0007 1.28806 12.0007 1.48619C12.0007 1.68433 11.9223 1.87442 11.7826 2.01494L4.75511 9.04244C4.68503 9.11195 4.60191 9.16695 4.51054 9.20427C4.41916 9.2416 4.32131 9.26052 4.22261 9.25994Z" fill="#21B1AC"/>
</svg>
