<svg width="19" height="19" viewBox="0 0 19 19" fill="none" xmlns="http://www.w3.org/2000/svg">
<path d="M7.5 11.0002C8.39002 11.0002 9.26005 10.7363 10.0001 10.2418C10.7401 9.74733 11.3169 9.04453 11.6575 8.22226C11.9981 7.39999 12.0872 6.49519 11.9135 5.62228C11.7399 4.74936 11.3113 3.94754 10.682 3.3182C10.0526 2.68887 9.25082 2.26029 8.37791 2.08665C7.50499 1.91302 6.60019 2.00213 5.77792 2.34273C4.95566 2.68332 4.25285 3.2601 3.75839 4.00012C3.26392 4.74014 3 5.61017 3 6.50019C3.00264 7.69285 3.4776 8.83591 4.32094 9.67925C5.16428 10.5226 6.30734 10.9975 7.5 11.0002ZM7.5 4.00019C7.99445 4.00019 8.4778 4.14681 8.88893 4.42151C9.30005 4.69622 9.62048 5.08666 9.8097 5.54348C9.99892 6.00029 10.0484 6.50296 9.95196 6.98791C9.8555 7.47286 9.6174 7.91832 9.26777 8.26795C8.91814 8.61758 8.47268 8.85569 7.98773 8.95215C7.50277 9.04861 7.00011 8.9991 6.54329 8.80988C6.08648 8.62067 5.69603 8.30023 5.42133 7.88911C5.14662 7.47799 5 6.99464 5 6.50019C5 5.83714 5.26339 5.20126 5.73223 4.73242C6.20107 4.26358 6.83696 4.00019 7.5 4.00019Z" fill="#556980"/>
<path d="M9 12.0002H6C4.4087 12.0002 2.88258 12.6323 1.75736 13.7575C0.632141 14.8828 0 16.4089 0 18.0002C0 18.2654 0.105357 18.5198 0.292893 18.7073C0.48043 18.8948 0.734784 19.0002 1 19.0002H14C14.2652 19.0002 14.5196 18.8948 14.7071 18.7073C14.8946 18.5198 15 18.2654 15 18.0002C15 16.4089 14.3679 14.8828 13.2426 13.7575C12.1174 12.6323 10.5913 12.0002 9 12.0002ZM2.13 17.0002C2.35157 16.1421 2.85186 15.3818 3.55231 14.8388C4.25277 14.2958 5.11373 14.0008 6 14.0002H9C9.88627 14.0008 10.7472 14.2958 11.4477 14.8388C12.1481 15.3818 12.6484 16.1421 12.87 17.0002H2.13Z" fill="#556980"/>
<path d="M17 3.41019L17.71 2.71019C17.8983 2.52188 18.0041 2.26649 18.0041 2.00019C18.0041 1.73388 17.8983 1.47849 17.71 1.29019C17.5217 1.10188 17.2663 0.996094 17 0.996094C16.7337 0.996094 16.4783 1.10188 16.29 1.29019L15.59 2.00019L14.88 1.29019C14.7868 1.19695 14.6761 1.12299 14.5542 1.07253C14.4324 1.02207 14.3019 0.996094 14.17 0.996094C14.0381 0.996094 13.9076 1.02207 13.7858 1.07253C13.6639 1.12299 13.5532 1.19695 13.46 1.29019C13.3668 1.38342 13.2928 1.49411 13.2423 1.61594C13.1919 1.73776 13.1659 1.86833 13.1659 2.00019C13.1659 2.13204 13.1919 2.26261 13.2423 2.38443C13.2928 2.50626 13.3668 2.61695 13.46 2.71019L14.17 3.41019L13.46 4.12019C13.3663 4.21315 13.2919 4.32375 13.2411 4.44561C13.1903 4.56747 13.1642 4.69817 13.1642 4.83019C13.1642 4.9622 13.1903 5.0929 13.2411 5.21476C13.2919 5.33662 13.3663 5.44722 13.46 5.54019C13.5534 5.63287 13.6643 5.70619 13.7861 5.75596C13.9079 5.80572 14.0384 5.83095 14.17 5.83019C14.3016 5.83095 14.4321 5.80572 14.5539 5.75596C14.6757 5.70619 14.7866 5.63287 14.88 5.54019L15.59 4.83019L16.29 5.54019C16.383 5.63391 16.4936 5.70831 16.6154 5.75908C16.7373 5.80985 16.868 5.83598 17 5.83598C17.132 5.83598 17.2627 5.80985 17.3846 5.75908C17.5064 5.70831 17.617 5.63391 17.71 5.54019C17.8037 5.44722 17.8781 5.33662 17.9289 5.21476C17.9797 5.0929 18.0058 4.9622 18.0058 4.83019C18.0058 4.69817 17.9797 4.56747 17.9289 4.44561C17.8781 4.32375 17.8037 4.21315 17.71 4.12019L17 3.41019Z" fill="#556980"/>
</svg>
