<svg width="24" height="20" viewBox="0 0 24 20" fill="none" xmlns="http://www.w3.org/2000/svg">
<path fill-rule="evenodd" clip-rule="evenodd" d="M9.77772 6.67412C10.4355 6.2346 11.2089 6 12 6C13.0609 6 14.0783 6.42143 14.8284 7.17157C15.5786 7.92172 16 8.93913 16 10C16 10.7911 15.7654 11.5645 15.3259 12.2223C14.8864 12.8801 14.2616 13.3928 13.5307 13.6955C12.7998 13.9983 11.9956 14.0775 11.2196 13.9231C10.4437 13.7688 9.73098 13.3878 9.17157 12.8284C8.61216 12.269 8.2312 11.5563 8.07686 10.7804C7.92252 10.0044 8.00173 9.20017 8.30448 8.46927C8.60723 7.73836 9.11992 7.11365 9.77772 6.67412ZM10.8889 11.6629C11.2178 11.8827 11.6044 12 12 12C12.5304 12 13.0391 11.7893 13.4142 11.4142C13.7893 11.0391 14 10.5304 14 10C14 9.60444 13.8827 9.21776 13.6629 8.88886C13.4432 8.55996 13.1308 8.30362 12.7654 8.15224C12.3999 8.00087 11.9978 7.96126 11.6098 8.03843C11.2219 8.1156 10.8655 8.30608 10.5858 8.58579C10.3061 8.86549 10.1156 9.22186 10.0384 9.60982C9.96126 9.99778 10.0009 10.3999 10.1522 10.7654C10.3036 11.1308 10.56 11.4432 10.8889 11.6629Z" fill="#556980"/>
<path fill-rule="evenodd" clip-rule="evenodd" d="M17.8701 0.630013L22.8701 9.29001C22.9578 9.44203 23.004 9.61448 23.004 9.79001C23.004 9.96555 22.9578 10.138 22.8701 10.29L17.8701 18.95C17.782 19.1026 17.6551 19.2292 17.5023 19.317C17.3495 19.4048 17.1763 19.4507 17.0001 19.45H7.00007C6.82386 19.4507 6.65059 19.4048 6.49781 19.317C6.34504 19.2292 6.21817 19.1026 6.13007 18.95L1.13007 10.29C1.0423 10.138 0.996094 9.96555 0.996094 9.79001C0.996094 9.61448 1.0423 9.44203 1.13007 9.29001L6.13007 0.630013C6.21817 0.477408 6.34504 0.350794 6.49781 0.262991C6.65059 0.175187 6.82386 0.129313 7.00007 0.130013H17.0001C17.1763 0.129313 17.3495 0.175187 17.5023 0.262991C17.6551 0.350794 17.782 0.477408 17.8701 0.630013ZM7.58007 17.45H16.4201L20.8501 9.79001L16.4201 2.13001H7.58007L3.15007 9.79001L7.58007 17.45Z" fill="#556980"/>
</svg>
