<svg width="16" height="10" viewBox="0 0 16 10" fill="none" xmlns="http://www.w3.org/2000/svg">
<path fill-rule="evenodd" clip-rule="evenodd" d="M15.62 0.690116C15.74 0.300116 15.62 0.0201163 15.1 0.0201163H13.35C13.1857 0.0142085 13.0238 0.0603402 12.8873 0.151927C12.7509 0.243514 12.6468 0.375875 12.59 0.530116C12.0471 1.87511 11.3238 3.14003 10.44 4.29012C10.03 4.72012 9.85 4.86012 9.62 4.86012C9.39 4.86012 9.35 4.72012 9.35 4.32012V0.680116C9.35 0.210116 9.22 0.000116305 8.85 0.000116305H6.1C6.0427 -0.00121672 5.9857 0.00892055 5.93237 0.0299325C5.87904 0.0509444 5.83045 0.0824067 5.78946 0.122469C5.74847 0.162532 5.71589 0.210387 5.69366 0.263219C5.67143 0.316052 5.65998 0.372796 5.66 0.430116C5.66 0.870116 6.29 0.980117 6.35 2.22012V4.93012C6.35 5.52012 6.25 5.62012 6.03 5.62012C5.44 5.62012 4.03 3.33012 3.13 0.710116C3 0.200116 2.8 0.000116305 2.36 0.000116305H0.59C0.0800002 0.000116305 0 0.250116 0 0.520116C0 1.00012 0.59 3.42012 2.76 6.62012C3.30604 7.57705 4.07834 8.38554 5.00929 8.97479C5.94024 9.56404 7.00145 9.91609 8.1 10.0001C9.22 10.0001 9.35 9.74012 9.35 9.29012V7.62012C9.35 7.08012 9.46 6.99012 9.81 6.99012C10.16 6.99012 10.52 7.14012 11.56 8.19012C12.74 9.43012 13 10.0001 13.61 10.0001H15.35C15.86 10.0001 16.1 9.73012 15.96 9.22012C15.593 8.4237 15.0962 7.69377 14.49 7.06012C14.08 6.57012 13.49 6.01012 13.29 5.75012C13.09 5.49012 13.1 5.25012 13.29 4.93012C13.29 4.93012 15.4 1.76012 15.62 0.690116Z" fill="#4A76A9"/>
</svg>
