<svg width="490" height="425" viewBox="0 0 490 425" fill="none" xmlns="http://www.w3.org/2000/svg">
<circle cx="445.206" cy="151.189" r="43.8934" fill="#FA7E71"/>
<circle cx="31.3525" cy="393.648" r="31.3525" fill="#967FE8"/>
<circle cx="82.2113" cy="19.5082" r="19.5082" fill="#FA7E71"/>
<circle cx="147.009" cy="191.598" r="120.533" fill="white" fill-opacity="0.1"/>
<g clip-path="url(#clip0)">
<path d="M322.14 218.529C291.344 166.184 282.75 152.052 279.816 147.36C274.863 135.932 266.112 126.567 255.045 120.852C243.978 115.138 231.276 113.425 219.091 116.004C211.856 118.076 205.191 121.774 199.605 126.817C194.019 131.86 189.66 138.113 186.862 145.099L155.568 153.485C149.71 148.877 142.884 145.656 135.603 144.063C128.321 142.471 120.774 142.548 113.527 144.29C101.685 148.149 91.5406 155.983 84.8136 166.466C78.0866 176.948 75.1904 189.434 76.6157 201.808C76.3368 207.025 76.1557 224.291 75.5462 284.603C75.0837 296.957 79.2041 309.046 87.1153 318.545C95.0265 328.044 106.17 334.284 118.403 336.064C124.388 336.54 130.407 335.762 136.074 333.781C141.742 331.801 146.935 328.66 151.321 324.561C156.048 320.306 159.851 315.125 162.493 309.34C165.136 303.554 166.561 297.288 166.682 290.929L168.78 270.802L235.227 252.997L246.097 268.532C249.358 274.143 253.736 279.025 258.96 282.875C264.184 286.725 270.143 289.462 276.468 290.916C283.515 292.525 290.848 292.402 297.837 290.556C302.457 289.3 306.826 287.26 310.755 284.524C320.459 276.865 326.99 265.89 329.091 253.708C331.193 241.525 328.717 228.996 322.14 218.529ZM297.097 265.264C294.818 266.76 292.252 267.766 289.562 268.217C286.873 268.668 284.119 268.555 281.476 267.884C278.121 267.147 274.962 265.7 272.212 263.641C269.462 261.581 267.184 258.958 265.532 255.945L249.685 232.688C248.319 230.75 246.404 229.265 244.186 228.425C241.968 227.584 239.55 227.427 237.242 227.973L154.418 250.165C152.173 250.836 150.174 252.15 148.668 253.944C147.162 255.739 146.215 257.935 145.943 260.262L142.779 290.179C142.758 293.348 142.1 296.481 140.844 299.391C139.587 302.301 137.759 304.929 135.467 307.119C133.552 308.949 131.282 310.366 128.796 311.282C126.311 312.198 123.663 312.594 121.018 312.444C114.731 311.104 109.124 307.572 105.2 302.48C101.275 297.387 99.2885 291.066 99.5944 284.644C99.8582 255.17 100.253 206.99 100.277 203.741L100.308 200.937C100.308 200.937 100.305 186.704 103.84 180.524C107.376 174.345 112.971 169.605 119.648 167.134C124.153 166.164 128.832 166.372 133.233 167.739C137.634 169.106 141.608 171.585 144.77 174.937C146.243 176.35 148.056 177.359 150.033 177.867C152.01 178.375 154.085 178.365 156.057 177.838L198.825 166.379C200.841 165.876 202.69 164.853 204.187 163.412C205.684 161.971 206.777 160.162 207.357 158.167C208.385 153.648 210.586 149.479 213.739 146.083C216.893 142.686 220.886 140.181 225.316 138.82C232.321 137.65 239.515 138.974 245.645 142.561C251.775 146.148 258.104 158.656 258.104 158.656L259.449 160.643C259.449 160.643 286.404 205.744 301.369 231.138C304.715 236.442 306.118 242.742 305.339 248.965C304.56 255.188 301.647 260.948 297.097 265.264Z" fill="#967FE8"/>
<path d="M215.633 196.98C213.446 197.566 211.482 198.787 209.989 200.49C208.497 202.192 207.542 204.298 207.247 206.543C206.951 208.788 207.328 211.07 208.329 213.1C209.331 215.131 210.912 216.819 212.872 217.951C214.833 219.083 217.085 219.608 219.344 219.46C221.604 219.312 223.768 218.497 225.564 217.119C227.361 215.741 228.708 213.861 229.435 211.717C230.163 209.573 230.239 207.261 229.653 205.075C229.277 203.615 228.613 202.245 227.701 201.045C226.789 199.844 225.647 198.838 224.342 198.084C223.037 197.331 221.594 196.845 220.099 196.655C218.603 196.466 217.085 196.576 215.633 196.98Z" fill="#967FE8"/>
<path d="M241.533 180.985C247.582 179.364 251.172 173.146 249.551 167.097C247.93 161.048 241.712 157.458 235.663 159.079C229.614 160.7 226.025 166.918 227.645 172.967C229.266 179.016 235.484 182.605 241.533 180.985Z" fill="#967FE8"/>
<path d="M133.988 192.696C129.862 193.801 126.156 196.106 123.339 199.317C120.523 202.529 118.722 206.504 118.164 210.739C117.607 214.974 118.318 219.28 120.207 223.111C122.096 226.942 125.079 230.127 128.779 232.263C132.478 234.399 136.728 235.39 140.991 235.11C145.253 234.831 149.337 233.294 152.726 230.693C156.115 228.093 158.657 224.546 160.03 220.501C161.403 216.456 161.546 212.094 160.44 207.968C158.958 202.435 155.338 197.717 150.377 194.853C145.416 191.989 139.521 191.213 133.988 192.696Z" fill="#967FE8"/>
</g>
<defs>
<clipPath id="clip0">
<rect width="259.18" height="259.18" fill="white" transform="translate(32.0508 129.786) rotate(-15)"/>
</clipPath>
</defs>
</svg>
