<svg width="300" height="223" viewBox="0 0 300 223" fill="none" xmlns="http://www.w3.org/2000/svg">
<path fill-rule="evenodd" clip-rule="evenodd" d="M244.966 50.2123C245.051 51.8563 245.173 52.5097 246.34 53.5703C246.729 53.9234 247.045 53.9026 247.287 53.8868C247.615 53.865 247.806 53.8525 247.856 54.7853C247.887 55.3731 247.515 55.7773 247.141 56.1838C246.919 56.4247 246.696 56.6666 246.556 56.9481C244.741 60.5939 245.893 65.2675 246.805 68.968L246.806 68.9694C246.837 69.0948 246.867 69.2192 246.897 69.3423C247.357 71.2143 247.98 73.1266 248.61 75.061C250.544 80.9953 252.545 87.1387 250.117 92.9756C250.013 93.2271 249.915 93.5732 249.809 93.9471C249.587 94.7331 249.33 95.6403 248.905 96.0455C248.078 95.6086 247.475 95.7997 247.094 96.6181C246.866 96.8748 246.637 97.1315 246.409 97.3879C244.962 98.7257 243.422 99.223 241.502 98.5119C237.63 97.0787 236.989 92.5823 236.969 89.0424C236.946 85.1409 237.777 81.055 238.666 77.2541C238.701 77.104 238.738 76.9519 238.775 76.7984C239.189 75.0782 239.652 73.158 238.526 71.573C237.824 70.5837 237.021 70.5329 236.243 70.4834C235.739 70.4514 235.245 70.42 234.796 70.1336C234.194 69.7491 234.321 68.154 234.456 66.4595C234.592 64.7385 234.738 62.915 234.135 62.1541C232.046 59.5174 231.318 65.9674 231.285 67.2848C231.248 68.7278 231.327 70.4114 232.007 71.7195C232.251 72.1901 232.749 72.6343 233.245 73.0771C233.832 73.6015 234.417 74.1238 234.579 74.6865C234.761 75.3174 234.305 76.6051 233.913 77.7138C233.703 78.3085 233.511 78.8516 233.445 79.215C233.154 80.8181 233.052 82.4558 232.969 84.0807C232.687 89.5698 233.548 95.3466 237.327 99.6061C238.984 101.474 241.792 103.595 244.419 103.255C246.14 103.032 247.868 102.285 249.528 101.567C250.105 101.317 250.673 101.071 251.231 100.852C252.685 106.439 254.87 111.849 257.198 117.125C257.934 118.793 258.654 120.476 259.374 122.16L259.374 122.16C260.634 125.106 261.896 128.056 263.248 130.939C266.141 137.105 270.198 142.682 274.239 148.237C276.456 151.283 278.667 154.323 280.679 157.45C286.164 165.973 289.239 175.754 289.977 185.816C290.048 186.785 289.974 187.899 289.9 189.03C289.792 190.676 289.682 192.358 290.01 193.677C290.104 194.052 290.196 194.389 290.281 194.703C290.669 196.133 290.925 197.078 290.646 198.943C290.546 199.61 290.422 200.263 290.299 200.911C289.954 202.717 289.618 204.48 289.85 206.374C289.914 206.894 290.02 207.473 290.131 208.083V208.083C290.507 210.141 290.945 212.538 290.028 214.169C289.59 213.702 289.152 213.311 288.73 212.935C287.778 212.085 286.91 211.309 286.309 209.903C286.039 209.269 285.884 208.67 285.741 208.118C285.421 206.876 285.162 205.873 283.783 205.247C283.147 204.958 282.578 204.801 282.037 204.651L282.036 204.65C281.128 204.399 280.297 204.169 279.356 203.376C277.53 201.839 276.286 199.96 275.387 197.759C273.852 194.003 273.63 189.931 274.928 186.074C275.968 182.981 279.007 177.192 283.268 179.264C283.141 179.002 283.022 178.736 282.903 178.47C282.434 177.418 281.971 176.381 281.007 175.707C280.501 175.353 279.874 175.114 279.23 174.868H279.229C278.534 174.602 277.818 174.329 277.209 173.895C275.896 172.96 274.41 171.962 272.944 171.279C272.497 171.07 272.069 170.943 271.621 170.81L271.613 170.808L271.526 170.782L271.447 170.758L271.394 170.742C271.346 170.728 271.298 170.713 271.249 170.699C270.693 170.527 269.743 170.588 269.325 170.615C269.213 170.622 269.139 170.627 269.12 170.624C266.604 170.243 263.797 169.032 262.26 167.207C261.103 165.832 260.081 164.55 259.198 162.977C258.173 161.155 257.712 161.059 256.058 160.713C255.86 160.672 255.645 160.627 255.41 160.575C252.213 159.872 250.185 159.391 247.628 157.02C244.868 154.46 242.829 151.288 240.808 148.145L240.641 147.886C239.613 146.286 238.69 145.957 237.231 145.436H237.23C236.964 145.341 236.681 145.24 236.375 145.124C235.847 144.923 235.224 144.4 234.605 143.879H234.604C233.874 143.265 233.146 142.654 232.579 142.575C232.412 142.552 231.897 142.742 231.386 142.93C230.969 143.084 230.556 143.236 230.336 143.272C229.459 143.414 228.698 143.388 227.82 143.296C225.805 143.085 224.024 142.551 222.669 140.974C218.496 136.119 217.224 124.674 222.937 120.543C223.281 120.295 223.668 120.088 224.057 119.881C224.897 119.433 225.744 118.981 226.184 118.087C226.796 116.842 226.668 114.681 226.573 113.079C226.554 112.752 226.536 112.449 226.526 112.181C226.459 110.376 226.374 108.412 226.105 106.633C225.98 105.815 225.888 105.471 225.554 104.653C225 103.293 224.774 103.238 223.915 103.027C223.748 102.985 223.557 102.938 223.335 102.875C222.925 102.758 222.563 102.675 222.235 102.6C221.006 102.319 220.259 102.149 219.318 100.691C218.367 99.219 217.922 97.3642 217.836 95.6231C217.805 95.0011 217.893 94.3975 217.979 93.8065C218.119 92.8538 218.253 91.9345 217.876 91.0267C217.481 90.0783 216.939 89.2315 216.392 88.3798C215.698 87.2974 214.999 86.2065 214.591 84.8882C214.543 84.7337 214.49 84.5648 214.432 84.3833C213.75 82.2308 212.514 78.3326 213.955 76.6443C214.262 76.2846 214.673 76.0596 215.096 75.8276C215.639 75.5306 216.202 75.2224 216.592 74.606C216.778 74.3116 216.947 74.038 217.107 73.78C217.982 72.3614 218.566 71.4169 220.084 70.1422C220.502 69.7917 220.914 69.3868 221.333 68.976C222.243 68.083 223.183 67.1594 224.276 66.6941C225.172 66.3123 226.039 66.4991 226.855 66.6749C227.47 66.8073 228.055 66.933 228.602 66.8066C229.561 66.5842 229.683 64.9801 229.794 63.5308C229.844 62.8807 229.891 62.262 230.011 61.8128C230.531 59.857 231.645 57.818 232.995 56.2917C233.177 56.0865 233.376 55.9479 233.573 55.8116C233.864 55.609 234.149 55.411 234.359 55.0061C234.618 54.5068 234.68 53.892 234.742 53.2736C234.795 52.7556 234.848 52.2345 235.017 51.7771C235.459 50.5779 236.534 48.5135 237.735 47.8562C239.707 46.7764 240.904 47.8677 242.047 48.9108C242.939 49.7233 243.797 50.5067 244.966 50.2123ZM290.389 147.774C294.268 149.997 293.42 156.013 292.907 159.654C292.889 159.78 292.872 159.903 292.855 160.023C292.672 161.329 292.831 162.647 292.986 163.943C293.098 164.879 293.209 165.803 293.189 166.7C293.155 168.199 292.66 168.575 292.098 169.002C291.754 169.264 291.384 169.545 291.08 170.114C290.854 169.524 290.567 168.896 290.273 168.25C289.659 166.906 289.013 165.49 288.817 164.202L288.355 162.996C288.746 162.839 288.954 162.567 288.978 162.178C289.102 161.48 289.131 160.77 289.16 160.059V160.059C289.169 159.83 289.178 159.6 289.191 159.371C289.403 155.479 289.698 151.612 290.389 147.774ZM212.665 97.1635V97.1632V97.1629L212.666 97.1602C212.695 97.0569 212.725 96.954 212.755 96.8533C212.691 95.2621 212.333 91.9728 210.531 91.2138C208.266 90.2594 207.599 92.9175 207.659 94.6939C207.707 96.1105 208.306 98.7039 209.703 99.4916C211.669 100.599 212.197 98.7769 212.665 97.1635ZM209.896 142.703V142.704C209.939 145.609 209.98 148.481 210.867 151.289C211.91 154.591 213.657 157.773 215.387 160.759C218.75 166.562 219.552 172.036 219.958 178.673C213.633 175.839 210.184 166.158 208.097 160.102C207.802 159.247 207.505 158.392 207.207 157.536L207.207 157.535V157.535C206.388 155.182 205.568 152.827 204.804 150.461C204.658 150.009 204.496 149.537 204.328 149.049V149.049C203.32 146.113 202.13 142.646 203.155 139.772C203.231 139.828 203.306 139.882 203.379 139.936L203.384 139.94C205.521 141.515 206.492 142.231 207.766 139.361C208.271 139.914 208.775 140.467 209.28 141.02L209.88 141.678C209.886 142.019 209.891 142.361 209.896 142.701V142.702V142.702V142.702V142.703V142.703V142.703ZM200.754 109.95C200.41 111.528 200.139 113.108 199.883 114.701C199.961 114.865 200.038 115.031 200.116 115.198H200.117C200.975 117.033 201.909 119.03 204.082 119.524C204.429 119.603 204.756 119.561 205.08 119.519C205.474 119.468 205.862 119.417 206.277 119.588C206.833 119.816 207.236 120.331 207.631 120.837C207.891 121.169 208.148 121.498 208.443 121.739C211.889 124.553 215.744 119.282 213.863 116.322C211.585 118.755 209.024 117.955 208.2 114.648C207.416 111.5 208.568 107.572 210.229 104.913C207.164 103.529 205.29 103.621 202.565 105.483C202.479 105.542 202.4 105.595 202.328 105.643L202.327 105.644C201.996 105.867 201.816 105.989 201.696 106.154C201.552 106.351 201.495 106.612 201.37 107.183V107.184L201.37 107.185C201.353 107.263 201.335 107.346 201.315 107.436C201.239 107.78 201.161 108.124 201.084 108.468V108.468V108.469C200.973 108.963 200.863 109.456 200.754 109.95ZM250.975 172.336L250.975 172.336C250.528 172.668 250.081 173.001 249.69 173.395C249.529 173.557 249.271 173.945 249.009 174.336C248.691 174.813 248.37 175.295 248.219 175.378C247.125 175.982 246.169 175.206 245.1 174.23C242.996 172.309 241.682 168.231 241.781 165.411C241.896 162.117 244.225 159.856 247.178 162.205C249.553 164.093 250.24 166.752 250.935 169.441C251.143 170.249 251.353 171.06 251.609 171.853C251.402 172.018 251.189 172.177 250.975 172.336ZM236.376 207.769C238.757 207.464 240.322 207.834 242.663 208.412C243.357 205.528 242.629 201.777 240.716 199.442C240.289 198.921 239.65 198.516 239.05 198.136C238.394 197.721 237.783 197.334 237.546 196.857C237.247 196.253 237.181 195.375 237.113 194.485C237.052 193.68 236.99 192.865 236.755 192.232C236.361 197.456 236.136 202.543 236.376 207.769ZM201.955 203.152C202.705 201.655 203.456 200.158 204.206 198.661C204.695 199.436 206.129 201.459 207.313 200.812C207.856 200.516 207.802 199.227 207.753 198.042C207.721 197.278 207.691 196.557 207.823 196.171C209.416 197.947 210.206 200.039 209.976 202.413C209.894 203.259 209.635 204.443 209.386 205.255C209.291 205.565 209.065 205.969 208.832 206.384C208.395 207.162 207.937 207.98 208.281 208.292C208 208.275 207.71 208.267 207.417 208.26H207.417C206.159 208.228 204.847 208.194 203.979 207.415C203.09 206.617 202.448 204.657 202.048 203.435C202.015 203.336 201.984 203.241 201.955 203.152ZM233.154 192.887C233.324 190.753 233.288 188.693 233.216 186.552C230.682 184.843 227.43 184.509 227.335 188.434C227.246 192.111 229.843 194.943 232.193 197.505L232.193 197.506L232.194 197.507L232.196 197.508C232.499 197.839 232.797 198.164 233.086 198.487C233.32 197.483 233.254 196.341 233.188 195.208C233.142 194.413 233.096 193.623 233.154 192.887ZM229.229 152.07C229.172 152.287 229.117 152.529 229.059 152.783C228.666 154.513 228.139 156.825 225.963 155.969C223.994 155.194 223.518 152.064 223.514 150.319C223.51 148.887 223.746 146.255 225.75 146.17C228.209 146.064 229.087 150.416 229.229 152.07ZM211.538 113.055C212.17 111.936 212.92 110.609 213.628 110.779C213.296 110.041 212.964 109.302 212.632 108.564C212.3 107.825 211.968 107.087 211.635 106.348C211.539 106.836 211.433 107.326 211.327 107.818C210.858 109.988 210.38 112.201 210.65 114.411C210.897 114.19 211.201 113.652 211.538 113.055ZM262.349 210.76C265.869 207.429 268.215 208.643 272.049 210.628C272.235 210.724 272.424 210.822 272.618 210.922C273.568 211.411 274.485 211.625 275.4 211.839C276.114 212.006 276.827 212.172 277.556 212.469C278.388 212.807 278.91 213.683 279.404 214.511C279.891 215.327 280.35 216.097 281.051 216.262C279.335 216.443 277.626 216.676 275.919 216.909H275.919C271.111 217.566 266.316 218.221 261.425 217.685C261.655 216.75 261.628 215.806 261.601 214.87C261.561 213.464 261.521 212.076 262.349 210.76ZM260.729 199.469C264.976 199.25 266.107 192.712 266.077 189.445C266.17 187.075 265.547 184.022 263.725 182.328C262.572 181.257 259.907 179.573 258.309 179.823C253.967 180.505 252.871 188.425 253.292 191.737C253.675 194.758 257.316 199.645 260.729 199.469Z" fill="#755EC6"/>
<path fill-rule="evenodd" clip-rule="evenodd" d="M197.034 52.7341C196.292 53.0677 197.709 55.5608 197.929 56.0182C198.504 57.2121 199.205 59.6791 200.567 59C199.389 56.9115 198.212 54.8226 197.034 52.7341ZM22.766 197.384C21.7733 196.944 20.4456 200.731 20.2687 201.5C19.7753 203.643 20.1881 205.083 21.904 206.469C21.1937 203.406 22.0446 200.355 22.766 197.384ZM251.928 35.2307C250.694 33.6282 248.91 30.653 246.416 32.2281C245.431 32.8504 244.673 34.8453 244.065 35.8197C243.111 37.3496 242.187 38.8223 241.461 40.4693C242.695 39.9624 243.422 38.8603 244.524 38.2577C245.278 37.8462 245.965 37.8066 246.691 37.5066C248.296 36.844 250.493 36.1943 251.928 35.2307ZM50.6359 193.115C51.3039 195.729 51.9217 198.336 52.4386 200.984C52.7881 202.776 53.9627 205.307 53.3498 207.06C54.9376 206.847 56.5254 206.634 58.1132 206.42C56.9353 203.74 56.3155 200.88 55.9656 197.985C55.7514 196.213 56.026 195.707 54.6907 194.721C53.6567 193.958 51.8363 193.591 50.6359 193.115ZM41.8538 93.0548C44.9066 96.1102 47.5765 99.5929 50.8208 102.44C52.5066 103.919 54.2346 105.357 55.9646 106.784C57.4316 107.994 59.7646 110.661 61.6739 111.031C61.9098 110.056 62.4679 108.459 62.3184 107.46C62.8755 106.884 62.7026 106.463 61.7996 106.197C61.2471 105.772 60.7009 105.341 60.16 104.901C58.0379 103.13 56.0297 101.206 54.0188 99.3118C52.0198 97.4288 50.1706 95.4588 48.4353 93.3313C47.5211 92.211 46.9864 91.0877 45.4871 90.7584C43.7059 90.3673 43.1132 91.756 41.8538 93.0548ZM102.867 206.502C102.781 208.162 106.864 209.18 108.105 209.279C111.459 209.548 113.636 208.078 114.791 205.178C117.193 199.142 121.04 193.824 122.649 187.477C123.126 185.594 123.539 184.737 121.839 183.777C121.141 183.384 119.323 182.506 118.565 183.007C117.842 183.484 117.25 185.629 116.786 186.409C116.048 187.648 115.21 188.826 114.409 190.025C110.663 195.631 106.889 201.091 102.867 206.502ZM54.4046 123.377L70.0824 132.341C70.7362 130.084 71.0369 127.731 71.6498 125.456C72.0861 123.84 73.2085 121.556 73.1376 120.137C73.0316 118.018 71.3904 115.205 70.6748 113.185C69.7831 110.668 68.8913 108.151 67.9996 105.634C66.792 106.788 65.4016 107.595 65.3867 109.099C65.3785 109.959 65.9518 110.496 65.6194 111.47C65.3861 112.153 64.394 113.061 63.9148 113.569C62.5151 115.054 62.559 115.128 61.0881 113.739C58.8603 116.952 56.6323 120.165 54.4046 123.377ZM71.6527 165.404C71.8772 163.244 72.1653 161.174 72.6511 159.055C72.9498 157.753 74.2111 155.08 73.7963 153.854C73.4913 152.953 71.6788 152.169 70.9729 151.678C68.9306 150.26 66.9362 148.767 64.9145 147.32C63.1415 146.05 61.3422 144.811 59.6026 143.496C57.9914 142.278 56.7752 140.764 54.8254 140.242C53.1194 139.785 50.9548 140.083 49.1878 140.024C46.8165 139.945 44.4086 139.919 42.0396 140.035C34.0894 140.424 25.1832 139.868 17.5347 142.085C13.9197 143.133 11.5894 143.75 9.56858 147.173C7.23162 151.133 5.23492 155.247 3.53493 159.524C3.28674 160.149 2.72569 161.05 2.74714 161.732C2.78806 163.035 3.2544 162.735 4.50423 163.478C5.85472 164.281 7.17848 165.234 8.46858 166.138C10.6808 167.689 13.4273 169.307 15.7225 170.516C18.4838 171.971 21.2657 173.275 24.0746 174.74C25.8545 175.669 27.6967 176.428 29.4426 177.448C31.3379 178.555 33.4601 178.871 35.5033 179.736C41.83 182.414 47.9531 184.89 54.1617 187.945C60.2217 190.928 66.3514 193.448 72.5517 196.079C80.5653 199.479 88.4996 202.624 96.857 204.975C97.4689 205.147 98.7553 205.755 99.3596 205.727C100.652 205.667 100.944 204.723 101.721 203.659C103.246 201.569 104.715 199.438 106.174 197.301C109.339 192.665 112.434 187.977 115.841 183.513C106.186 180.819 97.2335 175.849 88.7461 170.749C88.3847 171.764 88.0969 174.014 86.9385 174.353C85.5062 174.774 84.4656 172.789 83.8237 171.877C83.2161 173.39 82.1765 178.492 80.2319 178.38C77.5451 178.226 78.0194 173.997 77.6847 172.32C76.2036 174.288 74.487 176.552 72.4742 173.525C71.0791 171.426 71.2339 167.743 71.6527 165.404ZM183.52 141.291C182.275 140.902 181.038 140.556 179.821 140.12C179.5 139.441 178.969 139.235 178.226 139.502C177.617 139.557 177.025 139.481 176.45 139.276C173.906 138.841 171.089 138.277 168.659 137.544C166.494 136.891 164.453 136.314 162.254 135.823C160.948 135.532 155.132 133.886 154.272 134.855C154.008 135.153 154.462 138.765 154.398 139.409C154.285 140.553 154.228 142.438 153.503 143.391C153.225 143.757 152.165 144.162 151.783 144.447C150.539 145.372 149.389 146.521 148.152 147.48C145.45 149.574 142.819 151.746 140.062 153.772C138.114 155.203 135.884 155.911 133.72 156.951C135.26 157.227 138.272 155.745 139.827 155.286C141.839 154.69 143.815 154.029 145.873 153.484C150.095 152.366 154.419 151.104 158.709 149.914C161.344 149.184 164.127 148.422 166.681 147.455C167.814 147.026 168.704 146.028 169.452 147.043C170.049 147.854 169.327 148.921 168.868 149.522C166.19 153.027 158.916 153.879 155.024 155.333C150.63 156.974 146.295 158.701 141.771 159.854C136.488 161.2 130.754 162.23 125.831 164.594C121.746 166.555 117.119 167.314 112.776 168.465C108.698 169.546 103.862 169.763 100.007 171.597C101.672 172.912 104.136 173.598 106.076 174.482C108.452 175.564 110.852 176.551 113.202 177.698C114.202 178.186 115.248 178.911 116.26 179.317C117.545 179.832 117.38 179.56 118.707 179.456C120.772 179.293 123.558 178.922 125.235 180.425C127.259 182.239 125.977 184.225 126.274 186.444C126.478 187.965 126.581 187.721 128.27 187.953C129.825 188.167 131.378 188.416 132.912 188.748C134.805 189.159 136.743 189.847 138.588 190.44C141.447 191.361 141.758 192.444 144.739 191.256C153.229 187.873 162.009 185.092 170.553 181.891C174.488 180.416 178.44 177.572 182.144 175.435C186.897 172.694 191.194 169.728 194.412 165.164C195.878 163.083 197.408 159.569 197.099 156.986C196.824 154.677 195.115 152.109 194.013 150.123C192.606 147.588 191.368 146.604 189.215 144.919C187.719 143.748 185.407 141.275 183.52 141.291ZM88.9748 160.918C89.1065 162.193 88.3613 167.449 89.0996 168.258C90.3619 169.64 93.4583 168.027 94.6563 167.615C98.5481 166.277 103.071 166.57 107.035 165.51C110.879 164.483 114.639 163.151 118.505 162.105C120.579 161.543 122.548 160.662 124.588 159.993C126.859 159.249 129.394 158.84 131.499 157.72C131.239 157.072 122.127 158.63 121.091 158.715C117.494 159.007 114.107 158.452 110.562 157.8C102.742 156.362 95.3745 152.952 87.6557 150.74C88.0174 154.299 98.0352 155.008 96.8418 159.138C96.5088 160.29 92.0273 162.172 90.5451 161.449C87.5339 159.981 91.2174 157.915 92.7184 157.4C90.4336 156.09 88.2471 154.669 86.1616 153.055C83.929 151.327 82.9682 148.903 81.7715 146.402C79.2702 141.172 73.3508 138.13 68.7527 134.874C63.7808 131.354 58.4867 128.361 53.5178 124.849C52.631 124.222 52.2168 124.51 51.9052 123.365C51.5719 122.139 52.7967 120.581 53.391 119.646C54.9534 117.188 56.7732 114.861 58.8372 112.803C56.1755 110.992 53.3003 109.497 50.8043 107.446C48.2742 105.368 46.1805 102.831 43.9485 100.452C40.3828 108.21 35.3855 115.405 31.461 123.013C29.9109 126.018 29.0914 130.563 31.4488 133.474C33.9297 136.539 38.5558 135.346 42.0577 135.509C45.7538 135.68 49.1254 136.099 52.7709 137.147C54.4201 137.622 55.9214 137.481 57.5065 138.243C59.3656 139.136 61.194 140.283 62.9626 141.341C66.4409 143.423 69.6904 146.029 72.9748 148.404C74.322 149.378 81.6273 155.154 75.8491 154.262C75.8491 159.666 74.9022 165.201 74.4052 170.579C75.7755 168.943 76.7527 167.28 77.5818 165.314C78.0748 164.145 78.0811 161.16 79.7243 161.868C82.1963 162.932 80.2709 170.75 80.2709 172.865C80.8834 171.682 81.3125 170.408 81.7534 169.154C82.0874 168.203 82.5049 165.51 83.2019 164.873C85.5352 162.74 85.8623 168.556 85.8623 169.77C86.618 167.626 86.757 165.337 86.8329 163.072C86.8626 162.178 86.6418 160.788 86.8676 159.923C87.2431 158.482 87.1986 158.576 88.7078 157.967C88.7969 158.951 88.886 159.935 88.9748 160.918ZM161.056 206.525C161.241 208.354 161.948 209.678 160.746 211.322C163.07 211.156 165.358 210.952 167.686 211.011C169.555 211.058 172.351 211.486 174.094 210.685C174.805 210.359 175.047 210.92 175.412 210.297C175.759 209.705 174.944 207.74 174.846 207.253C174.376 204.914 174.147 202.515 173.72 200.161C173.427 198.544 172.565 195.362 173.648 193.834C175.241 191.584 175.942 194.753 176.357 196.16C177.724 200.794 177.645 205.196 177.645 209.958C179.703 209.958 182.408 209.059 184.393 208.517C187.131 207.769 190.055 207 192.708 206.023C195.211 205.102 197.414 203.758 198.996 201.595C200.18 199.977 202.804 195.984 202.152 194.195C201.353 192.001 197.542 190.493 195.507 190.252C192.867 189.938 190.161 190.469 187.459 190.691C184.567 190.93 181.761 191.574 178.9 191.884C176.121 192.184 172.391 193.111 169.692 192.417C169.622 193.527 170.55 195.02 170.874 196.15C171.298 197.632 171.676 199.128 172.021 200.63C172.389 202.239 174.671 208.021 172.596 209.177C170.16 210.534 168.997 204.723 168.694 203.307C167.97 199.93 167.349 196.556 168.106 193.161C164.997 192.6 161.247 193.433 158.04 193.653C159.235 197.861 160.006 202.267 161.056 206.525ZM27.1366 208.355C28.2178 208.835 29.7036 208.577 30.8789 208.67C32.7155 208.814 34.5709 209.146 36.4198 209.087C39.2409 208.997 42.1983 208.64 45.0218 208.318C43.4112 205.413 42.434 202.664 42.233 199.335C42.1607 198.139 41.5261 190.724 43.7326 191.041C44.7973 191.194 44.5713 197.526 44.7779 198.692C45.0782 200.385 45.4656 202.117 45.9373 203.774C46.2795 204.975 47.4439 206.775 47.1455 208.074C48.5689 207.843 49.9927 207.613 51.4165 207.382C50.3095 205.175 49.501 203.198 49.0864 200.736C48.8861 199.548 49.0138 198.07 48.6254 196.942C48.3805 196.231 47.8221 195.562 47.7475 194.965C47.6614 194.277 48.4151 192.587 48.1363 191.976C47.8623 191.375 45.9551 190.819 45.2868 190.488C43.4449 189.575 42.3653 189.344 40.301 189.869C36.3191 190.881 30.0455 191.599 27.0759 194.328C24.134 197.032 23.0634 206.151 27.1366 208.355ZM201.037 76.5589C202.139 76.4344 203.23 76.3576 204.338 76.3005C202.719 74.0229 201.249 71.6423 199.907 69.1918C199.249 67.9913 198.628 66.7716 198.033 65.5388C197.35 64.1241 197.369 63.2005 195.886 62.9193C193.832 62.5302 191.085 63.3077 188.972 63.2193C187.34 63.1506 183.675 61.6148 182.36 62.1715C183.559 64.6287 182.596 68.4516 182.643 71.0965C182.69 73.7269 182.363 76.2694 181.9 78.8632C184.701 78.8632 188.207 77.8963 191.035 77.4643C194.326 76.9614 197.683 76.9354 201.037 76.5589ZM156.572 211.587C157.651 211.448 158.677 211.405 159.766 211.405C157.312 207.428 155.46 202.98 155.439 198.241C155.436 197.621 156.182 194.058 155.935 193.762C155.454 193.186 153.46 193.641 152.913 193.695C150.678 193.919 148.194 193.902 146.09 194.707C144.638 195.262 144.623 194.927 144.045 196.635C143.704 197.646 143.458 198.8 143.452 199.862C143.438 202.009 144.123 204.519 145.008 206.452C145.851 208.293 147.182 210.266 149.014 211.255C151.124 212.394 154.098 211.716 156.572 211.587ZM178.883 63.8231C178.458 62.2385 178.642 62.5962 177.231 62.3996C176.934 62.3583 173.702 62.4253 173.517 62.6147C173.303 62.8332 173.385 66.0595 173.357 66.4288C173.261 67.6943 173.119 68.9565 172.981 70.218C172.422 75.3395 171.36 80.2973 170.564 85.3765C172.531 84.1562 175.374 85.8201 177.054 84.4991C178.382 83.4553 178.183 80.1152 178.282 78.6414C178.613 73.7087 178.726 68.7638 178.883 63.8231ZM249.904 57.8424C249.727 58.1265 249.55 58.4106 249.373 58.6947C250.06 59.135 254.08 54.6566 254.975 53.8554C256.165 52.7886 258.05 51.364 258.587 49.8041C259.211 47.9915 258.597 45.1298 258.446 43.2554C258.338 41.914 258.567 40.0588 257.474 39.1216C256.467 38.2593 253.987 38.2824 252.795 38.4669C249.217 39.0206 247.066 41.9622 245.26 44.7651C247.094 44.5397 253.558 41.589 254.309 43.1848C255.4 45.5033 248.611 47.5763 247.939 49.6107C249.329 50.1014 252.394 48.198 251.532 51.365C251.385 51.8081 251.128 52.1751 250.762 52.4658C250.128 52.6905 249.978 53.1139 250.311 53.7363C250.027 54.9767 250.085 56.5462 249.904 57.8424ZM291.081 170.114C291.1 170.866 291.169 171.585 291.783 172.116C293.146 167.8 293.572 163.482 294.137 158.994C294.702 154.505 295.303 149.904 295.393 145.419C295.493 140.392 295.018 134.923 294.205 129.957C293.569 126.074 293.076 121.297 290.761 117.992C292.076 126.556 291.667 134.675 290.781 143.269C290.31 147.832 289.646 152.36 289.341 156.943C289.261 158.153 289.235 159.378 289.13 160.586C289.068 161.298 288.363 162.646 288.356 162.996C288.322 164.936 290.399 168.333 291.081 170.114ZM221.128 163.444C222.221 165.96 223.465 168.438 224.12 171.113C224.813 173.938 224.515 176.568 224.625 179.431C224.809 184.18 224.428 188.901 224.495 193.656C224.552 197.71 224.396 201.662 224.437 205.672C224.463 208.209 224.324 210.736 224.332 213.272C224.332 213.265 224.433 215.548 224.259 215.664C223.476 216.184 222.62 215.445 222.38 214.734L220.058 217.36C221.275 217.055 222.772 216.416 224.022 216.36C224.501 216.184 224.978 216.179 225.453 216.345C225.925 216.63 226.275 217.027 226.502 217.538C229.78 218.236 231.747 215.319 232.335 212.711C233.612 207.052 233.152 201.466 233.059 195.753C232.859 183.343 234.831 171.007 234.644 158.596C234.608 156.194 234.516 153.82 234.878 151.423C235.547 146.97 236.537 151.047 236.696 153.148C237.173 159.464 238.004 165.98 237.547 172.335C237.136 178.06 237.174 183.839 236.888 189.582C236.585 195.686 236.097 201.66 236.378 207.769C238.017 207.559 243.29 207.247 243.839 209.549C244.318 211.558 242.391 210.815 241.39 210.73C239.767 210.592 238.181 210.973 236.407 210.655C236.538 213.356 236.911 216.979 234.496 218.803C233.309 219.7 231.342 220.51 229.955 221.039C228.595 221.558 226.292 222.707 224.876 222.644C223.873 222.599 223.487 222.059 222.387 222.146C220.756 222.274 219.343 223.365 217.614 222.464C214.333 220.754 215.946 215.781 218.017 213.789C218.551 213.274 219.151 212.712 219.868 212.462C220.208 212.343 221.634 212.487 221.798 212.308C222.405 211.65 221.647 207.799 221.566 207.068C221.141 203.234 220.678 199.319 220.503 195.468C220.339 191.847 220.156 188.219 220.032 184.597C220.005 183.808 220.354 182.187 220.024 181.498C219.475 180.352 217.064 179.623 216.018 179.089C216.95 188.217 218.319 198.028 214.946 206.723C214.276 208.45 213.524 210.914 211.825 211.874C210.224 212.78 206.454 212.652 204.536 212.76C202.473 212.875 200.454 212.394 199.318 210.457C198.423 208.933 198.959 207.105 200.795 206.44C201.895 206.043 202.109 206.298 203.072 206.771C203.281 207.11 203.427 207.475 203.512 207.865H204.252C205.256 208.313 209.266 208.813 210.368 208.099C211.646 207.273 211.924 205.037 212.469 203.709C213.481 201.241 213.749 199.238 214.116 196.6C214.691 192.471 214.109 187.684 214.12 183.382C214.123 182.17 214.128 180.959 214.13 179.747C214.132 177.917 214.291 177.929 213.247 176.611C211.674 174.626 209.88 172.597 208.195 170.694C209.108 176.254 208.734 182.108 208.372 187.648C208.168 190.76 207.747 193.929 207.554 197C207.496 197.923 208.159 200.467 207.087 200.875C206 201.288 204.647 199.358 204.207 198.661C201.81 203.444 198.949 208.058 194.002 210.533C191.459 211.805 188.811 212.379 186.035 212.878C183.464 213.34 181.088 214.184 178.553 214.582C173.306 215.405 168.473 215.522 163.193 215.342C158.212 215.172 153.443 216.092 148.477 214.934C146.539 214.482 144.581 213.652 143.257 212.169C142.534 211.359 142.214 210.085 141.485 209.339C141.321 208.374 140.753 208.076 139.78 208.446C139.17 208.473 138.562 208.453 137.956 208.385C132.975 208.124 127.441 208.415 122.615 206.993C120.783 206.453 118.738 205.564 119.652 203.271C120.451 201.268 122.655 201.876 124.462 202.051C129.712 202.56 134.88 203.488 140.205 203.954C140.034 201.172 140.181 198.334 141.272 195.731C137.578 195.268 133.748 194.568 130.232 193.389C129.147 193.025 128.066 192.646 126.99 192.257C125.215 191.615 125.584 191.449 124.556 192.569C123.264 193.976 122.473 196.912 121.537 198.612C120.484 200.526 119.473 202.417 118.586 204.414C117.746 206.304 117.12 208.836 115.84 210.465C113.025 214.048 106.523 214.358 102.696 212.951C100.822 212.261 100.145 212.153 99.0095 210.473C97.7649 208.633 97.4557 208.526 95.1629 208.276C91.0227 207.825 87.1151 206.786 83.2365 205.351C79.1389 203.835 74.9313 202.654 70.8455 201.017C67.0207 199.485 63.324 197.944 59.3666 196.748C58.897 199.733 60.8429 203.098 60.8429 206.175C63.1455 205.945 65.2927 205.743 67.5752 205.376C68.389 205.246 73.5168 204.095 74.0171 204.774C76.1026 207.604 66.6135 208.935 65.1303 209.309C60.3775 210.508 55.531 211.623 50.7481 212.55C45.8663 213.496 41.1072 214.438 36.1515 214.608C27.7657 214.895 16.199 214.411 16.5994 203.395C16.7565 199.078 18.535 194.394 21.9383 191.578C24.0558 189.827 26.6964 188.864 29.2851 188.071C30.2416 187.778 35.2802 187.094 35.4333 186.717C34.0135 185.7 31.5868 185.434 29.9023 184.65C28.2964 183.903 26.6017 183.624 24.9578 182.87C21.6729 181.365 18.5003 179.524 15.4631 177.662C13.0475 176.181 10.6052 174.546 8.38145 172.785C6.61446 171.387 4.92106 170.042 3.50852 168.443C2.76925 167.607 1.46067 166.866 0.868594 166.146C-1.21061 163.616 0.982125 158.581 1.8676 155.636C3.161 151.33 4.88707 146.749 7.43261 143.02C9.77353 139.59 12.3834 137.279 16.5825 136.475C20.4581 135.734 24.3551 135.499 28.3188 135.291C27.6528 132.757 26.7152 130.97 26.9531 128.191C27.1776 125.57 28.501 122.966 29.5396 120.579C31.4706 116.143 33.2924 111.8 35.9333 107.715C37.3848 105.47 39.0152 103.339 40.5996 101.188C40.8551 100.841 42.4432 99.2544 42.3825 98.8075C42.3221 98.3634 40.7274 97.0111 40.4831 96.7012C38.8432 94.6196 37.7096 92.3783 39.6353 90.1505C40.6393 88.989 43.5911 86.6434 45.0119 88.1191C46.5482 85.0152 49.2353 82.899 51.3274 80.2584C53.9356 76.9657 56.426 73.6229 58.8676 70.1742C61.2986 66.7403 63.2844 63.0513 66.5069 60.284C70.0979 57.2002 73.4785 57.4668 77.889 58.7852C78.1408 57.0841 78.491 57.3104 80.1365 56.7425C81.3821 56.3125 82.5927 55.8024 83.8174 55.3169C85.119 54.8005 86.4365 54.5075 87.7672 54.1016C89.5398 53.5611 89.8062 53.7376 90.0943 51.4359C90.4428 48.6547 89.2524 45.7142 88.4847 43.0944C88.1058 41.8018 87.8425 40.1928 86.99 39.3232C86.2187 38.5369 84.8514 38.1788 84.0078 37.3093C76.7399 29.8182 76.6253 13.8234 84.3672 6.8612C85.8718 5.5079 87.1128 3.68733 88.9857 2.77359C91.0421 1.77008 93.7547 0.958632 96.0197 0.485754C100.688 -0.488381 105.924 -0.179179 109.615 3.10226C111.435 4.72054 112.545 7.29282 113.165 9.59056C113.758 11.7853 113.631 15.4951 111.384 12.1031C109.967 9.96378 108.736 7.78187 106.338 6.72359C104.195 5.77816 101.577 5.26767 99.2424 5.4683C93.7395 5.94085 89.2801 7.55649 85.4709 11.6289C81.259 16.1317 81.0448 23.3206 81.9527 29.0463C82.7527 27.3528 83.2946 24.6713 85.5375 24.3479C87.4068 24.0783 90.3537 26.4648 89.3504 28.5193C84.7983 27.3591 83.4669 34.242 87.4032 34.6565C88.5949 34.7819 90.1042 32.6607 91.2015 33.1547C93.2537 34.078 90.5035 37.2598 89.9613 38.3075C89.6732 38.4847 89.385 38.6619 89.0969 38.8395C89.3808 39.4988 89.6672 40.1571 89.9567 40.8141C90.3075 41.652 90.6415 42.4918 90.9497 43.3465C91.6999 45.4264 92.4778 47.5711 92.9299 49.7378C93.3893 51.9408 93.6279 54.5134 92.5418 56.5831C91.3481 58.8581 90.2237 58.5783 89.3065 56.4142C86.9058 57.9272 84.492 59.5405 81.6699 60.1375C84.6293 65.1019 88.4603 69.3696 94.2207 70.9312C99.1029 72.2548 105.248 72.2063 109.907 70.0168C114.741 67.7448 117.401 62.4345 116.825 57.1514C116.639 55.4404 115.643 49.4972 118.012 53.7963C119.311 56.1541 119.407 59.9787 119.11 62.5642C117.694 74.9317 105.155 79.5585 94.3438 76.5813C88.7976 75.0538 84.8009 70.9652 81.8253 66.1522C81.1313 65.0299 80.4963 63.8717 79.8762 62.7071C79.6283 62.2418 79.4101 61.5921 79.0795 61.1839C77.7834 59.5844 79.0567 60.4757 77.6808 60.2754C75.5514 59.9659 72.2006 61.5964 70.6194 62.8883C66.3293 66.3931 63.9531 71.9997 60.6603 76.4169C57.1547 81.1193 52.7026 85.3046 48.2366 89.0566C53.2884 94.2306 58.3399 99.4038 63.3917 104.577C64.4352 103.422 66.4191 100.783 66.6966 99.2382C66.8593 98.333 66.129 95.3539 68.3752 96.6798C69.8917 97.5754 70.4669 101.408 70.9399 102.975C71.6706 105.397 72.9009 107.677 73.6963 110.073C75.1715 114.52 76.989 118.927 78.5002 123.405C79.1148 125.226 80.8669 127.485 79.1834 129.027C76.6247 131.369 75.8639 126.758 75.1864 124.996C74.2428 126.308 74.3653 128.435 73.8788 129.964C73.5818 130.899 72.6772 132.354 72.7072 133.274C72.7583 134.849 74.1877 135.317 75.4758 136.197C77.8722 137.834 80.3313 139.432 82.5263 141.338C83.4421 142.133 84.2847 142.938 84.953 143.961C85.5365 144.854 85.7121 146.868 86.357 147.489C87.2006 148.302 90.3187 147.735 91.9652 147.912C94.7147 148.208 97.5012 149.186 100.171 149.888C104.894 151.131 109.752 152.921 114.699 153.585C119.557 154.237 124.116 153.913 128.958 153.044C131.602 152.57 134.443 152.003 136.857 150.731C139.636 149.267 142.101 146.924 144.698 145.154C145.86 144.362 147.049 143.613 148.237 142.863C149.826 141.86 149.41 142.077 149.514 140.483C149.633 138.638 150.404 135.115 149.171 133.473C148.657 132.787 147.077 132.286 146.334 131.788C145.253 131.062 144.284 130.219 143.125 129.635C141.861 128.998 141.823 129.503 141.236 127.94C140.703 126.52 140.351 125.033 139.862 123.598C137.622 117.037 137.044 110.374 136.116 103.523C135.684 100.341 134.627 96.0105 135.825 92.9106C137.491 88.5992 138.885 94.6289 139.236 96.1742C140.827 93.4505 141.74 90.4211 143.395 87.732C144.36 86.1642 144.831 85.363 145.375 83.6451C145.595 82.9495 145.683 82.3717 146.149 81.7938C147.133 80.5715 147.279 81.2682 148.302 81.2381C151.522 81.1438 154.687 81.2266 157.91 81.3757C159.692 81.4582 161.473 81.5018 163.267 81.4952C164.141 81.4919 165.025 81.4493 165.898 81.4995C166.369 81.4945 166.837 81.5295 167.303 81.6048C168.265 82.0535 168.632 81.6668 168.405 80.4442C169.242 78.6929 169.186 75.8985 169.483 73.9879C169.781 72.0647 170.058 70.1382 170.307 68.2077C170.44 67.1759 171.559 63.2823 170.965 62.4345C170.377 61.5941 167.31 61.7825 166.403 61.6317C160.371 60.6292 154.761 58.144 149.119 56.1079C146.342 55.1058 143.705 53.7525 141.041 52.5229C139.655 51.8827 138.344 50.5644 136.882 50.1539C135.038 49.6358 132.589 50.4641 130.75 50.7759C127.247 51.3702 123.868 51.8906 120.314 52.084C119.058 52.1523 116.669 52.5044 115.536 51.6415C113.26 49.9084 115.852 48.895 117.339 48.6762C123.919 47.7087 130.479 47.1526 137.109 46.7487C137.42 46.7299 138.558 46.4986 138.937 46.618C139.8 46.8906 139.452 47.2067 139.97 47.4879C140.928 48.0086 142.022 48.3921 143.238 48.7151C146.71 49.6371 150.207 51.1841 153.691 52.3998C159.959 54.587 167.449 58.0744 173.718 57.4612C175.265 57.3101 176.537 57.1167 178.155 57.2735C180.049 57.4573 181.155 58.4288 182.61 58.7112C184.56 59.0894 187.349 58.8053 189.402 58.8779C191.359 58.9472 193.317 59.0379 195.275 59.0379C193.556 55.5809 192.509 52.3351 191.542 48.6224C191.015 46.5976 190.222 44.7585 190.566 42.6261C190.728 41.6197 191.13 40.6739 191.569 39.7648C192.231 38.3923 192.419 38.6794 192.654 37.1595C192.978 35.0677 192.514 32.862 192.768 30.7639C193.029 28.6107 194.656 26.6915 194.837 24.633C194.934 23.5378 194.321 22.6438 194.505 21.4624C194.669 20.4058 195.294 19.298 195.856 18.4084C197.165 16.3353 198.759 15.1598 200.971 14.3154C202.749 13.6366 205.019 13.0139 206.815 14.1131C208.648 15.2344 208.516 17.4912 209.394 19.138C211.283 22.6788 215.64 25.8431 219.113 27.6514C222.304 29.3126 225.741 30.362 229.162 31.4453C231.244 32.1047 233.385 32.5749 235.431 33.3283C236.904 33.8708 239.306 35.1865 240.806 34.3872C242.113 33.6906 243.638 31.5648 244.932 30.5778C246.446 29.4232 248.465 28.2962 250.371 29.3021C252.277 30.3075 252.12 34.014 253.603 34.7109C254.119 34.9538 255.653 34.2424 256.357 34.3546C257.495 34.5354 258.278 35.2393 258.96 36.1058C261.506 39.344 262.295 44.4804 262.406 48.4723C262.462 50.4661 262.413 52.946 261.196 54.6388C259.775 56.6135 257.087 56.6623 255.263 58.0519C253.805 59.1633 252.772 60.9803 251.291 62.1646C250.379 62.8946 250.028 62.3339 249.65 63.4714C249.404 64.2112 249.901 65.6546 250.047 66.3704C250.954 70.7863 252.652 74.8594 254.263 79.0661C255.022 81.0484 255.666 83.031 256.013 85.1317C256.24 86.5101 255.978 87.7152 256.088 89.0414C256.166 89.9855 256.567 90.801 256.479 91.7691C256.292 93.8194 255.178 95.6304 254.47 97.4338C253.663 99.4896 254.772 103.05 255.585 105.176C257.533 110.27 260.274 115.416 262.708 120.31C265.1 125.118 266.878 130.238 269.665 134.856C272.371 139.341 275.554 143.733 278.633 147.975C280.346 150.335 282.163 152.58 283.715 155.055C284.054 155.596 286.371 160.084 286.971 159.929C286.235 152.096 286.979 143.95 287.309 136.123C287.721 126.326 286.473 117.45 283.716 108.098C283.072 105.911 282.497 103.674 282.043 101.44C281.726 99.8751 280.83 98.5894 283.03 99.2735C286.673 100.406 289.88 107.283 291.732 110.276C295.88 116.981 299.345 125.921 299.81 133.785C300.267 141.504 299.873 148.889 298.908 156.493C298.432 160.245 297.663 164.427 296.488 168.015C295.883 169.861 295.157 171.773 294.352 173.541C294.012 174.288 293.266 175.131 293.137 175.951C292.933 177.252 293.886 179.008 294.125 180.293C294.904 184.497 295.083 188.854 294.818 193.121C294.675 195.41 294.359 197.456 293.612 199.608C292.661 202.35 293.103 204.445 293.499 207.271C293.923 210.296 294.329 217.171 291.183 218.89C290.961 218.867 290.738 218.844 290.516 218.821C289.954 218.173 289.455 218.212 289.019 218.937C288.206 219.202 287.411 219.885 286.554 220.179C284.566 220.862 282.42 220.904 280.346 221.204C276.287 221.792 272.242 222.828 268.254 222.953C263.532 223.102 258.606 222.917 253.988 222.089C253.034 221.918 251.918 221.465 250.964 221.379C249.669 221.261 248.759 222.122 247.422 221.92C245.349 221.606 244.04 219.413 243.904 217.615C243.473 211.889 246.65 209.263 251.843 208.246C248.487 203.443 244.624 199.502 243.732 193.334C242.853 187.264 244.759 180.24 248.22 175.378C251.543 170.71 257.213 167.589 263.06 168.774C265.774 169.323 278.577 173.103 276.102 177.39C275.553 175.429 272.178 175.808 270.547 175.525C267.842 175.055 265.137 174.347 262.392 174.493C256.993 174.78 251.776 177.973 249.161 182.806C246.147 188.379 247.523 193.94 251.151 198.698C254.469 203.048 257.889 207.618 262.35 210.76C261.488 212.131 261.8 212.561 260.086 212.315C258.91 212.147 257.81 211.23 256.621 211.001C254.156 210.528 250.276 212.548 248.753 214.567C247.853 215.761 247.886 216.35 249.546 217.085C250.77 217.627 252.698 217.347 254.013 217.465C257.285 217.757 260.62 217.854 263.902 217.843C269.583 217.822 274.867 216.911 280.49 216.321C282.982 216.059 285.588 216.361 288.027 215.443C291.329 214.202 290.52 210.554 290.092 207.6C289.668 204.673 290.1 202.403 290.56 199.505C290.759 198.246 291.131 196.792 290.868 195.525C290.555 194.02 289.993 193.353 290.065 191.674C290.32 185.699 289.57 179.407 287.986 173.64C284.546 161.114 276.146 151.229 269.141 140.583C267.162 137.576 265.082 134.727 263.507 131.47C262.014 128.385 260.987 125.122 259.505 122.029C256.239 115.21 253.141 108.186 251.232 100.852C249.069 101.703 246.739 102.955 244.42 103.255C241.793 103.595 238.985 101.474 237.328 99.6061C233.549 95.3466 232.688 89.5698 232.97 84.0807C233.054 82.4558 233.155 80.818 233.446 79.215C233.635 78.1745 234.859 75.656 234.58 74.6865C234.281 73.649 232.542 72.7471 232.008 71.7195C231.328 70.4114 231.249 68.7278 231.286 67.2848C231.319 65.9674 232.047 59.5174 234.136 62.1537C235.332 63.6641 233.583 69.3584 234.797 70.1336C235.89 70.8308 237.395 69.9788 238.528 71.573C239.751 73.2959 239.096 75.4194 238.667 77.2541C237.78 81.0484 236.947 85.1456 236.97 89.0424C236.99 92.5908 237.625 97.0767 241.503 98.5119C243.462 99.2369 244.949 98.7383 246.41 97.3879C246.745 97.0025 247.086 96.6233 247.435 96.2501C247.754 95.7007 248.245 95.6324 248.906 96.0455C249.396 95.6568 250.121 92.9706 250.366 92.3704C253.369 85.0116 248.634 76.5625 246.898 69.3423C245.837 64.926 244.911 60.4962 247.06 56.234C247.408 55.544 248.366 54.9444 247.791 53.9544C247.64 53.694 246.193 53.572 245.85 53.2693C244.734 52.2843 244.967 50.4479 244.967 49.1329C242.386 49.9288 241.642 47.9208 241.978 45.4598C240.052 45.765 238.715 46.3537 238.002 44.1263C237.37 42.1509 238.324 40.1367 238.958 38.296C230.049 37.3413 220.428 36.118 213.328 29.9716C211.578 28.456 210.122 26.5483 208.909 24.5719C208.689 24.2146 207.657 21.6987 207.315 21.5674C206.298 21.177 205.445 23.1662 204.541 23.6589C203.738 24.0964 202.596 24.3377 201.704 24.6043C200.864 24.8554 197.903 24.9056 197.378 25.3415C196.065 26.4318 196.169 32.735 196.158 34.1978C196.123 39.2361 197.248 44.257 199.328 48.8442C201.287 53.1644 204.285 59.1056 208.203 61.9329C209.193 62.6477 210.085 63.0183 211.339 62.9592C212.236 62.9173 213.124 62.2897 214.058 62.616C216.42 63.4423 215.575 65.084 213.759 65.8602C208.569 68.0797 204.195 63.2005 201.193 59.7916C200.315 63.836 204.39 68.6219 206.546 71.9218C207.92 74.0248 209.279 76.1299 210.586 78.2758C211.535 79.8343 213.401 82.7125 210.087 81.5087C208.488 89.8978 204.101 97.2345 201.86 105.387C199.56 113.756 197.555 123.311 197.555 132.026C199.306 130.807 200.189 125.252 202.545 129.504C202.8 129.964 202.72 130.725 203.056 131.127C203.521 131.683 204.08 131.529 204.792 131.925C205.92 132.553 206.649 133.805 205.64 134.89C206.939 134.588 208.3 134.742 208.581 136.279C208.738 137.142 207.474 141.138 206.532 141.464C203.658 142.459 200.472 136.723 199.694 134.898C197.899 136.7 195.83 138.085 194.176 135.171C192.943 133 193.658 129.715 193.832 127.351C194.183 122.589 194.64 117.945 195.327 113.229C196.616 104.386 199.886 96.521 203.903 88.5613C205.009 86.3705 206.234 84.1279 207.222 81.8862C208.712 78.5042 206.381 79.3021 204.102 79.7931C199.638 80.7557 194.964 81.5024 190.454 81.8433C188.099 82.0212 185.084 82.1271 182.822 82.8076C181.231 83.2861 181.504 82.9557 180.865 84.6591C180.579 85.4214 180.257 86.2322 179.753 86.8849C177.182 90.2152 170.525 89.6579 166.848 89.4097C167.071 88.0053 167.291 86.6002 167.522 85.197C164.692 85.862 161.33 86.3249 158.415 86.291C156.846 86.2731 155.177 86.0339 153.612 85.9035C152.458 85.8075 150.269 84.9895 149.183 85.3076C147.924 85.6768 146.019 90.2297 145.299 91.6979C143.947 94.4549 141.531 97.5179 140.678 100.421C139.921 102.994 141.465 107.435 141.95 109.997C142.65 113.7 143.289 117.41 144.463 121C145.315 123.604 146.296 127.192 148.91 128.491C151.515 129.785 153.387 130.513 156.206 130.25C161.17 129.786 166.452 130.548 171.353 131.513C176.399 132.506 181.021 132.954 185.813 134.725C196.683 138.741 203.605 151.116 199.506 162.451C197.149 168.971 193.266 173.817 187.57 177.85C184.667 179.906 181.238 181.573 178.055 183.157C176.594 183.885 175.158 184.767 173.669 185.413C172.581 185.885 170.711 186.972 169.528 187.092C170.841 187.716 172.002 187.131 173.367 186.937C175.299 186.663 177.271 186.604 179.21 186.364C182.228 185.991 185.201 185.709 188.22 185.334C190.796 185.015 193.703 184.901 196.264 185.269C197.501 185.447 199.363 185.798 200.464 186.394C201.331 186.863 202.125 187.943 203.057 188.478C204.082 184.27 203.602 179.083 203.65 174.759C203.689 171.23 203.847 167.778 204.179 164.265C204.551 160.335 202.147 155.867 201.259 152.019C200.429 148.417 198.216 143.852 199.03 140.092C200.057 135.353 202.746 143.867 203.116 145.084C204.273 148.893 205.617 152.61 206.899 156.374C208.425 160.851 209.962 165.189 212.184 169.384C214.034 172.875 216.159 176.97 219.959 178.673C219.646 173.539 219.297 168.786 217.163 164.052C215.139 159.564 212.052 155.572 210.702 150.762C210.032 148.372 209.934 145.928 209.9 143.459C209.878 141.799 209.954 139.566 211.736 141.357C213.149 142.777 213.423 147.306 214.041 149.218C214.339 150.138 214.752 150.983 215.081 151.878C215.229 152.281 216.227 154.244 216.227 154.508C217.255 157.611 219.53 160.588 221.128 163.444Z" fill="#27262D"/>
<path fill-rule="evenodd" clip-rule="evenodd" d="M112.034 50.2994C112.132 51.5016 112.83 54.6174 111.937 55.5687C110.753 56.8309 110.192 55.2074 109.68 53.9273C108.61 51.2524 108.078 46.0726 110.193 43.8435C112.4 41.5157 116.761 41.453 119.116 39.1348C120.062 38.2036 119.971 38.3979 119.889 36.942C119.842 36.12 119.31 35.0277 119.053 34.2889C118.385 32.369 117.652 30.4722 116.953 28.5635C115.731 29.1202 113.974 30.8375 112.77 29.3981C111.658 28.0672 113.509 25.8866 114.797 25.4976C114.125 24.0268 110.955 24.2987 110.351 22.1383C109.826 20.2606 111.333 21.0067 111.663 20.2672C112.051 19.397 111.257 18.2206 111.665 17.4188C113.085 14.6347 114.657 19.7537 115.364 20.6675C116.679 22.3669 118.97 22.7382 119.172 25.3088C119.296 26.8915 119.177 27.6273 119.829 29.1816C120.429 30.6124 121.143 31.9846 121.647 33.457C122.405 35.6755 123.574 39.713 122.092 41.8612C120.843 43.6732 117.809 45.0545 115.836 45.8294C114.848 46.2171 113.478 46.4534 112.678 47.2087C111.635 48.1941 111.96 48.7996 112.034 50.2994Z" fill="#27262D"/>
<path fill-rule="evenodd" clip-rule="evenodd" d="M214.541 117.386C214.316 117.031 214.09 116.677 213.865 116.322C212.304 117.99 210.575 118.675 208.997 116.557C207.372 114.376 207.982 111.106 208.614 108.725C208.939 107.499 210.584 102.667 211.637 106.348C211.87 107.161 211.092 108.97 210.952 109.765C210.675 111.325 210.457 112.822 210.652 114.411C212.482 112.773 213.379 108.62 215.237 112.932C215.91 114.496 215.984 117.071 217.777 114.696C218.735 113.427 218.796 111.086 219.244 109.591C222.302 110.322 221.744 114.842 220.724 117.045C219.099 120.551 216.888 119.422 214.541 117.386Z" fill="#27262D"/>
<path fill-rule="evenodd" clip-rule="evenodd" d="M225.244 38.7187C226.331 40.532 224.274 43.8481 223.902 45.7099C225.723 45.499 230.231 41.1059 231.5 41.8302C234.141 43.3376 228.562 48.595 227.49 49.3655C218.923 55.5225 220.467 37.7126 225.244 38.7187Z" fill="#27262D"/>
<path fill-rule="evenodd" clip-rule="evenodd" d="M214.5 58.9119C217.701 58.0209 222.017 63.7647 219.941 66.6093C218.451 68.6496 216.611 67.4828 216.144 65.6866C215.907 64.7706 216.117 63.6667 215.806 62.6451C215.423 61.3872 214.91 60.1619 214.5 58.9119Z" fill="#27262D"/>
<path fill-rule="evenodd" clip-rule="evenodd" d="M116.053 34.1536C118.487 36.1994 113.513 41.1872 111.02 37.2816C110.334 36.2074 110.21 35.2268 111.226 34.8301C111.74 34.6301 112.951 35.2852 113.676 35.1694C114.47 35.0423 115.333 34.4836 116.053 34.1536Z" fill="#27262D"/>
<path fill-rule="evenodd" clip-rule="evenodd" d="M107.69 25.9746C106.745 24.7964 104.091 17.5489 107.38 19.1631C109.032 19.9737 110.397 26.1694 107.69 25.9746Z" fill="#27262D"/>
<path fill-rule="evenodd" clip-rule="evenodd" d="M216.3 181.833C216.206 180.919 216.113 180.004 216.02 179.089C217.234 179.708 219.671 180.32 220.094 181.706C220.888 184.311 217.2 182.228 216.3 181.833Z" fill="#27262D"/>
<path fill-rule="evenodd" clip-rule="evenodd" d="M251.553 71.5285C250.83 70.5514 248.58 62.4009 250.532 62.5873C250.874 65.5441 250.944 68.6146 251.553 71.5285Z" fill="#27262D"/>
<path fill-rule="evenodd" clip-rule="evenodd" d="M221.128 163.444C219.53 160.588 217.255 157.611 216.227 154.508C218.638 156.46 220.522 160.448 221.128 163.444Z" fill="#27262D"/>
<path fill-rule="evenodd" clip-rule="evenodd" d="M286.677 156.824C286.774 157.859 286.871 158.894 286.969 159.929C285.521 160.303 286.588 157.165 286.677 156.824Z" fill="#27262D"/>
<path fill-rule="evenodd" clip-rule="evenodd" d="M216.231 154.513C215.545 153.767 215.252 152.849 215.082 151.878C215.465 152.756 215.848 153.634 216.231 154.513Z" fill="#27262D"/>
<path fill-rule="evenodd" clip-rule="evenodd" d="M224.52 201.372C224.545 200.451 224.57 199.529 224.596 198.611C224.57 199.532 224.545 200.452 224.52 201.372Z" fill="#27262D"/>
<path fill-rule="evenodd" clip-rule="evenodd" d="M116.23 51.9326C116.844 52.0088 117.457 52.085 118.071 52.1613C117.587 52.388 116.446 52.6893 116.23 51.9326Z" fill="#27262D"/>
<path fill-rule="evenodd" clip-rule="evenodd" d="M238.543 211.038C239.181 210.941 239.822 210.722 240.449 211.075C239.812 211.063 239.178 211.05 238.543 211.038Z" fill="#27262D"/>
<path fill-rule="evenodd" clip-rule="evenodd" d="M220.309 190.231C220.317 190.914 220.326 191.596 220.333 192.276C220.324 191.593 220.317 190.912 220.309 190.231Z" fill="#27262D"/>
<path fill-rule="evenodd" clip-rule="evenodd" d="M233.492 179.617C233.451 180.345 233.411 181.072 233.371 181.798C233.411 181.07 233.451 180.344 233.492 179.617Z" fill="#27262D"/>
<path fill-rule="evenodd" clip-rule="evenodd" d="M224.811 182.464C224.776 181.831 224.741 181.198 224.707 180.567C224.742 181.2 224.776 181.832 224.811 182.464Z" fill="#27262D"/>
<path fill-rule="evenodd" clip-rule="evenodd" d="M243.775 188.048C243.74 188.612 243.706 189.176 243.672 189.738C243.706 189.174 243.74 188.611 243.775 188.048Z" fill="#27262D"/>
<path fill-rule="evenodd" clip-rule="evenodd" d="M129.196 202.29C128.575 202.602 127.955 202.634 127.336 202.286C127.956 202.287 128.576 202.288 129.196 202.29Z" fill="#27262D"/>
<path fill-rule="evenodd" clip-rule="evenodd" d="M192.734 31.9456C192.743 32.503 192.752 33.0604 192.76 33.6155C192.751 33.0574 192.743 32.5017 192.734 31.9456Z" fill="#27262D"/>
<path fill-rule="evenodd" clip-rule="evenodd" d="M131.087 47.1526C130.451 47.2008 129.815 47.2487 129.18 47.2968C129.815 47.2487 130.451 47.2008 131.087 47.1526Z" fill="#27262D"/>
<path fill-rule="evenodd" clip-rule="evenodd" d="M262.412 49.2978C262.408 48.7476 262.405 48.1975 262.402 47.6483C262.694 48.1975 262.7 48.747 262.412 49.2978Z" fill="#27262D"/>
<path fill-rule="evenodd" clip-rule="evenodd" d="M112.032 50.2996C112.003 49.7151 111.974 49.131 111.945 48.5475C111.975 49.1323 112.003 49.7158 112.032 50.2996Z" fill="#27262D"/>
<path fill-rule="evenodd" clip-rule="evenodd" d="M268.254 222.953C268.683 222.956 269.113 222.959 269.538 222.962C269.107 222.959 268.681 222.956 268.254 222.953Z" fill="#27262D"/>
<path fill-rule="evenodd" clip-rule="evenodd" d="M99.2526 0.0984497C98.688 0.146634 98.1233 0.194819 97.5586 0.242674C98.1233 0.194819 98.688 0.146634 99.2526 0.0984497Z" fill="#27262D"/>
<path fill-rule="evenodd" clip-rule="evenodd" d="M154.945 215.682C155.309 215.682 155.673 215.682 156.033 215.682C155.668 215.682 155.307 215.682 154.945 215.682Z" fill="#27262D"/>
<path fill-rule="evenodd" clip-rule="evenodd" d="M211.34 62.9592C210.788 62.9041 210.235 62.8487 209.684 62.7932C210.236 62.8487 210.788 62.9041 211.34 62.9592Z" fill="#27262D"/>
<path fill-rule="evenodd" clip-rule="evenodd" d="M236.438 214.719C236.471 214.264 236.505 213.809 236.539 213.356C236.505 213.812 236.471 214.265 236.438 214.719Z" fill="#27262D"/>
<path fill-rule="evenodd" clip-rule="evenodd" d="M176.669 57.1329C176.126 57.128 175.582 57.1233 175.039 57.1187C175.585 56.8026 176.128 56.893 176.669 57.1329Z" fill="#27262D"/>
<path fill-rule="evenodd" clip-rule="evenodd" d="M104.14 0.250565C103.592 0.233074 103.013 0.518551 102.508 0.0842285C103.052 0.139674 103.596 0.19512 104.14 0.250565Z" fill="#27262D"/>
<path fill-rule="evenodd" clip-rule="evenodd" d="M89.3409 53.9574C88.8158 54.0056 88.2904 54.0538 87.7656 54.1016C88.291 54.0534 88.8158 54.0056 89.3409 53.9574Z" fill="#27262D"/>
<path fill-rule="evenodd" clip-rule="evenodd" d="M122.425 201.818C121.872 201.876 121.318 201.933 120.766 201.991C121.319 201.933 121.872 201.876 122.425 201.818Z" fill="#27262D"/>
<path fill-rule="evenodd" clip-rule="evenodd" d="M136.196 46.8194C135.657 46.8309 135.117 46.8425 134.578 46.854C135.113 46.6398 135.648 46.4378 136.196 46.8194Z" fill="#27262D"/>
<path fill-rule="evenodd" clip-rule="evenodd" d="M224.501 194.358C224.498 193.89 224.495 193.422 224.492 192.956C224.495 193.424 224.498 193.891 224.501 194.358Z" fill="#27262D"/>
<path fill-rule="evenodd" clip-rule="evenodd" d="M286.877 154.706C286.819 155.271 286.761 155.836 286.703 156.402C286.761 155.837 286.819 155.271 286.877 154.706Z" fill="#27262D"/>
<path fill-rule="evenodd" clip-rule="evenodd" d="M216.882 191.137C216.842 190.656 216.802 190.175 216.762 189.695C216.802 190.176 216.842 190.657 216.882 191.137Z" fill="#27262D"/>
<path fill-rule="evenodd" clip-rule="evenodd" d="M35.4323 186.717C35.3336 187.197 34.9838 187.291 34.3828 187L35.4323 186.717Z" fill="#27262D"/>
<path fill-rule="evenodd" clip-rule="evenodd" d="M237.021 186.93C236.989 186.512 236.957 186.094 236.926 185.677C236.958 186.095 236.989 186.513 237.021 186.93Z" fill="#27262D"/>
<path fill-rule="evenodd" clip-rule="evenodd" d="M123.995 47.8268C123.541 47.8885 123.087 47.9499 122.633 48.0116C123.087 47.9499 123.541 47.8885 123.995 47.8268Z" fill="#27262D"/>
<path fill-rule="evenodd" clip-rule="evenodd" d="M220.034 183.367C220.033 183.777 220.032 184.188 220.031 184.597C220.032 184.186 220.033 183.776 220.034 183.367Z" fill="#27262D"/>
<path fill-rule="evenodd" clip-rule="evenodd" d="M27.0874 126.964C27.0426 127.374 26.9977 127.783 26.9531 128.191C26.998 127.781 27.0426 127.373 27.0874 126.964Z" fill="#27262D"/>
<path fill-rule="evenodd" clip-rule="evenodd" d="M299.014 155.097C298.99 154.711 298.965 154.326 298.941 153.942C298.965 154.328 298.99 154.712 299.014 155.097Z" fill="#27262D"/>
<path fill-rule="evenodd" clip-rule="evenodd" d="M64.5671 205.965C64.0981 205.958 63.6291 205.951 63.1602 205.943C63.6347 205.618 64.1024 205.688 64.5671 205.965Z" fill="#27262D"/>
<path fill-rule="evenodd" clip-rule="evenodd" d="M119.183 25.8878C119.175 25.5013 119.168 25.1148 119.16 24.7297C119.401 25.1122 119.478 25.4963 119.183 25.8878Z" fill="#27262D"/>
<path fill-rule="evenodd" clip-rule="evenodd" d="M81.7344 20.9868C81.767 20.6056 81.7997 20.2244 81.8321 19.8455C81.7994 20.2274 81.767 20.6069 81.7344 20.9868Z" fill="#27262D"/>
<path fill-rule="evenodd" clip-rule="evenodd" d="M236.743 154.408C236.727 153.988 236.711 153.568 236.695 153.148C236.711 153.569 236.727 153.989 236.743 154.408Z" fill="#27262D"/>
<path fill-rule="evenodd" clip-rule="evenodd" d="M233.727 176.11C233.715 176.506 233.704 176.902 233.691 177.296C233.703 176.899 233.715 176.504 233.727 176.11Z" fill="#27262D"/>
<path fill-rule="evenodd" clip-rule="evenodd" d="M179.746 214.318C180.04 214.317 180.334 214.316 180.624 214.317C180.33 214.318 180.038 214.318 179.746 214.318Z" fill="#27262D"/>
<path fill-rule="evenodd" clip-rule="evenodd" d="M36.7461 214.518C37.0395 214.526 37.3326 214.534 37.6223 214.542C37.3279 214.534 37.0369 214.526 36.7461 214.518Z" fill="#27262D"/>
<path fill-rule="evenodd" clip-rule="evenodd" d="M214.13 179.747C211.27 177.537 208.776 174.232 208.195 170.694C209.425 172.084 210.459 173.634 211.69 175.023C212.179 175.575 212.778 176.05 213.248 176.611C214.318 177.893 214.13 177.949 214.13 179.747Z" fill="#27262D"/>
<path fill-rule="evenodd" clip-rule="evenodd" d="M204.079 164.809C202.706 161.647 201.514 157.811 201.753 154.323C202.701 157.49 204.898 161.469 204.079 164.809Z" fill="#27262D"/>
<path fill-rule="evenodd" clip-rule="evenodd" d="M208.686 183.403C208.663 184.321 208.639 185.239 208.617 186.155C208.641 185.236 208.663 184.319 208.686 183.403Z" fill="#27262D"/>
<path fill-rule="evenodd" clip-rule="evenodd" d="M27.1367 208.355C28.075 208.41 29.0136 208.466 29.9519 208.522C29.0093 208.534 28.0542 208.763 27.1367 208.355Z" fill="#27262D"/>
<path fill-rule="evenodd" clip-rule="evenodd" d="M208.684 180.37C208.687 181.153 208.69 181.936 208.694 182.717C208.69 181.933 208.687 181.152 208.684 180.37Z" fill="#27262D"/>
<path fill-rule="evenodd" clip-rule="evenodd" d="M170.128 89.607C169.599 89.5797 169.071 89.5519 168.547 89.5245C169.077 89.5519 169.602 89.5797 170.128 89.607Z" fill="#27262D"/>
<path fill-rule="evenodd" clip-rule="evenodd" d="M178.721 70.1368C178.719 69.5015 178.717 68.8662 178.715 68.2322C178.716 68.8678 178.719 69.5025 178.721 70.1368Z" fill="#27262D"/>
<path fill-rule="evenodd" clip-rule="evenodd" d="M167.378 86.0719C167.354 85.6251 167.116 85.4 166.664 85.397C167.572 84.9066 167.81 85.1317 167.378 86.0719Z" fill="#27262D"/>
<path fill-rule="evenodd" clip-rule="evenodd" d="M194.293 121.412C194.328 120.847 194.364 120.281 194.399 119.717C194.364 120.283 194.328 120.848 194.293 121.412Z" fill="#27262D"/>
<path fill-rule="evenodd" clip-rule="evenodd" d="M40.457 208.754C41.09 208.71 41.723 208.666 42.356 208.622C41.7227 208.666 41.09 208.71 40.457 208.754Z" fill="#27262D"/>
<path fill-rule="evenodd" clip-rule="evenodd" d="M173.406 132.01L175.29 131.996C174.662 132.001 174.034 132.005 173.406 132.01Z" fill="#27262D"/>
<path fill-rule="evenodd" clip-rule="evenodd" d="M191.388 63.1255C190.95 63.1291 190.512 63.1328 190.078 63.1361C190.518 63.1324 190.953 63.1291 191.388 63.1255Z" fill="#27262D"/>
<path fill-rule="evenodd" clip-rule="evenodd" d="M282.695 216.083C283.244 216.081 283.793 216.078 284.343 216.076C283.795 216.422 283.246 216.413 282.695 216.083Z" fill="#27262D"/>
<path fill-rule="evenodd" clip-rule="evenodd" d="M52.1601 140.086C51.7878 140.097 51.4155 140.107 51.0469 140.118C51.4205 140.107 51.7901 140.097 52.1601 140.086Z" fill="#27262D"/>
<path fill-rule="evenodd" clip-rule="evenodd" d="M249.902 57.8423C250.254 58.1823 249.791 58.9638 249.371 58.6945C249.548 58.4103 249.725 58.1265 249.902 57.8423Z" fill="#27262D"/>
<path fill-rule="evenodd" clip-rule="evenodd" d="M77.7852 174.494C77.8007 174.013 77.8165 173.532 77.832 173.052C77.8162 173.533 77.8007 174.013 77.7852 174.494Z" fill="#27262D"/>
<path fill-rule="evenodd" clip-rule="evenodd" d="M203.652 174.759C203.678 174.258 203.703 173.756 203.728 173.255C203.703 173.757 203.677 174.258 203.652 174.759Z" fill="#27262D"/>
<path fill-rule="evenodd" clip-rule="evenodd" d="M291.488 122.482C291.509 122.984 291.53 123.487 291.551 123.987C291.53 123.485 291.509 122.983 291.488 122.482Z" fill="#27262D"/>
<path fill-rule="evenodd" clip-rule="evenodd" d="M121.871 179.362C122.433 179.41 122.996 179.458 123.558 179.506C122.996 179.458 122.433 179.41 121.871 179.362Z" fill="#27262D"/>
<path fill-rule="evenodd" clip-rule="evenodd" d="M198.988 140.84C199.016 140.341 199.043 139.842 199.071 139.344C199.043 139.843 199.016 140.342 198.988 140.84Z" fill="#27262D"/>
<path fill-rule="evenodd" clip-rule="evenodd" d="M101.285 150.331C101.846 150.383 102.406 150.434 102.966 150.486C102.406 150.434 101.846 150.382 101.285 150.331Z" fill="#27262D"/>
<path fill-rule="evenodd" clip-rule="evenodd" d="M150.876 193.958C150.515 193.958 150.154 193.958 149.797 193.958C150.159 193.958 150.518 193.958 150.876 193.958Z" fill="#27262D"/>
<path fill-rule="evenodd" clip-rule="evenodd" d="M182.708 72.0128C182.687 72.4792 182.665 72.9452 182.645 73.4092C182.666 72.9425 182.687 72.4775 182.708 72.0128Z" fill="#27262D"/>
<path fill-rule="evenodd" clip-rule="evenodd" d="M190.703 185.109C191.258 184.715 191.798 184.975 192.339 185.146C191.794 185.134 191.248 185.121 190.703 185.109Z" fill="#27262D"/>
<path fill-rule="evenodd" clip-rule="evenodd" d="M125.849 51.6979C125.484 51.6831 125.119 51.6679 124.758 51.6514C125.124 51.6662 125.486 51.6821 125.849 51.6979Z" fill="#27262D"/>
<path fill-rule="evenodd" clip-rule="evenodd" d="M214.286 193.683C214.253 193.219 214.22 192.755 214.188 192.292C214.22 192.757 214.253 193.22 214.286 193.683Z" fill="#27262D"/>
<path fill-rule="evenodd" clip-rule="evenodd" d="M184.414 141.283C184.113 141.285 183.813 141.287 183.516 141.29C183.818 141.288 184.116 141.285 184.414 141.283Z" fill="#27262D"/>
<path fill-rule="evenodd" clip-rule="evenodd" d="M177.859 186.539C178.31 186.481 178.76 186.423 179.21 186.364C178.759 186.423 178.309 186.481 177.859 186.539Z" fill="#27262D"/>
<path fill-rule="evenodd" clip-rule="evenodd" d="M158.391 130.21C158.878 130.207 159.366 130.203 159.854 130.2C159.368 130.487 158.88 130.433 158.391 130.21Z" fill="#27262D"/>
<path fill-rule="evenodd" clip-rule="evenodd" d="M183.658 82.8151C183.376 82.8125 183.095 82.8098 182.816 82.8075C183.1 82.8098 183.379 82.8125 183.658 82.8151Z" fill="#27262D"/>
<path fill-rule="evenodd" clip-rule="evenodd" d="M100.361 154.638C100.07 154.634 99.7793 154.63 99.4922 154.625C99.7843 154.63 100.072 154.634 100.361 154.638Z" fill="#27262D"/>
<path fill-rule="evenodd" clip-rule="evenodd" d="M44.1992 135.578C44.686 135.582 45.1728 135.588 45.6596 135.593C45.1698 135.868 44.683 135.875 44.1992 135.578Z" fill="#27262D"/>
<path fill-rule="evenodd" clip-rule="evenodd" d="M291.536 136.383C291.505 136.754 291.475 137.126 291.445 137.495C291.476 137.123 291.506 136.753 291.536 136.383Z" fill="#27262D"/>
<path fill-rule="evenodd" clip-rule="evenodd" d="M167.605 196.067C167.647 195.662 167.688 195.256 167.73 194.852C167.688 195.258 167.647 195.663 167.605 196.067Z" fill="#27262D"/>
<path fill-rule="evenodd" clip-rule="evenodd" d="M88.8906 147.75C89.3824 147.757 89.8744 147.764 90.3665 147.771C89.8695 148.114 89.3804 147.898 88.8906 147.75Z" fill="#27262D"/>
<path fill-rule="evenodd" clip-rule="evenodd" d="M201.035 76.5588C201.514 76.5047 201.992 76.4506 202.47 76.3965C201.992 76.4506 201.514 76.5047 201.035 76.5588Z" fill="#27262D"/>
<path fill-rule="evenodd" clip-rule="evenodd" d="M161.055 206.525C161.098 206.951 161.141 207.378 161.184 207.802C161.141 207.376 161.098 206.951 161.055 206.525Z" fill="#27262D"/>
<path fill-rule="evenodd" clip-rule="evenodd" d="M203.658 178.507C203.658 178.109 203.657 177.712 203.656 177.316C203.657 177.715 203.658 178.111 203.658 178.507Z" fill="#27262D"/>
<path fill-rule="evenodd" clip-rule="evenodd" d="M30.1836 208.578C30.6466 208.639 31.1097 208.7 31.5724 208.761C31.1093 208.7 30.6463 208.639 30.1836 208.578Z" fill="#27262D"/>
<path fill-rule="evenodd" clip-rule="evenodd" d="M38.8711 208.765C39.3282 208.392 39.7922 208.506 40.2579 208.746C39.7955 208.752 39.3331 208.759 38.8711 208.765Z" fill="#27262D"/>
<path fill-rule="evenodd" clip-rule="evenodd" d="M122.398 154.014C122.851 153.959 123.304 153.903 123.756 153.848C123.303 153.903 122.851 153.959 122.398 154.014Z" fill="#27262D"/>
<path fill-rule="evenodd" clip-rule="evenodd" d="M172.711 210.87C173.172 210.808 173.634 210.746 174.095 210.685C173.633 210.746 173.172 210.808 172.711 210.87Z" fill="#27262D"/>
<path fill-rule="evenodd" clip-rule="evenodd" d="M156.57 211.587C157.041 211.526 157.511 211.466 157.982 211.405C157.511 211.466 157.041 211.526 156.57 211.587Z" fill="#27262D"/>
<path fill-rule="evenodd" clip-rule="evenodd" d="M182.48 74.831C182.459 75.2109 182.438 75.5911 182.418 75.9686C182.439 75.5878 182.459 75.2092 182.48 74.831Z" fill="#27262D"/>
<path fill-rule="evenodd" clip-rule="evenodd" d="M71.6523 165.404C71.6943 165.001 71.7362 164.597 71.7781 164.195C71.7358 164.599 71.6943 165.002 71.6523 165.404Z" fill="#27262D"/>
<path fill-rule="evenodd" clip-rule="evenodd" d="M178.844 65.0063C178.856 64.6106 178.868 64.2149 178.881 63.8212C178.869 64.2175 178.856 64.6119 178.844 65.0063Z" fill="#27262D"/>
<path fill-rule="evenodd" clip-rule="evenodd" d="M88.9766 160.918C89.0181 161.322 89.0597 161.726 89.101 162.129C89.0594 161.724 89.0178 161.321 88.9766 160.918Z" fill="#27262D"/>
<path fill-rule="evenodd" clip-rule="evenodd" d="M90.5352 147.754C91.0124 147.807 91.4896 147.859 91.9665 147.912C91.4893 147.859 91.0121 147.807 90.5352 147.754Z" fill="#27262D"/>
<path fill-rule="evenodd" clip-rule="evenodd" d="M166.504 206.634C166.776 207.431 166.676 209.287 165.904 209.849C164.303 211.016 164.139 208.885 163.821 207.734C162.939 204.541 161.52 200.976 161.158 197.693C161.047 196.687 160.987 194.801 162.319 194.461C163.605 194.134 164.256 196.171 164.7 197.217C165.93 200.119 166.643 203.486 166.504 206.634Z" fill="#27262D"/>
<path fill-rule="evenodd" clip-rule="evenodd" d="M166.504 206.634C166.522 206.221 166.541 205.809 166.559 205.398C166.54 205.811 166.522 206.223 166.504 206.634Z" fill="#27262D"/>
</svg>
