<svg width="856" height="484" viewBox="0 0 856 484" fill="none" xmlns="http://www.w3.org/2000/svg">
  <path d="M772.966 456.703H528.809H545.723L700.146 455.253C728.693 453.241 748.809 430.544 737.964 409.055C736.089 405.342 738.049 404.308 735.73 400.728C711.454 363.675 669.364 333.491 621.668 315.957C622.849 315.777 624.039 315.645 625.254 315.513C616.372 311.908 607.224 308.749 597.862 306.056C592.898 304.619 587.873 303.322 582.857 302.184C558.195 296.549 524.871 299.124 514.377 321.258C505.551 339.84 517.27 362.287 539.312 370.426L578.902 382.694C578.568 382.292 578.268 381.889 577.96 381.466L612.389 392.131C613.073 392.519 613.593 393.067 613.881 393.701C614.17 394.336 614.212 395.026 614.002 395.681C613.793 396.336 613.341 396.923 612.709 397.363C612.076 397.804 611.293 398.077 610.463 398.147L526.849 405.55C514.796 406.536 499.705 410.623 490.82 417.346C484.34 422.203 478.878 428.816 478.93 437.184C473.465 437.518 468.033 438.137 462.666 439.037C454.474 440.466 446.136 442.93 445.546 446.975C444.382 455.093 458.617 456.745 467.588 456.745L410.818 456.564C416.912 456.564 417.666 456.523 421.706 453.261C425.746 450 430.266 447.488 430.266 442.548L430.763 426.714C430.763 423.452 431.721 420.816 427.698 420.816H391.746C393.21 420.848 394.655 420.538 395.907 419.923C397.159 419.308 398.166 418.414 398.808 417.346C398.836 417.321 398.854 417.29 398.859 417.256C400.657 414.55 401.068 410.657 400.734 406.973L401.154 405.766L402.232 402.546L425.07 391.652C425.241 391.572 425.407 391.484 425.567 391.388C437.482 385.484 438.972 374.93 434.888 365.493C434.803 365.313 434.752 365.153 434.666 365C434.478 364.598 434.306 364.216 434.092 363.835C433.003 361.683 431.652 359.624 430.061 357.687C424.163 350.221 415.603 344.135 407.471 342.547C405.19 342.129 402.859 341.919 400.52 341.922C428.819 320.412 461.425 301.296 499.936 294.94C533.632 289.297 568.479 290.033 601.766 297.091C640.662 305.48 675.69 322.896 703.467 346.418C740.857 378.038 758.345 414.98 772.966 456.703Z" fill="#353642"/>
  <path d="M392.562 361.635C391.22 363.778 389.023 365.489 386.33 366.492C384.03 367.429 381.595 368.129 379.08 368.574C374.937 369.136 373.473 367.012 370.828 364.931C369.321 363.75 367.586 362.775 365.692 362.044C364.557 361.592 363.313 361.35 362.05 361.335C360.785 361.319 359.533 361.531 358.382 361.954C357.603 362.236 356.94 362.694 356.475 363.274C356.011 363.854 355.763 364.531 355.762 365.222C355.934 367.769 360.265 369.781 362.713 370.836C365.909 372.06 369.232 373.053 372.643 373.805C381.006 375.887 367.079 380.224 364.151 380.494C357.89 381.182 351.534 381.06 345.319 380.134C347.104 383.365 348.472 386.736 349.402 390.195C350.37 393.505 351.5 397.487 350.703 400.818C349.736 404.731 346.475 407.639 342.452 409.609L326.812 356.722C332.579 354.496 338.851 353.259 345.235 353.089C351.619 352.92 357.978 353.821 363.912 355.737C365.891 356.329 368.037 356.447 370.096 356.078C372.156 355.708 374.041 354.868 375.527 353.655L377.128 352.399C379.357 352.007 381.68 352.156 383.805 352.83C387.597 353.988 394.616 357.714 392.562 361.635Z" fill="#755EC6"/>
  <path d="M408.62 420.774H344.044C343.39 425.712 340.508 430.279 335.951 433.598C331.394 436.918 325.483 438.753 319.357 438.752H102.258C102.272 443.512 104.61 448.072 108.762 451.438C112.913 454.803 118.54 456.699 124.411 456.71H408.603C414.474 456.693 420.1 454.797 424.254 451.433C428.408 448.07 430.755 443.512 430.782 438.752V426.679C430.782 425.113 430.014 423.61 428.648 422.503C427.282 421.396 425.43 420.774 423.498 420.774H408.62Z" stroke="black" stroke-width="1.56492" stroke-miterlimit="10"/>
  <path d="M308.895 303.384C310.802 305.514 312.173 307.929 312.927 310.489L343.52 413.877C344.196 416.121 344.373 418.445 344.043 420.739C343.389 425.678 340.507 430.245 335.95 433.564C331.393 436.883 325.482 438.718 319.356 438.718H98.2251C92.6414 438.715 87.2221 437.189 82.8387 434.387C78.4553 431.583 75.363 427.666 74.06 423.265L43.5008 319.878C42.6181 316.916 42.5767 313.83 43.3796 310.854C44.1826 307.878 45.8088 305.088 48.1358 302.695C50.4629 300.302 53.4298 298.369 56.8129 297.041C60.196 295.713 63.9069 295.026 67.6656 295.03H288.762C292.394 295.026 295.982 295.671 299.271 296.919C302.561 298.168 305.47 299.989 307.791 302.253L308.895 303.384Z" stroke="black" stroke-width="1.56492" stroke-miterlimit="10"/>
  <path d="M201.617 395.221C214.21 392.002 220.801 380.093 216.338 368.62C211.876 357.148 198.05 350.457 185.457 353.675C172.865 356.894 166.273 368.803 170.736 380.275C175.198 391.748 189.024 398.439 201.617 395.221Z" fill="#755EC6" fill-opacity="0.15"/>
  <path d="M626.465 314.909C606.957 317.553 591.96 324.783 581.894 339.75C572.88 353.142 571.827 369.483 581.44 382.77L542.192 370.572C519.465 362.134 511.47 343.386 520.578 324.131C531.407 301.191 565.766 298.527 591.198 304.369C596.377 305.549 601.547 306.895 606.666 308.38C613.354 310.323 619.954 312.499 626.465 314.909Z" fill="#353642"/>
  <path d="M169.383 295.044C184.953 278.734 206.424 266.779 230.792 260.849C227.546 253.782 224.971 246.524 223.088 239.138C202.87 159.425 266.102 81.4962 364.414 65.0583C462.725 48.6204 558.897 99.8562 579.167 179.548C581.433 188.478 582.694 197.557 582.934 206.671C589.957 204.652 597.145 203.029 604.445 201.814C690.362 187.416 774.421 232.227 792.157 301.885C797.163 321.471 796.463 341.734 790.114 361.062C783.764 380.39 771.939 398.251 755.58 413.225" stroke="#755EC6" stroke-opacity="0.15" stroke-width="1.56492" stroke-miterlimit="10"/>
  <path d="M383.684 420.781H389.753C391.498 420.815 393.229 420.519 394.808 419.917C396.387 419.315 397.772 418.422 398.852 417.312C398.88 417.285 398.901 417.255 398.912 417.221C401.089 414.808 402.081 411.826 401.694 408.853L401.197 405.724L400.786 403.198L402.276 402.504L425.61 391.346L427.185 390.611C438.579 385.178 439.401 375.048 434.932 365.451C434.855 365.278 434.795 365.118 434.718 364.959C434.521 364.556 434.325 364.181 434.136 363.8C432.993 361.668 431.645 359.612 430.104 357.651C424.207 350.178 415.655 344.101 407.515 342.512C405.235 342.09 402.903 341.88 400.564 341.887C395.685 341.887 390.292 342.644 387.459 344.926C417.727 320.786 453.088 298.131 495.623 291.102C529.334 285.469 564.193 286.219 597.487 293.294C636.383 301.683 671.445 319.121 699.222 342.644C700.686 343.879 702.116 345.128 703.502 346.404C738.316 377.421 760.52 416.597 774.55 456.689" stroke="black" stroke-width="1.56492" stroke-miterlimit="10"/>
  <path d="M394.359 456.71H813.2" stroke="black" stroke-width="1.56492" stroke-miterlimit="10"/>
  <path d="M499.801 456.703H547.326" stroke="black" stroke-width="1.04328" stroke-miterlimit="10"/>
  <path d="M539.527 370.246C517.477 362.107 505.767 339.66 514.584 321.085C525.095 298.943 558.419 296.369 583.064 302.003C588.097 303.146 593.098 304.437 598.069 305.875C653.478 321.834 703.828 354.967 731.323 396.946C733.642 400.499 735.491 404.149 737.366 407.868C739.893 412.864 740.936 418.273 740.408 423.656C739.881 429.039 737.8 434.246 734.332 438.857C730.865 443.468 726.108 447.353 720.445 450.199C714.784 453.045 708.376 454.771 701.739 455.239L547.326 456.703H499.8C495.602 456.704 491.508 455.638 488.094 453.657C484.679 451.676 482.116 448.879 480.763 445.656C475.55 433.167 482.287 423.744 490.804 417.325C499.689 410.636 511.279 406.813 523.332 405.828L610.079 398.723C610.909 398.654 611.694 398.38 612.328 397.94C612.963 397.499 613.416 396.912 613.626 396.257C613.838 395.603 613.797 394.911 613.511 394.275C613.224 393.64 612.704 393.09 612.022 392.7L539.527 370.246Z" stroke="black" stroke-width="1.56492" stroke-miterlimit="10"/>
  <path d="M513.666 419.469C505.748 423.161 497.608 428.941 494.886 436.261C491.753 444.692 499.106 452.352 507.46 456.738" stroke="black" stroke-width="1.56492" stroke-miterlimit="10"/>
  <path d="M522.161 429.142C514.774 434.839 508.371 442.062 512.642 450.652C513.864 453.009 515.766 455.094 518.189 456.731" stroke="black" stroke-width="1.56492" stroke-miterlimit="10"/>
  <path d="M536.653 440.286C536.653 440.286 519.645 450.534 530.447 456.682" stroke="black" stroke-width="1.56492" stroke-miterlimit="10"/>
  <path d="M492.995 455.725L493.295 456.71H465.851C456.88 456.71 444.451 455.593 445.624 447.474C446.797 439.356 478.922 437.143 478.922 437.143" stroke="black" stroke-width="1.56492" stroke-miterlimit="10"/>
  <path d="M443.768 200.441L385.363 207.525L395.541 213.34L414.579 225.698C417.557 227.398 416.813 231.408 418.465 233.844C419.092 237.52 418.38 241.264 416.415 244.616C414.45 247.968 411.319 250.781 407.407 252.708C403.495 254.637 398.974 255.595 394.398 255.466C389.823 255.336 385.394 254.125 381.657 251.982L335.732 225.795C330.663 222.958 326.595 219.098 323.928 214.596C320.17 199.435 331.701 182.573 353.888 179.902L417.729 172.131L408.313 166.205L379.32 147.914C376.837 146.356 374.764 144.409 373.225 142.19C372.581 138.433 373.335 134.605 375.392 131.198C377.448 127.791 380.714 124.959 384.768 123.067C388.823 121.174 393.483 120.306 398.151 120.574C402.819 120.842 407.281 122.235 410.966 124.572L462.686 157.184C466.915 159.818 470.335 163.209 472.675 167.093C476.202 181.748 464.92 197.866 443.768 200.441Z" fill="#755EC6"/>
  <path d="M400.796 403.191C400.796 403.191 399.015 390.493 392.98 386.018" stroke="black" stroke-width="1.56492" stroke-miterlimit="10"/>
  <path d="M326.215 357.61C332.042 355.29 338.405 353.986 344.893 353.783C351.38 353.58 357.848 354.482 363.879 356.431C365.86 357.023 368.01 357.142 370.072 356.773C372.134 356.404 374.022 355.563 375.512 354.349L387.436 344.885" stroke="black" stroke-width="1.56492" stroke-miterlimit="10"/>
  <path d="M364.117 411.552L374.072 415.181C374.294 415.256 374.532 415.291 374.772 415.286C375.012 415.281 375.247 415.235 375.463 415.151C375.679 415.068 375.872 414.948 376.028 414.8C376.183 414.652 376.298 414.48 376.367 414.293L377.933 411.421" stroke="black" stroke-width="1.56492" stroke-miterlimit="10"/>
  <path d="M365.744 395.524C366.578 397.077 366.868 398.785 366.581 400.463C366.294 402.14 365.441 403.721 364.117 405.03" stroke="black" stroke-width="1.04328" stroke-miterlimit="10"/>
  <path d="M388.324 420.774C389.89 418.894 389.882 414.349 389.48 412.524C389.223 411.365 386.817 410.949 386.561 412.114C385.859 415.369 381.33 420.371 377.145 420.774" stroke="black" stroke-width="1.56492" stroke-miterlimit="10"/>
  <path d="M368.225 408.506C375.284 408.506 381.005 403.868 381.005 398.147C381.005 392.425 375.284 387.787 368.225 387.787C361.168 387.787 355.445 392.425 355.445 398.147C355.445 403.868 361.168 408.506 368.225 408.506Z" stroke="black" stroke-width="1.56492" stroke-miterlimit="10"/>
  <path d="M363.945 407.903L361.668 413.093C360.087 412.636 358.411 412.436 356.734 412.505C355.058 412.574 353.415 412.91 351.898 413.493C350.382 414.077 349.023 414.898 347.899 415.907C346.774 416.917 345.906 418.097 345.344 419.379" stroke="black" stroke-width="1.56492" stroke-miterlimit="10"/>
  <path opacity="0.53" d="M368.226 406.917C374.202 406.917 379.046 402.991 379.046 398.147C379.046 393.303 374.202 389.376 368.226 389.376C362.25 389.376 357.406 393.303 357.406 398.147C357.406 402.991 362.25 406.917 368.226 406.917Z" fill="white"/>
  <path d="M342.398 410.289C346.422 408.319 349.674 405.432 350.642 401.505C351.446 398.167 350.316 394.192 349.349 390.882C348.42 387.423 347.052 384.051 345.266 380.821C351.481 381.745 357.837 381.864 364.098 381.174C367.017 380.911 380.953 376.595 372.59 374.492C369.179 373.742 365.86 372.746 362.669 371.516C360.203 370.482 355.88 368.47 355.726 365.916C355.716 365.226 355.953 364.548 356.409 363.966C356.865 363.383 357.52 362.921 358.294 362.634C359.447 362.213 360.7 362.003 361.964 362.021C363.227 362.039 364.471 362.284 365.605 362.738C367.503 363.462 369.239 364.437 370.741 365.625C373.394 367.706 374.841 369.788 379.001 369.254C381.512 368.815 383.944 368.115 386.234 367.172C388.933 366.171 391.136 364.459 392.483 362.315C394.555 358.408 387.518 354.682 383.7 353.565C381.579 352.89 379.26 352.735 377.032 353.121" stroke="black" stroke-width="1.56492" stroke-miterlimit="10"/>
  <path d="M443.769 200.441L385.365 207.525L395.542 213.34L408.708 220.834C411.292 222.253 413.501 224.075 415.207 226.193C416.914 228.311 418.082 230.685 418.644 233.173C419.207 235.662 419.152 238.216 418.482 240.687C417.814 243.158 416.544 245.497 414.748 247.566C412.952 249.635 410.665 251.393 408.021 252.738C405.377 254.083 402.429 254.987 399.35 255.398C396.27 255.809 393.12 255.719 390.084 255.133C387.047 254.546 384.187 253.475 381.667 251.982L335.742 225.795C330.672 222.958 326.604 219.097 323.938 214.596C314.171 198.158 325.59 176.266 351.107 173.178L401.757 167.03L408.314 166.205L379.321 147.914C376.887 146.379 374.849 144.469 373.326 142.295C371.802 140.121 370.821 137.725 370.439 135.243C370.058 132.762 370.283 130.245 371.102 127.833C371.921 125.423 373.317 123.166 375.212 121.193C377.107 119.22 379.462 117.569 382.144 116.333C384.827 115.098 387.783 114.303 390.844 113.994C393.905 113.685 397.01 113.867 399.985 114.531C402.959 115.194 405.743 116.327 408.177 117.862L459.897 150.475C466.516 154.556 471.053 160.468 472.642 167.086C476.203 181.748 464.921 197.866 443.769 200.441Z" stroke="black" stroke-width="1.56492" stroke-miterlimit="10"/>
  <path d="M315.572 280.923L315.007 268.829L308.39 274.325C307.267 275.254 305.735 275.785 304.131 275.801C302.526 275.816 300.979 275.315 299.83 274.408C298.683 273.498 298.028 272.256 298.008 270.956C297.989 269.655 298.607 268.401 299.727 267.469L311.583 257.658C312.804 256.644 314.366 255.943 316.074 255.642C317.782 255.341 319.561 255.452 321.193 255.963C322.824 256.473 324.234 257.359 325.25 258.513C326.265 259.666 326.84 261.036 326.905 262.452L327.462 274.789L332.341 270.328C332.868 269.844 333.508 269.449 334.224 269.166C334.94 268.883 335.718 268.717 336.514 268.678C337.309 268.64 338.106 268.729 338.859 268.941C339.612 269.152 340.306 269.482 340.901 269.912C341.497 270.339 341.984 270.858 342.334 271.438C342.683 272.018 342.887 272.649 342.936 273.293C342.984 273.937 342.875 274.583 342.616 275.194C342.357 275.804 341.951 276.367 341.423 276.85L331.81 285.642C330.583 286.776 328.964 287.585 327.163 287.963C325.361 288.342 323.461 288.272 321.709 287.763C319.958 287.254 318.435 286.329 317.34 285.109C316.246 283.89 315.629 282.431 315.572 280.923Z" fill="#755EC6" fill-opacity="0.15"/>
  <path d="M365.173 302.739L372.218 301.462L368.409 299.38C367.763 299.027 367.316 298.482 367.166 297.864C367.015 297.245 367.173 296.602 367.604 296.077C368.039 295.554 368.712 295.191 369.476 295.071C370.24 294.95 371.032 295.08 371.678 295.432L378.475 299.117C379.18 299.498 379.73 300.038 380.059 300.671C380.387 301.304 380.48 302.001 380.324 302.676C380.167 303.351 379.771 303.973 379.182 304.467C378.593 304.96 377.838 305.303 377.011 305.452L369.795 306.77L372.851 308.262C373.181 308.423 373.468 308.635 373.696 308.886C373.925 309.137 374.09 309.422 374.182 309.725C374.274 310.029 374.292 310.343 374.234 310.652C374.175 310.96 374.044 311.256 373.844 311.523C373.443 312.062 372.794 312.451 372.04 312.603C371.286 312.755 370.488 312.658 369.821 312.335L363.829 309.4C363.059 309.027 362.444 308.474 362.066 307.814C361.687 307.154 361.562 306.417 361.707 305.699C361.852 304.981 362.26 304.314 362.878 303.786C363.496 303.258 364.295 302.893 365.173 302.739Z" fill="#755EC6" fill-opacity="0.15"/>
  <path d="M347.358 336.093L347.931 332.277L345.509 333.734C345.306 333.857 345.075 333.946 344.829 333.996C344.584 334.046 344.329 334.057 344.079 334.028C343.829 333.998 343.587 333.928 343.37 333.823C343.153 333.718 342.963 333.579 342.813 333.415C342.509 333.082 342.38 332.666 342.454 332.256C342.527 331.847 342.798 331.478 343.206 331.229L347.486 328.627C347.931 328.358 348.466 328.201 349.02 328.174C349.576 328.148 350.128 328.255 350.609 328.481C351.09 328.707 351.479 329.043 351.727 329.446C351.975 329.849 352.072 330.303 352.006 330.751L351.424 334.65L353.23 333.443C353.425 333.312 353.65 333.214 353.893 333.154C354.135 333.094 354.389 333.074 354.642 333.094C354.893 333.114 355.138 333.174 355.361 333.271C355.585 333.368 355.783 333.499 355.944 333.658C356.104 333.816 356.225 333.999 356.299 334.195C356.372 334.391 356.398 334.598 356.373 334.802C356.348 335.007 356.275 335.205 356.155 335.386C356.036 335.567 355.873 335.727 355.678 335.857L352.117 338.23C351.661 338.524 351.108 338.702 350.528 338.741C349.947 338.781 349.366 338.679 348.857 338.45C348.347 338.222 347.932 337.876 347.666 337.456C347.399 337.036 347.292 336.562 347.358 336.093Z" fill="#755EC6" fill-opacity="0.15"/>
  <path d="M626.462 315.388L626.102 315.881C625.829 315.742 625.542 315.622 625.246 315.52L626.462 315.388Z" fill="#353642"/>
</svg>
