<svg width="40" height="40" viewBox="0 0 40 40" fill="none" xmlns="http://www.w3.org/2000/svg">
<circle cx="20" cy="20" r="20" fill="#9EAFC3"/>
<path d="M20 10C18.0222 10 16.0888 10.5865 14.4443 11.6853C12.7998 12.7841 11.5181 14.3459 10.7612 16.1732C10.0043 18.0004 9.8063 20.0111 10.1922 21.9509C10.578 23.8907 11.5304 25.6725 12.9289 27.0711C14.3275 28.4696 16.1093 29.422 18.0491 29.8079C19.9889 30.1937 21.9996 29.9957 23.8268 29.2388C25.6541 28.4819 27.2159 27.2002 28.3147 25.5557C29.4135 23.9112 30 21.9778 30 20C30 18.6868 29.7413 17.3864 29.2388 16.1732C28.7363 14.9599 27.9997 13.8575 27.0711 12.9289C26.1425 12.0003 25.0401 11.2638 23.8268 10.7612C22.6136 10.2587 21.3132 10 20 10ZM20 12C21.4891 12.0018 22.9482 12.4192 24.213 13.2053C25.4777 13.9913 26.498 15.1147 27.159 16.4491C27.8199 17.7835 28.0953 19.2759 27.9542 20.7583C27.813 22.2407 27.2609 23.6543 26.36 24.84C24.4728 23.602 22.2567 22.9609 20 23C17.7434 22.9609 15.5272 23.602 13.64 24.84C12.7391 23.6543 12.187 22.2407 12.0458 20.7583C11.9047 19.2759 12.1801 17.7835 12.841 16.4491C13.502 15.1147 14.5223 13.9913 15.7871 13.2053C17.0518 12.4192 18.5109 12.0018 20 12ZM15.07 26.29C16.5634 25.4147 18.2693 24.9684 20 25C21.7307 24.9684 23.4366 25.4147 24.93 26.29C23.5226 27.3913 21.787 27.9896 20 27.9896C18.213 27.9896 16.4774 27.3913 15.07 26.29Z" fill="white"/>
<path d="M20 22C20.7911 22 21.5645 21.7654 22.2223 21.3259C22.8801 20.8864 23.3928 20.2616 23.6955 19.5307C23.9983 18.7998 24.0775 17.9956 23.9231 17.2196C23.7688 16.4437 23.3878 15.731 22.8284 15.1716C22.269 14.6122 21.5563 14.2312 20.7804 14.0769C20.0044 13.9225 19.2002 14.0017 18.4693 14.3045C17.7384 14.6072 17.1137 15.1199 16.6741 15.7777C16.2346 16.4355 16 17.2089 16 18C16 19.0609 16.4214 20.0783 17.1716 20.8284C17.9217 21.5786 18.9391 22 20 22ZM20 16C20.3956 16 20.7822 16.1173 21.1111 16.3371C21.44 16.5568 21.6964 16.8692 21.8478 17.2346C21.9991 17.6001 22.0387 18.0022 21.9616 18.3902C21.8844 18.7781 21.6939 19.1345 21.4142 19.4142C21.1345 19.6939 20.7781 19.8844 20.3902 19.9616C20.0022 20.0387 19.6001 19.9991 19.2346 19.8478C18.8692 19.6964 18.5568 19.44 18.3371 19.1111C18.1173 18.7822 18 18.3956 18 18C18 17.4696 18.2107 16.9609 18.5858 16.5858C18.9609 16.2107 19.4696 16 20 16Z" fill="white"/>
</svg>
