<svg width="300" height="186" viewBox="0 0 300 186" fill="none" xmlns="http://www.w3.org/2000/svg">
<path fill-rule="evenodd" clip-rule="evenodd" d="M221.299 149.824C219.878 151.468 217.779 152.688 216.169 154.19C214.478 155.769 212.643 157.149 210.958 158.708C203.528 149.627 193.35 144.058 184.532 136.523C180.352 132.95 177.273 128.104 175.019 123.131C173.863 120.581 173.01 117.957 172.342 115.241C172.041 114.017 171.747 112.798 171.55 111.558C171.312 110.056 171.25 109.928 170.237 108.756C169.801 108.252 168.956 106.778 168.102 106.94C167.383 107.077 166.068 109.266 165.613 109.806C163.429 112.406 161.31 115.085 159.01 117.584C155.49 121.409 152.286 125.172 149.019 129.225C142.334 137.518 135.124 145.324 127.848 153.127C127.308 153.706 126.05 155.403 125.275 155.631C124.332 155.908 122.8 154.751 121.851 154.105C119.559 152.545 117.753 150.614 115.794 148.681C111.971 144.907 109.382 139.611 107.641 134.571C106.599 131.555 105.921 128.428 104.845 125.422C104.397 124.169 103.381 122.629 103.897 121.538C104.05 121.212 105.028 120.348 105.373 120.282C105.781 120.203 106.461 120.763 106.602 120.724C107.955 120.354 107.204 118.937 108.009 118.175C108.466 117.743 110.786 117.806 111.479 117.569C114.012 116.7 116.285 115.042 118.68 114.052C128.706 109.91 138.853 105.881 147.508 99.1171C149.753 97.3633 151.245 96.0452 153.923 94.9115C156.63 93.7659 159.35 92.7439 162.112 91.7442C164.549 90.8623 166.999 90.0354 169.516 89.4032C172.237 88.7195 176.099 87.8526 178.818 88.7333C184.159 90.4623 185.883 94.8627 188.01 99.5048C190.887 105.785 194.367 111.728 198.138 117.509C205.394 128.631 214.219 138.612 221.299 149.824Z" fill="#755EC6"/>
<path fill-rule="evenodd" clip-rule="evenodd" d="M60.4633 51.4966C60.1694 51.3475 57.875 52.2814 57.4899 52.4242C55.9515 52.995 54.5026 53.9433 53.0533 54.7149C54.164 56.0666 55.275 57.4187 56.3854 58.7707C57.4741 56.1003 58.8734 53.8968 60.4633 51.4966ZM61.2207 68.1118C60.8428 68.1542 64.0334 75.8213 64.4059 76.6822C65.7617 79.8133 67.1852 82.9139 68.559 86.0371C69.89 89.0637 71.5784 91.8481 73.2794 94.6755C74.7343 97.0936 76.2308 100.846 78.4255 102.637C77.0398 96.4895 77.2223 89.4209 73.2476 84.259C69.1276 78.9077 65.0541 73.6823 61.2207 68.1118ZM221.301 150.097C215.144 140.348 207.437 131.723 201.017 122.147C197.422 116.786 193.923 111.355 190.897 105.648C188.696 101.497 187.328 95.5735 183.928 92.3997C182.43 91.0014 180.83 89.6326 178.819 89.0061C176.068 88.149 172.281 88.9986 169.517 89.6764C164.367 90.939 159.336 92.9 154.458 94.9593C149.51 97.048 145.289 100.8 140.818 103.814C136.023 107.048 130.832 109.404 125.459 111.466C120.78 113.262 116.618 115.84 111.965 117.647C111.038 118.008 109.145 117.955 108.368 118.424C107.529 118.93 107.86 120.423 106.842 120.974C106.383 121.223 106.23 120.322 105.878 120.337C105.446 120.355 105.053 120.86 104.638 121.181C102.947 122.486 103.983 123.356 104.653 125.151C106.835 131.001 108.008 136.953 111.073 142.476C113.593 147.015 117.199 151.083 121.445 154.088C122.091 154.546 124.196 156.318 124.954 156.2C125.637 156.094 127.025 154.28 127.497 153.787C129.635 151.551 131.589 149.146 133.726 146.907C137.028 143.446 140.206 139.892 143.411 136.384C147.13 132.312 150.423 127.697 153.773 123.346C155.314 121.344 157.298 119.714 159.011 117.857C161.315 115.362 163.43 112.679 165.615 110.079C166.276 109.293 167.383 107.28 168.411 107.304C169.131 107.321 170.4 109.016 170.776 109.547C172.176 111.521 172.17 115.087 172.866 117.552C174.564 123.561 177.627 129.431 181.827 134.069C186.004 138.681 191.354 141.96 196.294 145.667C201.646 149.683 206.716 153.793 210.96 158.981C212.644 157.422 214.479 156.042 216.17 154.464C217.781 152.961 219.88 151.741 221.301 150.097ZM142.05 177.68C143.247 177.692 145.274 178.428 146.344 177.985C143.168 174.47 140.252 171.455 136.233 168.88C132.063 166.207 127.907 163.558 123.857 160.708C115.694 154.963 109.691 148.15 106.281 138.582C105.403 136.119 104.815 133.535 104.172 131.002C103.826 129.638 103.137 123.257 101.966 122.706C101.273 122.379 96.0563 126.046 95.2297 126.503C93.2972 127.572 91.3573 128.4 89.3593 129.237C85.0646 131.035 80.6372 132.407 76.0829 133.552C70.6228 134.924 66.9036 132.653 63.5211 128.361C59.6836 123.493 56.4946 117.999 52.986 112.886C51.3904 110.56 50.0685 108.239 48.8901 105.674C48.1189 103.995 45.0602 99.467 46.1171 97.6789C49.1324 99.9746 50.2174 104.539 52.2714 107.613C54.8314 111.444 57.7164 115.056 60.2896 118.883C62.4535 122.101 64.6611 126.002 67.8579 128.315C70.67 130.35 73.3414 129.725 76.3677 128.81C80.0356 127.702 83.8375 127.155 87.4321 125.781C91.3221 124.293 95.0026 122.183 98.7979 120.463C100.567 119.66 102.686 119.204 104.353 118.204C105.79 117.343 105.576 116.888 105.681 115.053C105.805 112.912 105.946 110.77 106.041 108.628C106.105 107.188 105.326 105.236 105.855 104.162C101.546 104.909 97.3344 105.91 93.0558 106.795C90.7132 107.279 88.4544 107.878 86.0879 108.259C85.1858 108.404 83.9527 108.4 83.1449 108.793C82.5005 108.608 82.172 108.726 82.1595 109.146C82.1286 109.374 82.0798 109.599 82.0128 109.82C80.6916 110.421 79.9232 109.132 78.7773 107.895C77.3632 106.369 76.3044 104.651 75.267 102.857C72.9474 98.8481 70.2738 95.0773 68.1273 90.9551C65.9395 86.7529 64.1627 82.2537 62.3078 77.8939C60.6062 73.8941 59.5165 69.5683 57.6362 65.6631C56.797 63.92 55.7335 62.4786 54.4916 61.006C53.4667 59.7908 51.89 57.1695 50.3596 56.6113C49.9549 56.4637 48.8952 56.7116 48.4355 56.6789C47.5192 56.6135 46.7027 56.2771 45.765 56.3507C43.7349 56.5096 41.5217 57.7934 39.8993 58.9221C40.9477 59.8566 43.5703 60.9925 41.6865 62.6758C39.8584 64.3101 38.8487 61.3785 38.1511 60.0941C34.8662 62.7916 35.341 66.5111 34.9615 70.3225C34.7633 72.3123 34.2419 74.272 33.9055 76.232C33.6632 77.6425 33.8332 79.1016 33.7639 80.5417C33.5874 84.2014 33.2196 87.7044 33.2375 91.3129C33.2564 95.1699 33.5191 98.8947 33.8278 102.724C34.3473 109.17 35.5376 115.619 36.5584 122.014C37.1326 125.609 37.9186 129.102 38.6816 132.638C39.5475 136.652 41.1494 140.454 42.0477 144.458C42.9631 143.294 43.6515 143.289 45.132 143.443C46.2707 143.562 47.0356 143.291 46.9689 144.871C46.9258 145.896 46.0215 146.679 45.0209 146.858C43.716 147.091 43.2727 146.44 42.6003 145.452C42.443 147.324 43.7016 149.28 44.1993 151.108C44.6704 152.84 44.9825 154.538 45.7742 156.196C46.5466 157.813 47.208 159.409 47.9896 161.011C48.3496 161.747 48.6863 162.496 49.0503 163.231C49.2344 163.603 49.4512 164.116 49.7259 164.43C50.3703 165.165 50.2677 164.809 51.0219 165.228C52.665 166.141 52.048 165.913 52.0864 167.798C52.1238 169.657 53.0772 171.023 54.6061 172.068C57.8498 174.286 61.0492 174.902 64.7369 176.023C68.1729 177.067 71.792 177.963 75.4303 177.942C79.8864 177.917 84.2833 177.333 88.7394 177.274C93.6555 177.209 98.6189 177.236 103.525 177.405C105.546 177.475 107.423 177.565 109.374 178.081C111.64 178.681 113.832 178.443 116.167 178.352C121.149 178.158 126.303 177.773 131.22 177.738C134.761 177.713 138.496 177.466 142.05 177.68ZM271.242 179.611C272.127 180.079 274.113 179.887 275.003 179.757C276.572 179.528 276.74 178.906 277.735 177.508C279.448 175.099 280.839 172.792 281.847 170.002C283.775 164.662 284.563 159.199 285.41 153.613C286.351 147.407 284.632 140.973 284.017 134.808C283.876 133.394 283.683 131.992 283.46 130.589C283.326 129.75 283.291 126.895 282.739 126.168C281.678 124.773 276.744 125.898 274.804 126.025C269.39 126.379 263.94 126.461 258.528 126.523C255.642 126.555 252.74 126.676 249.883 126.699C248.571 126.709 247.288 126.644 245.971 126.516C245.531 126.474 245.101 126.372 244.657 126.348C243.138 126.264 243.252 126.043 242.86 127.389C242.172 129.745 242.701 132.744 242.52 135.19C242.279 138.458 242.148 141.773 242.208 145.049C242.263 148.076 242.16 151.096 242.273 154.129C242.32 155.386 242.457 156.41 242.789 157.609C243.163 158.966 243.576 162.135 244.509 163.074C244.615 163.181 245.408 162.932 245.619 163.198C245.943 163.608 245.884 164.475 246.106 164.74C246.827 165.598 248.317 165.666 249.398 166.051C252.364 167.109 255.084 168.257 257.879 169.683C260.376 170.957 264.403 172.041 265.905 174.555C266.593 175.707 266.686 177.226 267.319 178.415C268.04 179.769 266.597 179.061 268.364 179.611C269.159 179.858 270.426 179.611 271.242 179.611ZM7.95595 164.294C7.73129 167.422 5.96956 170.4 5.35631 173.475C5.06935 174.915 4.58258 176.33 4.24528 177.762C3.92182 179.135 2.7532 180.761 2.87151 182.12C7.18474 180.583 11.5537 180.196 16.0617 179.782C20.3343 179.389 24.848 179.233 29.0848 179.231C33.4021 179.229 38.0183 178.807 42.4637 178.741C47.1127 178.673 51.8318 178.553 56.4135 178.071C54.0177 176.296 51.02 174.63 49.2511 172.161C47.3279 169.478 46.3292 166.115 44.637 163.283C41.2413 157.6 39.0825 150.549 37.3025 144.164C33.7089 131.275 29.693 118.625 28.7251 105.256C26.8832 106.199 25.421 109.859 24.4987 111.681C23.3216 114.008 22.7052 116.53 21.94 119.003C20.3642 124.097 19.2736 129.379 17.3442 134.424C13.6565 144.069 11.2862 154.461 7.95595 164.294ZM242.091 89.1754C242.889 94.9398 244.562 100.779 244.626 106.613C244.64 107.896 244.423 109.322 244.69 110.587C244.976 111.938 245.905 113.133 246.442 114.417C247.293 116.455 249.449 120.633 247.37 122.36C247.328 120.721 245.828 118.64 245.072 117.206C243.933 115.047 242.437 113.073 241.203 110.967C238.619 106.559 235.724 102.245 232.394 98.3591C229.15 94.5739 225.412 91.2163 221.973 87.6119C220.939 86.5289 212.65 76.1055 212.32 76.2511C214.891 86.1671 219.263 94.7948 225.244 103.097C228.177 107.167 231.697 109.845 235.268 113.293C238.241 116.165 243.844 119.235 242.816 123.94C247.464 123.493 252.081 122.78 256.771 122.78C256 116.844 255.409 111.002 254.032 105.163C252.469 98.5341 251.41 91.7065 250.088 85.0183C248.738 78.1903 246.448 71.5802 245.024 64.7651C243.66 58.2393 242.488 51.7251 241.488 45.1265C240.662 48.7827 240.967 52.7986 240.673 56.5291C240.374 60.3405 240.403 64.0817 240.502 67.9154C240.687 75.0363 241.446 82.0712 242.091 89.1754ZM262.231 55.2252C262.257 52.1772 262.848 49.1704 263.03 46.1296C263.086 45.1967 264.015 38.8316 263.149 38.4993C262.436 40.0531 262.27 42.0414 261.622 43.6716C260.976 45.3002 260.111 46.8517 259.49 48.4917C258.146 52.0444 257.682 56.0644 257.538 59.8415C257.21 68.3849 257.041 76.9091 257.615 85.4525C257.861 89.1144 258.05 92.7826 257.983 96.4517C257.909 100.489 257.29 103.993 258.041 107.998C258.784 111.963 259.251 115.912 259.499 119.935C259.673 122.758 259.742 122.559 262.436 122.36C264.381 122.217 266.345 122.37 268.293 122.281C267.382 111.276 267.234 100.248 265.779 89.2846C265.037 83.6917 265.017 78.0179 264.095 72.4458C263.637 69.6778 262.868 66.9655 262.426 64.1944C261.952 61.219 262.186 58.2235 262.231 55.2252ZM65.2256 48.2994C70.412 48.7488 75.9287 50.2994 81.2448 49.2755C80.3685 48.9206 78.0753 48.431 79.1073 47.0301C80.1567 45.6057 81.925 47.4124 82.9716 47.2259C83.6169 47.1107 85.0429 44.4132 85.4406 43.8547C86.3434 42.5854 86.4522 42.3642 88.0755 42.0388C89.6481 41.7242 90.0046 42.0649 90.2038 40.5014C90.4326 38.7035 89.8105 36.6822 89.8722 34.8437C90.0046 30.8857 91.2815 27.4148 92.4699 23.6909C87.4207 24.7894 82.4835 26.092 77.3207 26.8C75.1138 27.1027 71.6803 27.8009 69.6754 26.3006C69.154 25.9105 69.2374 25.3837 68.8107 24.9316C68.0952 24.173 66.768 23.3882 65.7532 23.172C59.5084 21.8426 58.8992 30.7451 62.0287 34.0763C62.8125 34.911 63.9031 35.3232 64.7058 36.0882C65.7772 37.1082 65.8649 38.1828 66.0213 39.74C66.3146 42.66 65.9162 45.5912 64.6705 48.2623L65.2256 48.2994ZM141.008 90.3274C142.851 90.6773 144.775 90.5973 146.624 90.8959C147.28 91.002 149.249 91.372 149.826 90.9881C150.708 90.4019 151.021 88.2519 151.438 87.2507C152.171 85.4896 153.209 83.9535 153.908 82.1603C156.765 74.8358 159.429 67.4821 162.885 60.4078C161.56 60.0636 160.543 60.0501 159.209 59.8723C157.818 59.687 156.558 58.8648 155.231 58.5114C153.97 58.1757 152.649 58.2613 151.4 57.8708C150.712 57.6559 150.122 57.1779 149.443 57.0109C148.362 56.745 147.1 56.5896 146.456 57.2994C145.797 58.0275 145.566 60.024 145.207 60.9645C144.252 63.47 143.142 65.8881 142.342 68.4513C141.62 70.763 140.934 73.0502 140.298 75.383C139.627 77.8458 138.304 79.8756 137.497 82.2283C136.884 84.0189 136.306 85.8496 136.214 87.7589C136.125 89.6219 135.854 89.7405 137.717 90.0382C138.657 90.1883 140.123 90.7471 141.008 90.3274ZM262.302 177.522C262.783 177.746 263.235 177.716 263.66 177.433C259.497 175.675 255.448 173.236 251.105 172.03C247.031 170.898 243.072 169.547 239.147 168.153C235.958 167.021 233.091 166.14 230.208 164.148C228.458 162.938 226.903 161.578 225.701 159.811C224.362 157.843 224.064 155.043 222.614 153.27C220.657 155.42 218.358 157.048 216.042 158.755C215.241 159.346 213.319 160.635 213.045 161.549C212.7 162.703 213.626 163.807 214.084 164.974C215.257 167.965 215.831 170.954 216.467 174.063C216.722 175.309 217.273 177.182 218.297 177.704C219.229 178.179 221.928 177.833 223.088 177.745C229.139 177.287 235.082 176.817 241.169 177.235C248.058 177.707 255.432 178.033 262.302 177.522ZM274.388 122.108C275.488 122.112 276.562 121.975 277.657 121.975C277.025 119.022 278.504 115.201 279.028 112.253C279.614 108.956 280.061 105.546 280.452 102.222C281.276 95.2218 281.65 88.306 281.66 81.2541C281.67 74.4303 282.913 68.1945 284.653 61.6347C286.521 54.5896 289.581 48.2541 292.111 41.4599C289.336 42.9268 287.8 46.3593 286.341 48.9835C284.498 52.3015 283.27 55.9753 282.518 59.7002C281.066 66.8859 279.473 74.0933 277.797 81.267C276.053 88.7365 275.027 96.2746 273.028 103.683C272.053 107.296 270.728 111.741 270.655 115.466C270.624 117.008 270.16 120.235 270.858 121.574C271.511 122.826 272.956 122.236 274.388 122.108ZM108.393 112.841C108.336 113.608 108.281 114.337 108.145 115.095C109.668 115.081 111.597 113.5 112.903 112.791C114.495 111.926 116.088 110.973 117.645 110.104C120.65 108.426 124.061 107.321 127.27 105.943C130.956 104.36 134.343 102.446 137.868 100.54C139.099 99.8745 147.948 96.0389 147.799 94.9911C145.857 94.9263 143.914 94.8618 141.971 94.7973C140.306 94.7419 137.726 95.1182 136.131 94.6035C135.258 94.3212 134.277 93.2826 133.947 92.4692C133.621 91.6643 134.354 87.9625 133.928 87.7265C131.754 89.9463 130.387 92.8968 128.443 95.2916C126.295 97.9385 123.519 99.484 120.459 100.891C117.081 102.444 113.584 103.647 110.132 104.978C108.675 105.539 108.704 105.861 108.578 107.457C108.436 109.242 108.451 111.052 108.393 112.841ZM283.952 179.975C287.614 180.368 291.367 180.144 295.058 180.45C296.401 180.561 298.263 180.728 296.912 182.53C296.061 183.665 293.336 183.301 292.099 183.38C288.78 183.591 285.266 183.477 281.939 183.428C281.238 183.418 280.464 183.21 279.756 183.257C278.939 183.311 277.961 183.898 277.216 183.894C276.757 183.891 276.592 183.407 276.196 183.362C275.334 183.266 274.472 183.195 273.602 183.195C260.453 183.198 247.484 182.934 234.368 182.919C228.096 182.913 221.723 182.805 215.454 182.51C214.137 182.448 206.64 182.717 206.847 180.347C206.954 179.126 209.401 178.954 210.294 178.824C210.956 178.728 211.642 178.743 212.305 178.708C214.067 178.613 214.838 179.037 214.467 177.11C213.057 169.8 210.532 163.759 205.136 158.503C200.724 154.205 195.412 150.306 190.414 146.718C184.347 142.36 179.424 137.776 175.822 131.108C173.718 127.214 171.957 123.233 170.876 118.927C170.487 117.378 170.478 115.616 170.001 114.123C169.635 112.973 168.799 112.169 168.307 110.978C162.27 121.061 154.269 129.497 146.933 138.589C143.427 142.932 139.428 147.057 135.24 150.836C133.997 151.957 132.837 153.128 131.677 154.335C130.707 155.345 129.166 156.243 128.347 157.363C127.561 158.438 127.754 158.387 128.951 159.24C130.532 160.368 132.275 161.306 133.881 162.406C136.449 164.164 139.251 165.65 141.547 167.766C144.03 170.055 146.199 172.706 148.369 175.287C149.816 177.007 151.714 179.215 152.077 181.39C152.198 182.109 152.655 183.889 152.052 184.416C151.536 184.866 151.588 184.695 150.947 184.421C150.107 184.061 149.86 183.235 148.835 182.841C146.211 181.834 143.036 182.18 140.306 182.168C137.575 182.155 134.821 182.462 132.091 182.451C125.857 182.425 119.756 182.93 113.524 183.201C106.905 183.489 100.205 182.798 93.6077 182.896C88.7199 182.968 83.7019 182.603 78.6791 182.875C76.0955 183.014 73.5582 182.691 71.0391 182.655C67.7409 182.607 64.3537 183.056 61.0272 183.12C55.5674 183.225 50.1742 183.225 44.6811 183.356C32.8653 183.639 21.1134 183.931 9.2907 184.118C7.71367 184.143 5.98718 184.089 4.42872 184.267C2.7746 184.456 3.62856 184.807 2.49361 185.403C-0.68373 187.069 0.0500359 180.891 0.126181 179.676C0.534598 173.164 2.18777 166.777 4.17448 160.595C6.05924 154.731 7.58939 148.594 9.18561 142.604C10.9329 136.047 13.2094 129.759 15.2766 123.268C17.3949 116.615 19.1195 109.704 22.9667 103.807C23.843 102.464 24.7486 101.019 26.1582 100.172C27.7384 99.2226 27.8063 99.777 27.8051 98.0398C27.8041 96.4036 27.9048 94.2177 27.5187 92.6564C27.1698 91.2458 27.2236 92.0822 26.4379 91.069C25.7986 90.2449 25.1296 89.6817 24.6708 88.6811C21.8528 91.5385 15.4022 90.0307 12.6795 87.9732C9.34703 85.4547 6.80874 81.206 5.87863 77.1595C5.13165 73.9101 6.04823 67.7162 9.64469 66.1537C11.3979 65.3919 17.8376 64.8161 18.0953 62.3335C18.2281 61.0519 15.9616 59.2499 15.4387 58.148C14.4695 56.1066 13.5388 53.3911 13.2695 51.1533C12.7434 46.7853 14.7263 41.901 17.8851 38.9505C23.6797 33.5379 33.8753 30.7602 41.3291 34.1943C39.7539 28.1772 38.8031 22.9864 39.5963 16.7274C40.2797 11.3352 43.4612 8.31832 47.8389 5.63246C55.3093 1.04853 65.4682 -0.760714 74.01 0.572148C75.9511 0.875156 77.8138 1.52491 79.6111 2.04188C82.2221 2.79295 85.3478 2.54281 87.8131 3.76312C89.6006 4.6476 90.958 6.40965 92.5278 7.58613C94.3607 8.95958 95.8836 11.0095 97.157 12.9053C99.8803 16.9593 98.8161 24.4832 96.5368 28.5526C96.0481 29.4254 95.4443 30.1601 94.6357 30.7558C93.7937 31.3756 92.5102 31.5685 92.0763 32.3724C90.965 34.4318 92.037 38.8901 92.1852 41.116C92.3579 43.7005 91.0512 45.6419 88.1205 45.848C86.4252 45.9676 86.3711 44.984 85.5593 47.0078C85.0332 48.3196 84.5552 49.7487 83.796 50.9513C82.2306 53.4298 79.3635 53.1879 76.7519 53.1208C73.7287 53.0428 70.7508 52.5652 67.7261 52.2637C68.525 54.8234 70.7118 56.8101 72.0774 59.0904C73.9238 62.1746 75.0351 64.7311 75.3353 68.3245C75.5656 71.0852 75.0685 73.2654 73.1793 75.3201C72.3974 76.1706 71.7042 76.2124 71.8984 77.1935C72.0167 77.792 73.0516 78.7794 73.4178 79.257C74.3866 80.5207 75.5115 81.6805 76.3642 83.03C79.6454 88.2224 80.6145 96.1377 80.6227 102.182C80.623 102.459 80.7709 103.049 80.6485 103.335C80.5579 103.547 79.8694 104.218 79.8594 104.275C79.7247 105.052 80.4824 106.385 81.6714 106.516C82.9203 106.655 85.2075 105.612 86.3692 105.27C88.2281 104.722 90.123 104.317 91.9778 103.754C94.9736 102.845 97.9556 102.12 101.001 101.408C102.377 101.087 103.761 100.818 105.142 100.518C106.715 100.175 107.445 99.5136 108.257 101.114C108.953 102.487 108.52 102.736 110.207 102.044C111.882 101.356 113.519 100.504 115.154 99.7282C118.038 98.3601 121.473 97.1405 123.961 95.1208C128.11 91.7512 129.647 86.3851 133.619 82.8097C134.725 81.8142 135.385 81.7966 136.084 80.4174C136.833 78.9414 137.219 77.0485 137.612 75.4607C138.301 72.6805 138.792 69.8905 139.417 67.1127C140.196 63.6522 141.879 60.5183 143.107 57.2176C143.586 55.9316 143.834 54.297 144.605 53.1413C144.81 52.8348 145.201 52.6621 145.36 52.4085C145.909 51.5378 145.904 51.2987 146.046 50.2512C146.711 45.3568 149.633 47.9316 152.825 49.054C154.17 49.5269 160.558 52.5938 158.119 54.6334C161.026 55.4769 165.683 55.0185 165.644 59.1851C165.623 61.32 164.347 63.6038 163.661 65.6021C163.052 67.3764 162.464 69.1577 161.846 70.9291C160.491 74.8097 158.848 78.5742 157.526 82.4668C156.923 84.2408 156.426 86.0563 155.587 87.7306C154.848 89.2075 153.056 90.8355 152.761 92.4506C160.509 89.1452 167.676 84.3663 176.348 84.6709C180.146 84.804 183.592 86.4002 185.689 89.739C188.318 93.9238 190.048 98.6093 192.618 102.833C201.966 118.197 213.116 132.155 223.379 146.883C224.167 148.015 225.181 149.085 225.454 150.484C225.633 151.396 225.287 152.309 225.501 153.186C225.945 155.007 228.188 157.282 229.709 158.329C232.624 160.336 237.364 163.166 241.002 162.916C238.719 157.428 238.749 151.416 238.855 145.562C238.956 140.002 239.557 134.486 240.271 128.983C240.432 127.738 240.573 126.584 240.93 125.378C241.341 123.993 241.905 124.124 240.675 122.88C238.782 120.964 236.53 119.387 234.622 117.447C230.495 113.251 226.265 109.963 223.016 104.953C219.927 100.187 216.668 95.2841 214.381 90.0656C212.027 84.6935 211.085 78.9565 209.917 73.2673C209.443 70.9587 207.713 68.3814 208.061 65.9706C208.5 62.9238 209.913 65.1424 210.488 66.782C212.243 71.7872 216.353 76.2669 219.757 80.2922C223.434 84.6407 227.932 88.279 231.771 92.501C235.951 97.0993 238.814 102.384 242.532 107.292C242.532 101.201 240.452 94.9977 239.601 88.9715C238.852 83.6675 238.617 78.3467 238.144 73.0197C237.07 60.9188 237.998 48.4615 239.506 36.4472C240.223 30.7413 239.817 25.1698 239.838 19.4444C239.845 17.6222 239.091 13.4226 240.052 11.8056C241.893 8.70849 242.967 15.4807 243.06 16.4904C243.617 22.5053 242.619 28.4531 243.129 34.4422C243.662 40.6965 244.818 46.7753 245.802 52.9572C246.869 59.6508 248.605 66.1933 250.267 72.7585C252.012 79.6516 253.479 86.6884 255.419 93.5264C255.943 91.377 255.209 88.7365 255.064 86.5475C254.857 83.4148 254.452 80.2815 254.417 77.1407C254.361 72.1349 254.322 67.0363 254.605 62.0538C254.885 57.1427 254.8 51.9966 256.306 47.2652C257.021 45.0195 258.07 42.8286 259.096 40.7132C260.361 38.1048 260.809 35.5756 261.509 32.8013C262.11 30.4254 262.988 28.1121 263.388 25.6886C263.637 24.1814 264.33 19.7323 266.056 23.1031C267.058 25.0596 266.625 27.9601 266.653 30.062C266.689 32.7566 266.276 35.3767 266.213 38.0601C266.09 43.3248 266.001 48.5833 265.609 53.8392C265.197 59.3535 265.557 64.2954 266.606 69.7287C267.754 75.6763 268.09 81.6367 268.685 87.6569C268.992 90.7654 269.509 93.8565 269.759 96.9693C269.891 98.6178 269.213 103.345 270.394 104.519C270.509 101.664 271.327 98.806 271.947 96.0238C272.682 92.7278 272.978 89.2629 273.52 85.9197C274.397 80.5033 276.098 75.3308 277.224 69.9751C279.545 58.935 281.473 44.7458 291.198 37.5195C292.471 36.574 293.869 35.8761 295.245 35.0979C296.023 34.6574 297.18 33.5178 298.071 33.3189C299.044 33.1018 299.449 33.2705 299.844 34.3988C300.393 35.9717 299.388 36.7064 298.45 37.8489C295.201 41.8022 293.814 46.87 291.808 51.5064C287.216 62.123 285.184 73.3208 285.16 84.7967C285.148 90.8044 284.734 96.5987 284.093 102.57C283.404 108.996 282.496 115.792 280.543 121.974C282.501 122.413 284.626 121.759 285.157 124.035C285.288 124.594 285.052 125.255 285.196 125.983C285.337 126.69 285.674 127.394 285.874 128.09C286.287 129.528 286.505 130.948 286.706 132.426C287.482 138.136 288.815 143.567 288.957 149.357C289.088 154.709 288.04 160.131 287.075 165.38C286.102 170.667 283.313 175.174 281.117 179.955C282.062 179.955 283.007 179.965 283.952 179.975Z" fill="#27262D"/>
<path fill-rule="evenodd" clip-rule="evenodd" d="M159.665 167.821C158.623 168.116 153.596 168.672 153.596 170.249C153.597 171.196 158.618 171.177 159.507 171.28C159.56 170.127 159.612 168.974 159.665 167.821ZM170.763 178.708C173.66 179.259 177.593 178.484 179.445 175.93C180.311 174.737 180.721 172.921 181.003 171.497C181.273 170.14 182.103 166.752 181.538 165.48C180.844 163.917 174.187 165.55 172.248 165.73C168.866 166.042 165.369 166.079 161.984 165.858C161.984 169.353 161.806 172.758 163.861 175.766C165.344 177.936 168.129 178.449 170.763 178.708ZM170.18 183.024C167.032 181.872 163.727 182.621 161.677 179.241C161.157 178.384 160.719 177.462 160.405 176.51C160.251 176.092 160.131 175.665 160.046 175.227C160.206 174.285 159.861 174.02 159.011 174.43C157.342 174.106 155.513 175.251 153.755 174.914C149.492 174.095 150.267 167.989 153.127 165.875C153.692 165.457 154.257 165.341 154.904 165.134C156.33 164.68 157.102 165.188 158.406 165.059C159.46 164.954 159.75 163.849 160.883 163.362C161.624 163.044 162.654 163.068 163.433 163.036C167.514 162.869 171.607 162.87 175.714 162.604C177.629 162.48 179.697 162.784 181.573 162.456C182.452 162.303 182.325 161.718 183.157 162.231C184.019 162.762 183.647 164.726 183.603 165.509C183.352 170.038 183.082 174.895 180.656 178.854C178.437 182.477 174.069 182.848 170.18 183.024Z" fill="#27262D"/>
<path fill-rule="evenodd" clip-rule="evenodd" d="M3.92188 184.272C4.93474 184.261 5.94728 184.251 6.95668 184.24C5.94256 184.251 4.93222 184.262 3.92188 184.272Z" fill="#27262D"/>
<path fill-rule="evenodd" clip-rule="evenodd" d="M285.166 87.7133C285.165 86.7404 285.162 85.7674 285.16 84.7964C285.162 85.77 285.164 86.7416 285.166 87.7133Z" fill="#27262D"/>
<path fill-rule="evenodd" clip-rule="evenodd" d="M27.5212 91.7087C27.518 92.6564 27.5149 93.6041 27.5117 94.5497C27.5146 93.6013 27.5177 92.6548 27.5212 91.7087Z" fill="#27262D"/>
<path fill-rule="evenodd" clip-rule="evenodd" d="M111.711 183.198C112.517 183.199 113.323 183.2 114.125 183.202C113.318 183.201 112.515 183.2 111.711 183.198Z" fill="#27262D"/>
<path fill-rule="evenodd" clip-rule="evenodd" d="M62.7852 183.005C63.591 183.007 64.3965 183.01 65.1985 183.013C64.3915 183.011 63.5885 183.008 62.7852 183.005Z" fill="#27262D"/>
<path fill-rule="evenodd" clip-rule="evenodd" d="M238.962 143.644C238.927 144.284 238.891 144.923 238.855 145.562C238.891 144.921 238.927 144.283 238.962 143.644Z" fill="#27262D"/>
<path fill-rule="evenodd" clip-rule="evenodd" d="M283.954 179.974C283.331 179.968 282.709 179.961 282.086 179.955C282.711 179.694 283.334 179.706 283.954 179.974Z" fill="#27262D"/>
<path fill-rule="evenodd" clip-rule="evenodd" d="M228.668 182.807C229.115 182.8 229.562 182.793 230.005 182.785C229.557 182.792 229.112 182.799 228.668 182.807Z" fill="#27262D"/>
<path fill-rule="evenodd" clip-rule="evenodd" d="M284.922 95.6072C284.933 95.1236 284.944 94.6403 284.955 94.1586C284.944 94.6425 284.933 95.1249 284.922 95.6072Z" fill="#27262D"/>
<path fill-rule="evenodd" clip-rule="evenodd" d="M243.126 34.4422C243.09 33.9435 243.053 33.4451 243.016 32.9476C243.053 33.4467 243.09 33.9444 243.126 34.4422Z" fill="#27262D"/>
<path fill-rule="evenodd" clip-rule="evenodd" d="M285.145 89.6178C285.151 89.1178 285.156 88.6182 285.162 88.1201C285.156 88.6204 285.151 89.1191 285.145 89.6178Z" fill="#27262D"/>
<path fill-rule="evenodd" clip-rule="evenodd" d="M144.594 182.187C144.991 182.193 145.389 182.199 145.783 182.204C145.384 182.197 144.989 182.192 144.594 182.187Z" fill="#27262D"/>
<path fill-rule="evenodd" clip-rule="evenodd" d="M246.953 183.002C247.341 183.01 247.73 183.018 248.115 183.026C247.725 183.018 247.339 183.01 246.953 183.002Z" fill="#27262D"/>
<path fill-rule="evenodd" clip-rule="evenodd" d="M288.912 147.852C288.884 147.414 288.855 146.976 288.828 146.538C288.856 146.976 288.884 147.414 288.912 147.852Z" fill="#27262D"/>
<path fill-rule="evenodd" clip-rule="evenodd" d="M281.938 183.428C282.254 183.426 282.57 183.424 282.882 183.424C282.565 183.426 282.251 183.427 281.938 183.428Z" fill="#27262D"/>
<path fill-rule="evenodd" clip-rule="evenodd" d="M238.855 183.022C239.169 183.014 239.482 183.007 239.792 182.999C239.477 183.007 239.166 183.015 238.855 183.022Z" fill="#27262D"/>
<path fill-rule="evenodd" clip-rule="evenodd" d="M168.473 182.783C168.818 182.781 169.162 182.779 169.503 182.777C169.158 182.778 168.815 182.781 168.473 182.783Z" fill="#27262D"/>
<path fill-rule="evenodd" clip-rule="evenodd" d="M88.9883 182.782C89.3158 182.784 89.6437 182.786 89.9678 182.789C89.639 182.787 89.3136 182.784 88.9883 182.782Z" fill="#27262D"/>
<path fill-rule="evenodd" clip-rule="evenodd" d="M69.6562 182.834C69.9904 182.816 70.3239 182.797 70.655 182.779C70.3199 182.798 69.9882 182.816 69.6562 182.834Z" fill="#27262D"/>
<path fill-rule="evenodd" clip-rule="evenodd" d="M162.226 55.521C161.729 55.4782 161.232 55.4354 160.734 55.3923C161.232 55.4272 161.759 55.1327 162.226 55.521Z" fill="#27262D"/>
<path fill-rule="evenodd" clip-rule="evenodd" d="M288.959 180.163C288.469 180.114 287.979 180.064 287.488 180.015C287.979 180.064 288.469 180.114 288.959 180.163Z" fill="#27262D"/>
<path fill-rule="evenodd" clip-rule="evenodd" d="M254.767 58.5394C254.734 58.9689 254.701 59.3988 254.668 59.827C254.701 59.3969 254.734 58.968 254.767 58.5394Z" fill="#27262D"/>
<path fill-rule="evenodd" clip-rule="evenodd" d="M285.27 76.4469C285.303 76.0397 285.336 75.6325 285.37 75.227C285.336 75.6347 285.303 76.0407 285.27 76.4469Z" fill="#27262D"/>
<path fill-rule="evenodd" clip-rule="evenodd" d="M254.571 65.2019C254.535 65.6307 254.5 66.0593 254.465 66.4866C254.5 66.0574 254.535 65.6295 254.571 65.2019Z" fill="#27262D"/>
<path fill-rule="evenodd" clip-rule="evenodd" d="M285.06 92.8836C285.057 92.4692 285.054 92.0548 285.051 91.6417C285.318 92.0548 285.308 92.4682 285.06 92.8836Z" fill="#27262D"/>
<path fill-rule="evenodd" clip-rule="evenodd" d="M238.97 152.394C238.966 152.809 238.962 153.225 238.958 153.639C238.684 153.22 238.738 152.806 238.97 152.394Z" fill="#27262D"/>
<path fill-rule="evenodd" clip-rule="evenodd" d="M270.214 104.34C270.166 103.919 270.118 103.499 270.07 103.08C270.118 103.501 270.166 103.92 270.214 104.34Z" fill="#27262D"/>
<path fill-rule="evenodd" clip-rule="evenodd" d="M11.4901 65.7544C11.165 66.1839 10.7223 65.8897 10.3359 65.9419C10.7211 65.8793 11.1056 65.817 11.4901 65.7544Z" fill="#27262D"/>
<path fill-rule="evenodd" clip-rule="evenodd" d="M172.208 162.902C171.798 162.903 171.387 162.903 170.977 162.904C171.387 162.903 171.798 162.903 172.208 162.902Z" fill="#27262D"/>
<path fill-rule="evenodd" clip-rule="evenodd" d="M237.812 67.5189C237.851 67.8682 237.889 68.2175 237.927 68.5655C237.889 68.2156 237.851 67.8673 237.812 67.5189Z" fill="#27262D"/>
<path fill-rule="evenodd" clip-rule="evenodd" d="M34.8791 32.8315C34.4663 32.8397 34.0534 32.8479 33.6406 32.8561C34.049 32.6157 34.4606 32.5462 34.8791 32.8315Z" fill="#27262D"/>
<path fill-rule="evenodd" clip-rule="evenodd" d="M254.56 71.2435C254.534 71.6097 254.507 71.9757 254.48 72.3403C254.507 71.9741 254.534 71.6088 254.56 71.2435Z" fill="#27262D"/>
<path fill-rule="evenodd" clip-rule="evenodd" d="M243.238 26.2855C243.27 25.9517 243.302 25.6178 243.334 25.2859C243.302 25.6204 243.27 25.9529 243.238 26.2855Z" fill="#27262D"/>
<path fill-rule="evenodd" clip-rule="evenodd" d="M239.995 25.2396C239.963 25.6018 239.931 25.9643 239.898 26.3252C239.931 25.9624 239.963 25.6009 239.995 25.2396Z" fill="#27262D"/>
<path fill-rule="evenodd" clip-rule="evenodd" d="M60.6778 1.0455C60.2578 1.09648 59.8377 1.14745 59.418 1.19811C59.838 1.14713 60.2578 1.09648 60.6778 1.0455Z" fill="#27262D"/>
<path fill-rule="evenodd" clip-rule="evenodd" d="M30.3398 33.1197C29.9087 33.1638 29.4776 33.2078 29.0469 33.2519C29.4779 33.2078 29.909 33.1638 30.3398 33.1197Z" fill="#27262D"/>
<path fill-rule="evenodd" clip-rule="evenodd" d="M266.559 34.1814C266.585 33.8444 266.611 33.5071 266.637 33.172C266.611 33.5093 266.585 33.8453 266.559 34.1814Z" fill="#27262D"/>
<path fill-rule="evenodd" clip-rule="evenodd" d="M16.1914 89.7978C16.4397 89.8016 16.6876 89.805 16.9321 89.8088C16.6829 89.805 16.4371 89.8016 16.1914 89.7978Z" fill="#27262D"/>
<path fill-rule="evenodd" clip-rule="evenodd" d="M240.008 131.39C239.983 131.763 239.958 132.136 239.934 132.509C239.959 132.135 239.984 131.763 240.008 131.39Z" fill="#27262D"/>
<path fill-rule="evenodd" clip-rule="evenodd" d="M265.331 58.7682C265.321 58.4085 265.311 58.0492 265.301 57.6905C265.311 58.0505 265.321 58.4092 265.331 58.7682Z" fill="#27262D"/>
<path fill-rule="evenodd" clip-rule="evenodd" d="M71.2536 0.19454C70.8707 0.19454 70.4878 0.194855 70.1055 0.194855C70.4884 -0.0681935 70.871 -0.0615857 71.2536 0.19454Z" fill="#27262D"/>
<path fill-rule="evenodd" clip-rule="evenodd" d="M173.484 84.843C173.065 84.8537 172.645 84.8644 172.227 84.8751C172.638 84.5837 173.058 84.5765 173.484 84.843Z" fill="#27262D"/>
<path fill-rule="evenodd" clip-rule="evenodd" d="M210.141 182.172C210.389 182.177 210.638 182.182 210.884 182.188C210.634 182.184 210.387 182.178 210.141 182.172Z" fill="#27262D"/>
<path fill-rule="evenodd" clip-rule="evenodd" d="M219.504 182.609C219.752 182.6 220 182.592 220.245 182.583C219.996 182.592 219.75 182.601 219.504 182.609Z" fill="#27262D"/>
<path fill-rule="evenodd" clip-rule="evenodd" d="M72.9727 182.782C73.2316 182.788 73.4906 182.795 73.7461 182.801C73.4862 182.795 73.2294 182.788 72.9727 182.782Z" fill="#27262D"/>
<path fill-rule="evenodd" clip-rule="evenodd" d="M288.697 143.691C288.66 143.336 288.623 142.98 288.586 142.626C288.623 142.982 288.66 143.337 288.697 143.691Z" fill="#27262D"/>
<path fill-rule="evenodd" clip-rule="evenodd" d="M254.879 83.7509C254.908 84.0897 254.938 84.4286 254.967 84.7653C254.937 84.4261 254.908 84.0885 254.879 83.7509Z" fill="#27262D"/>
<path fill-rule="evenodd" clip-rule="evenodd" d="M267.894 77.9326C267.854 77.5733 267.813 77.214 267.773 76.8559C267.814 77.2156 267.854 77.5739 267.894 77.9326Z" fill="#27262D"/>
<path fill-rule="evenodd" clip-rule="evenodd" d="M75.0742 182.996C75.3354 182.992 75.5969 182.988 75.8552 182.985C75.5928 182.989 75.3335 182.992 75.0742 182.996Z" fill="#27262D"/>
<path fill-rule="evenodd" clip-rule="evenodd" d="M170.18 183.024C170.434 183.013 170.688 183.002 170.939 182.99C170.684 183.002 170.432 183.013 170.18 183.024Z" fill="#27262D"/>
<path fill-rule="evenodd" clip-rule="evenodd" d="M265.769 51.6942C265.757 51.3302 265.746 50.9661 265.734 50.6027C265.746 50.9671 265.757 51.3305 265.769 51.6942Z" fill="#27262D"/>
<path fill-rule="evenodd" clip-rule="evenodd" d="M50.3086 183.234C50.5635 183.232 50.818 183.23 51.0694 183.228C50.8133 183.231 50.5613 183.232 50.3086 183.234Z" fill="#27262D"/>
<path fill-rule="evenodd" clip-rule="evenodd" d="M265.664 183.23C265.926 183.233 266.188 183.236 266.447 183.238C266.183 183.236 265.924 183.233 265.664 183.23Z" fill="#27262D"/>
<path fill-rule="evenodd" clip-rule="evenodd" d="M271.316 183.199C271.569 183.217 271.822 183.235 272.072 183.253C271.818 183.235 271.567 183.217 271.316 183.199Z" fill="#27262D"/>
<path fill-rule="evenodd" clip-rule="evenodd" d="M273.602 183.195C273.859 183.202 274.117 183.21 274.371 183.216C274.113 183.208 273.857 183.201 273.602 183.195Z" fill="#27262D"/>
<path fill-rule="evenodd" clip-rule="evenodd" d="M285.332 79.3759C285.315 79.0179 285.298 78.6595 285.281 78.3023C285.298 78.661 285.315 79.0185 285.332 79.3759Z" fill="#27262D"/>
<path fill-rule="evenodd" clip-rule="evenodd" d="M112.484 178.501C113.268 178.46 114.051 178.42 114.835 178.379C114.051 178.42 113.268 178.46 112.484 178.501Z" fill="#27262D"/>
<path fill-rule="evenodd" clip-rule="evenodd" d="M65.2266 48.2995C65.9065 48.3586 66.5865 48.4178 67.2658 48.4763C66.5859 48.4174 65.9062 48.3583 65.2266 48.2995Z" fill="#27262D"/>
<path fill-rule="evenodd" clip-rule="evenodd" d="M257.207 77.8615C257.228 78.5103 257.25 79.1591 257.271 79.8061C257.25 79.1569 257.228 78.5094 257.207 77.8615Z" fill="#27262D"/>
<path fill-rule="evenodd" clip-rule="evenodd" d="M271.242 179.611C271.952 179.654 272.662 179.696 273.371 179.74C272.657 179.772 271.932 179.976 271.242 179.611Z" fill="#27262D"/>
<path fill-rule="evenodd" clip-rule="evenodd" d="M267.043 102.865C267.048 102.246 267.054 101.627 267.059 101.01C267.053 101.629 267.048 102.247 267.043 102.865Z" fill="#27262D"/>
<path fill-rule="evenodd" clip-rule="evenodd" d="M265.223 122.311C265.845 122.319 266.469 122.328 267.091 122.336C266.468 122.327 265.845 122.319 265.223 122.311Z" fill="#27262D"/>
<path fill-rule="evenodd" clip-rule="evenodd" d="M108.437 111.43C108.421 111.902 108.405 112.373 108.391 112.843C108.406 112.371 108.421 111.9 108.437 111.43Z" fill="#27262D"/>
<path fill-rule="evenodd" clip-rule="evenodd" d="M275.591 91.4576C275.566 91.9271 275.54 92.3962 275.516 92.8632C275.541 92.3934 275.567 91.9255 275.591 91.4576Z" fill="#27262D"/>
<path fill-rule="evenodd" clip-rule="evenodd" d="M262.301 177.522C262.754 177.491 263.207 177.461 263.659 177.432C263.318 177.704 262.976 177.727 262.301 177.522Z" fill="#27262D"/>
<path fill-rule="evenodd" clip-rule="evenodd" d="M259.27 116.166C259.301 116.672 259.332 117.177 259.363 117.682C259.332 117.176 259.301 116.671 259.27 116.166Z" fill="#27262D"/>
<path fill-rule="evenodd" clip-rule="evenodd" d="M89.8594 36.3059C89.8641 35.8172 89.8688 35.3286 89.8738 34.8418C89.8691 35.3311 89.8644 35.8185 89.8594 36.3059Z" fill="#27262D"/>
<path fill-rule="evenodd" clip-rule="evenodd" d="M259.816 122.413L261.505 122.376C260.948 122.645 260.385 122.655 259.816 122.413Z" fill="#27262D"/>
<path fill-rule="evenodd" clip-rule="evenodd" d="M275.399 126.019C275.001 126.023 274.603 126.026 274.207 126.03C274.606 126.027 275.003 126.023 275.399 126.019Z" fill="#27262D"/>
<path fill-rule="evenodd" clip-rule="evenodd" d="M129.566 177.716C130.118 177.724 130.669 177.731 131.22 177.738C130.665 178.016 130.113 178.056 129.566 177.716Z" fill="#27262D"/>
<path fill-rule="evenodd" clip-rule="evenodd" d="M25.7227 179.341C26.2821 179.291 26.8419 179.241 27.4013 179.191C26.8419 179.241 26.2821 179.291 25.7227 179.341Z" fill="#27262D"/>
<path fill-rule="evenodd" clip-rule="evenodd" d="M257.402 82.0284C257.43 82.5363 257.457 83.0441 257.484 83.5504C257.457 83.0419 257.43 82.5353 257.402 82.0284Z" fill="#27262D"/>
<path fill-rule="evenodd" clip-rule="evenodd" d="M78.8281 49.4917C79.2998 49.2591 79.7752 49.2201 80.2554 49.4665C79.7793 49.475 79.3039 49.4835 78.8281 49.4917Z" fill="#27262D"/>
<path fill-rule="evenodd" clip-rule="evenodd" d="M241.977 87.8926C242.016 88.3208 242.055 88.7494 242.094 89.1764C242.054 88.7475 242.016 88.3199 241.977 87.8926Z" fill="#27262D"/>
<path fill-rule="evenodd" clip-rule="evenodd" d="M281.818 77.8971C281.575 77.478 281.584 77.0611 281.83 76.6479C281.826 77.0648 281.822 77.4811 281.818 77.8971Z" fill="#27262D"/>
<path fill-rule="evenodd" clip-rule="evenodd" d="M274.387 122.108C274.872 121.96 275.358 121.749 275.841 122.113C275.356 122.112 274.872 122.11 274.387 122.108Z" fill="#27262D"/>
<path fill-rule="evenodd" clip-rule="evenodd" d="M117.5 178.309C117.989 178.264 118.477 178.219 118.965 178.173C118.477 178.219 117.989 178.264 117.5 178.309Z" fill="#27262D"/>
<path fill-rule="evenodd" clip-rule="evenodd" d="M50.5312 178.31C50.9787 178.114 51.4252 178.011 51.866 178.325C51.4208 178.32 50.9762 178.315 50.5312 178.31Z" fill="#27262D"/>
<path fill-rule="evenodd" clip-rule="evenodd" d="M142.051 177.679C142.529 177.47 143.007 177.355 143.479 177.694C143.003 177.689 142.527 177.684 142.051 177.679Z" fill="#27262D"/>
<path fill-rule="evenodd" clip-rule="evenodd" d="M35.543 115.779C35.5788 116.211 35.615 116.644 35.6506 117.074C35.6144 116.642 35.5785 116.211 35.543 115.779Z" fill="#27262D"/>
<path fill-rule="evenodd" clip-rule="evenodd" d="M146.625 90.8956C147.096 90.7245 147.565 90.6351 148.027 90.9211C147.56 90.9123 147.092 90.9041 146.625 90.8956Z" fill="#27262D"/>
<path fill-rule="evenodd" clip-rule="evenodd" d="M257.395 103.755C257.421 104.178 257.447 104.6 257.473 105.021C257.446 104.599 257.42 104.177 257.395 103.755Z" fill="#27262D"/>
<path fill-rule="evenodd" clip-rule="evenodd" d="M35.2378 65.6537C35.1988 65.9938 35.1598 66.3343 35.1211 66.6725C35.1601 66.3318 35.1988 65.9929 35.2378 65.6537Z" fill="#27262D"/>
<path fill-rule="evenodd" clip-rule="evenodd" d="M7.95487 164.294C7.93064 164.625 7.90673 164.956 7.88281 165.285C7.90767 164.954 7.93127 164.624 7.95487 164.294Z" fill="#27262D"/>
<path fill-rule="evenodd" clip-rule="evenodd" d="M267.251 105.99C267.225 105.648 267.198 105.305 267.172 104.965C267.198 105.308 267.225 105.649 267.251 105.99Z" fill="#27262D"/>
<path fill-rule="evenodd" clip-rule="evenodd" d="M232.969 177.04C233.388 177.043 233.808 177.046 234.227 177.049C233.807 177.046 233.388 177.043 232.969 177.04Z" fill="#27262D"/>
<path fill-rule="evenodd" clip-rule="evenodd" d="M108.281 114.343C108.36 114.592 108.438 114.842 108.516 115.091C107.993 115.218 107.915 114.968 108.281 114.343Z" fill="#27262D"/>
<path fill-rule="evenodd" clip-rule="evenodd" d="M139.73 90.3324C140.157 90.3305 140.583 90.3289 141.009 90.3271C140.583 90.5291 140.157 90.6678 139.73 90.3324Z" fill="#27262D"/>
<path fill-rule="evenodd" clip-rule="evenodd" d="M35.7812 117.825C35.7957 118.202 35.8102 118.58 35.824 118.957C35.8092 118.579 35.7951 118.202 35.7812 117.825Z" fill="#27262D"/>
<path fill-rule="evenodd" clip-rule="evenodd" d="M40.2891 178.724C40.7003 178.723 41.1112 178.723 41.5225 178.723C41.1109 178.723 40.7003 178.723 40.2891 178.724Z" fill="#27262D"/>
<path fill-rule="evenodd" clip-rule="evenodd" d="M243.008 121.806C243.023 122.154 243.038 122.501 243.054 122.847C243.039 122.499 243.023 122.152 243.008 121.806Z" fill="#27262D"/>
<path fill-rule="evenodd" clip-rule="evenodd" d="M31.5586 179.147C31.9629 178.879 32.3682 178.902 32.7741 179.143C32.3688 179.145 31.9635 179.146 31.5586 179.147Z" fill="#27262D"/>
<path fill-rule="evenodd" clip-rule="evenodd" d="M42.207 60.7964C42.2287 61.1513 42.2508 61.5066 42.2734 61.8593C42.2517 61.5037 42.2294 61.1501 42.207 60.7964Z" fill="#27262D"/>
<path fill-rule="evenodd" clip-rule="evenodd" d="M29.457 179.184C29.8774 179.185 30.2978 179.187 30.7178 179.189C30.2962 179.476 29.8761 179.49 29.457 179.184Z" fill="#27262D"/>
<path fill-rule="evenodd" clip-rule="evenodd" d="M262.23 55.2249C262.234 54.8643 262.237 54.504 262.24 54.1444C262.237 54.5053 262.234 54.8649 262.23 55.2249Z" fill="#27262D"/>
<path fill-rule="evenodd" clip-rule="evenodd" d="M69.2422 48.9193C69.6443 48.9719 70.0464 49.0244 70.4482 49.0766C70.0461 49.0241 69.644 48.9719 69.2422 48.9193Z" fill="#27262D"/>
<path fill-rule="evenodd" clip-rule="evenodd" d="M33.7539 80.038C33.7593 80.3746 33.7646 80.7116 33.7709 81.0467C33.7655 80.7094 33.7599 80.3737 33.7539 80.038Z" fill="#27262D"/>
<path fill-rule="evenodd" clip-rule="evenodd" d="M264.937 79.9895C264.915 79.6465 264.893 79.3036 264.871 78.9622C264.893 79.3058 264.915 79.6478 264.937 79.9895Z" fill="#27262D"/>
<path fill-rule="evenodd" clip-rule="evenodd" d="M171.148 178.782C171.645 178.827 172.141 178.872 172.637 178.916C172.141 178.871 171.645 178.827 171.148 178.782Z" fill="#27262D"/>
<path fill-rule="evenodd" clip-rule="evenodd" d="M169.493 165.937C169.225 165.941 168.957 165.945 168.691 165.951C168.96 165.947 169.227 165.942 169.493 165.937Z" fill="#27262D"/>
<path fill-rule="evenodd" clip-rule="evenodd" d="M169.516 178.585C169.932 178.626 170.348 178.668 170.764 178.708C170.348 178.667 169.932 178.626 169.516 178.585Z" fill="#27262D"/>
<path fill-rule="evenodd" clip-rule="evenodd" d="M94.622 150.56C95.1636 153.619 90.4086 156.612 90.0316 152.262C89.8938 150.672 90.9573 149.553 92.1483 148.581C93.8386 147.201 94.7828 148.523 94.622 150.56Z" fill="#27262D"/>
<path fill-rule="evenodd" clip-rule="evenodd" d="M42.2084 113.23C43.3286 113.689 51.8867 116.478 47.4414 117.88C46.2646 118.252 44.4858 118.307 43.4657 117.653C42.2386 116.866 41.0008 114.543 42.2084 113.23Z" fill="#27262D"/>
<path fill-rule="evenodd" clip-rule="evenodd" d="M44.3146 71.796C47.2194 71.4587 49.8958 76.2297 46.3145 76.0749C43.7076 75.962 40.2018 71.796 44.3146 71.796Z" fill="#27262D"/>
<path fill-rule="evenodd" clip-rule="evenodd" d="M54.7059 83.4941C57.1316 85.6104 52.6355 90.3469 50.8505 88.5137C49.939 87.5773 50.7797 85.5601 51.532 84.7766C52.3042 83.9727 53.678 83.8216 54.7059 83.4941Z" fill="#27262D"/>
<path fill-rule="evenodd" clip-rule="evenodd" d="M61.9271 138.359C60.4951 138.587 54.1977 140.645 55.511 136.907C56.0119 135.482 57.409 135.905 58.6862 135.97C60.7446 136.075 61.9271 135.977 61.9271 138.359Z" fill="#27262D"/>
<path fill-rule="evenodd" clip-rule="evenodd" d="M57.7806 147.987C59.9243 149.134 56.7907 155.552 55.0139 154.186C52.5486 152.292 55.9204 148.563 57.7806 147.987Z" fill="#27262D"/>
<path fill-rule="evenodd" clip-rule="evenodd" d="M67.127 142.827C68.1694 142.402 73.0833 147.128 71.2127 148.443C70.254 149.117 68.4375 147.962 67.8595 147.265C66.7758 145.959 66.6776 144.347 67.127 142.827Z" fill="#27262D"/>
<path fill-rule="evenodd" clip-rule="evenodd" d="M38.7762 104.193C39.8416 104.368 41.6811 104.423 41.75 105.921C41.8104 107.236 40.1607 107.663 38.9993 107.766C37.7942 107.873 36.1989 107.533 36.176 106.018C36.1517 104.383 38.7385 104.482 38.7762 104.193Z" fill="#27262D"/>
<path fill-rule="evenodd" clip-rule="evenodd" d="M65.0495 169.342C66.1842 170.031 71.4766 172.511 69.208 174.303C68.359 174.973 65.7855 173.588 65.2062 172.885C64.5149 172.044 63.8394 170.076 65.0495 169.342Z" fill="#27262D"/>
<path fill-rule="evenodd" clip-rule="evenodd" d="M79.764 151.346C79.6 148.609 84.2185 147.519 83.261 151.405C82.991 152.5 82.7299 154.163 81.3753 154.227C79.7744 154.302 79.7165 152.408 79.764 151.346Z" fill="#27262D"/>
<path fill-rule="evenodd" clip-rule="evenodd" d="M65.4975 103.742C65.5296 105.819 61.5505 107.65 61.5197 104.359C61.4923 101.417 65.646 100.556 65.4975 103.742Z" fill="#27262D"/>
<path fill-rule="evenodd" clip-rule="evenodd" d="M62.8681 92.9267C63.8485 93.2426 65.1515 93.4053 65.2377 94.651C65.3293 95.9694 64.1046 96.5562 63.0027 96.4822C62.0991 96.4215 60.7618 95.7526 60.5975 94.7721C60.3568 93.3329 61.7614 93.2388 62.8681 92.9267Z" fill="#27262D"/>
<path fill-rule="evenodd" clip-rule="evenodd" d="M44.6368 130.947C44.6201 129.233 48.0542 127.174 48.6867 129.162C48.889 129.798 47.2704 132.651 46.732 132.865C45.3076 133.43 45.1088 132.113 44.6368 130.947Z" fill="#27262D"/>
<path fill-rule="evenodd" clip-rule="evenodd" d="M72.7779 159.468C71.6174 160.506 68.1364 163.424 68.3967 159.507C68.5628 157.005 73.084 157.136 72.7779 159.468Z" fill="#27262D"/>
<path fill-rule="evenodd" clip-rule="evenodd" d="M129.49 170.662C129.87 169.015 135.316 171.872 133.499 173.952C132.889 174.651 131.294 174.019 130.681 173.605C129.467 172.786 129.441 172.03 129.49 170.662Z" fill="#27262D"/>
<path fill-rule="evenodd" clip-rule="evenodd" d="M99.1484 135.409C99.3608 134.675 99.5968 133.377 100.297 132.908C101.565 132.061 102.668 133.34 102.668 134.687C102.669 137.201 99.807 137.994 99.1484 135.409Z" fill="#27262D"/>
<path fill-rule="evenodd" clip-rule="evenodd" d="M85.6524 164.804C87.0664 165.128 90.2148 168.565 88.3889 169.967C86.6316 171.317 84.2943 165.83 85.6524 164.804Z" fill="#27262D"/>
<path fill-rule="evenodd" clip-rule="evenodd" d="M86.9976 138.786C88.8157 138.931 91.3146 141.875 88.4887 142.343C86.2783 142.709 83.7076 139.507 86.9976 138.786Z" fill="#27262D"/>
<path fill-rule="evenodd" clip-rule="evenodd" d="M103.455 152.334C103.911 150.798 108.42 152.444 108.167 154.134C108.032 155.033 106.188 155.245 105.219 155.007C103.793 154.657 103.422 153.721 103.455 152.334Z" fill="#27262D"/>
<path fill-rule="evenodd" clip-rule="evenodd" d="M50.3051 66.558C50.3378 64.5726 54.1529 63.7633 54.4323 65.7641C54.685 67.5718 50.2572 69.4953 50.3051 66.558Z" fill="#27262D"/>
<path fill-rule="evenodd" clip-rule="evenodd" d="M102.195 172.792C102.47 171.794 102.589 170.592 103.836 170.46C105.264 170.31 105.222 171.405 105.054 172.539C104.597 175.626 102.853 175.781 102.195 172.792Z" fill="#27262D"/>
<path fill-rule="evenodd" clip-rule="evenodd" d="M41.9463 90.1804C39.9574 90.6291 36.3147 86.7986 38.5411 85.9767C40.11 85.3968 41.9463 89.0247 41.9463 90.1804Z" fill="#27262D"/>
<path fill-rule="evenodd" clip-rule="evenodd" d="M67.3169 119.935C66.3047 120.412 66.0716 120.701 65.2941 119.919C64.6169 119.237 64.6468 117.34 65.228 116.631C67.4538 113.917 67.4016 118.837 67.3169 119.935Z" fill="#27262D"/>
<path fill-rule="evenodd" clip-rule="evenodd" d="M75.5752 114.432C76.6309 114.566 79.7676 117.541 78.1343 118.724C76.1328 120.172 75.0004 115.634 75.5752 114.432Z" fill="#27262D"/>
<path fill-rule="evenodd" clip-rule="evenodd" d="M98.4145 115.215C97.6471 118.17 95.7318 116.182 95.8404 113.946C96.0147 110.364 97.9995 113.483 98.4145 115.215Z" fill="#27262D"/>
<path fill-rule="evenodd" clip-rule="evenodd" d="M110.059 162.673C111.357 163.21 113.119 168.172 111.265 168.439C109.182 168.737 109.876 163.706 110.059 162.673Z" fill="#27262D"/>
<path fill-rule="evenodd" clip-rule="evenodd" d="M93.8466 159.884C95.3321 159.383 95.8764 162.517 95.013 163.099C93.1135 164.38 93.514 160.624 93.8466 159.884Z" fill="#27262D"/>
<path fill-rule="evenodd" clip-rule="evenodd" d="M79.764 151.346C79.7451 151.762 79.7265 152.178 79.707 152.591C79.7256 152.175 79.7445 151.76 79.764 151.346Z" fill="#27262D"/>
<path fill-rule="evenodd" clip-rule="evenodd" d="M129.492 170.662C129.477 171.089 129.461 171.515 129.445 171.94C129.46 171.512 129.476 171.087 129.492 170.662Z" fill="#27262D"/>
<path fill-rule="evenodd" clip-rule="evenodd" d="M103.456 152.334C103.448 152.696 103.439 153.057 103.43 153.417C103.438 153.054 103.447 152.694 103.456 152.334Z" fill="#27262D"/>
<path fill-rule="evenodd" clip-rule="evenodd" d="M267.765 146.106C270.844 146.008 274.28 144.848 277.306 145.217C278.14 145.319 280.057 145.529 278.723 146.764C278.084 147.355 275.028 147.05 274.103 147.246C268.448 148.443 262.029 149.215 256.231 149.115C253.517 149.069 250.783 148.851 248.07 148.708C245.359 148.565 245.092 147.463 248.143 147.112C251.311 146.749 254.562 146.884 257.746 146.88C261.093 146.875 264.424 146.33 267.765 146.106Z" fill="#27262D"/>
<path fill-rule="evenodd" clip-rule="evenodd" d="M274.527 138.686C274.23 139.53 273.97 141.467 272.834 141.594C271.243 141.772 270.98 139.041 271.039 138.042C271.11 136.836 271.544 134.833 273.042 135.251C274.308 135.603 274.435 137.721 274.527 138.686Z" fill="#27262D"/>
<path fill-rule="evenodd" clip-rule="evenodd" d="M264.895 138.068C265.127 137.165 265.241 135.127 266.519 135.058C267.948 134.981 268.356 137.104 268.347 138.121C268.337 139.087 267.98 140.911 266.843 141.134C265.3 141.436 265.163 139.101 264.895 138.068Z" fill="#27262D"/>
<path fill-rule="evenodd" clip-rule="evenodd" d="M248.857 139.689C248.395 140.776 248.088 142.272 246.656 141.531C245.548 140.958 245.394 138.649 245.603 137.591C245.819 136.495 246.278 135.239 247.537 135.732C248.989 136.3 248.842 138.494 248.857 139.689Z" fill="#27262D"/>
<path fill-rule="evenodd" clip-rule="evenodd" d="M261.002 138.686C259.637 142.825 257.146 140.025 258.092 136.935C259.08 133.705 260.876 136.842 261.002 138.686Z" fill="#27262D"/>
<path fill-rule="evenodd" clip-rule="evenodd" d="M254.35 138.891C253.971 139.62 253.568 141.192 252.546 141.026C251.293 140.823 251.253 138.412 251.39 137.514C251.51 136.728 251.863 135.418 252.912 135.435C254.427 135.46 254.325 137.948 254.35 138.891Z" fill="#27262D"/>
<path fill-rule="evenodd" clip-rule="evenodd" d="M281.584 139.686C280.568 141.966 279.17 140.002 279.617 138.382C280.281 135.98 281.526 138.108 281.584 139.686Z" fill="#27262D"/>
<path fill-rule="evenodd" clip-rule="evenodd" d="M256.693 146.883C255.583 146.878 254.473 146.874 253.363 146.87C254.474 146.661 255.585 146.579 256.693 146.883Z" fill="#27262D"/>
<path fill-rule="evenodd" clip-rule="evenodd" d="M278.751 145.208C277.788 145.214 276.825 145.22 275.863 145.226C276.824 144.938 277.787 144.932 278.751 145.208Z" fill="#27262D"/>
<path fill-rule="evenodd" clip-rule="evenodd" d="M267.764 146.106C266.994 146.158 266.223 146.21 265.453 146.261C266.224 146.21 266.994 146.158 267.764 146.106Z" fill="#27262D"/>
<path fill-rule="evenodd" clip-rule="evenodd" d="M248.857 139.689C248.85 139.136 248.843 138.583 248.836 138.031C249.121 138.581 249.101 139.134 248.857 139.689Z" fill="#27262D"/>
<path fill-rule="evenodd" clip-rule="evenodd" d="M254.895 149.104C255.341 149.108 255.788 149.112 256.231 149.116C255.783 149.112 255.339 149.108 254.895 149.104Z" fill="#27262D"/>
<path fill-rule="evenodd" clip-rule="evenodd" d="M247.395 148.708C247.847 148.708 248.3 148.708 248.749 148.708C248.295 148.708 247.845 148.708 247.395 148.708Z" fill="#27262D"/>
<path fill-rule="evenodd" clip-rule="evenodd" d="M251.102 146.931C250.473 146.982 249.844 147.034 249.215 147.085C249.844 147.034 250.473 146.982 251.102 146.931Z" fill="#27262D"/>
<path fill-rule="evenodd" clip-rule="evenodd" d="M259.61 146.876C258.989 146.877 258.368 146.878 257.746 146.88C258.367 146.618 258.988 146.61 259.61 146.876Z" fill="#27262D"/>
<path fill-rule="evenodd" clip-rule="evenodd" d="M254.35 138.891C254.334 138.315 254.319 137.738 254.305 137.163C254.32 137.739 254.335 138.315 254.35 138.891Z" fill="#27262D"/>
<path fill-rule="evenodd" clip-rule="evenodd" d="M245.601 137.591C245.598 138.153 245.594 138.716 245.59 139.276C245.593 138.713 245.597 138.152 245.601 137.591Z" fill="#27262D"/>
<path fill-rule="evenodd" clip-rule="evenodd" d="M271.296 145.897C270.746 145.947 270.197 145.996 269.648 146.046C270.198 145.996 270.747 145.947 271.296 145.897Z" fill="#27262D"/>
<path fill-rule="evenodd" clip-rule="evenodd" d="M281.584 139.686C281.566 139.195 281.549 138.703 281.531 138.213C281.549 138.704 281.566 139.195 281.584 139.686Z" fill="#27262D"/>
<path fill-rule="evenodd" clip-rule="evenodd" d="M258.215 149.12C258.597 149.113 258.979 149.106 259.358 149.099C258.974 149.107 258.595 149.114 258.215 149.12Z" fill="#27262D"/>
<path fill-rule="evenodd" clip-rule="evenodd" d="M274.526 138.686C274.493 138.333 274.459 137.98 274.426 137.628C274.459 137.982 274.493 138.334 274.526 138.686Z" fill="#27262D"/>
<path fill-rule="evenodd" clip-rule="evenodd" d="M261.004 138.686C260.979 138.324 260.954 137.961 260.93 137.6C260.955 137.962 260.979 138.325 261.004 138.686Z" fill="#27262D"/>
<path fill-rule="evenodd" clip-rule="evenodd" d="M63.8315 32.1676C62.3278 31.773 62.0459 29.6598 62.2875 28.3619C62.5616 27.7364 62.8357 27.1112 63.1097 26.4856C63.0024 26.2544 62.8954 26.0231 62.7885 25.7918C62.926 24.5037 62.5745 23.9439 64.0549 24.4656C66.805 25.4353 67.2445 32.0682 63.8315 32.1676Z" fill="#27262D"/>
<path fill-rule="evenodd" clip-rule="evenodd" d="M86.0893 28.0819C87.3281 27.9843 89.5781 29.427 88.345 30.8228C87.581 31.6874 85.0635 31.2784 84.0365 31.459C82.6744 31.6985 81.2537 32.026 81.9906 29.9858C82.5693 28.3836 84.6359 28.04 86.0893 28.0819Z" fill="#27262D"/>
<path fill-rule="evenodd" clip-rule="evenodd" d="M84.7864 37.6784C83.5282 36.6693 84.0898 32.0732 86.0048 32.9001C87.9748 33.7513 85.8364 37.0151 84.7864 37.6784Z" fill="#27262D"/>
<path fill-rule="evenodd" clip-rule="evenodd" d="M62.2886 28.3619C62.2886 28.8455 62.2883 29.3295 62.2874 29.8109C62.0249 29.3263 62.0331 28.844 62.2886 28.3619Z" fill="#27262D"/>
<path fill-rule="evenodd" clip-rule="evenodd" d="M63.832 32.1676C64.0885 32.1604 64.3452 32.1528 64.5985 32.1462C64.3408 32.1544 64.0866 32.161 63.832 32.1676Z" fill="#27262D"/>
<path fill-rule="evenodd" clip-rule="evenodd" d="M219.2 164.531C219.082 166.621 216.837 165.076 216.996 163.677C217.286 161.139 218.721 163.647 219.2 164.531Z" fill="#27262D"/>
</svg>
