<svg width="300" height="282" viewBox="0 0 300 282" fill="none" xmlns="http://www.w3.org/2000/svg">
<path fill-rule="evenodd" clip-rule="evenodd" d="M155.542 17.4077C154.22 20.9059 152.9 24.4047 151.578 27.9031C150.731 30.1449 149.885 32.3863 149.039 34.6282C148.738 35.423 148.571 36.2383 147.99 36.7901C146.622 38.0894 144.165 38.9162 142.52 39.8302C141.418 40.4427 140.316 41.0551 139.214 41.6676C138.645 41.9837 137.386 42.3804 136.987 42.9049C136.549 43.4828 136.756 44.5441 136.756 45.3432V52.2425V65.2425C142.449 64.5306 148.142 63.819 153.834 63.1071C146.25 71.8613 138.666 80.6151 131.082 89.3693C129.213 91.5266 126.943 93.6031 125.551 96.1132C122.587 101.456 119.69 106.838 116.76 112.199C114.033 117.19 111.305 122.181 108.578 127.172L133.114 126.127C139.466 125.857 145.992 126.263 152.113 124.462C157.159 122.978 162.204 121.493 167.249 120.009C167.92 119.811 170.011 119.588 170.486 119.047C170.932 118.541 170.922 116.629 171.048 115.982C173.43 103.737 176.461 90.2432 183.412 79.7028C188.395 72.147 195.12 65.5317 201.278 58.9429C203.682 56.3713 206.127 53.8305 208.445 51.1808C209.039 50.5021 209.897 49.7321 210.29 48.9078C210.543 48.3752 210.898 47.3604 210.74 46.8876C210.672 46.6826 209.087 45.9471 208.86 45.8011C207.255 44.7688 205.663 43.7147 204.068 42.6657C199.586 39.7179 195.108 36.7628 190.6 33.8543C187.086 31.5864 183.582 29.1818 179.875 27.233C176.033 25.2128 171.802 23.791 167.774 22.1949C163.703 20.5818 159.625 18.9871 155.542 17.4077Z" fill="#755EC6"/>
<path fill-rule="evenodd" clip-rule="evenodd" d="M293.697 204.299C291.742 206.141 288.183 208.614 285.37 207.49C283.956 206.925 282.749 205.685 281.462 204.886C279.95 203.946 278.528 203.006 277.246 201.754C274.688 199.254 272.752 195.603 269.731 193.647C268.715 192.989 266.733 192.848 266.029 191.798C265.714 191.327 265.684 190.612 265.742 190.067C265.868 188.895 266.502 188.964 265.444 188.103H267.087C267.119 187.468 266.485 187.415 266.013 187.497C266.232 186.49 266.456 182.551 264.622 184.337C263.032 185.884 263.827 188.451 262.701 190.127C261.839 191.411 259.552 190.372 259.243 188.96C259.104 188.325 259.803 187.335 259.886 186.713C260.069 185.334 259.453 184.141 258.559 183.097C256.598 184.405 257.71 187.11 256.592 188.828C255.58 190.382 253.328 189.657 251.788 189.384C249.942 189.056 247.855 189.387 246.088 188.951C243.421 188.293 244.417 185.161 244.153 183.139C243.87 180.973 241.682 177.967 242.34 175.782C243.046 173.436 247.174 172.929 249.147 172.36C253.657 171.058 260.09 170.808 263.443 167.165C266.109 170.14 268.254 173.546 271.051 176.411C274.072 179.504 277.299 182.36 280.199 185.578C283.218 188.928 286.334 192.212 289.242 195.659C290.512 197.162 291.626 198.782 292.939 200.249C294.106 201.554 295.336 202.754 293.697 204.299ZM159.653 146.439C161.039 145.701 161.215 146.163 161.215 147.682C160.816 146.953 160.42 146.758 159.653 146.439ZM147.904 175.954V173.277C149.24 173.242 148.418 175.532 147.904 175.954ZM147.577 179.939C147.577 178.754 147.545 177.626 147.887 176.473C148.066 177.729 148.408 178.816 147.577 179.939ZM153.321 261.354C154.548 261.468 156.439 260.623 157.471 261.586C158.531 262.575 158.446 265.456 158.697 266.793C159.112 269.002 159.48 271.219 159.829 273.439C160.059 274.894 160.342 276.372 158.697 276.929C156.266 277.752 152.793 276.578 150.259 276.471C145.253 276.26 140.25 275.968 135.24 275.866C130.385 275.768 125.518 275.845 120.684 276.351C118.501 276.579 116.366 276.982 114.205 277.347C113.066 277.539 110.013 278.344 108.985 277.384C107.049 275.575 110.267 271.354 111.651 270.161C114.22 267.948 117.873 266.353 121.095 265.392C122.816 264.878 125.686 263.436 127.042 265.049C128.082 266.286 128.041 267.938 129.532 268.875C132.986 271.047 130.965 264.816 128.807 264.049C130.256 260.656 133.019 265.447 134.165 266.598C134.572 267.008 135.899 268.358 136.474 267.679C136.906 267.171 136.045 265.35 135.885 264.854C135.642 264.102 135.029 262.957 135.205 262.141C135.525 260.664 137.595 260.262 138.835 260.139C140.759 259.948 142.645 260.558 144.547 260.762C147.463 261.075 150.402 261.079 153.321 261.354ZM134.01 122.243C130.213 122.545 126.392 121.965 122.604 122.44C119.021 122.89 115.644 124.206 112.265 125.415C117.288 113.631 123.786 102.904 131.706 92.8548C135.65 87.8497 139.892 82.8791 144.154 78.1422C146.137 75.9383 148.188 73.8076 150.236 71.6657C152.062 69.7548 153.371 66.5097 155.563 65.0828C157.433 63.8647 160.703 64.7334 162.776 64.809C165.12 64.8944 167.972 65.1076 170.257 64.3273C171.913 63.7618 172.369 62.2528 170.296 62.2029C167.85 62.1435 165.445 62.3985 162.968 62.1691C156.55 61.5759 150.363 60.6008 143.893 61.1539C142.411 61.2803 140.46 61.912 139.005 61.7224C137.959 61.5853 138.647 62.1115 137.92 61.2718C137.641 60.9506 137.306 60.1955 137.223 59.7688C136.76 57.3724 138.076 53.9479 138.39 51.5353C138.681 49.3024 138.423 46.8483 138.968 44.6739C139.464 42.6952 140.977 42.4312 142.839 42.2198C147.934 41.6411 153.133 41.3332 158.251 40.8971C169.93 39.902 181.98 38.4007 193.58 40.8599C197.769 41.7479 202.877 43.121 206.618 45.3197C207.789 46.0069 208.969 46.8163 208.543 48.2402C208.102 49.7184 205.937 51.2799 204.865 52.2536C196.942 59.4494 189.289 66.7891 183.723 76.0221C176.624 87.7959 172.551 100.512 170.161 114.003C169.647 116.906 169.17 118.425 166.184 119.261C162.98 120.158 159.887 120.741 156.564 121.014C149.052 121.631 141.517 121.644 134.01 122.243ZM136.554 44.272C135.978 48.558 135.199 52.8345 135.122 57.1542C135.093 58.7857 134.939 59.6031 133.204 59.967C131.16 60.3958 129.081 60.7153 127.027 61.1603C117.114 63.3095 107.388 65.949 97.6898 68.9198C88.2642 71.8079 78.9936 75.0568 69.3563 77.1962C65.2107 78.1165 60.3597 78.7367 56.5839 80.7744C52.5219 82.9671 53.0565 86.562 52.6919 90.5105C52.2047 95.786 50.6408 100.894 50.0909 106.167C49.8279 108.687 49.5884 111.222 49.6281 113.758C49.6619 115.919 49.9714 118.309 48.5189 120.128C45.6051 116.232 44.2239 111.33 43.6497 106.554C43.3705 104.232 43.481 101.892 43.4012 99.5594C43.3367 97.6815 43.3786 94.6944 42.1558 93.1261C39.4977 89.7178 36.0407 103.376 35.712 104.835C35.1591 107.29 34.7031 109.765 34.1524 112.221C33.9081 113.309 33.5948 117.265 32.1372 117.659C29.1166 118.477 29.7796 109.986 29.7318 108.693C29.6362 106.083 29.5713 103.471 29.6323 100.859C29.6767 98.9739 30.0413 96.9281 29.8249 95.042C29.2933 90.411 26.6903 95.2902 25.9585 97.0139C24.1094 101.366 23.273 106.024 21.6148 110.445C21.339 111.18 20.6909 113.656 19.6641 113.702C18.5216 113.753 18.5306 111.196 18.4652 110.449C18.0861 106.119 16.8057 101.819 17.1921 97.4436C17.5823 93.0257 19.1304 88.4839 21.3211 84.6413C25.9525 76.5171 34.3163 71.8523 42.3274 67.6031C51.4956 62.741 61.1748 58.8997 71.0606 55.7704C82.9501 52.0068 95.158 48.9616 107.439 46.7945C113.688 45.6921 120.033 44.9037 126.345 44.2716C128.563 44.0495 130.782 43.9197 132.972 43.4973C133.799 43.3375 136.781 42.5786 136.554 44.272ZM142.94 30.402C139.808 30.4268 136.608 28.9076 133.556 28.2798C129.923 27.5315 126.375 26.4488 122.748 25.6676C115.646 24.1382 108.54 22.6468 101.444 21.0836C98.3635 20.4049 95.2682 19.8143 92.1998 19.0853C88.917 18.3055 85.3704 17.4359 82.0104 18.276C76.9174 19.5496 74.766 25.1235 72.896 29.4735C71.5751 32.5461 70.5402 35.971 68.4802 38.6446C67.7467 39.5979 66.7041 40.7348 65.3742 40.426C62.9035 39.8528 63.2958 36.5821 63.6105 34.7742C64.0664 32.1506 64.7124 29.5577 65.2294 26.9459C65.4378 25.8919 67.0525 18.9931 64.1698 20.0611C62.0312 20.8534 60.8998 26.0717 60.0903 27.9355C59.4888 29.3206 58.8514 30.6967 58.1764 32.0476C57.2755 33.8496 54.7053 39.8704 51.8598 39.0939C47.7876 37.9826 51.6937 27.2731 52.3875 25.0159C52.7683 23.7769 56.9075 14.3804 53.4138 15.1484C51.9259 15.4759 50.4765 18.2405 49.7178 19.3864C48.3725 21.4189 47.0315 23.466 45.7652 25.5485C44.4626 27.6904 43.7974 30.1283 42.5055 32.239C41.8258 33.3498 40.4386 34.8302 39.0844 33.8017C36.9732 32.1997 38.2245 26.6269 38.5943 24.5196C39.2821 20.6018 40.9907 16.5855 43.335 13.3827C46.8577 8.57019 53.5048 7.01512 59.0943 6.08021C66.3092 4.87323 73.6244 5.20338 80.8696 5.91748C89.0178 6.72086 97.0417 7.58103 105.073 9.22365C113.168 10.8791 121.266 12.5213 129.236 14.7106C132.991 15.742 136.799 16.6564 140.5 17.8673C144.435 19.1541 148.275 20.7556 152.319 21.6828C150.897 25.2341 149.474 28.7855 148.051 32.3372C146.689 30.9897 144.831 30.3866 142.94 30.402ZM212.67 40.1881C213.917 39.5056 215.296 39.1836 215.751 37.6751C216.153 36.3421 215.465 34.8319 215.137 33.5523C214.217 29.9698 213.975 26.2587 214.789 22.634C215.567 23.8217 218.478 28.3904 220.249 25.6245C221.318 23.9563 218.455 21.5564 217.62 20.3836C219.453 19.2519 222.072 16.2144 224.184 18.0462C225.549 19.2306 226.128 20.3708 227.967 20.9465C230.201 21.6457 232.303 21.4855 234.584 21.2925C236.181 21.1575 236.565 20.9444 237.189 22.1744C237.679 23.1414 237.932 24.3381 238.218 25.3764C238.782 27.4234 240.086 31.457 238.541 33.3746C237.187 35.0544 231.933 33.6142 231.204 35.7826C230.806 36.9652 232.705 37.0075 233.431 37.5926C234.329 38.317 235.073 39.4697 235.561 40.4995C235.923 41.261 236.473 42.5192 235.857 43.2978C235.007 44.375 233.43 43.5579 232.745 42.7751C231.834 41.7351 231.539 40.3133 230.779 39.1806C229.385 37.1023 229.302 38.7556 228.923 40.2479C228.529 41.7983 227.596 41.6915 226.168 41.8905C223.662 42.2403 221.13 42.7336 218.691 43.4054C217.441 43.7497 216.229 44.1883 215.039 44.7008C214.271 45.0306 212.941 46.0295 212.109 46.0389C210.566 46.0564 209.497 43.4755 208.701 42.3988C210.022 41.6603 211.341 40.915 212.67 40.1881ZM295.509 198.224C291.656 193.598 288.32 188.572 284.518 183.905C280.769 179.302 276.432 175.277 272.225 171.109C270.239 169.141 268.337 166.982 266.145 165.239C264.51 163.938 263.251 163.918 261.284 164.494C255.695 166.132 250.005 168.103 244.716 170.546C239.791 172.822 235.305 175.743 229.964 177.012C224.513 178.308 218.844 178.724 213.257 178.403C207.526 178.073 202.12 176.88 196.67 175.127C191.508 173.467 186.126 172.017 181.711 168.725C177.083 165.275 173.508 160.313 170.195 155.645C168.517 153.283 166.852 150.801 165.722 148.123C164.741 145.8 164.101 143.057 162.341 141.163C161.909 141.775 161.372 142.3 161.153 143.018C161.053 143.345 161.641 143.335 161.581 143.594C161.467 144.084 160.816 144.582 160.438 144.848C159.079 145.805 159.071 145.044 159.427 146.833C159.635 147.876 159.242 150.229 157.542 149.46C158.168 150.209 157.173 151.155 156.849 151.773C156.625 151.516 156.347 151.427 156.015 151.504C156.637 152.743 156.27 152.776 155.667 153.759C155.557 153.939 155.167 154.88 155.223 154.801C154.608 155.678 153.896 155.899 153.537 156.991C153.242 157.889 153.318 158.875 152.989 159.771C152.592 159.222 152.194 158.672 151.797 158.123C151.878 158.555 152.04 159.195 152.229 159.587C152.347 159.832 152.856 160.404 152.849 160.538C152.822 161.038 152.198 160.918 152.021 161.349C151.687 162.157 152.169 162.276 151.987 163.065C151.779 163.97 151.22 163.608 150.954 164.38C150.903 164.527 151.296 165.103 151.234 165.419C151.146 165.866 150.742 166.116 150.599 166.513C150.235 167.523 150.367 168.263 149.862 169.232C149.667 169.608 149.382 169.858 149.244 170.286C149.123 170.661 149.383 171.461 149.15 171.798C148.024 173.42 148.182 170.626 148.267 169.932C148.984 164.112 151.284 158.106 153.389 152.666C154.435 149.963 155.453 147.176 156.764 144.587C157.292 143.545 157.901 142.469 158.774 141.671C159.877 140.662 161.442 140.259 162.441 139.132C162.283 139.31 163.524 138.135 163.326 138.521C163.503 138.176 163.193 137.709 163.303 137.375C163.441 136.96 163.7 136.873 163.988 136.51C164.507 135.858 165.123 135.534 164.308 134.704C165.518 134.436 166.096 134.044 166.337 132.748C166.514 131.801 166.158 131.863 166.779 131.231C167.403 130.596 167.719 131.092 168.112 129.993C168.582 128.678 168.894 126.889 169.176 125.513C169.422 124.312 168.825 122.545 169.837 121.697C171.119 120.623 172.267 121.077 172.037 118.917C171.813 116.811 172.467 115.535 173.124 113.543C174.436 109.564 174.944 105.364 176.094 101.338C178.549 92.7464 182.886 85.0001 187.55 77.4375C191.86 70.4493 197.885 64.4955 203.703 58.7617C205.296 57.1913 206.871 55.5982 208.301 53.8766C209.534 52.3941 210.096 50.3757 211.281 48.9684C212 48.1138 213.339 47.7482 214.344 47.295C216.019 46.5391 218.016 45.5529 219.907 45.7058C219.155 48.2398 218.91 51.2008 221.128 53.101C223.818 55.406 226.256 53.0113 228.722 51.6971C233.217 49.3015 239.645 51.5007 243.565 47.91C244.498 47.055 244.759 45.6887 245.729 44.89C246.441 44.3045 247.454 44.1559 248.256 43.7194C250.692 42.3932 251.874 39.9656 250.926 37.2839C250.058 34.8323 248.712 33.982 251.71 32.7395C254.143 31.7316 255.069 30.2128 253.967 27.5089C252.917 24.9309 250.993 24.6341 249.172 22.947C247.409 21.313 249.435 19.4112 250.756 18.1846C252.459 16.6022 252.784 15.1761 250.81 13.5305C248.742 11.8076 245.789 11.8678 243.378 12.7199C240.652 13.683 238.856 15.2842 237.702 17.8788C236.527 20.5203 233.615 19.7831 231.257 19.0469C229.001 18.343 228.414 16.8243 226.933 15.1889C225.286 13.3699 221.929 14.9254 219.986 15.7565C215.201 17.8023 210.446 21.0311 210.256 26.7503C210.143 30.1607 211.585 33.0594 212.334 36.2605C213.02 39.1879 208.319 38.9572 207.505 41.7889C198.82 37.1899 189.149 35.7826 179.441 35.4695C169.123 35.1364 158.657 34.8695 148.427 36.4976C150.801 32.359 152.055 27.8206 154.121 23.5689C154.716 22.3448 154.972 22.4495 156.285 22.8193C158.806 23.5296 161.308 24.3244 163.824 25.056C173.015 27.7288 182.026 30.9491 190.913 34.4761C191.777 34.8191 193.705 35.7711 194.462 34.7358C195.336 33.542 193.314 32.0703 192.497 31.4698C188.918 28.8435 184.484 27.2496 180.476 25.4071C171.714 21.38 162.011 19.4684 152.869 16.4775C133.132 10.0193 112.713 5.11454 92.2015 1.875C87.196 1.08444 82.1372 0.9687 77.1099 0.381868C72.6569 -0.13791 68.1958 -0.125951 63.7433 0.410911C55.5195 1.40306 45.9855 3.54367 41.3408 11.0743C37.1478 17.8737 34.3488 25.5182 35.4187 33.5835C35.7402 36.006 36.7657 38.8748 39.7538 38.2504C41.8266 37.8173 42.9273 36.0555 43.8896 34.336C45.3438 31.7384 46.78 29.1408 48.3558 26.6128C48.9403 30.4033 46.8163 34.1306 47.1502 37.992C47.3773 40.6122 48.8246 44.7521 52.2252 44.0102C56.8862 42.9937 58.8044 35.7096 61.0454 32.2151C61.159 34.9066 60.2159 37.5593 60.5045 40.2569C60.7892 42.9215 62.8706 45.4372 65.7938 45.072C68.551 44.7277 70.3429 41.7727 71.514 39.5479C73.1437 36.4519 74.3143 33.1325 75.906 30.0159C77.3977 27.0946 79.1648 23.6167 82.7264 23.0679C85.9049 22.5776 89.5476 23.7124 92.6873 24.1805C101.397 25.4789 109.93 27.6895 118.544 29.4756C127.78 31.3903 137.234 32.5533 146.186 35.6429C143.038 39.9284 134.802 39.0025 130.113 39.4625C123.027 40.1578 115.851 40.681 108.806 41.7069C101.847 42.72 95.0347 44.5185 88.1306 45.8241C81.2628 47.1229 74.407 48.4239 67.7616 50.6388C55.4234 54.7513 42.8795 59.9559 32.0087 67.1316C26.9507 70.4706 22.4576 74.2868 19.3332 79.5571C16.1888 84.8604 14.6778 90.8573 14.1015 96.9576C13.7428 100.756 14.3521 104.044 15.0877 107.74C15.6205 110.417 15.793 114.899 17.9384 116.859C22.0332 120.6 25.4329 105.426 26.189 103.593C26.7334 106.596 25.8432 123.516 32.4134 122.14C35.3457 121.526 36.0108 117.5 36.4971 115.075C37.3843 110.654 38.1788 106.144 39.6962 101.887C40.67 107.623 41.0761 113.6 43.1741 119.079C44.5676 122.718 48.5437 129.175 51.3158 122.946C53.395 118.274 52.6816 112.911 52.931 107.951C53.2072 102.454 54.7847 97.1523 55.3432 91.7094C55.5596 89.6008 55.3637 87.2244 57.4817 86.0738C59.3001 85.0864 61.9591 84.7647 63.9443 84.2134C69.8246 82.5801 75.7433 81.0789 81.5958 79.3462C87.4509 77.6121 93.2248 75.5864 99.0018 73.6094C104.527 71.7186 110.168 70.6436 115.76 69.0245C118.94 68.1037 122.081 67.1406 125.304 66.3718C126.805 66.0143 128.323 65.7358 129.82 65.3655C130.93 65.0913 132.392 64.0565 133.532 64.0749C134.706 64.0941 135.148 65.0884 136.494 65.1665C137.944 65.2502 139.417 64.9303 140.859 64.8197C144.37 64.5502 148.103 64.1146 151.607 64.6015C149.501 67.1 146.657 68.8272 144.165 70.8969C141.29 73.2839 138.508 75.8615 136.053 78.6803C131.112 84.3522 126.443 90.3473 122.104 96.492C117.825 102.554 114.38 109.187 111.384 115.964C109.892 119.341 108.443 122.792 107.412 126.342C106.988 127.8 106.642 129.264 105.878 130.59C105.176 131.806 104.188 132.855 105.017 134.323C105.588 133.966 106.101 133.522 106.617 133.093C106.02 137.296 104.733 141.362 104.071 145.552C103.419 149.68 103.445 153.926 103.488 158.095C103.576 166.827 104.225 175.361 105.996 183.925C107.787 192.586 110.087 201.18 112.988 209.535C115.78 217.579 118.582 226.014 122.479 233.596C126.642 241.693 131.594 250.207 137.62 257.062C133.684 258.674 128.675 258.373 124.507 259.022C120.15 259.701 116.382 260.983 112.669 263.395C108.913 265.835 106.874 268.977 106.355 273.426C105.986 276.593 104.89 280.978 109.043 281.81C112.03 282.408 115.37 281.425 118.363 281.182C123.599 280.758 128.842 280.493 134.09 280.264C139.324 280.035 144.559 279.834 149.795 279.672C152.258 279.595 154.722 279.557 157.183 279.468C158.286 279.429 158.955 279.412 159.945 279.731C160.727 279.984 160.67 280.508 161.541 279.86C162.945 278.815 162.656 275.52 162.617 274.071C162.557 271.835 162.345 269.573 161.91 267.38C161.651 266.076 158.51 257.674 160.952 257.32C158.115 254.202 156.982 249.748 155.708 245.84C154.111 240.942 152.709 236.059 151.609 231.022C149.259 220.263 148.22 209.387 148.22 198.378C159.115 205.096 170.642 208.735 183.474 209.141C196.232 209.544 210.248 208.496 222.362 204.251C227.972 202.284 232.997 199.702 237.807 196.223C239.531 194.977 241.378 192.153 243.641 192.201C246.341 192.259 249.366 193.281 252.047 193.719C257.176 194.555 263.869 195.027 268.211 198.2C270.57 199.924 272.26 202.337 274.365 204.323C275.966 205.834 278.083 206.654 279.672 208.165C281.387 209.796 280.706 211.925 283.549 212.057C285.979 212.17 288.643 211.192 290.739 210.044C294.921 207.753 299.374 202.864 295.509 198.224Z" fill="#27262D"/>
<path fill-rule="evenodd" clip-rule="evenodd" d="M255.318 89.2766C261.437 93.6249 268.456 96.5954 274.851 100.511C276.451 101.492 281.438 103.527 281.39 105.345C281.361 106.408 279.863 107.741 279.207 108.478C278.082 109.74 277.025 111.015 275.988 112.35C271.239 118.464 266.767 124.636 261.621 130.442C260.846 131.316 258.512 135.486 257.758 133.415C257.417 132.476 257.698 131.421 256.808 130.545C256.35 130.094 254.579 129.845 255.095 128.878C255.439 129.033 255.783 129.188 256.127 129.342C255.86 128.569 255.879 127.722 255.479 126.991C255.23 126.537 254.744 126.322 254.575 125.811C254.342 125.105 254.737 124.284 254.671 123.555C254.606 122.829 254.23 122.143 254.005 121.458C252.673 117.397 252.196 113.303 251.514 109.114C250.839 104.968 249.789 100.952 249.376 96.7598C248.94 92.3321 248.406 87.9133 247.694 83.521C248.966 83.6996 249.943 85.0821 250.843 85.8637C252.257 87.092 253.792 88.1926 255.318 89.2766ZM250.52 132.143C250.228 131.914 250 131.632 249.835 131.298C252.834 129.812 251.025 132.347 250.52 132.143ZM248.697 128.973C247.389 129.334 246.45 129.407 245.442 128.869C245.346 128.818 245.456 128.424 245.284 128.344C245.133 128.274 244.903 128.36 244.774 128.295C244.335 128.071 243.567 128.561 243.492 127.706C245.161 127.195 246.801 126.252 248.563 126.093C251.011 125.873 250.898 128.366 248.697 128.973ZM242.969 124.045C241.185 124.462 239.715 125.436 237.82 125.182C236.041 124.944 234.495 124.021 233.092 122.957C236.603 121.963 240.284 121.783 243.792 120.822C244.934 120.509 246.435 119.683 247.665 120.016C249.033 120.386 249.119 121.667 249.529 122.833C247.341 123.227 245.135 123.538 242.969 124.045ZM231.812 119.097C230.099 119.507 228.347 120.402 226.914 118.857C226.683 118.607 226.48 118.856 226.508 118.088C226.536 117.278 227.271 116.756 227.904 116.47C229.39 115.8 231.474 116.233 233.053 116.135C235.571 115.978 238.135 115.454 240.626 115.051C242.351 114.772 244.133 114.153 245.895 114.275C247.256 114.369 248.898 115.53 246.915 116.376C245.109 117.148 242.4 117.029 240.443 117.363C237.55 117.857 234.667 118.415 231.812 119.097ZM230.138 111.032C230.249 111.145 230.36 111.258 230.471 111.371C230.453 111.367 231.128 110.82 231.307 110.804C232.176 110.728 233.05 110.788 233.92 110.739C235.925 110.626 237.946 110.277 239.915 109.892C241.519 109.578 243.153 109.038 244.804 109.173C246.233 109.29 246.383 109.583 246.477 110.963C242.828 110.963 239.07 110.886 235.484 111.659C233.149 112.162 230.577 113.659 229.407 110.96C229.651 110.984 229.894 111.008 230.138 111.032ZM232.419 105.189C233.324 105.879 235.791 104.732 236.875 104.618C238.052 104.493 239.16 104.364 240.302 104.07C241.313 103.81 244.661 102.509 245.437 103.753C246.627 105.659 241.809 106.009 241.045 106.103C237.842 106.499 234.518 106.85 231.401 107.691C231.741 106.857 232.08 106.024 232.419 105.189ZM236.813 98.7151C237.047 99.5962 244.292 96.3494 244.424 98.7091C244.525 100.52 237.256 101.422 235.949 101.263C236.255 100.429 237.07 99.6824 236.813 98.7151ZM239.246 93.1769C239.4 91.3997 239.638 91.41 241.063 91.2426C242.149 91.1149 243.643 90.4776 243.36 92.4149C243.118 94.0738 239.091 94.9703 239.246 93.1769ZM241.835 87.0621C242.178 86.108 242.949 87.3923 242.966 87.8774C243.009 89.1686 242.03 88.8892 241.088 88.8892C241.351 88.2862 241.6 87.6763 241.835 87.0621ZM253.758 79.9001C253.566 79.6686 252.488 79.5802 252.181 79.4679C251.426 79.1911 251.533 78.6013 250.567 79.183C250.519 79.1343 250.611 78.697 250.558 78.6769C250.532 78.6666 249.855 78.4113 249.635 78.2703C249.105 77.9303 248.627 77.5976 248.139 77.171C247.621 76.7178 247.101 76.0601 246.509 75.6992C246.26 75.5471 246.055 75.3314 245.754 75.2849C244.974 75.1644 245.197 75.7086 244.515 75.8166C244.094 75.8833 243.788 75.3921 243.238 75.6039C242.763 75.7867 242.487 76.4534 242.275 76.8502C241.506 78.2942 240.912 79.8484 240.158 81.3078C236.305 88.7705 231.925 95.95 228.192 103.482C226.394 107.111 224.518 110.765 223.253 114.621C222.34 117.402 220.28 121.465 222.052 124.244C223.341 126.265 225.922 127.138 227.981 128.114C231.08 129.583 233.936 131.503 237.068 132.928C240.804 134.626 244.431 136.403 248.072 138.3C249.625 139.109 251.026 140.274 252.574 141.04C253.52 141.509 254.982 140.709 255.29 141.783C256.477 140.346 258.397 141.304 259.77 140.292C260.577 139.696 261.167 138.524 261.84 137.79C262.85 136.691 263.947 135.671 264.978 134.591C269.068 130.301 272.845 125.832 276.567 121.224C280.122 116.824 284.274 112.667 287.277 107.85C288.47 105.938 288.686 103.932 287.899 101.82C287.324 100.279 285.94 97.9523 283.963 98.9726C284.712 97.7272 281.82 96.3972 280.943 96.1537C280.93 96.1503 280.757 97.107 280.512 97.0831C280.599 97.0917 279.777 94.9634 279.416 94.6905C278.343 93.8786 277.039 92.9313 275.868 92.2629C274.795 91.65 273.662 91.3463 272.623 90.6604C271.362 89.8293 270.205 88.8435 268.94 88.018C267.719 87.221 266.357 86.2788 265.007 85.7309C263.837 85.2555 262.786 85.1624 261.732 84.3834C260.429 83.4194 259.293 82.7655 257.79 82.1014C256.49 81.5269 254.688 81.0251 253.758 79.9001Z" fill="#27262D"/>
<path fill-rule="evenodd" clip-rule="evenodd" d="M76.2996 195.32C76.5387 194.759 76.7769 194.197 77.016 193.636C77.3114 194.615 77.3943 195.102 76.2996 195.32ZM76.6177 197.915C76.0998 198.007 76.3039 196.382 76.3039 196.099C77.1983 196.605 76.4576 197.213 76.6177 197.915ZM75.8103 193.226C76.2518 192.965 76.6932 192.705 77.1347 192.444C76.5199 193.583 76.7611 192.871 77.0147 193.632C76.5511 193.766 76.1002 193.61 75.8103 193.226ZM73.194 202.132C71.5392 208.138 66.2831 212.875 60.7316 215.329C57.5415 216.738 54.4052 217.091 50.9602 216.934C49.6315 216.873 48.0681 216.442 46.7894 216.522C45.8049 216.584 45.8493 216.627 45.0338 217.46C44.673 216.796 44.9343 216.329 44.2107 215.942C43.3077 215.46 42.9328 216.022 42.485 216.69C41.8988 216.082 41.6588 215.765 40.8993 215.404C40.9232 215.416 40.1722 215.387 40.203 215.396C40.0672 215.355 39.2505 214.829 38.9947 214.734C37.9453 214.34 36.7319 214.178 35.7636 213.613C34.9166 213.12 34.2189 211.735 33.2498 212.799C33.2489 211.02 30.8542 210.283 29.7318 209.351C27.9779 207.896 26.5835 205.741 25.7091 203.656C24.7767 201.433 24.4655 199.302 24.0291 197.011C23.7243 195.41 21.7279 193.096 22.9268 191.481C23.2124 192.158 23.0783 192.852 23.5527 193.466C23.9796 192.643 24.2144 191.722 24.4074 190.821C24.5022 190.38 25.0512 189.085 24.9889 188.701C24.8621 187.914 23.8887 187.871 24.4283 186.907C25.5478 188.125 26.4512 185.986 25.6054 185.133C25.1878 185.604 25.0346 186.139 24.842 186.722C23.7414 184.5 26.7876 185.216 26.1211 183.209C27.2329 182.995 27.872 182.715 28.2947 181.616C28.7648 180.393 28.4189 180.127 29.4863 179.319C29.8535 179.041 30.8918 178.642 31.0818 178.185C31.4494 177.302 30.5139 177.04 31.3332 176.213C31.6099 176.698 32.6884 177.66 33.2788 176.745C33.3971 176.563 32.9006 176.433 33.2617 176.013C33.7967 175.391 34.3953 174.781 35.3 174.912C34.5836 173.12 39.1612 172.978 40.3336 172.556C41.5085 172.132 42.5055 171.854 43.7513 171.756C44.9958 171.658 45.0577 171.293 46.1114 170.544C46.2006 171.616 46.4585 171.38 47.2206 171.569C47.4038 171.255 47.5916 171.22 47.7837 171.463C47.975 171.645 48.209 171.731 48.4848 171.721C48.9032 171.742 49.3779 171.688 49.8164 171.697C50.8458 171.717 51.9076 171.631 52.9173 171.653C53.1777 171.609 53.4211 171.519 53.6491 171.381C53.7443 171.56 53.8399 171.74 53.9347 171.92C54.4696 171.987 54.5111 172.657 55.169 171.924C55.3637 172.856 55.9229 172.371 56.5138 172.624C57.0526 172.855 57.1384 173.224 57.6358 173.482C57.9629 173.747 58.3134 173.782 58.6883 173.587C59.0448 173.852 59.4068 174.109 59.774 174.357C60.4507 174.74 61.2482 174.974 61.9612 175.276C62.4355 175.471 62.9069 175.675 63.3744 175.886C63.3885 176.451 63.6416 176.65 64.1335 176.484C64.5779 176.856 64.703 176.841 65.1342 177.475C66.1111 178.91 66.9778 180.026 68.2116 181.309C73.5744 186.886 75.222 194.772 73.194 202.132ZM74.8399 178.414C72.4187 175.17 68.9916 171.456 65.9121 169.408C64.3512 168.369 62.1601 166.505 60.2513 165.956C59.7987 165.825 59.3304 165.817 58.8855 165.68C58.5418 165.575 58.3548 165.222 57.9629 165.158C57.6888 165.114 57.6585 165.728 57.3673 165.671C56.7585 165.552 56.3725 164.948 55.9426 164.57C55.0191 166.162 54.5179 163.485 53.1619 165.285C51.5481 162.753 47.7568 163.307 45.1798 163.434C44.4156 163.472 44.0565 163.744 43.379 163.946C42.7484 164.133 42.686 164.085 41.9974 164.08C40.2824 164.067 38.7599 164.282 37.1747 165.036C34.5114 166.301 32.0667 168.273 29.5371 169.798C26.7099 171.503 24.1615 173.672 21.9986 176.165C14.1796 185.18 12.0889 198.337 18.3235 208.788C28.2264 225.385 53.7707 227.159 68.2453 215.897C79.4282 207.196 83.684 190.259 74.8399 178.414Z" fill="#27262D"/>
<path fill-rule="evenodd" clip-rule="evenodd" d="M197.41 131.708C197.132 132.371 194.537 132.147 194.48 131.365C194.395 130.197 197.893 130.555 197.41 131.708ZM200.167 131.274C201.638 131.393 204.054 132.393 205.472 131.789C207.635 130.867 205.363 129.452 204.203 129.03C203.022 128.6 201.263 128.828 200.656 127.593C200.199 126.664 201.328 124.071 199.927 124.487C198.458 124.925 198.885 128.64 196.579 127.387C195.479 126.79 195.928 123.15 194.086 125.01C193.582 125.518 193.538 126.453 192.87 126.832C192.189 127.219 191.334 126.816 190.614 126.849C188.71 126.939 188.103 128.721 190.033 129.428C190.747 129.689 193.439 130.009 191.809 131.177C190.781 131.912 188.498 130.369 187.616 131.649C186.403 133.408 189.652 133.448 190.524 133.974C192.003 134.865 190.782 136.946 190.9 138.428C191.08 140.692 192.395 140.219 192.873 138.303C193.278 136.677 192.776 134.336 195.226 134.982C199.216 136.035 193.007 141.102 195.93 142.399C197.794 143.226 198.058 138.756 198.202 137.987C198.738 135.146 200.333 135.809 202.75 135.896C205.573 135.998 206.254 133.909 203.265 133.31C202.311 133.12 200.999 133.361 200.171 132.753C199.68 132.394 199.007 131.18 200.167 131.274Z" fill="#27262D"/>
<path fill-rule="evenodd" clip-rule="evenodd" d="M95.9391 224.079C93.6545 223.261 89.8326 223.438 89.2673 226.39C89.0308 227.625 89.4914 228.932 90.3444 229.83C91.3337 230.871 92.9091 230.967 92.825 229.155C92.7665 227.9 91.5732 226.811 93.6712 226.558C94.9768 226.401 96.9078 227.377 96.9727 228.82C97.1196 232.072 91.4925 232.327 89.4188 231.765C85.3031 230.649 86.4213 226.337 89.2476 224.369C89.9777 223.86 92.0727 223.077 92.1683 222.02C92.2956 220.619 90.5639 220.906 89.7151 221.09C83.4762 222.449 82.1164 232.904 88.6354 234.875C91.5958 235.77 95.7649 234.846 97.5491 232.164C99.2218 229.649 99.2445 225.263 95.9391 224.079Z" fill="#27262D"/>
<path fill-rule="evenodd" clip-rule="evenodd" d="M13.2169 150.065C11.2666 151.004 9.31634 151.943 7.3665 152.883C6.72181 151.503 5.63269 147.733 3.9975 147.251C1.35046 146.472 3.03603 150.581 3.49285 151.521C3.86814 152.293 4.73867 153.489 4.52734 154.409C4.24385 155.648 2.49595 156.087 1.58101 156.726C-0.683059 158.309 -0.665132 161.633 2.61378 160.225C4.46927 159.427 6.76664 157.216 8.18878 159.727C8.84542 160.885 10.4012 167.357 12.0261 163.124C13.0316 160.504 8.1922 157.782 10.578 155.565C11.346 154.852 12.2452 154.792 13.0124 154.382C14.8653 153.391 13.8206 151.561 13.2169 150.065Z" fill="#27262D"/>
<path fill-rule="evenodd" clip-rule="evenodd" d="M299.133 56.3C297.971 55.8746 296.532 55.0439 295.24 55.327C293.866 55.6277 293.313 57.0038 292.315 57.8311C289.6 60.0806 288.019 56.7279 286.527 54.8905C285.118 53.1557 283.399 52.7345 281.411 53.8006C280.619 54.2255 277.283 56.1727 277.865 57.4202C278.283 58.318 279.931 57.5121 280.494 57.316C281.714 56.8911 282.848 56.5191 284.096 57.1388C286.438 58.3005 287.046 61.4862 289.879 61.9829C292.808 62.4967 292.904 59.7078 294.995 58.658C296.397 57.9545 297.373 59.2 298.725 58.9518C300.014 58.7156 300.61 56.8398 299.133 56.3Z" fill="#27262D"/>
<path fill-rule="evenodd" clip-rule="evenodd" d="M275.481 67.5399C276.517 67.765 277.194 65.7546 277.842 65.2447C278.918 64.3994 280.783 64.229 281.879 65.0798C284.018 66.7404 283.281 70.3254 286.327 71.2599C289.05 72.0953 290.332 68.5081 292.624 67.6151C293.957 67.0957 295.419 66.7557 294.899 64.8923C294.54 63.6038 293.482 63.2728 292.332 63.7678C290.355 64.6177 289.684 68.0802 287.341 68.1421C284.916 68.2062 284.653 64.7095 283.612 63.1865C282.025 60.8652 278.763 60.3044 276.909 62.5241C276.349 63.1937 273.508 67.1124 275.481 67.5399Z" fill="#27262D"/>
<path fill-rule="evenodd" clip-rule="evenodd" d="M227.554 27.9009C228.996 28.8875 231.868 28.8534 233.196 27.6297C234.547 26.3847 232.743 26.1934 231.643 26.2314C230.796 26.2609 229.211 26.6807 229.694 25.2179C230.122 23.92 232.476 24.5807 232.672 23.1559C230.901 22.8381 228.95 22.9526 227.639 24.3453C226.692 25.352 226.205 26.9771 227.554 27.9009Z" fill="#27262D"/>
</svg>
