<svg width="302" height="284" viewBox="0 0 302 284" fill="none" xmlns="http://www.w3.org/2000/svg">
<path d="M241 22L245.5 28.5L247.5 40C245.167 42.6667 240.4 48.2 240 49C239.6 49.8 234.167 49.3333 231.5 49L224 45.5L212.5 47.5H210.5L208.5 43.5L212.5 40L214.5 37L213.5 27C214.167 25 215.7 20.8 216.5 20C217.3 19.2 221.833 18 224 17.5L231.5 22H241Z" fill="white" fill-opacity="0.9"/>
<path d="M91 5L153 19L155.5 20.5L149 35.5L151 38.5L152 41L141 43.5L139 44.5L137.5 54.5L135 63L56.5 85L52 121L50 124L47 122L43.5 107.5L41.5 98L33.5 121L31 120L29 113V99.5L27.5 101L21 116L19 116.5L17.5 110.5L16.5 95.5L21.5 81.5L34.5 69.5L65 55.5L107.5 46L143.5 42L149 38L147.5 34L90.5 22.5L81 23L67 44L64 43.5L62.5 36L64 28L54 42H52L49.5 40.5L50 30.5L52 22.5L42.5 36C41.6667 36.3333 39.9 36.9 39.5 36.5C39.1 36.1 38.6667 36 38.5 36L37 28L43 12L59 5H91Z" fill="white" fill-opacity="0.9"/>
<path d="M78 196C78 209.807 65.2401 221 49.5 221C33.7599 221 21 209.807 21 196C21 182.193 33.7599 171 49.5 171C65.2401 171 78 182.193 78 196Z" fill="white" fill-opacity="0.9"/>
<path d="M284.5 103.5C273.833 96.5 251.5 82.1 247.5 80.5L242 86.5L226 117L225.5 123C227.667 125 232.2 129 233 129C234 129 257 138.5 257.5 138.5C258 138.5 261 137 262.5 136.5C264 136 284.5 108.5 285 108C285.4 107.6 284.833 104.833 284.5 103.5Z" fill="white" fill-opacity="0.9"/>
<path d="M159.5 260.5C160 260.5 162 279 162 279.5H144C136.667 279.833 121.8 280.4 121 280C120.2 279.6 112.333 279.833 108.5 280L108 275C108.667 273.667 110.1 270.9 110.5 270.5C111 270 121.5 263.5 122.5 263.5C123.5 263.5 143 259.5 144 259.5C145 259.5 159 260.5 159.5 260.5Z" fill="white" fill-opacity="0.9"/>
<path d="M269.001 197L284.001 210H291.5L297 203.5L290 193C282 184.5 265.8 167.4 265 167C264.2 166.6 262 167.5 261 168C254.334 170.5 240.801 175.5 240.001 175.5C239.201 175.5 240.667 185.833 241.501 191L255.001 193L269.001 197Z" fill="white" fill-opacity="0.9"/>
<path fill-rule="evenodd" clip-rule="evenodd" d="M156.542 18.4077C155.22 21.9059 153.9 25.4047 152.578 28.9031C151.731 31.1449 150.885 33.3863 150.039 35.6282C149.738 36.423 149.571 37.2383 148.99 37.7901C147.622 39.0894 145.165 39.9162 143.52 40.8302C142.418 41.4427 141.316 42.0551 140.214 42.6676C139.645 42.9837 138.386 43.3804 137.987 43.9049C137.549 44.4828 137.756 45.5441 137.756 46.3432V53.2425V66.2425C143.449 65.5306 149.142 64.819 154.834 64.1071C147.25 72.8613 139.666 81.6151 132.082 90.3693C130.213 92.5266 127.943 94.6031 126.551 97.1132C123.587 102.456 120.69 107.838 117.76 113.199C115.033 118.19 112.305 123.181 109.578 128.172L134.114 127.127C140.466 126.857 146.992 127.263 153.113 125.462C158.159 123.978 163.204 122.493 168.249 121.009C168.92 120.811 171.011 120.588 171.486 120.047C171.932 119.541 171.922 117.629 172.048 116.982C174.43 104.737 177.461 91.2432 184.412 80.7028C189.395 73.147 196.12 66.5317 202.278 59.9429C204.682 57.3713 207.127 54.8305 209.445 52.1808C210.039 51.5021 210.897 50.7321 211.29 49.9078C211.543 49.3752 211.898 48.3604 211.74 47.8876C211.672 47.6826 210.087 46.9471 209.86 46.8011C208.255 45.7688 206.663 44.7147 205.068 43.6657C200.586 40.7179 196.108 37.7628 191.6 34.8543C188.086 32.5864 184.582 30.1818 180.875 28.233C177.033 26.2128 172.802 24.791 168.774 23.1949C164.703 21.5818 160.625 19.9871 156.542 18.4077Z" fill="#967FE8"/>
<mask id="path-3-outside-1" maskUnits="userSpaceOnUse" x="-1" y="0" width="303" height="284" fill="black">
<rect fill="white" x="-1" width="303" height="284"/>
<path fill-rule="evenodd" clip-rule="evenodd" d="M294.697 205.299C292.742 207.141 289.183 209.614 286.37 208.49C284.956 207.925 283.749 206.685 282.462 205.886C280.95 204.946 279.528 204.006 278.246 202.754C275.688 200.254 273.752 196.603 270.731 194.647C269.715 193.989 267.733 193.848 267.029 192.798C266.714 192.327 266.684 191.612 266.742 191.067C266.868 189.895 267.502 189.964 266.444 189.103H268.087C268.119 188.468 267.485 188.415 267.013 188.497C267.232 187.49 267.456 183.551 265.622 185.337C264.032 186.884 264.827 189.451 263.701 191.127C262.839 192.411 260.552 191.372 260.243 189.96C260.104 189.325 260.803 188.335 260.886 187.713C261.069 186.334 260.453 185.141 259.559 184.097C257.598 185.405 258.71 188.11 257.592 189.828C256.58 191.382 254.328 190.657 252.788 190.384C250.942 190.056 248.855 190.387 247.088 189.951C244.421 189.293 245.417 186.161 245.153 184.139C244.87 181.973 242.682 178.967 243.34 176.782C244.046 174.436 248.174 173.929 250.147 173.36C254.657 172.058 261.09 171.808 264.443 168.165C267.109 171.14 269.254 174.546 272.051 177.411C275.072 180.504 278.299 183.36 281.199 186.578C284.218 189.928 287.334 193.212 290.242 196.659C291.512 198.162 292.626 199.782 293.939 201.249C295.106 202.554 296.336 203.754 294.697 205.299ZM160.653 147.439C162.039 146.701 162.215 147.163 162.215 148.682C161.816 147.953 161.42 147.758 160.653 147.439ZM148.904 176.954V174.277C150.24 174.242 149.418 176.532 148.904 176.954ZM148.577 180.939C148.577 179.754 148.545 178.626 148.887 177.473C149.066 178.729 149.408 179.816 148.577 180.939ZM154.321 262.354C155.548 262.468 157.439 261.623 158.471 262.586C159.531 263.575 159.446 266.456 159.697 267.793C160.112 270.002 160.48 272.219 160.829 274.439C161.059 275.894 161.342 277.372 159.697 277.929C157.266 278.752 153.793 277.578 151.259 277.471C146.253 277.26 141.25 276.968 136.24 276.866C131.385 276.768 126.518 276.845 121.684 277.351C119.501 277.579 117.366 277.982 115.205 278.347C114.066 278.539 111.013 279.344 109.985 278.384C108.049 276.575 111.267 272.354 112.651 271.161C115.22 268.948 118.873 267.353 122.095 266.392C123.816 265.878 126.686 264.436 128.042 266.049C129.082 267.286 129.041 268.938 130.532 269.875C133.986 272.047 131.965 265.816 129.807 265.049C131.256 261.656 134.019 266.447 135.165 267.598C135.572 268.008 136.899 269.358 137.474 268.679C137.906 268.171 137.045 266.35 136.885 265.854C136.642 265.102 136.029 263.957 136.205 263.141C136.525 261.664 138.595 261.262 139.835 261.139C141.759 260.948 143.645 261.558 145.547 261.762C148.463 262.075 151.402 262.079 154.321 262.354ZM135.01 123.243C131.213 123.545 127.392 122.965 123.604 123.44C120.021 123.89 116.644 125.206 113.265 126.415C118.288 114.631 124.786 103.904 132.706 93.8548C136.65 88.8497 140.892 83.8791 145.154 79.1422C147.137 76.9383 149.188 74.8076 151.236 72.6657C153.062 70.7548 154.371 67.5097 156.563 66.0828C158.433 64.8647 161.703 65.7334 163.776 65.809C166.12 65.8944 168.972 66.1076 171.257 65.3273C172.913 64.7618 173.369 63.2528 171.296 63.2029C168.85 63.1435 166.445 63.3985 163.968 63.1691C157.55 62.5759 151.363 61.6008 144.893 62.1539C143.411 62.2803 141.46 62.912 140.005 62.7224C138.959 62.5853 139.647 63.1115 138.92 62.2718C138.641 61.9506 138.306 61.1955 138.223 60.7688C137.76 58.3724 139.076 54.9479 139.39 52.5353C139.681 50.3024 139.423 47.8483 139.968 45.6739C140.464 43.6952 141.977 43.4312 143.839 43.2198C148.934 42.6411 154.133 42.3332 159.251 41.8971C170.93 40.902 182.98 39.4007 194.58 41.8599C198.769 42.7479 203.877 44.121 207.618 46.3197C208.789 47.0069 209.969 47.8163 209.543 49.2402C209.102 50.7184 206.937 52.2799 205.865 53.2536C197.942 60.4494 190.289 67.7891 184.723 77.0221C177.624 88.7959 173.551 101.512 171.161 115.003C170.647 117.906 170.17 119.425 167.184 120.261C163.98 121.158 160.887 121.741 157.564 122.014C150.052 122.631 142.517 122.644 135.01 123.243ZM137.554 45.272C136.978 49.558 136.199 53.8345 136.122 58.1542C136.093 59.7857 135.939 60.6031 134.204 60.967C132.16 61.3958 130.081 61.7153 128.027 62.1603C118.114 64.3095 108.388 66.949 98.6898 69.9198C89.2642 72.8079 79.9936 76.0568 70.3563 78.1962C66.2107 79.1165 61.3597 79.7367 57.5839 81.7744C53.5219 83.9671 54.0565 87.562 53.6919 91.5105C53.2047 96.786 51.6408 101.894 51.0909 107.167C50.8279 109.687 50.5884 112.222 50.6281 114.758C50.6619 116.919 50.9714 119.309 49.5189 121.128C46.6051 117.232 45.2239 112.33 44.6497 107.554C44.3705 105.232 44.481 102.892 44.4012 100.559C44.3367 98.6815 44.3786 95.6944 43.1558 94.1261C40.4977 90.7178 37.0407 104.376 36.712 105.835C36.1591 108.29 35.7031 110.765 35.1524 113.221C34.9081 114.309 34.5948 118.265 33.1372 118.659C30.1166 119.477 30.7796 110.986 30.7318 109.693C30.6362 107.083 30.5713 104.471 30.6323 101.859C30.6767 99.9739 31.0413 97.9281 30.8249 96.042C30.2933 91.411 27.6903 96.2902 26.9585 98.0139C25.1094 102.366 24.273 107.024 22.6148 111.445C22.339 112.18 21.6909 114.656 20.6641 114.702C19.5216 114.753 19.5306 112.196 19.4652 111.449C19.0861 107.119 17.8057 102.819 18.1921 98.4436C18.5823 94.0257 20.1304 89.4839 22.3211 85.6413C26.9525 77.5171 35.3163 72.8523 43.3274 68.6031C52.4956 63.741 62.1748 59.8997 72.0606 56.7704C83.9501 53.0068 96.158 49.9616 108.439 47.7945C114.688 46.6921 121.033 45.9037 127.345 45.2716C129.563 45.0495 131.782 44.9197 133.972 44.4973C134.799 44.3375 137.781 43.5786 137.554 45.272ZM143.94 31.402C140.808 31.4268 137.608 29.9076 134.556 29.2798C130.923 28.5315 127.375 27.4488 123.748 26.6676C116.646 25.1382 109.54 23.6468 102.444 22.0836C99.3635 21.4049 96.2682 20.8143 93.1998 20.0853C89.917 19.3055 86.3704 18.4359 83.0104 19.276C77.9174 20.5496 75.766 26.1235 73.896 30.4735C72.5751 33.5461 71.5402 36.971 69.4802 39.6446C68.7467 40.5979 67.7041 41.7348 66.3742 41.426C63.9035 40.8528 64.2958 37.5821 64.6105 35.7742C65.0664 33.1506 65.7124 30.5577 66.2294 27.9459C66.4378 26.8919 68.0525 19.9931 65.1698 21.0611C63.0312 21.8534 61.8998 27.0717 61.0903 28.9355C60.4888 30.3206 59.8514 31.6967 59.1764 33.0476C58.2755 34.8496 55.7053 40.8704 52.8598 40.0939C48.7876 38.9826 52.6937 28.2731 53.3875 26.0159C53.7683 24.7769 57.9075 15.3804 54.4138 16.1484C52.9259 16.4759 51.4765 19.2405 50.7178 20.3864C49.3725 22.4189 48.0315 24.466 46.7652 26.5485C45.4626 28.6904 44.7974 31.1283 43.5055 33.239C42.8258 34.3498 41.4386 35.8302 40.0844 34.8017C37.9732 33.1997 39.2245 27.6269 39.5943 25.5196C40.2821 21.6018 41.9907 17.5855 44.335 14.3827C47.8577 9.57019 54.5048 8.01512 60.0943 7.08021C67.3092 5.87323 74.6244 6.20338 81.8696 6.91748C90.0178 7.72086 98.0417 8.58103 106.073 10.2236C114.168 11.8791 122.266 13.5213 130.236 15.7106C133.991 16.742 137.799 17.6564 141.5 18.8673C145.435 20.1541 149.275 21.7556 153.319 22.6828C151.897 26.2341 150.474 29.7855 149.051 33.3372C147.689 31.9897 145.831 31.3866 143.94 31.402ZM213.67 41.1881C214.917 40.5056 216.296 40.1836 216.751 38.6751C217.153 37.3421 216.465 35.8319 216.137 34.5523C215.217 30.9698 214.975 27.2587 215.789 23.634C216.567 24.8217 219.478 29.3904 221.249 26.6245C222.318 24.9563 219.455 22.5564 218.62 21.3836C220.453 20.2519 223.072 17.2144 225.184 19.0462C226.549 20.2306 227.128 21.3708 228.967 21.9465C231.201 22.6457 233.303 22.4855 235.584 22.2925C237.181 22.1575 237.565 21.9444 238.189 23.1744C238.679 24.1414 238.932 25.3381 239.218 26.3764C239.782 28.4234 241.086 32.457 239.541 34.3746C238.187 36.0544 232.933 34.6142 232.204 36.7826C231.806 37.9652 233.705 38.0075 234.431 38.5926C235.329 39.317 236.073 40.4697 236.561 41.4995C236.923 42.261 237.473 43.5192 236.857 44.2978C236.007 45.375 234.43 44.5579 233.745 43.7751C232.834 42.7351 232.539 41.3133 231.779 40.1806C230.385 38.1023 230.302 39.7556 229.923 41.2479C229.529 42.7983 228.596 42.6915 227.168 42.8905C224.662 43.2403 222.13 43.7336 219.691 44.4054C218.441 44.7497 217.229 45.1883 216.039 45.7008C215.271 46.0306 213.941 47.0295 213.109 47.0389C211.566 47.0564 210.497 44.4755 209.701 43.3988C211.022 42.6603 212.341 41.915 213.67 41.1881ZM296.509 199.224C292.656 194.598 289.32 189.572 285.518 184.905C281.769 180.302 277.432 176.277 273.225 172.109C271.239 170.141 269.337 167.982 267.145 166.239C265.51 164.938 264.251 164.918 262.284 165.494C256.695 167.132 251.005 169.103 245.716 171.546C240.791 173.822 236.305 176.743 230.964 178.012C225.513 179.308 219.844 179.724 214.257 179.403C208.526 179.073 203.12 177.88 197.67 176.127C192.508 174.467 187.126 173.017 182.711 169.725C178.083 166.275 174.508 161.313 171.195 156.645C169.517 154.283 167.852 151.801 166.722 149.123C165.741 146.8 165.101 144.057 163.341 142.163C162.909 142.775 162.372 143.3 162.153 144.018C162.053 144.345 162.641 144.335 162.581 144.594C162.467 145.084 161.816 145.582 161.438 145.848C160.079 146.805 160.071 146.044 160.427 147.833C160.635 148.876 160.242 151.229 158.542 150.46C159.168 151.209 158.173 152.155 157.849 152.773C157.625 152.516 157.347 152.427 157.015 152.504C157.637 153.743 157.27 153.776 156.667 154.759C156.557 154.939 156.167 155.88 156.223 155.801C155.608 156.678 154.896 156.899 154.537 157.991C154.242 158.889 154.318 159.875 153.989 160.771C153.592 160.222 153.194 159.672 152.797 159.123C152.878 159.555 153.04 160.195 153.229 160.587C153.347 160.832 153.856 161.404 153.849 161.538C153.822 162.038 153.198 161.918 153.021 162.349C152.687 163.157 153.169 163.276 152.987 164.065C152.779 164.97 152.22 164.608 151.954 165.38C151.903 165.527 152.296 166.103 152.234 166.419C152.146 166.866 151.742 167.116 151.599 167.513C151.235 168.523 151.367 169.263 150.862 170.232C150.667 170.608 150.382 170.858 150.244 171.286C150.123 171.661 150.383 172.461 150.15 172.798C149.024 174.42 149.182 171.626 149.267 170.932C149.984 165.112 152.284 159.106 154.389 153.666C155.435 150.963 156.453 148.176 157.764 145.587C158.292 144.545 158.901 143.469 159.774 142.671C160.877 141.662 162.442 141.259 163.441 140.132C163.283 140.31 164.524 139.135 164.326 139.521C164.503 139.176 164.193 138.709 164.303 138.375C164.441 137.96 164.7 137.873 164.988 137.51C165.507 136.858 166.123 136.534 165.308 135.704C166.518 135.436 167.096 135.044 167.337 133.748C167.514 132.801 167.158 132.863 167.779 132.231C168.403 131.596 168.719 132.092 169.112 130.993C169.582 129.678 169.894 127.889 170.176 126.513C170.422 125.312 169.825 123.545 170.837 122.697C172.119 121.623 173.267 122.077 173.037 119.917C172.813 117.811 173.467 116.535 174.124 114.543C175.436 110.564 175.944 106.364 177.094 102.338C179.549 93.7464 183.886 86.0001 188.55 78.4375C192.86 71.4493 198.885 65.4955 204.703 59.7617C206.296 58.1913 207.871 56.5982 209.301 54.8766C210.534 53.3941 211.096 51.3757 212.281 49.9684C213 49.1138 214.339 48.7482 215.344 48.295C217.019 47.5391 219.016 46.5529 220.907 46.7058C220.155 49.2398 219.91 52.2008 222.128 54.101C224.818 56.406 227.256 54.0113 229.722 52.6971C234.217 50.3015 240.645 52.5007 244.565 48.91C245.498 48.055 245.759 46.6887 246.729 45.89C247.441 45.3045 248.454 45.1559 249.256 44.7194C251.692 43.3932 252.874 40.9656 251.926 38.2839C251.058 35.8323 249.712 34.982 252.71 33.7395C255.143 32.7316 256.069 31.2128 254.967 28.5089C253.917 25.9309 251.993 25.6341 250.172 23.947C248.409 22.313 250.435 20.4112 251.756 19.1846C253.459 17.6022 253.784 16.1761 251.81 14.5305C249.742 12.8076 246.789 12.8678 244.378 13.7199C241.652 14.683 239.856 16.2842 238.702 18.8788C237.527 21.5203 234.615 20.7831 232.257 20.0469C230.001 19.343 229.414 17.8243 227.933 16.1889C226.286 14.3699 222.929 15.9254 220.986 16.7565C216.201 18.8023 211.446 22.0311 211.256 27.7503C211.143 31.1607 212.585 34.0594 213.334 37.2605C214.02 40.1879 209.319 39.9572 208.505 42.7889C199.82 38.1899 190.149 36.7826 180.441 36.4695C170.123 36.1364 159.657 35.8695 149.427 37.4976C151.801 33.359 153.055 28.8206 155.121 24.5689C155.716 23.3448 155.972 23.4495 157.285 23.8193C159.806 24.5296 162.308 25.3244 164.824 26.056C174.015 28.7288 183.026 31.9491 191.913 35.4761C192.777 35.8191 194.705 36.7711 195.462 35.7358C196.336 34.542 194.314 33.0703 193.497 32.4698C189.918 29.8435 185.484 28.2496 181.476 26.4071C172.714 22.38 163.011 20.4684 153.869 17.4775C134.132 11.0193 113.713 6.11454 93.2015 2.875C88.196 2.08444 83.1372 1.9687 78.1099 1.38187C73.6569 0.86209 69.1958 0.874049 64.7433 1.41091C56.5195 2.40306 46.9855 4.54367 42.3408 12.0743C38.1478 18.8737 35.3488 26.5182 36.4187 34.5835C36.7402 37.006 37.7657 39.8748 40.7538 39.2504C42.8266 38.8173 43.9273 37.0555 44.8896 35.336C46.3438 32.7384 47.78 30.1408 49.3558 27.6128C49.9403 31.4033 47.8163 35.1306 48.1502 38.992C48.3773 41.6122 49.8246 45.7521 53.2252 45.0102C57.8862 43.9937 59.8044 36.7096 62.0454 33.2151C62.159 35.9066 61.2159 38.5593 61.5045 41.2569C61.7892 43.9215 63.8706 46.4372 66.7938 46.072C69.551 45.7277 71.3429 42.7727 72.514 40.5479C74.1437 37.4519 75.3143 34.1325 76.906 31.0159C78.3977 28.0946 80.1648 24.6167 83.7264 24.0679C86.9049 23.5776 90.5476 24.7124 93.6873 25.1805C102.397 26.4789 110.93 28.6895 119.544 30.4756C128.78 32.3903 138.234 33.5533 147.186 36.6429C144.038 40.9284 135.802 40.0025 131.113 40.4625C124.027 41.1578 116.851 41.681 109.806 42.7069C102.847 43.72 96.0347 45.5185 89.1306 46.8241C82.2628 48.1229 75.407 49.4239 68.7616 51.6388C56.4234 55.7513 43.8795 60.9559 33.0087 68.1316C27.9507 71.4706 23.4576 75.2868 20.3332 80.5571C17.1888 85.8604 15.6778 91.8573 15.1015 97.9576C14.7428 101.756 15.3521 105.044 16.0877 108.74C16.6205 111.417 16.793 115.899 18.9384 117.859C23.0332 121.6 26.4329 106.426 27.189 104.593C27.7334 107.596 26.8432 124.516 33.4134 123.14C36.3457 122.526 37.0108 118.5 37.4971 116.075C38.3843 111.654 39.1788 107.144 40.6962 102.887C41.67 108.623 42.0761 114.6 44.1741 120.079C45.5676 123.718 49.5437 130.175 52.3158 123.946C54.395 119.274 53.6816 113.911 53.931 108.951C54.2072 103.454 55.7847 98.1523 56.3432 92.7094C56.5596 90.6008 56.3637 88.2244 58.4817 87.0738C60.3001 86.0864 62.9591 85.7647 64.9443 85.2134C70.8246 83.5801 76.7433 82.0789 82.5958 80.3462C88.4509 78.6121 94.2248 76.5864 100.002 74.6094C105.527 72.7186 111.168 71.6436 116.76 70.0245C119.94 69.1037 123.081 68.1406 126.304 67.3718C127.805 67.0143 129.323 66.7358 130.82 66.3655C131.93 66.0913 133.392 65.0565 134.532 65.0749C135.706 65.0941 136.148 66.0884 137.494 66.1665C138.944 66.2502 140.417 65.9303 141.859 65.8197C145.37 65.5502 149.103 65.1146 152.607 65.6015C150.501 68.1 147.657 69.8272 145.165 71.8969C142.29 74.2839 139.508 76.8615 137.053 79.6803C132.112 85.3522 127.443 91.3473 123.104 97.492C118.825 103.554 115.38 110.187 112.384 116.964C110.892 120.341 109.443 123.792 108.412 127.342C107.988 128.8 107.642 130.264 106.878 131.59C106.176 132.806 105.188 133.855 106.017 135.323C106.588 134.966 107.101 134.522 107.617 134.093C107.02 138.296 105.733 142.362 105.071 146.552C104.419 150.68 104.445 154.926 104.488 159.095C104.576 167.827 105.225 176.361 106.996 184.925C108.787 193.586 111.087 202.18 113.988 210.535C116.78 218.579 119.582 227.014 123.479 234.596C127.642 242.693 132.594 251.207 138.62 258.062C134.684 259.674 129.675 259.373 125.507 260.022C121.15 260.701 117.382 261.983 113.669 264.395C109.913 266.835 107.874 269.977 107.355 274.426C106.986 277.593 105.89 281.978 110.043 282.81C113.03 283.408 116.37 282.425 119.363 282.182C124.599 281.758 129.842 281.493 135.09 281.264C140.324 281.035 145.559 280.834 150.795 280.672C153.258 280.595 155.722 280.557 158.183 280.468C159.286 280.429 159.955 280.412 160.945 280.731C161.727 280.984 161.67 281.508 162.541 280.86C163.945 279.815 163.656 276.52 163.617 275.071C163.557 272.835 163.345 270.573 162.91 268.38C162.651 267.076 159.51 258.674 161.952 258.32C159.115 255.202 157.982 250.748 156.708 246.84C155.111 241.942 153.709 237.059 152.609 232.022C150.259 221.263 149.22 210.387 149.22 199.378C160.115 206.096 171.642 209.735 184.474 210.141C197.232 210.544 211.248 209.496 223.362 205.251C228.972 203.284 233.997 200.702 238.807 197.223C240.531 195.977 242.378 193.153 244.641 193.201C247.341 193.259 250.366 194.281 253.047 194.719C258.176 195.555 264.869 196.027 269.211 199.2C271.57 200.924 273.26 203.337 275.365 205.323C276.966 206.834 279.083 207.654 280.672 209.165C282.387 210.796 281.706 212.925 284.549 213.057C286.979 213.17 289.643 212.192 291.739 211.044C295.921 208.753 300.374 203.864 296.509 199.224Z"/>
<path fill-rule="evenodd" clip-rule="evenodd" d="M256.318 90.2766C262.437 94.6249 269.456 97.5954 275.851 101.511C277.451 102.492 282.438 104.527 282.39 106.345C282.361 107.408 280.863 108.741 280.207 109.478C279.082 110.74 278.025 112.015 276.988 113.35C272.239 119.464 267.767 125.636 262.621 131.442C261.846 132.316 259.512 136.486 258.758 134.415C258.417 133.476 258.698 132.421 257.808 131.545C257.35 131.094 255.579 130.845 256.095 129.878C256.439 130.033 256.783 130.188 257.127 130.342C256.86 129.569 256.879 128.722 256.479 127.991C256.23 127.537 255.744 127.322 255.575 126.811C255.342 126.105 255.737 125.284 255.671 124.555C255.606 123.829 255.23 123.143 255.005 122.458C253.673 118.397 253.196 114.303 252.514 110.114C251.839 105.968 250.789 101.952 250.376 97.7598C249.94 93.3321 249.406 88.9133 248.694 84.521C249.966 84.6996 250.943 86.0821 251.843 86.8637C253.257 88.092 254.792 89.1926 256.318 90.2766ZM251.52 133.143C251.228 132.914 251 132.632 250.835 132.298C253.834 130.812 252.025 133.347 251.52 133.143ZM249.697 129.973C248.389 130.334 247.45 130.407 246.442 129.869C246.346 129.818 246.456 129.424 246.284 129.344C246.133 129.274 245.903 129.36 245.774 129.295C245.335 129.071 244.567 129.561 244.492 128.706C246.161 128.195 247.801 127.252 249.563 127.093C252.011 126.873 251.898 129.366 249.697 129.973ZM243.969 125.045C242.185 125.462 240.715 126.436 238.82 126.182C237.041 125.944 235.495 125.021 234.092 123.957C237.603 122.963 241.284 122.783 244.792 121.822C245.934 121.509 247.435 120.683 248.665 121.016C250.033 121.386 250.119 122.667 250.529 123.833C248.341 124.227 246.135 124.538 243.969 125.045ZM232.812 120.097C231.099 120.507 229.347 121.402 227.914 119.857C227.683 119.607 227.48 119.856 227.508 119.088C227.536 118.278 228.271 117.756 228.904 117.47C230.39 116.8 232.474 117.233 234.053 117.135C236.571 116.978 239.135 116.454 241.626 116.051C243.351 115.772 245.133 115.153 246.895 115.275C248.256 115.369 249.898 116.53 247.915 117.376C246.109 118.148 243.4 118.029 241.443 118.363C238.55 118.857 235.667 119.415 232.812 120.097ZM231.138 112.032C231.249 112.145 231.36 112.258 231.471 112.371C231.453 112.367 232.128 111.82 232.307 111.804C233.176 111.728 234.05 111.788 234.92 111.739C236.925 111.626 238.946 111.277 240.915 110.892C242.519 110.578 244.153 110.038 245.804 110.173C247.233 110.29 247.383 110.583 247.477 111.963C243.828 111.963 240.07 111.886 236.484 112.659C234.149 113.162 231.577 114.659 230.407 111.96C230.651 111.984 230.894 112.008 231.138 112.032ZM233.419 106.189C234.324 106.879 236.791 105.732 237.875 105.618C239.052 105.493 240.16 105.364 241.302 105.07C242.313 104.81 245.661 103.509 246.437 104.753C247.627 106.659 242.809 107.009 242.045 107.103C238.842 107.499 235.518 107.85 232.401 108.691C232.741 107.857 233.08 107.024 233.419 106.189ZM237.813 99.7151C238.047 100.596 245.292 97.3494 245.424 99.7091C245.525 101.52 238.256 102.422 236.949 102.263C237.255 101.429 238.07 100.682 237.813 99.7151ZM240.246 94.1769C240.4 92.3997 240.638 92.41 242.063 92.2426C243.149 92.1149 244.643 91.4776 244.36 93.4149C244.118 95.0738 240.091 95.9703 240.246 94.1769ZM242.835 88.0621C243.178 87.108 243.949 88.3923 243.966 88.8774C244.009 90.1686 243.03 89.8892 242.088 89.8892C242.351 89.2862 242.6 88.6763 242.835 88.0621ZM254.758 80.9001C254.566 80.6686 253.488 80.5802 253.181 80.4679C252.426 80.1911 252.533 79.6013 251.567 80.183C251.519 80.1343 251.611 79.697 251.558 79.6769C251.532 79.6666 250.855 79.4113 250.635 79.2703C250.105 78.9303 249.627 78.5976 249.139 78.171C248.621 77.7178 248.101 77.0601 247.509 76.6992C247.26 76.5471 247.055 76.3314 246.754 76.2849C245.974 76.1644 246.197 76.7086 245.515 76.8166C245.094 76.8833 244.788 76.3921 244.238 76.6039C243.763 76.7867 243.487 77.4534 243.275 77.8502C242.506 79.2942 241.912 80.8484 241.158 82.3078C237.305 89.7705 232.925 96.95 229.192 104.482C227.394 108.111 225.518 111.765 224.253 115.621C223.34 118.402 221.28 122.465 223.052 125.244C224.341 127.265 226.922 128.138 228.981 129.114C232.08 130.583 234.936 132.503 238.068 133.928C241.804 135.626 245.431 137.403 249.072 139.3C250.625 140.109 252.026 141.274 253.574 142.04C254.52 142.509 255.982 141.709 256.29 142.783C257.477 141.346 259.397 142.304 260.77 141.292C261.577 140.696 262.167 139.524 262.84 138.79C263.85 137.691 264.947 136.671 265.978 135.591C270.068 131.301 273.845 126.832 277.567 122.224C281.122 117.824 285.274 113.667 288.277 108.85C289.47 106.938 289.686 104.932 288.899 102.82C288.324 101.279 286.94 98.9523 284.963 99.9726C285.712 98.7272 282.82 97.3972 281.943 97.1537C281.93 97.1503 281.757 98.107 281.512 98.0831C281.599 98.0917 280.777 95.9634 280.416 95.6905C279.343 94.8786 278.039 93.9313 276.868 93.2629C275.795 92.65 274.662 92.3463 273.623 91.6604C272.362 90.8293 271.205 89.8435 269.94 89.018C268.719 88.221 267.357 87.2788 266.007 86.7309C264.837 86.2555 263.786 86.1624 262.732 85.3834C261.429 84.4194 260.293 83.7655 258.79 83.1014C257.49 82.5269 255.688 82.0251 254.758 80.9001Z"/>
<path fill-rule="evenodd" clip-rule="evenodd" d="M77.2996 196.32C77.5387 195.759 77.7769 195.197 78.016 194.636C78.3114 195.615 78.3943 196.102 77.2996 196.32ZM77.6177 198.915C77.0998 199.007 77.3039 197.382 77.3039 197.099C78.1983 197.605 77.4576 198.213 77.6177 198.915ZM76.8103 194.226C77.2518 193.965 77.6932 193.705 78.1347 193.444C77.5199 194.583 77.7611 193.871 78.0147 194.632C77.5511 194.766 77.1002 194.61 76.8103 194.226ZM74.194 203.132C72.5392 209.138 67.2831 213.875 61.7316 216.329C58.5415 217.738 55.4052 218.091 51.9602 217.934C50.6315 217.873 49.0681 217.442 47.7894 217.522C46.8049 217.584 46.8493 217.627 46.0338 218.46C45.673 217.796 45.9343 217.329 45.2107 216.942C44.3077 216.46 43.9328 217.022 43.485 217.69C42.8988 217.082 42.6588 216.765 41.8993 216.404C41.9232 216.416 41.1722 216.387 41.203 216.396C41.0672 216.355 40.2505 215.829 39.9947 215.734C38.9453 215.34 37.7319 215.178 36.7636 214.613C35.9166 214.12 35.2189 212.735 34.2498 213.799C34.2489 212.02 31.8542 211.283 30.7318 210.351C28.9779 208.896 27.5835 206.741 26.7091 204.656C25.7767 202.433 25.4655 200.302 25.0291 198.011C24.7243 196.41 22.7279 194.096 23.9268 192.481C24.2124 193.158 24.0783 193.852 24.5527 194.466C24.9796 193.643 25.2144 192.722 25.4074 191.821C25.5022 191.38 26.0512 190.085 25.9889 189.701C25.8621 188.914 24.8887 188.871 25.4283 187.907C26.5478 189.125 27.4512 186.986 26.6054 186.133C26.1878 186.604 26.0346 187.139 25.842 187.722C24.7414 185.5 27.7876 186.216 27.1211 184.209C28.2329 183.995 28.872 183.715 29.2947 182.616C29.7648 181.393 29.4189 181.127 30.4863 180.319C30.8535 180.041 31.8918 179.642 32.0818 179.185C32.4494 178.302 31.5139 178.04 32.3332 177.213C32.6099 177.698 33.6884 178.66 34.2788 177.745C34.3971 177.563 33.9006 177.433 34.2617 177.013C34.7967 176.391 35.3953 175.781 36.3 175.912C35.5836 174.12 40.1612 173.978 41.3336 173.556C42.5085 173.132 43.5055 172.854 44.7513 172.756C45.9958 172.658 46.0577 172.293 47.1114 171.544C47.2006 172.616 47.4585 172.38 48.2206 172.569C48.4038 172.255 48.5916 172.22 48.7837 172.463C48.975 172.645 49.209 172.731 49.4848 172.721C49.9032 172.742 50.3779 172.688 50.8164 172.697C51.8458 172.717 52.9076 172.631 53.9173 172.653C54.1777 172.609 54.4211 172.519 54.6491 172.381C54.7443 172.56 54.8399 172.74 54.9347 172.92C55.4696 172.987 55.5111 173.657 56.169 172.924C56.3637 173.856 56.9229 173.371 57.5138 173.624C58.0526 173.855 58.1384 174.224 58.6358 174.482C58.9629 174.747 59.3134 174.782 59.6883 174.587C60.0448 174.852 60.4068 175.109 60.774 175.357C61.4507 175.74 62.2482 175.974 62.9612 176.276C63.4355 176.471 63.9069 176.675 64.3744 176.886C64.3885 177.451 64.6416 177.65 65.1335 177.484C65.5779 177.856 65.703 177.841 66.1342 178.475C67.1111 179.91 67.9778 181.026 69.2116 182.309C74.5744 187.886 76.222 195.772 74.194 203.132ZM75.8399 179.414C73.4187 176.17 69.9916 172.456 66.9121 170.408C65.3512 169.369 63.1601 167.505 61.2513 166.956C60.7987 166.825 60.3304 166.817 59.8855 166.68C59.5418 166.575 59.3548 166.222 58.9629 166.158C58.6888 166.114 58.6585 166.728 58.3673 166.671C57.7585 166.552 57.3725 165.948 56.9426 165.57C56.0191 167.162 55.5179 164.485 54.1619 166.285C52.5481 163.753 48.7568 164.307 46.1798 164.434C45.4156 164.472 45.0565 164.744 44.379 164.946C43.7484 165.133 43.686 165.085 42.9974 165.08C41.2824 165.067 39.7599 165.282 38.1747 166.036C35.5114 167.301 33.0667 169.273 30.5371 170.798C27.7099 172.503 25.1615 174.672 22.9986 177.165C15.1796 186.18 13.0889 199.337 19.3235 209.788C29.2264 226.385 54.7707 228.159 69.2453 216.897C80.4282 208.196 84.684 191.259 75.8399 179.414Z"/>
<path fill-rule="evenodd" clip-rule="evenodd" d="M198.41 132.708C198.132 133.371 195.537 133.147 195.48 132.365C195.395 131.197 198.893 131.555 198.41 132.708ZM201.167 132.274C202.638 132.393 205.054 133.393 206.472 132.789C208.635 131.867 206.363 130.452 205.203 130.03C204.022 129.6 202.263 129.828 201.656 128.593C201.199 127.664 202.328 125.071 200.927 125.487C199.458 125.925 199.885 129.64 197.579 128.387C196.479 127.79 196.928 124.15 195.086 126.01C194.582 126.518 194.538 127.453 193.87 127.832C193.189 128.219 192.334 127.816 191.614 127.849C189.71 127.939 189.103 129.721 191.033 130.428C191.747 130.689 194.439 131.009 192.809 132.177C191.781 132.912 189.498 131.369 188.616 132.649C187.403 134.408 190.652 134.448 191.524 134.974C193.003 135.865 191.782 137.946 191.9 139.428C192.08 141.692 193.395 141.219 193.873 139.303C194.278 137.677 193.776 135.336 196.226 135.982C200.216 137.035 194.007 142.102 196.93 143.399C198.794 144.226 199.058 139.756 199.202 138.987C199.738 136.146 201.333 136.809 203.75 136.896C206.573 136.998 207.254 134.909 204.265 134.31C203.311 134.12 201.999 134.361 201.171 133.753C200.68 133.394 200.007 132.18 201.167 132.274Z"/>
<path fill-rule="evenodd" clip-rule="evenodd" d="M96.9391 225.079C94.6545 224.261 90.8326 224.438 90.2673 227.39C90.0308 228.625 90.4914 229.932 91.3444 230.83C92.3337 231.871 93.9091 231.967 93.825 230.155C93.7665 228.9 92.5732 227.811 94.6712 227.558C95.9768 227.401 97.9078 228.377 97.9727 229.82C98.1196 233.072 92.4925 233.327 90.4188 232.765C86.3031 231.649 87.4213 227.337 90.2476 225.369C90.9777 224.86 93.0727 224.077 93.1683 223.02C93.2956 221.619 91.5639 221.906 90.7151 222.09C84.4762 223.449 83.1164 233.904 89.6354 235.875C92.5958 236.77 96.7649 235.846 98.5491 233.164C100.222 230.649 100.244 226.263 96.9391 225.079Z"/>
<path fill-rule="evenodd" clip-rule="evenodd" d="M14.2169 151.065C12.2666 152.004 10.3163 152.943 8.3665 153.883C7.72181 152.503 6.63269 148.733 4.9975 148.251C2.35046 147.472 4.03603 151.581 4.49285 152.521C4.86814 153.293 5.73867 154.489 5.52734 155.409C5.24385 156.648 3.49595 157.087 2.58101 157.726C0.316941 159.309 0.334868 162.633 3.61378 161.225C5.46927 160.427 7.76664 158.216 9.18878 160.727C9.84542 161.885 11.4012 168.357 13.0261 164.124C14.0316 161.504 9.1922 158.782 11.578 156.565C12.346 155.852 13.2452 155.792 14.0124 155.382C15.8653 154.391 14.8206 152.561 14.2169 151.065Z"/>
<path fill-rule="evenodd" clip-rule="evenodd" d="M300.133 57.3C298.971 56.8746 297.532 56.0439 296.24 56.327C294.866 56.6277 294.313 58.0038 293.315 58.8311C290.6 61.0806 289.019 57.7279 287.527 55.8905C286.118 54.1557 284.399 53.7345 282.411 54.8006C281.619 55.2255 278.283 57.1727 278.865 58.4202C279.283 59.318 280.931 58.5121 281.494 58.316C282.714 57.8911 283.848 57.5191 285.096 58.1388C287.438 59.3005 288.046 62.4862 290.879 62.9829C293.808 63.4967 293.904 60.7078 295.995 59.658C297.397 58.9545 298.373 60.2 299.725 59.9518C301.014 59.7156 301.61 57.8398 300.133 57.3Z"/>
<path fill-rule="evenodd" clip-rule="evenodd" d="M276.481 68.5399C277.517 68.765 278.194 66.7546 278.842 66.2447C279.918 65.3994 281.783 65.229 282.879 66.0798C285.018 67.7404 284.281 71.3254 287.327 72.2599C290.05 73.0953 291.332 69.5081 293.624 68.6151C294.957 68.0957 296.419 67.7557 295.899 65.8923C295.54 64.6038 294.482 64.2728 293.332 64.7678C291.355 65.6177 290.684 69.0802 288.341 69.1421C285.916 69.2062 285.653 65.7095 284.612 64.1865C283.025 61.8652 279.763 61.3044 277.909 63.5241C277.349 64.1937 274.508 68.1124 276.481 68.5399Z"/>
<path fill-rule="evenodd" clip-rule="evenodd" d="M228.554 28.9009C229.996 29.8875 232.868 29.8534 234.196 28.6297C235.547 27.3847 233.743 27.1934 232.643 27.2314C231.796 27.2609 230.211 27.6807 230.694 26.2179C231.122 24.92 233.476 25.5807 233.672 24.1559C231.901 23.8381 229.95 23.9526 228.639 25.3453C227.692 26.352 227.205 27.9771 228.554 28.9009Z"/>
</mask>
<path fill-rule="evenodd" clip-rule="evenodd" d="M294.697 205.299C292.742 207.141 289.183 209.614 286.37 208.49C284.956 207.925 283.749 206.685 282.462 205.886C280.95 204.946 279.528 204.006 278.246 202.754C275.688 200.254 273.752 196.603 270.731 194.647C269.715 193.989 267.733 193.848 267.029 192.798C266.714 192.327 266.684 191.612 266.742 191.067C266.868 189.895 267.502 189.964 266.444 189.103H268.087C268.119 188.468 267.485 188.415 267.013 188.497C267.232 187.49 267.456 183.551 265.622 185.337C264.032 186.884 264.827 189.451 263.701 191.127C262.839 192.411 260.552 191.372 260.243 189.96C260.104 189.325 260.803 188.335 260.886 187.713C261.069 186.334 260.453 185.141 259.559 184.097C257.598 185.405 258.71 188.11 257.592 189.828C256.58 191.382 254.328 190.657 252.788 190.384C250.942 190.056 248.855 190.387 247.088 189.951C244.421 189.293 245.417 186.161 245.153 184.139C244.87 181.973 242.682 178.967 243.34 176.782C244.046 174.436 248.174 173.929 250.147 173.36C254.657 172.058 261.09 171.808 264.443 168.165C267.109 171.14 269.254 174.546 272.051 177.411C275.072 180.504 278.299 183.36 281.199 186.578C284.218 189.928 287.334 193.212 290.242 196.659C291.512 198.162 292.626 199.782 293.939 201.249C295.106 202.554 296.336 203.754 294.697 205.299ZM160.653 147.439C162.039 146.701 162.215 147.163 162.215 148.682C161.816 147.953 161.42 147.758 160.653 147.439ZM148.904 176.954V174.277C150.24 174.242 149.418 176.532 148.904 176.954ZM148.577 180.939C148.577 179.754 148.545 178.626 148.887 177.473C149.066 178.729 149.408 179.816 148.577 180.939ZM154.321 262.354C155.548 262.468 157.439 261.623 158.471 262.586C159.531 263.575 159.446 266.456 159.697 267.793C160.112 270.002 160.48 272.219 160.829 274.439C161.059 275.894 161.342 277.372 159.697 277.929C157.266 278.752 153.793 277.578 151.259 277.471C146.253 277.26 141.25 276.968 136.24 276.866C131.385 276.768 126.518 276.845 121.684 277.351C119.501 277.579 117.366 277.982 115.205 278.347C114.066 278.539 111.013 279.344 109.985 278.384C108.049 276.575 111.267 272.354 112.651 271.161C115.22 268.948 118.873 267.353 122.095 266.392C123.816 265.878 126.686 264.436 128.042 266.049C129.082 267.286 129.041 268.938 130.532 269.875C133.986 272.047 131.965 265.816 129.807 265.049C131.256 261.656 134.019 266.447 135.165 267.598C135.572 268.008 136.899 269.358 137.474 268.679C137.906 268.171 137.045 266.35 136.885 265.854C136.642 265.102 136.029 263.957 136.205 263.141C136.525 261.664 138.595 261.262 139.835 261.139C141.759 260.948 143.645 261.558 145.547 261.762C148.463 262.075 151.402 262.079 154.321 262.354ZM135.01 123.243C131.213 123.545 127.392 122.965 123.604 123.44C120.021 123.89 116.644 125.206 113.265 126.415C118.288 114.631 124.786 103.904 132.706 93.8548C136.65 88.8497 140.892 83.8791 145.154 79.1422C147.137 76.9383 149.188 74.8076 151.236 72.6657C153.062 70.7548 154.371 67.5097 156.563 66.0828C158.433 64.8647 161.703 65.7334 163.776 65.809C166.12 65.8944 168.972 66.1076 171.257 65.3273C172.913 64.7618 173.369 63.2528 171.296 63.2029C168.85 63.1435 166.445 63.3985 163.968 63.1691C157.55 62.5759 151.363 61.6008 144.893 62.1539C143.411 62.2803 141.46 62.912 140.005 62.7224C138.959 62.5853 139.647 63.1115 138.92 62.2718C138.641 61.9506 138.306 61.1955 138.223 60.7688C137.76 58.3724 139.076 54.9479 139.39 52.5353C139.681 50.3024 139.423 47.8483 139.968 45.6739C140.464 43.6952 141.977 43.4312 143.839 43.2198C148.934 42.6411 154.133 42.3332 159.251 41.8971C170.93 40.902 182.98 39.4007 194.58 41.8599C198.769 42.7479 203.877 44.121 207.618 46.3197C208.789 47.0069 209.969 47.8163 209.543 49.2402C209.102 50.7184 206.937 52.2799 205.865 53.2536C197.942 60.4494 190.289 67.7891 184.723 77.0221C177.624 88.7959 173.551 101.512 171.161 115.003C170.647 117.906 170.17 119.425 167.184 120.261C163.98 121.158 160.887 121.741 157.564 122.014C150.052 122.631 142.517 122.644 135.01 123.243ZM137.554 45.272C136.978 49.558 136.199 53.8345 136.122 58.1542C136.093 59.7857 135.939 60.6031 134.204 60.967C132.16 61.3958 130.081 61.7153 128.027 62.1603C118.114 64.3095 108.388 66.949 98.6898 69.9198C89.2642 72.8079 79.9936 76.0568 70.3563 78.1962C66.2107 79.1165 61.3597 79.7367 57.5839 81.7744C53.5219 83.9671 54.0565 87.562 53.6919 91.5105C53.2047 96.786 51.6408 101.894 51.0909 107.167C50.8279 109.687 50.5884 112.222 50.6281 114.758C50.6619 116.919 50.9714 119.309 49.5189 121.128C46.6051 117.232 45.2239 112.33 44.6497 107.554C44.3705 105.232 44.481 102.892 44.4012 100.559C44.3367 98.6815 44.3786 95.6944 43.1558 94.1261C40.4977 90.7178 37.0407 104.376 36.712 105.835C36.1591 108.29 35.7031 110.765 35.1524 113.221C34.9081 114.309 34.5948 118.265 33.1372 118.659C30.1166 119.477 30.7796 110.986 30.7318 109.693C30.6362 107.083 30.5713 104.471 30.6323 101.859C30.6767 99.9739 31.0413 97.9281 30.8249 96.042C30.2933 91.411 27.6903 96.2902 26.9585 98.0139C25.1094 102.366 24.273 107.024 22.6148 111.445C22.339 112.18 21.6909 114.656 20.6641 114.702C19.5216 114.753 19.5306 112.196 19.4652 111.449C19.0861 107.119 17.8057 102.819 18.1921 98.4436C18.5823 94.0257 20.1304 89.4839 22.3211 85.6413C26.9525 77.5171 35.3163 72.8523 43.3274 68.6031C52.4956 63.741 62.1748 59.8997 72.0606 56.7704C83.9501 53.0068 96.158 49.9616 108.439 47.7945C114.688 46.6921 121.033 45.9037 127.345 45.2716C129.563 45.0495 131.782 44.9197 133.972 44.4973C134.799 44.3375 137.781 43.5786 137.554 45.272ZM143.94 31.402C140.808 31.4268 137.608 29.9076 134.556 29.2798C130.923 28.5315 127.375 27.4488 123.748 26.6676C116.646 25.1382 109.54 23.6468 102.444 22.0836C99.3635 21.4049 96.2682 20.8143 93.1998 20.0853C89.917 19.3055 86.3704 18.4359 83.0104 19.276C77.9174 20.5496 75.766 26.1235 73.896 30.4735C72.5751 33.5461 71.5402 36.971 69.4802 39.6446C68.7467 40.5979 67.7041 41.7348 66.3742 41.426C63.9035 40.8528 64.2958 37.5821 64.6105 35.7742C65.0664 33.1506 65.7124 30.5577 66.2294 27.9459C66.4378 26.8919 68.0525 19.9931 65.1698 21.0611C63.0312 21.8534 61.8998 27.0717 61.0903 28.9355C60.4888 30.3206 59.8514 31.6967 59.1764 33.0476C58.2755 34.8496 55.7053 40.8704 52.8598 40.0939C48.7876 38.9826 52.6937 28.2731 53.3875 26.0159C53.7683 24.7769 57.9075 15.3804 54.4138 16.1484C52.9259 16.4759 51.4765 19.2405 50.7178 20.3864C49.3725 22.4189 48.0315 24.466 46.7652 26.5485C45.4626 28.6904 44.7974 31.1283 43.5055 33.239C42.8258 34.3498 41.4386 35.8302 40.0844 34.8017C37.9732 33.1997 39.2245 27.6269 39.5943 25.5196C40.2821 21.6018 41.9907 17.5855 44.335 14.3827C47.8577 9.57019 54.5048 8.01512 60.0943 7.08021C67.3092 5.87323 74.6244 6.20338 81.8696 6.91748C90.0178 7.72086 98.0417 8.58103 106.073 10.2236C114.168 11.8791 122.266 13.5213 130.236 15.7106C133.991 16.742 137.799 17.6564 141.5 18.8673C145.435 20.1541 149.275 21.7556 153.319 22.6828C151.897 26.2341 150.474 29.7855 149.051 33.3372C147.689 31.9897 145.831 31.3866 143.94 31.402ZM213.67 41.1881C214.917 40.5056 216.296 40.1836 216.751 38.6751C217.153 37.3421 216.465 35.8319 216.137 34.5523C215.217 30.9698 214.975 27.2587 215.789 23.634C216.567 24.8217 219.478 29.3904 221.249 26.6245C222.318 24.9563 219.455 22.5564 218.62 21.3836C220.453 20.2519 223.072 17.2144 225.184 19.0462C226.549 20.2306 227.128 21.3708 228.967 21.9465C231.201 22.6457 233.303 22.4855 235.584 22.2925C237.181 22.1575 237.565 21.9444 238.189 23.1744C238.679 24.1414 238.932 25.3381 239.218 26.3764C239.782 28.4234 241.086 32.457 239.541 34.3746C238.187 36.0544 232.933 34.6142 232.204 36.7826C231.806 37.9652 233.705 38.0075 234.431 38.5926C235.329 39.317 236.073 40.4697 236.561 41.4995C236.923 42.261 237.473 43.5192 236.857 44.2978C236.007 45.375 234.43 44.5579 233.745 43.7751C232.834 42.7351 232.539 41.3133 231.779 40.1806C230.385 38.1023 230.302 39.7556 229.923 41.2479C229.529 42.7983 228.596 42.6915 227.168 42.8905C224.662 43.2403 222.13 43.7336 219.691 44.4054C218.441 44.7497 217.229 45.1883 216.039 45.7008C215.271 46.0306 213.941 47.0295 213.109 47.0389C211.566 47.0564 210.497 44.4755 209.701 43.3988C211.022 42.6603 212.341 41.915 213.67 41.1881ZM296.509 199.224C292.656 194.598 289.32 189.572 285.518 184.905C281.769 180.302 277.432 176.277 273.225 172.109C271.239 170.141 269.337 167.982 267.145 166.239C265.51 164.938 264.251 164.918 262.284 165.494C256.695 167.132 251.005 169.103 245.716 171.546C240.791 173.822 236.305 176.743 230.964 178.012C225.513 179.308 219.844 179.724 214.257 179.403C208.526 179.073 203.12 177.88 197.67 176.127C192.508 174.467 187.126 173.017 182.711 169.725C178.083 166.275 174.508 161.313 171.195 156.645C169.517 154.283 167.852 151.801 166.722 149.123C165.741 146.8 165.101 144.057 163.341 142.163C162.909 142.775 162.372 143.3 162.153 144.018C162.053 144.345 162.641 144.335 162.581 144.594C162.467 145.084 161.816 145.582 161.438 145.848C160.079 146.805 160.071 146.044 160.427 147.833C160.635 148.876 160.242 151.229 158.542 150.46C159.168 151.209 158.173 152.155 157.849 152.773C157.625 152.516 157.347 152.427 157.015 152.504C157.637 153.743 157.27 153.776 156.667 154.759C156.557 154.939 156.167 155.88 156.223 155.801C155.608 156.678 154.896 156.899 154.537 157.991C154.242 158.889 154.318 159.875 153.989 160.771C153.592 160.222 153.194 159.672 152.797 159.123C152.878 159.555 153.04 160.195 153.229 160.587C153.347 160.832 153.856 161.404 153.849 161.538C153.822 162.038 153.198 161.918 153.021 162.349C152.687 163.157 153.169 163.276 152.987 164.065C152.779 164.97 152.22 164.608 151.954 165.38C151.903 165.527 152.296 166.103 152.234 166.419C152.146 166.866 151.742 167.116 151.599 167.513C151.235 168.523 151.367 169.263 150.862 170.232C150.667 170.608 150.382 170.858 150.244 171.286C150.123 171.661 150.383 172.461 150.15 172.798C149.024 174.42 149.182 171.626 149.267 170.932C149.984 165.112 152.284 159.106 154.389 153.666C155.435 150.963 156.453 148.176 157.764 145.587C158.292 144.545 158.901 143.469 159.774 142.671C160.877 141.662 162.442 141.259 163.441 140.132C163.283 140.31 164.524 139.135 164.326 139.521C164.503 139.176 164.193 138.709 164.303 138.375C164.441 137.96 164.7 137.873 164.988 137.51C165.507 136.858 166.123 136.534 165.308 135.704C166.518 135.436 167.096 135.044 167.337 133.748C167.514 132.801 167.158 132.863 167.779 132.231C168.403 131.596 168.719 132.092 169.112 130.993C169.582 129.678 169.894 127.889 170.176 126.513C170.422 125.312 169.825 123.545 170.837 122.697C172.119 121.623 173.267 122.077 173.037 119.917C172.813 117.811 173.467 116.535 174.124 114.543C175.436 110.564 175.944 106.364 177.094 102.338C179.549 93.7464 183.886 86.0001 188.55 78.4375C192.86 71.4493 198.885 65.4955 204.703 59.7617C206.296 58.1913 207.871 56.5982 209.301 54.8766C210.534 53.3941 211.096 51.3757 212.281 49.9684C213 49.1138 214.339 48.7482 215.344 48.295C217.019 47.5391 219.016 46.5529 220.907 46.7058C220.155 49.2398 219.91 52.2008 222.128 54.101C224.818 56.406 227.256 54.0113 229.722 52.6971C234.217 50.3015 240.645 52.5007 244.565 48.91C245.498 48.055 245.759 46.6887 246.729 45.89C247.441 45.3045 248.454 45.1559 249.256 44.7194C251.692 43.3932 252.874 40.9656 251.926 38.2839C251.058 35.8323 249.712 34.982 252.71 33.7395C255.143 32.7316 256.069 31.2128 254.967 28.5089C253.917 25.9309 251.993 25.6341 250.172 23.947C248.409 22.313 250.435 20.4112 251.756 19.1846C253.459 17.6022 253.784 16.1761 251.81 14.5305C249.742 12.8076 246.789 12.8678 244.378 13.7199C241.652 14.683 239.856 16.2842 238.702 18.8788C237.527 21.5203 234.615 20.7831 232.257 20.0469C230.001 19.343 229.414 17.8243 227.933 16.1889C226.286 14.3699 222.929 15.9254 220.986 16.7565C216.201 18.8023 211.446 22.0311 211.256 27.7503C211.143 31.1607 212.585 34.0594 213.334 37.2605C214.02 40.1879 209.319 39.9572 208.505 42.7889C199.82 38.1899 190.149 36.7826 180.441 36.4695C170.123 36.1364 159.657 35.8695 149.427 37.4976C151.801 33.359 153.055 28.8206 155.121 24.5689C155.716 23.3448 155.972 23.4495 157.285 23.8193C159.806 24.5296 162.308 25.3244 164.824 26.056C174.015 28.7288 183.026 31.9491 191.913 35.4761C192.777 35.8191 194.705 36.7711 195.462 35.7358C196.336 34.542 194.314 33.0703 193.497 32.4698C189.918 29.8435 185.484 28.2496 181.476 26.4071C172.714 22.38 163.011 20.4684 153.869 17.4775C134.132 11.0193 113.713 6.11454 93.2015 2.875C88.196 2.08444 83.1372 1.9687 78.1099 1.38187C73.6569 0.86209 69.1958 0.874049 64.7433 1.41091C56.5195 2.40306 46.9855 4.54367 42.3408 12.0743C38.1478 18.8737 35.3488 26.5182 36.4187 34.5835C36.7402 37.006 37.7657 39.8748 40.7538 39.2504C42.8266 38.8173 43.9273 37.0555 44.8896 35.336C46.3438 32.7384 47.78 30.1408 49.3558 27.6128C49.9403 31.4033 47.8163 35.1306 48.1502 38.992C48.3773 41.6122 49.8246 45.7521 53.2252 45.0102C57.8862 43.9937 59.8044 36.7096 62.0454 33.2151C62.159 35.9066 61.2159 38.5593 61.5045 41.2569C61.7892 43.9215 63.8706 46.4372 66.7938 46.072C69.551 45.7277 71.3429 42.7727 72.514 40.5479C74.1437 37.4519 75.3143 34.1325 76.906 31.0159C78.3977 28.0946 80.1648 24.6167 83.7264 24.0679C86.9049 23.5776 90.5476 24.7124 93.6873 25.1805C102.397 26.4789 110.93 28.6895 119.544 30.4756C128.78 32.3903 138.234 33.5533 147.186 36.6429C144.038 40.9284 135.802 40.0025 131.113 40.4625C124.027 41.1578 116.851 41.681 109.806 42.7069C102.847 43.72 96.0347 45.5185 89.1306 46.8241C82.2628 48.1229 75.407 49.4239 68.7616 51.6388C56.4234 55.7513 43.8795 60.9559 33.0087 68.1316C27.9507 71.4706 23.4576 75.2868 20.3332 80.5571C17.1888 85.8604 15.6778 91.8573 15.1015 97.9576C14.7428 101.756 15.3521 105.044 16.0877 108.74C16.6205 111.417 16.793 115.899 18.9384 117.859C23.0332 121.6 26.4329 106.426 27.189 104.593C27.7334 107.596 26.8432 124.516 33.4134 123.14C36.3457 122.526 37.0108 118.5 37.4971 116.075C38.3843 111.654 39.1788 107.144 40.6962 102.887C41.67 108.623 42.0761 114.6 44.1741 120.079C45.5676 123.718 49.5437 130.175 52.3158 123.946C54.395 119.274 53.6816 113.911 53.931 108.951C54.2072 103.454 55.7847 98.1523 56.3432 92.7094C56.5596 90.6008 56.3637 88.2244 58.4817 87.0738C60.3001 86.0864 62.9591 85.7647 64.9443 85.2134C70.8246 83.5801 76.7433 82.0789 82.5958 80.3462C88.4509 78.6121 94.2248 76.5864 100.002 74.6094C105.527 72.7186 111.168 71.6436 116.76 70.0245C119.94 69.1037 123.081 68.1406 126.304 67.3718C127.805 67.0143 129.323 66.7358 130.82 66.3655C131.93 66.0913 133.392 65.0565 134.532 65.0749C135.706 65.0941 136.148 66.0884 137.494 66.1665C138.944 66.2502 140.417 65.9303 141.859 65.8197C145.37 65.5502 149.103 65.1146 152.607 65.6015C150.501 68.1 147.657 69.8272 145.165 71.8969C142.29 74.2839 139.508 76.8615 137.053 79.6803C132.112 85.3522 127.443 91.3473 123.104 97.492C118.825 103.554 115.38 110.187 112.384 116.964C110.892 120.341 109.443 123.792 108.412 127.342C107.988 128.8 107.642 130.264 106.878 131.59C106.176 132.806 105.188 133.855 106.017 135.323C106.588 134.966 107.101 134.522 107.617 134.093C107.02 138.296 105.733 142.362 105.071 146.552C104.419 150.68 104.445 154.926 104.488 159.095C104.576 167.827 105.225 176.361 106.996 184.925C108.787 193.586 111.087 202.18 113.988 210.535C116.78 218.579 119.582 227.014 123.479 234.596C127.642 242.693 132.594 251.207 138.62 258.062C134.684 259.674 129.675 259.373 125.507 260.022C121.15 260.701 117.382 261.983 113.669 264.395C109.913 266.835 107.874 269.977 107.355 274.426C106.986 277.593 105.89 281.978 110.043 282.81C113.03 283.408 116.37 282.425 119.363 282.182C124.599 281.758 129.842 281.493 135.09 281.264C140.324 281.035 145.559 280.834 150.795 280.672C153.258 280.595 155.722 280.557 158.183 280.468C159.286 280.429 159.955 280.412 160.945 280.731C161.727 280.984 161.67 281.508 162.541 280.86C163.945 279.815 163.656 276.52 163.617 275.071C163.557 272.835 163.345 270.573 162.91 268.38C162.651 267.076 159.51 258.674 161.952 258.32C159.115 255.202 157.982 250.748 156.708 246.84C155.111 241.942 153.709 237.059 152.609 232.022C150.259 221.263 149.22 210.387 149.22 199.378C160.115 206.096 171.642 209.735 184.474 210.141C197.232 210.544 211.248 209.496 223.362 205.251C228.972 203.284 233.997 200.702 238.807 197.223C240.531 195.977 242.378 193.153 244.641 193.201C247.341 193.259 250.366 194.281 253.047 194.719C258.176 195.555 264.869 196.027 269.211 199.2C271.57 200.924 273.26 203.337 275.365 205.323C276.966 206.834 279.083 207.654 280.672 209.165C282.387 210.796 281.706 212.925 284.549 213.057C286.979 213.17 289.643 212.192 291.739 211.044C295.921 208.753 300.374 203.864 296.509 199.224Z" fill="#27262D"/>
<path fill-rule="evenodd" clip-rule="evenodd" d="M256.318 90.2766C262.437 94.6249 269.456 97.5954 275.851 101.511C277.451 102.492 282.438 104.527 282.39 106.345C282.361 107.408 280.863 108.741 280.207 109.478C279.082 110.74 278.025 112.015 276.988 113.35C272.239 119.464 267.767 125.636 262.621 131.442C261.846 132.316 259.512 136.486 258.758 134.415C258.417 133.476 258.698 132.421 257.808 131.545C257.35 131.094 255.579 130.845 256.095 129.878C256.439 130.033 256.783 130.188 257.127 130.342C256.86 129.569 256.879 128.722 256.479 127.991C256.23 127.537 255.744 127.322 255.575 126.811C255.342 126.105 255.737 125.284 255.671 124.555C255.606 123.829 255.23 123.143 255.005 122.458C253.673 118.397 253.196 114.303 252.514 110.114C251.839 105.968 250.789 101.952 250.376 97.7598C249.94 93.3321 249.406 88.9133 248.694 84.521C249.966 84.6996 250.943 86.0821 251.843 86.8637C253.257 88.092 254.792 89.1926 256.318 90.2766ZM251.52 133.143C251.228 132.914 251 132.632 250.835 132.298C253.834 130.812 252.025 133.347 251.52 133.143ZM249.697 129.973C248.389 130.334 247.45 130.407 246.442 129.869C246.346 129.818 246.456 129.424 246.284 129.344C246.133 129.274 245.903 129.36 245.774 129.295C245.335 129.071 244.567 129.561 244.492 128.706C246.161 128.195 247.801 127.252 249.563 127.093C252.011 126.873 251.898 129.366 249.697 129.973ZM243.969 125.045C242.185 125.462 240.715 126.436 238.82 126.182C237.041 125.944 235.495 125.021 234.092 123.957C237.603 122.963 241.284 122.783 244.792 121.822C245.934 121.509 247.435 120.683 248.665 121.016C250.033 121.386 250.119 122.667 250.529 123.833C248.341 124.227 246.135 124.538 243.969 125.045ZM232.812 120.097C231.099 120.507 229.347 121.402 227.914 119.857C227.683 119.607 227.48 119.856 227.508 119.088C227.536 118.278 228.271 117.756 228.904 117.47C230.39 116.8 232.474 117.233 234.053 117.135C236.571 116.978 239.135 116.454 241.626 116.051C243.351 115.772 245.133 115.153 246.895 115.275C248.256 115.369 249.898 116.53 247.915 117.376C246.109 118.148 243.4 118.029 241.443 118.363C238.55 118.857 235.667 119.415 232.812 120.097ZM231.138 112.032C231.249 112.145 231.36 112.258 231.471 112.371C231.453 112.367 232.128 111.82 232.307 111.804C233.176 111.728 234.05 111.788 234.92 111.739C236.925 111.626 238.946 111.277 240.915 110.892C242.519 110.578 244.153 110.038 245.804 110.173C247.233 110.29 247.383 110.583 247.477 111.963C243.828 111.963 240.07 111.886 236.484 112.659C234.149 113.162 231.577 114.659 230.407 111.96C230.651 111.984 230.894 112.008 231.138 112.032ZM233.419 106.189C234.324 106.879 236.791 105.732 237.875 105.618C239.052 105.493 240.16 105.364 241.302 105.07C242.313 104.81 245.661 103.509 246.437 104.753C247.627 106.659 242.809 107.009 242.045 107.103C238.842 107.499 235.518 107.85 232.401 108.691C232.741 107.857 233.08 107.024 233.419 106.189ZM237.813 99.7151C238.047 100.596 245.292 97.3494 245.424 99.7091C245.525 101.52 238.256 102.422 236.949 102.263C237.255 101.429 238.07 100.682 237.813 99.7151ZM240.246 94.1769C240.4 92.3997 240.638 92.41 242.063 92.2426C243.149 92.1149 244.643 91.4776 244.36 93.4149C244.118 95.0738 240.091 95.9703 240.246 94.1769ZM242.835 88.0621C243.178 87.108 243.949 88.3923 243.966 88.8774C244.009 90.1686 243.03 89.8892 242.088 89.8892C242.351 89.2862 242.6 88.6763 242.835 88.0621ZM254.758 80.9001C254.566 80.6686 253.488 80.5802 253.181 80.4679C252.426 80.1911 252.533 79.6013 251.567 80.183C251.519 80.1343 251.611 79.697 251.558 79.6769C251.532 79.6666 250.855 79.4113 250.635 79.2703C250.105 78.9303 249.627 78.5976 249.139 78.171C248.621 77.7178 248.101 77.0601 247.509 76.6992C247.26 76.5471 247.055 76.3314 246.754 76.2849C245.974 76.1644 246.197 76.7086 245.515 76.8166C245.094 76.8833 244.788 76.3921 244.238 76.6039C243.763 76.7867 243.487 77.4534 243.275 77.8502C242.506 79.2942 241.912 80.8484 241.158 82.3078C237.305 89.7705 232.925 96.95 229.192 104.482C227.394 108.111 225.518 111.765 224.253 115.621C223.34 118.402 221.28 122.465 223.052 125.244C224.341 127.265 226.922 128.138 228.981 129.114C232.08 130.583 234.936 132.503 238.068 133.928C241.804 135.626 245.431 137.403 249.072 139.3C250.625 140.109 252.026 141.274 253.574 142.04C254.52 142.509 255.982 141.709 256.29 142.783C257.477 141.346 259.397 142.304 260.77 141.292C261.577 140.696 262.167 139.524 262.84 138.79C263.85 137.691 264.947 136.671 265.978 135.591C270.068 131.301 273.845 126.832 277.567 122.224C281.122 117.824 285.274 113.667 288.277 108.85C289.47 106.938 289.686 104.932 288.899 102.82C288.324 101.279 286.94 98.9523 284.963 99.9726C285.712 98.7272 282.82 97.3972 281.943 97.1537C281.93 97.1503 281.757 98.107 281.512 98.0831C281.599 98.0917 280.777 95.9634 280.416 95.6905C279.343 94.8786 278.039 93.9313 276.868 93.2629C275.795 92.65 274.662 92.3463 273.623 91.6604C272.362 90.8293 271.205 89.8435 269.94 89.018C268.719 88.221 267.357 87.2788 266.007 86.7309C264.837 86.2555 263.786 86.1624 262.732 85.3834C261.429 84.4194 260.293 83.7655 258.79 83.1014C257.49 82.5269 255.688 82.0251 254.758 80.9001Z" fill="#27262D"/>
<path fill-rule="evenodd" clip-rule="evenodd" d="M77.2996 196.32C77.5387 195.759 77.7769 195.197 78.016 194.636C78.3114 195.615 78.3943 196.102 77.2996 196.32ZM77.6177 198.915C77.0998 199.007 77.3039 197.382 77.3039 197.099C78.1983 197.605 77.4576 198.213 77.6177 198.915ZM76.8103 194.226C77.2518 193.965 77.6932 193.705 78.1347 193.444C77.5199 194.583 77.7611 193.871 78.0147 194.632C77.5511 194.766 77.1002 194.61 76.8103 194.226ZM74.194 203.132C72.5392 209.138 67.2831 213.875 61.7316 216.329C58.5415 217.738 55.4052 218.091 51.9602 217.934C50.6315 217.873 49.0681 217.442 47.7894 217.522C46.8049 217.584 46.8493 217.627 46.0338 218.46C45.673 217.796 45.9343 217.329 45.2107 216.942C44.3077 216.46 43.9328 217.022 43.485 217.69C42.8988 217.082 42.6588 216.765 41.8993 216.404C41.9232 216.416 41.1722 216.387 41.203 216.396C41.0672 216.355 40.2505 215.829 39.9947 215.734C38.9453 215.34 37.7319 215.178 36.7636 214.613C35.9166 214.12 35.2189 212.735 34.2498 213.799C34.2489 212.02 31.8542 211.283 30.7318 210.351C28.9779 208.896 27.5835 206.741 26.7091 204.656C25.7767 202.433 25.4655 200.302 25.0291 198.011C24.7243 196.41 22.7279 194.096 23.9268 192.481C24.2124 193.158 24.0783 193.852 24.5527 194.466C24.9796 193.643 25.2144 192.722 25.4074 191.821C25.5022 191.38 26.0512 190.085 25.9889 189.701C25.8621 188.914 24.8887 188.871 25.4283 187.907C26.5478 189.125 27.4512 186.986 26.6054 186.133C26.1878 186.604 26.0346 187.139 25.842 187.722C24.7414 185.5 27.7876 186.216 27.1211 184.209C28.2329 183.995 28.872 183.715 29.2947 182.616C29.7648 181.393 29.4189 181.127 30.4863 180.319C30.8535 180.041 31.8918 179.642 32.0818 179.185C32.4494 178.302 31.5139 178.04 32.3332 177.213C32.6099 177.698 33.6884 178.66 34.2788 177.745C34.3971 177.563 33.9006 177.433 34.2617 177.013C34.7967 176.391 35.3953 175.781 36.3 175.912C35.5836 174.12 40.1612 173.978 41.3336 173.556C42.5085 173.132 43.5055 172.854 44.7513 172.756C45.9958 172.658 46.0577 172.293 47.1114 171.544C47.2006 172.616 47.4585 172.38 48.2206 172.569C48.4038 172.255 48.5916 172.22 48.7837 172.463C48.975 172.645 49.209 172.731 49.4848 172.721C49.9032 172.742 50.3779 172.688 50.8164 172.697C51.8458 172.717 52.9076 172.631 53.9173 172.653C54.1777 172.609 54.4211 172.519 54.6491 172.381C54.7443 172.56 54.8399 172.74 54.9347 172.92C55.4696 172.987 55.5111 173.657 56.169 172.924C56.3637 173.856 56.9229 173.371 57.5138 173.624C58.0526 173.855 58.1384 174.224 58.6358 174.482C58.9629 174.747 59.3134 174.782 59.6883 174.587C60.0448 174.852 60.4068 175.109 60.774 175.357C61.4507 175.74 62.2482 175.974 62.9612 176.276C63.4355 176.471 63.9069 176.675 64.3744 176.886C64.3885 177.451 64.6416 177.65 65.1335 177.484C65.5779 177.856 65.703 177.841 66.1342 178.475C67.1111 179.91 67.9778 181.026 69.2116 182.309C74.5744 187.886 76.222 195.772 74.194 203.132ZM75.8399 179.414C73.4187 176.17 69.9916 172.456 66.9121 170.408C65.3512 169.369 63.1601 167.505 61.2513 166.956C60.7987 166.825 60.3304 166.817 59.8855 166.68C59.5418 166.575 59.3548 166.222 58.9629 166.158C58.6888 166.114 58.6585 166.728 58.3673 166.671C57.7585 166.552 57.3725 165.948 56.9426 165.57C56.0191 167.162 55.5179 164.485 54.1619 166.285C52.5481 163.753 48.7568 164.307 46.1798 164.434C45.4156 164.472 45.0565 164.744 44.379 164.946C43.7484 165.133 43.686 165.085 42.9974 165.08C41.2824 165.067 39.7599 165.282 38.1747 166.036C35.5114 167.301 33.0667 169.273 30.5371 170.798C27.7099 172.503 25.1615 174.672 22.9986 177.165C15.1796 186.18 13.0889 199.337 19.3235 209.788C29.2264 226.385 54.7707 228.159 69.2453 216.897C80.4282 208.196 84.684 191.259 75.8399 179.414Z" fill="#27262D"/>
<path fill-rule="evenodd" clip-rule="evenodd" d="M198.41 132.708C198.132 133.371 195.537 133.147 195.48 132.365C195.395 131.197 198.893 131.555 198.41 132.708ZM201.167 132.274C202.638 132.393 205.054 133.393 206.472 132.789C208.635 131.867 206.363 130.452 205.203 130.03C204.022 129.6 202.263 129.828 201.656 128.593C201.199 127.664 202.328 125.071 200.927 125.487C199.458 125.925 199.885 129.64 197.579 128.387C196.479 127.79 196.928 124.15 195.086 126.01C194.582 126.518 194.538 127.453 193.87 127.832C193.189 128.219 192.334 127.816 191.614 127.849C189.71 127.939 189.103 129.721 191.033 130.428C191.747 130.689 194.439 131.009 192.809 132.177C191.781 132.912 189.498 131.369 188.616 132.649C187.403 134.408 190.652 134.448 191.524 134.974C193.003 135.865 191.782 137.946 191.9 139.428C192.08 141.692 193.395 141.219 193.873 139.303C194.278 137.677 193.776 135.336 196.226 135.982C200.216 137.035 194.007 142.102 196.93 143.399C198.794 144.226 199.058 139.756 199.202 138.987C199.738 136.146 201.333 136.809 203.75 136.896C206.573 136.998 207.254 134.909 204.265 134.31C203.311 134.12 201.999 134.361 201.171 133.753C200.68 133.394 200.007 132.18 201.167 132.274Z" fill="#27262D"/>
<path fill-rule="evenodd" clip-rule="evenodd" d="M96.9391 225.079C94.6545 224.261 90.8326 224.438 90.2673 227.39C90.0308 228.625 90.4914 229.932 91.3444 230.83C92.3337 231.871 93.9091 231.967 93.825 230.155C93.7665 228.9 92.5732 227.811 94.6712 227.558C95.9768 227.401 97.9078 228.377 97.9727 229.82C98.1196 233.072 92.4925 233.327 90.4188 232.765C86.3031 231.649 87.4213 227.337 90.2476 225.369C90.9777 224.86 93.0727 224.077 93.1683 223.02C93.2956 221.619 91.5639 221.906 90.7151 222.09C84.4762 223.449 83.1164 233.904 89.6354 235.875C92.5958 236.77 96.7649 235.846 98.5491 233.164C100.222 230.649 100.244 226.263 96.9391 225.079Z" fill="#27262D"/>
<path fill-rule="evenodd" clip-rule="evenodd" d="M14.2169 151.065C12.2666 152.004 10.3163 152.943 8.3665 153.883C7.72181 152.503 6.63269 148.733 4.9975 148.251C2.35046 147.472 4.03603 151.581 4.49285 152.521C4.86814 153.293 5.73867 154.489 5.52734 155.409C5.24385 156.648 3.49595 157.087 2.58101 157.726C0.316941 159.309 0.334868 162.633 3.61378 161.225C5.46927 160.427 7.76664 158.216 9.18878 160.727C9.84542 161.885 11.4012 168.357 13.0261 164.124C14.0316 161.504 9.1922 158.782 11.578 156.565C12.346 155.852 13.2452 155.792 14.0124 155.382C15.8653 154.391 14.8206 152.561 14.2169 151.065Z" fill="#27262D"/>
<path fill-rule="evenodd" clip-rule="evenodd" d="M300.133 57.3C298.971 56.8746 297.532 56.0439 296.24 56.327C294.866 56.6277 294.313 58.0038 293.315 58.8311C290.6 61.0806 289.019 57.7279 287.527 55.8905C286.118 54.1557 284.399 53.7345 282.411 54.8006C281.619 55.2255 278.283 57.1727 278.865 58.4202C279.283 59.318 280.931 58.5121 281.494 58.316C282.714 57.8911 283.848 57.5191 285.096 58.1388C287.438 59.3005 288.046 62.4862 290.879 62.9829C293.808 63.4967 293.904 60.7078 295.995 59.658C297.397 58.9545 298.373 60.2 299.725 59.9518C301.014 59.7156 301.61 57.8398 300.133 57.3Z" fill="#27262D"/>
<path fill-rule="evenodd" clip-rule="evenodd" d="M276.481 68.5399C277.517 68.765 278.194 66.7546 278.842 66.2447C279.918 65.3994 281.783 65.229 282.879 66.0798C285.018 67.7404 284.281 71.3254 287.327 72.2599C290.05 73.0953 291.332 69.5081 293.624 68.6151C294.957 68.0957 296.419 67.7557 295.899 65.8923C295.54 64.6038 294.482 64.2728 293.332 64.7678C291.355 65.6177 290.684 69.0802 288.341 69.1421C285.916 69.2062 285.653 65.7095 284.612 64.1865C283.025 61.8652 279.763 61.3044 277.909 63.5241C277.349 64.1937 274.508 68.1124 276.481 68.5399Z" fill="#27262D"/>
<path fill-rule="evenodd" clip-rule="evenodd" d="M228.554 28.9009C229.996 29.8875 232.868 29.8534 234.196 28.6297C235.547 27.3847 233.743 27.1934 232.643 27.2314C231.796 27.2609 230.211 27.6807 230.694 26.2179C231.122 24.92 233.476 25.5807 233.672 24.1559C231.901 23.8381 229.95 23.9526 228.639 25.3453C227.692 26.352 227.205 27.9771 228.554 28.9009Z" fill="#27262D"/>
<path fill-rule="evenodd" clip-rule="evenodd" d="M294.697 205.299C292.742 207.141 289.183 209.614 286.37 208.49C284.956 207.925 283.749 206.685 282.462 205.886C280.95 204.946 279.528 204.006 278.246 202.754C275.688 200.254 273.752 196.603 270.731 194.647C269.715 193.989 267.733 193.848 267.029 192.798C266.714 192.327 266.684 191.612 266.742 191.067C266.868 189.895 267.502 189.964 266.444 189.103H268.087C268.119 188.468 267.485 188.415 267.013 188.497C267.232 187.49 267.456 183.551 265.622 185.337C264.032 186.884 264.827 189.451 263.701 191.127C262.839 192.411 260.552 191.372 260.243 189.96C260.104 189.325 260.803 188.335 260.886 187.713C261.069 186.334 260.453 185.141 259.559 184.097C257.598 185.405 258.71 188.11 257.592 189.828C256.58 191.382 254.328 190.657 252.788 190.384C250.942 190.056 248.855 190.387 247.088 189.951C244.421 189.293 245.417 186.161 245.153 184.139C244.87 181.973 242.682 178.967 243.34 176.782C244.046 174.436 248.174 173.929 250.147 173.36C254.657 172.058 261.09 171.808 264.443 168.165C267.109 171.14 269.254 174.546 272.051 177.411C275.072 180.504 278.299 183.36 281.199 186.578C284.218 189.928 287.334 193.212 290.242 196.659C291.512 198.162 292.626 199.782 293.939 201.249C295.106 202.554 296.336 203.754 294.697 205.299ZM160.653 147.439C162.039 146.701 162.215 147.163 162.215 148.682C161.816 147.953 161.42 147.758 160.653 147.439ZM148.904 176.954V174.277C150.24 174.242 149.418 176.532 148.904 176.954ZM148.577 180.939C148.577 179.754 148.545 178.626 148.887 177.473C149.066 178.729 149.408 179.816 148.577 180.939ZM154.321 262.354C155.548 262.468 157.439 261.623 158.471 262.586C159.531 263.575 159.446 266.456 159.697 267.793C160.112 270.002 160.48 272.219 160.829 274.439C161.059 275.894 161.342 277.372 159.697 277.929C157.266 278.752 153.793 277.578 151.259 277.471C146.253 277.26 141.25 276.968 136.24 276.866C131.385 276.768 126.518 276.845 121.684 277.351C119.501 277.579 117.366 277.982 115.205 278.347C114.066 278.539 111.013 279.344 109.985 278.384C108.049 276.575 111.267 272.354 112.651 271.161C115.22 268.948 118.873 267.353 122.095 266.392C123.816 265.878 126.686 264.436 128.042 266.049C129.082 267.286 129.041 268.938 130.532 269.875C133.986 272.047 131.965 265.816 129.807 265.049C131.256 261.656 134.019 266.447 135.165 267.598C135.572 268.008 136.899 269.358 137.474 268.679C137.906 268.171 137.045 266.35 136.885 265.854C136.642 265.102 136.029 263.957 136.205 263.141C136.525 261.664 138.595 261.262 139.835 261.139C141.759 260.948 143.645 261.558 145.547 261.762C148.463 262.075 151.402 262.079 154.321 262.354ZM135.01 123.243C131.213 123.545 127.392 122.965 123.604 123.44C120.021 123.89 116.644 125.206 113.265 126.415C118.288 114.631 124.786 103.904 132.706 93.8548C136.65 88.8497 140.892 83.8791 145.154 79.1422C147.137 76.9383 149.188 74.8076 151.236 72.6657C153.062 70.7548 154.371 67.5097 156.563 66.0828C158.433 64.8647 161.703 65.7334 163.776 65.809C166.12 65.8944 168.972 66.1076 171.257 65.3273C172.913 64.7618 173.369 63.2528 171.296 63.2029C168.85 63.1435 166.445 63.3985 163.968 63.1691C157.55 62.5759 151.363 61.6008 144.893 62.1539C143.411 62.2803 141.46 62.912 140.005 62.7224C138.959 62.5853 139.647 63.1115 138.92 62.2718C138.641 61.9506 138.306 61.1955 138.223 60.7688C137.76 58.3724 139.076 54.9479 139.39 52.5353C139.681 50.3024 139.423 47.8483 139.968 45.6739C140.464 43.6952 141.977 43.4312 143.839 43.2198C148.934 42.6411 154.133 42.3332 159.251 41.8971C170.93 40.902 182.98 39.4007 194.58 41.8599C198.769 42.7479 203.877 44.121 207.618 46.3197C208.789 47.0069 209.969 47.8163 209.543 49.2402C209.102 50.7184 206.937 52.2799 205.865 53.2536C197.942 60.4494 190.289 67.7891 184.723 77.0221C177.624 88.7959 173.551 101.512 171.161 115.003C170.647 117.906 170.17 119.425 167.184 120.261C163.98 121.158 160.887 121.741 157.564 122.014C150.052 122.631 142.517 122.644 135.01 123.243ZM137.554 45.272C136.978 49.558 136.199 53.8345 136.122 58.1542C136.093 59.7857 135.939 60.6031 134.204 60.967C132.16 61.3958 130.081 61.7153 128.027 62.1603C118.114 64.3095 108.388 66.949 98.6898 69.9198C89.2642 72.8079 79.9936 76.0568 70.3563 78.1962C66.2107 79.1165 61.3597 79.7367 57.5839 81.7744C53.5219 83.9671 54.0565 87.562 53.6919 91.5105C53.2047 96.786 51.6408 101.894 51.0909 107.167C50.8279 109.687 50.5884 112.222 50.6281 114.758C50.6619 116.919 50.9714 119.309 49.5189 121.128C46.6051 117.232 45.2239 112.33 44.6497 107.554C44.3705 105.232 44.481 102.892 44.4012 100.559C44.3367 98.6815 44.3786 95.6944 43.1558 94.1261C40.4977 90.7178 37.0407 104.376 36.712 105.835C36.1591 108.29 35.7031 110.765 35.1524 113.221C34.9081 114.309 34.5948 118.265 33.1372 118.659C30.1166 119.477 30.7796 110.986 30.7318 109.693C30.6362 107.083 30.5713 104.471 30.6323 101.859C30.6767 99.9739 31.0413 97.9281 30.8249 96.042C30.2933 91.411 27.6903 96.2902 26.9585 98.0139C25.1094 102.366 24.273 107.024 22.6148 111.445C22.339 112.18 21.6909 114.656 20.6641 114.702C19.5216 114.753 19.5306 112.196 19.4652 111.449C19.0861 107.119 17.8057 102.819 18.1921 98.4436C18.5823 94.0257 20.1304 89.4839 22.3211 85.6413C26.9525 77.5171 35.3163 72.8523 43.3274 68.6031C52.4956 63.741 62.1748 59.8997 72.0606 56.7704C83.9501 53.0068 96.158 49.9616 108.439 47.7945C114.688 46.6921 121.033 45.9037 127.345 45.2716C129.563 45.0495 131.782 44.9197 133.972 44.4973C134.799 44.3375 137.781 43.5786 137.554 45.272ZM143.94 31.402C140.808 31.4268 137.608 29.9076 134.556 29.2798C130.923 28.5315 127.375 27.4488 123.748 26.6676C116.646 25.1382 109.54 23.6468 102.444 22.0836C99.3635 21.4049 96.2682 20.8143 93.1998 20.0853C89.917 19.3055 86.3704 18.4359 83.0104 19.276C77.9174 20.5496 75.766 26.1235 73.896 30.4735C72.5751 33.5461 71.5402 36.971 69.4802 39.6446C68.7467 40.5979 67.7041 41.7348 66.3742 41.426C63.9035 40.8528 64.2958 37.5821 64.6105 35.7742C65.0664 33.1506 65.7124 30.5577 66.2294 27.9459C66.4378 26.8919 68.0525 19.9931 65.1698 21.0611C63.0312 21.8534 61.8998 27.0717 61.0903 28.9355C60.4888 30.3206 59.8514 31.6967 59.1764 33.0476C58.2755 34.8496 55.7053 40.8704 52.8598 40.0939C48.7876 38.9826 52.6937 28.2731 53.3875 26.0159C53.7683 24.7769 57.9075 15.3804 54.4138 16.1484C52.9259 16.4759 51.4765 19.2405 50.7178 20.3864C49.3725 22.4189 48.0315 24.466 46.7652 26.5485C45.4626 28.6904 44.7974 31.1283 43.5055 33.239C42.8258 34.3498 41.4386 35.8302 40.0844 34.8017C37.9732 33.1997 39.2245 27.6269 39.5943 25.5196C40.2821 21.6018 41.9907 17.5855 44.335 14.3827C47.8577 9.57019 54.5048 8.01512 60.0943 7.08021C67.3092 5.87323 74.6244 6.20338 81.8696 6.91748C90.0178 7.72086 98.0417 8.58103 106.073 10.2236C114.168 11.8791 122.266 13.5213 130.236 15.7106C133.991 16.742 137.799 17.6564 141.5 18.8673C145.435 20.1541 149.275 21.7556 153.319 22.6828C151.897 26.2341 150.474 29.7855 149.051 33.3372C147.689 31.9897 145.831 31.3866 143.94 31.402ZM213.67 41.1881C214.917 40.5056 216.296 40.1836 216.751 38.6751C217.153 37.3421 216.465 35.8319 216.137 34.5523C215.217 30.9698 214.975 27.2587 215.789 23.634C216.567 24.8217 219.478 29.3904 221.249 26.6245C222.318 24.9563 219.455 22.5564 218.62 21.3836C220.453 20.2519 223.072 17.2144 225.184 19.0462C226.549 20.2306 227.128 21.3708 228.967 21.9465C231.201 22.6457 233.303 22.4855 235.584 22.2925C237.181 22.1575 237.565 21.9444 238.189 23.1744C238.679 24.1414 238.932 25.3381 239.218 26.3764C239.782 28.4234 241.086 32.457 239.541 34.3746C238.187 36.0544 232.933 34.6142 232.204 36.7826C231.806 37.9652 233.705 38.0075 234.431 38.5926C235.329 39.317 236.073 40.4697 236.561 41.4995C236.923 42.261 237.473 43.5192 236.857 44.2978C236.007 45.375 234.43 44.5579 233.745 43.7751C232.834 42.7351 232.539 41.3133 231.779 40.1806C230.385 38.1023 230.302 39.7556 229.923 41.2479C229.529 42.7983 228.596 42.6915 227.168 42.8905C224.662 43.2403 222.13 43.7336 219.691 44.4054C218.441 44.7497 217.229 45.1883 216.039 45.7008C215.271 46.0306 213.941 47.0295 213.109 47.0389C211.566 47.0564 210.497 44.4755 209.701 43.3988C211.022 42.6603 212.341 41.915 213.67 41.1881ZM296.509 199.224C292.656 194.598 289.32 189.572 285.518 184.905C281.769 180.302 277.432 176.277 273.225 172.109C271.239 170.141 269.337 167.982 267.145 166.239C265.51 164.938 264.251 164.918 262.284 165.494C256.695 167.132 251.005 169.103 245.716 171.546C240.791 173.822 236.305 176.743 230.964 178.012C225.513 179.308 219.844 179.724 214.257 179.403C208.526 179.073 203.12 177.88 197.67 176.127C192.508 174.467 187.126 173.017 182.711 169.725C178.083 166.275 174.508 161.313 171.195 156.645C169.517 154.283 167.852 151.801 166.722 149.123C165.741 146.8 165.101 144.057 163.341 142.163C162.909 142.775 162.372 143.3 162.153 144.018C162.053 144.345 162.641 144.335 162.581 144.594C162.467 145.084 161.816 145.582 161.438 145.848C160.079 146.805 160.071 146.044 160.427 147.833C160.635 148.876 160.242 151.229 158.542 150.46C159.168 151.209 158.173 152.155 157.849 152.773C157.625 152.516 157.347 152.427 157.015 152.504C157.637 153.743 157.27 153.776 156.667 154.759C156.557 154.939 156.167 155.88 156.223 155.801C155.608 156.678 154.896 156.899 154.537 157.991C154.242 158.889 154.318 159.875 153.989 160.771C153.592 160.222 153.194 159.672 152.797 159.123C152.878 159.555 153.04 160.195 153.229 160.587C153.347 160.832 153.856 161.404 153.849 161.538C153.822 162.038 153.198 161.918 153.021 162.349C152.687 163.157 153.169 163.276 152.987 164.065C152.779 164.97 152.22 164.608 151.954 165.38C151.903 165.527 152.296 166.103 152.234 166.419C152.146 166.866 151.742 167.116 151.599 167.513C151.235 168.523 151.367 169.263 150.862 170.232C150.667 170.608 150.382 170.858 150.244 171.286C150.123 171.661 150.383 172.461 150.15 172.798C149.024 174.42 149.182 171.626 149.267 170.932C149.984 165.112 152.284 159.106 154.389 153.666C155.435 150.963 156.453 148.176 157.764 145.587C158.292 144.545 158.901 143.469 159.774 142.671C160.877 141.662 162.442 141.259 163.441 140.132C163.283 140.31 164.524 139.135 164.326 139.521C164.503 139.176 164.193 138.709 164.303 138.375C164.441 137.96 164.7 137.873 164.988 137.51C165.507 136.858 166.123 136.534 165.308 135.704C166.518 135.436 167.096 135.044 167.337 133.748C167.514 132.801 167.158 132.863 167.779 132.231C168.403 131.596 168.719 132.092 169.112 130.993C169.582 129.678 169.894 127.889 170.176 126.513C170.422 125.312 169.825 123.545 170.837 122.697C172.119 121.623 173.267 122.077 173.037 119.917C172.813 117.811 173.467 116.535 174.124 114.543C175.436 110.564 175.944 106.364 177.094 102.338C179.549 93.7464 183.886 86.0001 188.55 78.4375C192.86 71.4493 198.885 65.4955 204.703 59.7617C206.296 58.1913 207.871 56.5982 209.301 54.8766C210.534 53.3941 211.096 51.3757 212.281 49.9684C213 49.1138 214.339 48.7482 215.344 48.295C217.019 47.5391 219.016 46.5529 220.907 46.7058C220.155 49.2398 219.91 52.2008 222.128 54.101C224.818 56.406 227.256 54.0113 229.722 52.6971C234.217 50.3015 240.645 52.5007 244.565 48.91C245.498 48.055 245.759 46.6887 246.729 45.89C247.441 45.3045 248.454 45.1559 249.256 44.7194C251.692 43.3932 252.874 40.9656 251.926 38.2839C251.058 35.8323 249.712 34.982 252.71 33.7395C255.143 32.7316 256.069 31.2128 254.967 28.5089C253.917 25.9309 251.993 25.6341 250.172 23.947C248.409 22.313 250.435 20.4112 251.756 19.1846C253.459 17.6022 253.784 16.1761 251.81 14.5305C249.742 12.8076 246.789 12.8678 244.378 13.7199C241.652 14.683 239.856 16.2842 238.702 18.8788C237.527 21.5203 234.615 20.7831 232.257 20.0469C230.001 19.343 229.414 17.8243 227.933 16.1889C226.286 14.3699 222.929 15.9254 220.986 16.7565C216.201 18.8023 211.446 22.0311 211.256 27.7503C211.143 31.1607 212.585 34.0594 213.334 37.2605C214.02 40.1879 209.319 39.9572 208.505 42.7889C199.82 38.1899 190.149 36.7826 180.441 36.4695C170.123 36.1364 159.657 35.8695 149.427 37.4976C151.801 33.359 153.055 28.8206 155.121 24.5689C155.716 23.3448 155.972 23.4495 157.285 23.8193C159.806 24.5296 162.308 25.3244 164.824 26.056C174.015 28.7288 183.026 31.9491 191.913 35.4761C192.777 35.8191 194.705 36.7711 195.462 35.7358C196.336 34.542 194.314 33.0703 193.497 32.4698C189.918 29.8435 185.484 28.2496 181.476 26.4071C172.714 22.38 163.011 20.4684 153.869 17.4775C134.132 11.0193 113.713 6.11454 93.2015 2.875C88.196 2.08444 83.1372 1.9687 78.1099 1.38187C73.6569 0.86209 69.1958 0.874049 64.7433 1.41091C56.5195 2.40306 46.9855 4.54367 42.3408 12.0743C38.1478 18.8737 35.3488 26.5182 36.4187 34.5835C36.7402 37.006 37.7657 39.8748 40.7538 39.2504C42.8266 38.8173 43.9273 37.0555 44.8896 35.336C46.3438 32.7384 47.78 30.1408 49.3558 27.6128C49.9403 31.4033 47.8163 35.1306 48.1502 38.992C48.3773 41.6122 49.8246 45.7521 53.2252 45.0102C57.8862 43.9937 59.8044 36.7096 62.0454 33.2151C62.159 35.9066 61.2159 38.5593 61.5045 41.2569C61.7892 43.9215 63.8706 46.4372 66.7938 46.072C69.551 45.7277 71.3429 42.7727 72.514 40.5479C74.1437 37.4519 75.3143 34.1325 76.906 31.0159C78.3977 28.0946 80.1648 24.6167 83.7264 24.0679C86.9049 23.5776 90.5476 24.7124 93.6873 25.1805C102.397 26.4789 110.93 28.6895 119.544 30.4756C128.78 32.3903 138.234 33.5533 147.186 36.6429C144.038 40.9284 135.802 40.0025 131.113 40.4625C124.027 41.1578 116.851 41.681 109.806 42.7069C102.847 43.72 96.0347 45.5185 89.1306 46.8241C82.2628 48.1229 75.407 49.4239 68.7616 51.6388C56.4234 55.7513 43.8795 60.9559 33.0087 68.1316C27.9507 71.4706 23.4576 75.2868 20.3332 80.5571C17.1888 85.8604 15.6778 91.8573 15.1015 97.9576C14.7428 101.756 15.3521 105.044 16.0877 108.74C16.6205 111.417 16.793 115.899 18.9384 117.859C23.0332 121.6 26.4329 106.426 27.189 104.593C27.7334 107.596 26.8432 124.516 33.4134 123.14C36.3457 122.526 37.0108 118.5 37.4971 116.075C38.3843 111.654 39.1788 107.144 40.6962 102.887C41.67 108.623 42.0761 114.6 44.1741 120.079C45.5676 123.718 49.5437 130.175 52.3158 123.946C54.395 119.274 53.6816 113.911 53.931 108.951C54.2072 103.454 55.7847 98.1523 56.3432 92.7094C56.5596 90.6008 56.3637 88.2244 58.4817 87.0738C60.3001 86.0864 62.9591 85.7647 64.9443 85.2134C70.8246 83.5801 76.7433 82.0789 82.5958 80.3462C88.4509 78.6121 94.2248 76.5864 100.002 74.6094C105.527 72.7186 111.168 71.6436 116.76 70.0245C119.94 69.1037 123.081 68.1406 126.304 67.3718C127.805 67.0143 129.323 66.7358 130.82 66.3655C131.93 66.0913 133.392 65.0565 134.532 65.0749C135.706 65.0941 136.148 66.0884 137.494 66.1665C138.944 66.2502 140.417 65.9303 141.859 65.8197C145.37 65.5502 149.103 65.1146 152.607 65.6015C150.501 68.1 147.657 69.8272 145.165 71.8969C142.29 74.2839 139.508 76.8615 137.053 79.6803C132.112 85.3522 127.443 91.3473 123.104 97.492C118.825 103.554 115.38 110.187 112.384 116.964C110.892 120.341 109.443 123.792 108.412 127.342C107.988 128.8 107.642 130.264 106.878 131.59C106.176 132.806 105.188 133.855 106.017 135.323C106.588 134.966 107.101 134.522 107.617 134.093C107.02 138.296 105.733 142.362 105.071 146.552C104.419 150.68 104.445 154.926 104.488 159.095C104.576 167.827 105.225 176.361 106.996 184.925C108.787 193.586 111.087 202.18 113.988 210.535C116.78 218.579 119.582 227.014 123.479 234.596C127.642 242.693 132.594 251.207 138.62 258.062C134.684 259.674 129.675 259.373 125.507 260.022C121.15 260.701 117.382 261.983 113.669 264.395C109.913 266.835 107.874 269.977 107.355 274.426C106.986 277.593 105.89 281.978 110.043 282.81C113.03 283.408 116.37 282.425 119.363 282.182C124.599 281.758 129.842 281.493 135.09 281.264C140.324 281.035 145.559 280.834 150.795 280.672C153.258 280.595 155.722 280.557 158.183 280.468C159.286 280.429 159.955 280.412 160.945 280.731C161.727 280.984 161.67 281.508 162.541 280.86C163.945 279.815 163.656 276.52 163.617 275.071C163.557 272.835 163.345 270.573 162.91 268.38C162.651 267.076 159.51 258.674 161.952 258.32C159.115 255.202 157.982 250.748 156.708 246.84C155.111 241.942 153.709 237.059 152.609 232.022C150.259 221.263 149.22 210.387 149.22 199.378C160.115 206.096 171.642 209.735 184.474 210.141C197.232 210.544 211.248 209.496 223.362 205.251C228.972 203.284 233.997 200.702 238.807 197.223C240.531 195.977 242.378 193.153 244.641 193.201C247.341 193.259 250.366 194.281 253.047 194.719C258.176 195.555 264.869 196.027 269.211 199.2C271.57 200.924 273.26 203.337 275.365 205.323C276.966 206.834 279.083 207.654 280.672 209.165C282.387 210.796 281.706 212.925 284.549 213.057C286.979 213.17 289.643 212.192 291.739 211.044C295.921 208.753 300.374 203.864 296.509 199.224Z" stroke="white" stroke-opacity="0.9" stroke-width="2" mask="url(#path-3-outside-1)"/>
<path fill-rule="evenodd" clip-rule="evenodd" d="M256.318 90.2766C262.437 94.6249 269.456 97.5954 275.851 101.511C277.451 102.492 282.438 104.527 282.39 106.345C282.361 107.408 280.863 108.741 280.207 109.478C279.082 110.74 278.025 112.015 276.988 113.35C272.239 119.464 267.767 125.636 262.621 131.442C261.846 132.316 259.512 136.486 258.758 134.415C258.417 133.476 258.698 132.421 257.808 131.545C257.35 131.094 255.579 130.845 256.095 129.878C256.439 130.033 256.783 130.188 257.127 130.342C256.86 129.569 256.879 128.722 256.479 127.991C256.23 127.537 255.744 127.322 255.575 126.811C255.342 126.105 255.737 125.284 255.671 124.555C255.606 123.829 255.23 123.143 255.005 122.458C253.673 118.397 253.196 114.303 252.514 110.114C251.839 105.968 250.789 101.952 250.376 97.7598C249.94 93.3321 249.406 88.9133 248.694 84.521C249.966 84.6996 250.943 86.0821 251.843 86.8637C253.257 88.092 254.792 89.1926 256.318 90.2766ZM251.52 133.143C251.228 132.914 251 132.632 250.835 132.298C253.834 130.812 252.025 133.347 251.52 133.143ZM249.697 129.973C248.389 130.334 247.45 130.407 246.442 129.869C246.346 129.818 246.456 129.424 246.284 129.344C246.133 129.274 245.903 129.36 245.774 129.295C245.335 129.071 244.567 129.561 244.492 128.706C246.161 128.195 247.801 127.252 249.563 127.093C252.011 126.873 251.898 129.366 249.697 129.973ZM243.969 125.045C242.185 125.462 240.715 126.436 238.82 126.182C237.041 125.944 235.495 125.021 234.092 123.957C237.603 122.963 241.284 122.783 244.792 121.822C245.934 121.509 247.435 120.683 248.665 121.016C250.033 121.386 250.119 122.667 250.529 123.833C248.341 124.227 246.135 124.538 243.969 125.045ZM232.812 120.097C231.099 120.507 229.347 121.402 227.914 119.857C227.683 119.607 227.48 119.856 227.508 119.088C227.536 118.278 228.271 117.756 228.904 117.47C230.39 116.8 232.474 117.233 234.053 117.135C236.571 116.978 239.135 116.454 241.626 116.051C243.351 115.772 245.133 115.153 246.895 115.275C248.256 115.369 249.898 116.53 247.915 117.376C246.109 118.148 243.4 118.029 241.443 118.363C238.55 118.857 235.667 119.415 232.812 120.097ZM231.138 112.032C231.249 112.145 231.36 112.258 231.471 112.371C231.453 112.367 232.128 111.82 232.307 111.804C233.176 111.728 234.05 111.788 234.92 111.739C236.925 111.626 238.946 111.277 240.915 110.892C242.519 110.578 244.153 110.038 245.804 110.173C247.233 110.29 247.383 110.583 247.477 111.963C243.828 111.963 240.07 111.886 236.484 112.659C234.149 113.162 231.577 114.659 230.407 111.96C230.651 111.984 230.894 112.008 231.138 112.032ZM233.419 106.189C234.324 106.879 236.791 105.732 237.875 105.618C239.052 105.493 240.16 105.364 241.302 105.07C242.313 104.81 245.661 103.509 246.437 104.753C247.627 106.659 242.809 107.009 242.045 107.103C238.842 107.499 235.518 107.85 232.401 108.691C232.741 107.857 233.08 107.024 233.419 106.189ZM237.813 99.7151C238.047 100.596 245.292 97.3494 245.424 99.7091C245.525 101.52 238.256 102.422 236.949 102.263C237.255 101.429 238.07 100.682 237.813 99.7151ZM240.246 94.1769C240.4 92.3997 240.638 92.41 242.063 92.2426C243.149 92.1149 244.643 91.4776 244.36 93.4149C244.118 95.0738 240.091 95.9703 240.246 94.1769ZM242.835 88.0621C243.178 87.108 243.949 88.3923 243.966 88.8774C244.009 90.1686 243.03 89.8892 242.088 89.8892C242.351 89.2862 242.6 88.6763 242.835 88.0621ZM254.758 80.9001C254.566 80.6686 253.488 80.5802 253.181 80.4679C252.426 80.1911 252.533 79.6013 251.567 80.183C251.519 80.1343 251.611 79.697 251.558 79.6769C251.532 79.6666 250.855 79.4113 250.635 79.2703C250.105 78.9303 249.627 78.5976 249.139 78.171C248.621 77.7178 248.101 77.0601 247.509 76.6992C247.26 76.5471 247.055 76.3314 246.754 76.2849C245.974 76.1644 246.197 76.7086 245.515 76.8166C245.094 76.8833 244.788 76.3921 244.238 76.6039C243.763 76.7867 243.487 77.4534 243.275 77.8502C242.506 79.2942 241.912 80.8484 241.158 82.3078C237.305 89.7705 232.925 96.95 229.192 104.482C227.394 108.111 225.518 111.765 224.253 115.621C223.34 118.402 221.28 122.465 223.052 125.244C224.341 127.265 226.922 128.138 228.981 129.114C232.08 130.583 234.936 132.503 238.068 133.928C241.804 135.626 245.431 137.403 249.072 139.3C250.625 140.109 252.026 141.274 253.574 142.04C254.52 142.509 255.982 141.709 256.29 142.783C257.477 141.346 259.397 142.304 260.77 141.292C261.577 140.696 262.167 139.524 262.84 138.79C263.85 137.691 264.947 136.671 265.978 135.591C270.068 131.301 273.845 126.832 277.567 122.224C281.122 117.824 285.274 113.667 288.277 108.85C289.47 106.938 289.686 104.932 288.899 102.82C288.324 101.279 286.94 98.9523 284.963 99.9726C285.712 98.7272 282.82 97.3972 281.943 97.1537C281.93 97.1503 281.757 98.107 281.512 98.0831C281.599 98.0917 280.777 95.9634 280.416 95.6905C279.343 94.8786 278.039 93.9313 276.868 93.2629C275.795 92.65 274.662 92.3463 273.623 91.6604C272.362 90.8293 271.205 89.8435 269.94 89.018C268.719 88.221 267.357 87.2788 266.007 86.7309C264.837 86.2555 263.786 86.1624 262.732 85.3834C261.429 84.4194 260.293 83.7655 258.79 83.1014C257.49 82.5269 255.688 82.0251 254.758 80.9001Z" stroke="white" stroke-opacity="0.9" stroke-width="2" mask="url(#path-3-outside-1)"/>
<path fill-rule="evenodd" clip-rule="evenodd" d="M77.2996 196.32C77.5387 195.759 77.7769 195.197 78.016 194.636C78.3114 195.615 78.3943 196.102 77.2996 196.32ZM77.6177 198.915C77.0998 199.007 77.3039 197.382 77.3039 197.099C78.1983 197.605 77.4576 198.213 77.6177 198.915ZM76.8103 194.226C77.2518 193.965 77.6932 193.705 78.1347 193.444C77.5199 194.583 77.7611 193.871 78.0147 194.632C77.5511 194.766 77.1002 194.61 76.8103 194.226ZM74.194 203.132C72.5392 209.138 67.2831 213.875 61.7316 216.329C58.5415 217.738 55.4052 218.091 51.9602 217.934C50.6315 217.873 49.0681 217.442 47.7894 217.522C46.8049 217.584 46.8493 217.627 46.0338 218.46C45.673 217.796 45.9343 217.329 45.2107 216.942C44.3077 216.46 43.9328 217.022 43.485 217.69C42.8988 217.082 42.6588 216.765 41.8993 216.404C41.9232 216.416 41.1722 216.387 41.203 216.396C41.0672 216.355 40.2505 215.829 39.9947 215.734C38.9453 215.34 37.7319 215.178 36.7636 214.613C35.9166 214.12 35.2189 212.735 34.2498 213.799C34.2489 212.02 31.8542 211.283 30.7318 210.351C28.9779 208.896 27.5835 206.741 26.7091 204.656C25.7767 202.433 25.4655 200.302 25.0291 198.011C24.7243 196.41 22.7279 194.096 23.9268 192.481C24.2124 193.158 24.0783 193.852 24.5527 194.466C24.9796 193.643 25.2144 192.722 25.4074 191.821C25.5022 191.38 26.0512 190.085 25.9889 189.701C25.8621 188.914 24.8887 188.871 25.4283 187.907C26.5478 189.125 27.4512 186.986 26.6054 186.133C26.1878 186.604 26.0346 187.139 25.842 187.722C24.7414 185.5 27.7876 186.216 27.1211 184.209C28.2329 183.995 28.872 183.715 29.2947 182.616C29.7648 181.393 29.4189 181.127 30.4863 180.319C30.8535 180.041 31.8918 179.642 32.0818 179.185C32.4494 178.302 31.5139 178.04 32.3332 177.213C32.6099 177.698 33.6884 178.66 34.2788 177.745C34.3971 177.563 33.9006 177.433 34.2617 177.013C34.7967 176.391 35.3953 175.781 36.3 175.912C35.5836 174.12 40.1612 173.978 41.3336 173.556C42.5085 173.132 43.5055 172.854 44.7513 172.756C45.9958 172.658 46.0577 172.293 47.1114 171.544C47.2006 172.616 47.4585 172.38 48.2206 172.569C48.4038 172.255 48.5916 172.22 48.7837 172.463C48.975 172.645 49.209 172.731 49.4848 172.721C49.9032 172.742 50.3779 172.688 50.8164 172.697C51.8458 172.717 52.9076 172.631 53.9173 172.653C54.1777 172.609 54.4211 172.519 54.6491 172.381C54.7443 172.56 54.8399 172.74 54.9347 172.92C55.4696 172.987 55.5111 173.657 56.169 172.924C56.3637 173.856 56.9229 173.371 57.5138 173.624C58.0526 173.855 58.1384 174.224 58.6358 174.482C58.9629 174.747 59.3134 174.782 59.6883 174.587C60.0448 174.852 60.4068 175.109 60.774 175.357C61.4507 175.74 62.2482 175.974 62.9612 176.276C63.4355 176.471 63.9069 176.675 64.3744 176.886C64.3885 177.451 64.6416 177.65 65.1335 177.484C65.5779 177.856 65.703 177.841 66.1342 178.475C67.1111 179.91 67.9778 181.026 69.2116 182.309C74.5744 187.886 76.222 195.772 74.194 203.132ZM75.8399 179.414C73.4187 176.17 69.9916 172.456 66.9121 170.408C65.3512 169.369 63.1601 167.505 61.2513 166.956C60.7987 166.825 60.3304 166.817 59.8855 166.68C59.5418 166.575 59.3548 166.222 58.9629 166.158C58.6888 166.114 58.6585 166.728 58.3673 166.671C57.7585 166.552 57.3725 165.948 56.9426 165.57C56.0191 167.162 55.5179 164.485 54.1619 166.285C52.5481 163.753 48.7568 164.307 46.1798 164.434C45.4156 164.472 45.0565 164.744 44.379 164.946C43.7484 165.133 43.686 165.085 42.9974 165.08C41.2824 165.067 39.7599 165.282 38.1747 166.036C35.5114 167.301 33.0667 169.273 30.5371 170.798C27.7099 172.503 25.1615 174.672 22.9986 177.165C15.1796 186.18 13.0889 199.337 19.3235 209.788C29.2264 226.385 54.7707 228.159 69.2453 216.897C80.4282 208.196 84.684 191.259 75.8399 179.414Z" stroke="white" stroke-opacity="0.9" stroke-width="2" mask="url(#path-3-outside-1)"/>
<path fill-rule="evenodd" clip-rule="evenodd" d="M198.41 132.708C198.132 133.371 195.537 133.147 195.48 132.365C195.395 131.197 198.893 131.555 198.41 132.708ZM201.167 132.274C202.638 132.393 205.054 133.393 206.472 132.789C208.635 131.867 206.363 130.452 205.203 130.03C204.022 129.6 202.263 129.828 201.656 128.593C201.199 127.664 202.328 125.071 200.927 125.487C199.458 125.925 199.885 129.64 197.579 128.387C196.479 127.79 196.928 124.15 195.086 126.01C194.582 126.518 194.538 127.453 193.87 127.832C193.189 128.219 192.334 127.816 191.614 127.849C189.71 127.939 189.103 129.721 191.033 130.428C191.747 130.689 194.439 131.009 192.809 132.177C191.781 132.912 189.498 131.369 188.616 132.649C187.403 134.408 190.652 134.448 191.524 134.974C193.003 135.865 191.782 137.946 191.9 139.428C192.08 141.692 193.395 141.219 193.873 139.303C194.278 137.677 193.776 135.336 196.226 135.982C200.216 137.035 194.007 142.102 196.93 143.399C198.794 144.226 199.058 139.756 199.202 138.987C199.738 136.146 201.333 136.809 203.75 136.896C206.573 136.998 207.254 134.909 204.265 134.31C203.311 134.12 201.999 134.361 201.171 133.753C200.68 133.394 200.007 132.18 201.167 132.274Z" stroke="white" stroke-opacity="0.9" stroke-width="2" mask="url(#path-3-outside-1)"/>
<path fill-rule="evenodd" clip-rule="evenodd" d="M96.9391 225.079C94.6545 224.261 90.8326 224.438 90.2673 227.39C90.0308 228.625 90.4914 229.932 91.3444 230.83C92.3337 231.871 93.9091 231.967 93.825 230.155C93.7665 228.9 92.5732 227.811 94.6712 227.558C95.9768 227.401 97.9078 228.377 97.9727 229.82C98.1196 233.072 92.4925 233.327 90.4188 232.765C86.3031 231.649 87.4213 227.337 90.2476 225.369C90.9777 224.86 93.0727 224.077 93.1683 223.02C93.2956 221.619 91.5639 221.906 90.7151 222.09C84.4762 223.449 83.1164 233.904 89.6354 235.875C92.5958 236.77 96.7649 235.846 98.5491 233.164C100.222 230.649 100.244 226.263 96.9391 225.079Z" stroke="white" stroke-opacity="0.9" stroke-width="2" mask="url(#path-3-outside-1)"/>
<path fill-rule="evenodd" clip-rule="evenodd" d="M14.2169 151.065C12.2666 152.004 10.3163 152.943 8.3665 153.883C7.72181 152.503 6.63269 148.733 4.9975 148.251C2.35046 147.472 4.03603 151.581 4.49285 152.521C4.86814 153.293 5.73867 154.489 5.52734 155.409C5.24385 156.648 3.49595 157.087 2.58101 157.726C0.316941 159.309 0.334868 162.633 3.61378 161.225C5.46927 160.427 7.76664 158.216 9.18878 160.727C9.84542 161.885 11.4012 168.357 13.0261 164.124C14.0316 161.504 9.1922 158.782 11.578 156.565C12.346 155.852 13.2452 155.792 14.0124 155.382C15.8653 154.391 14.8206 152.561 14.2169 151.065Z" stroke="white" stroke-opacity="0.9" stroke-width="2" mask="url(#path-3-outside-1)"/>
<path fill-rule="evenodd" clip-rule="evenodd" d="M300.133 57.3C298.971 56.8746 297.532 56.0439 296.24 56.327C294.866 56.6277 294.313 58.0038 293.315 58.8311C290.6 61.0806 289.019 57.7279 287.527 55.8905C286.118 54.1557 284.399 53.7345 282.411 54.8006C281.619 55.2255 278.283 57.1727 278.865 58.4202C279.283 59.318 280.931 58.5121 281.494 58.316C282.714 57.8911 283.848 57.5191 285.096 58.1388C287.438 59.3005 288.046 62.4862 290.879 62.9829C293.808 63.4967 293.904 60.7078 295.995 59.658C297.397 58.9545 298.373 60.2 299.725 59.9518C301.014 59.7156 301.61 57.8398 300.133 57.3Z" stroke="white" stroke-opacity="0.9" stroke-width="2" mask="url(#path-3-outside-1)"/>
<path fill-rule="evenodd" clip-rule="evenodd" d="M276.481 68.5399C277.517 68.765 278.194 66.7546 278.842 66.2447C279.918 65.3994 281.783 65.229 282.879 66.0798C285.018 67.7404 284.281 71.3254 287.327 72.2599C290.05 73.0953 291.332 69.5081 293.624 68.6151C294.957 68.0957 296.419 67.7557 295.899 65.8923C295.54 64.6038 294.482 64.2728 293.332 64.7678C291.355 65.6177 290.684 69.0802 288.341 69.1421C285.916 69.2062 285.653 65.7095 284.612 64.1865C283.025 61.8652 279.763 61.3044 277.909 63.5241C277.349 64.1937 274.508 68.1124 276.481 68.5399Z" stroke="white" stroke-opacity="0.9" stroke-width="2" mask="url(#path-3-outside-1)"/>
<path fill-rule="evenodd" clip-rule="evenodd" d="M228.554 28.9009C229.996 29.8875 232.868 29.8534 234.196 28.6297C235.547 27.3847 233.743 27.1934 232.643 27.2314C231.796 27.2609 230.211 27.6807 230.694 26.2179C231.122 24.92 233.476 25.5807 233.672 24.1559C231.901 23.8381 229.95 23.9526 228.639 25.3453C227.692 26.352 227.205 27.9771 228.554 28.9009Z" stroke="white" stroke-opacity="0.9" stroke-width="2" mask="url(#path-3-outside-1)"/>
</svg>
