<svg width="426" height="389" viewBox="0 0 426 389" fill="none" xmlns="http://www.w3.org/2000/svg">
<path d="M172.604 318C163.632 354.736 130.5 382 91 382C44.6081 382 7 344.392 7 298C7 251.608 44.6081 214 91 214H339C383.535 216.088 419 252.949 419 298C419 344.392 381.392 382 335 382C295.5 382 262.368 354.736 253.396 318H172.604Z" fill="#967FE8"/>
<path d="M155 298C155 333.346 126.346 362 91 362C55.6538 362 27 333.346 27 298C27 262.654 55.6538 234 91 234C126.346 234 155 262.654 155 298Z" fill="#523F94"/>
<path fill-rule="evenodd" clip-rule="evenodd" d="M162 298C162 337.212 130.212 369 91 369C51.7878 369 20 337.212 20 298C20 258.788 51.7878 227 91 227C130.212 227 162 258.788 162 298ZM91 362C126.346 362 155 333.346 155 298C155 262.654 126.346 234 91 234C55.6538 234 27 262.654 27 298C27 333.346 55.6538 362 91 362Z" fill="white" fill-opacity="0.9"/>
<path d="M399 298C399 333.346 370.346 362 335 362C299.654 362 271 333.346 271 298C271 262.654 299.654 234 335 234C370.346 234 399 262.654 399 298Z" fill="#523F94"/>
<path fill-rule="evenodd" clip-rule="evenodd" d="M406 298C406 337.212 374.212 369 335 369C295.788 369 264 337.212 264 298C264 258.788 295.788 227 335 227C374.212 227 406 258.788 406 298ZM335 362C370.346 362 399 333.346 399 298C399 262.654 370.346 234 335 234C299.654 234 271 262.654 271 298C271 333.346 299.654 362 335 362Z" fill="white" fill-opacity="0.9"/>
<path d="M87 269C82.5817 269 79 272.582 79 277V286H70C65.5817 286 62 289.582 62 294V302C62 306.418 65.5817 310 70 310H79V319C79 323.418 82.5817 327 87 327H95C99.4183 327 103 323.418 103 319V310H112C116.418 310 120 306.418 120 302V294C120 289.582 116.418 286 112 286H103V277C103 272.582 99.4183 269 95 269H87Z" fill="#967FE8"/>
<path fill-rule="evenodd" clip-rule="evenodd" d="M72 277C72 268.716 78.7157 262 87 262H95C103.284 262 110 268.716 110 277V279H112C120.284 279 127 285.716 127 294V302C127 310.284 120.284 317 112 317H110V319C110 327.284 103.284 334 95 334H87C78.7157 334 72 327.284 72 319V317H70C61.7157 317 55 310.284 55 302V294C55 285.716 61.7157 279 70 279H72V277ZM79 277C79 272.582 82.5817 269 87 269H95C99.4183 269 103 272.582 103 277V286H112C116.418 286 120 289.582 120 294V302C120 306.418 116.418 310 112 310H103V319C103 323.418 99.4183 327 95 327H87C82.5817 327 79 323.418 79 319V310H70C65.5817 310 62 306.418 62 302V294C62 289.582 65.5817 286 70 286H79V277Z" fill="white" fill-opacity="0.9"/>
<path d="M347 269C347 275.627 341.627 281 335 281C328.373 281 323 275.627 323 269C323 262.373 328.373 257 335 257C341.627 257 347 262.373 347 269Z" fill="#967FE8"/>
<path fill-rule="evenodd" clip-rule="evenodd" d="M354 269C354 279.493 345.493 288 335 288C324.507 288 316 279.493 316 269C316 258.507 324.507 250 335 250C345.493 250 354 258.507 354 269ZM335 281C341.627 281 347 275.627 347 269C347 262.373 341.627 257 335 257C328.373 257 323 262.373 323 269C323 275.627 328.373 281 335 281Z" fill="white" fill-opacity="0.9"/>
<path d="M347 327C347 333.627 341.627 339 335 339C328.373 339 323 333.627 323 327C323 320.373 328.373 315 335 315C341.627 315 347 320.373 347 327Z" fill="#967FE8"/>
<path fill-rule="evenodd" clip-rule="evenodd" d="M354 327C354 337.493 345.493 346 335 346C324.507 346 316 337.493 316 327C316 316.507 324.507 308 335 308C345.493 308 354 316.507 354 327ZM335 339C341.627 339 347 333.627 347 327C347 320.373 341.627 315 335 315C328.373 315 323 320.373 323 327C323 333.627 328.373 339 335 339Z" fill="white" fill-opacity="0.9"/>
<path d="M364 310C357.373 310 352 304.627 352 298C352 291.373 357.373 286 364 286C370.627 286 376 291.373 376 298C376 304.627 370.627 310 364 310Z" fill="#967FE8"/>
<path fill-rule="evenodd" clip-rule="evenodd" d="M364 317C353.507 317 345 308.493 345 298C345 287.507 353.507 279 364 279C374.493 279 383 287.507 383 298C383 308.493 374.493 317 364 317ZM352 298C352 304.627 357.373 310 364 310C370.627 310 376 304.627 376 298C376 291.373 370.627 286 364 286C357.373 286 352 291.373 352 298Z" fill="white" fill-opacity="0.9"/>
<path d="M306 310C299.373 310 294 304.627 294 298C294 291.373 299.373 286 306 286C312.627 286 318 291.373 318 298C318 304.627 312.627 310 306 310Z" fill="#967FE8"/>
<path fill-rule="evenodd" clip-rule="evenodd" d="M306 317C295.507 317 287 308.493 287 298C287 287.507 295.507 279 306 279C316.493 279 325 287.507 325 298C325 308.493 316.493 317 306 317ZM294 298C294 304.627 299.373 310 306 310C312.627 310 318 304.627 318 298C318 291.373 312.627 286 306 286C299.373 286 294 291.373 294 298Z" fill="white" fill-opacity="0.9"/>
<path d="M182 276C182 273.791 183.791 272 186 272H197C199.209 272 201 273.791 201 276C201 278.209 199.209 280 197 280H186C183.791 280 182 278.209 182 276Z" fill="#755EC6"/>
<path fill-rule="evenodd" clip-rule="evenodd" d="M186 265H197C203.075 265 208 269.925 208 276C208 282.075 203.075 287 197 287H186C179.925 287 175 282.075 175 276C175 269.925 179.925 265 186 265ZM186 272C183.791 272 182 273.791 182 276C182 278.209 183.791 280 186 280H197C199.209 280 201 278.209 201 276C201 273.791 199.209 272 197 272H186Z" fill="white" fill-opacity="0.9"/>
<path d="M225 276C225 273.791 226.791 272 229 272H240C242.209 272 244 273.791 244 276C244 278.209 242.209 280 240 280H229C226.791 280 225 278.209 225 276Z" fill="#755EC6"/>
<path fill-rule="evenodd" clip-rule="evenodd" d="M229 265H240C246.075 265 251 269.925 251 276C251 282.075 246.075 287 240 287H229C222.925 287 218 282.075 218 276C218 269.925 222.925 265 229 265ZM229 272C226.791 272 225 273.791 225 276C225 278.209 226.791 280 229 280H240C242.209 280 244 278.209 244 276C244 273.791 242.209 272 240 272H229Z" fill="white" fill-opacity="0.9"/>
<path d="M178 240C178 235.582 181.582 232 186 232H240C244.418 232 248 235.582 248 240C248 244.418 244.418 248 240 248H186C181.582 248 178 244.418 178 240Z" fill="#523F94"/>
<path fill-rule="evenodd" clip-rule="evenodd" d="M218 45.5V0H210V45.5C210 60.964 222.536 73.5 238 73.5H305.5C313.508 73.5 320 79.9919 320 88C320 96.0081 313.508 102.5 305.5 102.5H113.5C99.969 102.5 89 113.469 89 127C89 140.531 99.969 151.5 113.5 151.5H189C200.046 151.5 209 160.454 209 171.5V188.683C204.339 190.33 201 194.775 201 200V207H145.917C145.972 206.675 146 206.341 146 206C146 202.686 143.314 200 140 200H84C80.6863 200 78 202.686 78 206C78 206.656 78.1054 207.288 78.3001 207.879C34.0541 214.058 0 252.052 0 298C0 348.258 40.7421 389 91 389C131.864 389 166.422 362.072 177.926 325H248.074C259.578 362.072 294.136 389 335 389C385.258 389 426 348.258 426 298C426 251.738 391.477 213.444 346.767 207.661C346.919 207.134 347 206.576 347 206C347 202.686 344.314 200 341 200H285C281.686 200 279 202.686 279 206C279 206.341 279.028 206.675 279.083 207H225V200C225 194.775 221.661 190.33 217 188.683V171.5C217 156.036 204.464 143.5 189 143.5H113.5C104.387 143.5 97 136.113 97 127C97 117.887 104.387 110.5 113.5 110.5H305.5C317.926 110.5 328 100.426 328 88C328 75.5736 317.926 65.5 305.5 65.5H238C226.954 65.5 218 56.5457 218 45.5ZM339 214H91C44.6081 214 7 251.608 7 298C7 344.392 44.6081 382 91 382C130.5 382 163.632 354.736 172.604 318H253.396C262.368 354.736 295.5 382 335 382C381.392 382 419 344.392 419 298C419 252.949 383.535 216.088 339 214Z" fill="white" fill-opacity="0.9"/>
</svg>
