<svg width="300" height="230" viewBox="0 0 300 230" fill="none" xmlns="http://www.w3.org/2000/svg">
<path fill-rule="evenodd" clip-rule="evenodd" d="M161.694 59.574C166.624 63.0177 173.227 60.9988 178.016 58.4067C178.304 60.4143 182.056 60.2241 183.4 61.1919C185.518 62.718 187.892 65.4952 189.554 67.5184C193.392 72.1918 195.764 78.7224 197.913 84.3217C200.125 90.0876 202.858 95.0335 208.546 98.2395C210.384 99.2753 212.164 100.664 214.05 101.636C216.305 102.797 218.917 103.365 221.397 103.179C224.352 102.957 226.901 102.865 229.798 102.308C232.893 101.713 236.197 101.09 239.263 101.184C241.539 101.253 243.836 100.79 246.054 100.895C247.416 100.959 248.765 100.844 250.125 100.901C250.663 100.923 251.084 100.919 251.64 100.969C252.957 101.088 252.978 100.945 253.172 102.112C253.4 103.492 252.518 105.733 252.431 107.149C252.33 108.795 252.609 110.42 252.549 112.052C252.481 113.885 251.953 113.717 250.351 114.558C248.798 115.373 247.321 116.158 245.715 116.877C241.115 118.936 236.258 120.952 231.184 121.519C225.096 122.2 218.753 121.478 212.704 121.216C209.333 121.071 205.84 120.492 202.598 119.665C200.046 119.013 195.912 117.691 193.919 115.979C196.199 115.876 195.399 113.851 194.068 112.956C191.642 111.324 190.556 112.108 191.136 114.844C188.281 113.909 185.728 111.642 183.297 109.828C180.171 107.496 175.533 103.991 175.348 99.7941C175.139 95.0623 169.566 85.5115 170.146 90.4912C170.667 94.9667 172.624 101.017 170.146 105.209C170.038 102.696 165.559 98.5658 163.45 97.8578C159.701 96.5993 155.248 96.7941 151.342 97.0341C144.104 97.4785 136.845 98.9016 129.902 100.82C122.896 102.755 115.398 105.268 109.58 109.862C108.864 110.429 108.194 111.367 107.465 111.855C107.21 112.025 106.448 111.928 106.086 112.117C105.121 112.617 106.584 112.702 104.999 112.819C104.656 112.844 103.755 112.476 103.521 112.37C99.6862 110.629 99.9035 105.973 100.133 102.405C100.658 94.2067 103.305 85.9347 106.539 78.4512C109.432 71.7577 113.377 64.5819 119.097 59.8949C121.6 57.8448 124.085 55.4399 126.967 53.9786C128.062 53.424 130.031 52.5558 129.6 50.897C129.139 49.1264 127.045 49.9887 125.574 49.9176C117.929 49.5496 111.765 46.3306 105.978 41.4372C100.046 36.4223 93.8133 34.7283 86.4503 32.8329C84.3304 32.2873 69.7532 28.7842 67.6615 28.8024C65.3471 28.8227 63.042 28.8984 60.73 28.9422C59.3558 28.9681 57.9799 28.9651 56.604 29.0753C55.4962 29.1642 54.2757 29.6222 53.1722 29.5034C52.1378 29.3925 52.2188 29.6992 51.7104 28.9305C51.3523 28.3899 51.4489 27.2698 51.3454 26.611C51.2551 26.0358 51.1645 25.4603 51.0739 24.8848C50.7885 23.0694 49.4541 22.1407 50.9252 21.4069C53.086 20.3286 57.5378 19.3507 59.9017 18.9178C62.1646 18.5036 74.9753 15.4371 79.2583 14.6032C81.3915 14.1878 107.223 13.2257 108.187 13.2191C117.467 13.1553 137.259 18.2673 141.705 22.3531C146.151 26.4394 146.156 29.4025 148.077 31.0556C150.224 32.9026 153.131 35.1996 154.641 37.5939C155.662 39.2125 156.054 43.4952 158.142 44.1255C156.626 48.98 157.172 56.4157 161.694 59.574Z" fill="#755EC6"/>
<path fill-rule="evenodd" clip-rule="evenodd" d="M24.6551 44.5818C25.2438 44.7179 25.5289 44.4836 25.6307 43.8752C25.2451 44.1547 24.9501 44.3681 24.6551 44.5818ZM32.3635 188.72C31.8415 188.749 32.3582 190.072 32.4249 190.066C32.4043 189.617 32.3841 189.169 32.3635 188.72ZM174.74 25.0521C175.421 25.1662 179.252 26.214 177.962 24.077C177.269 22.9286 175.871 25.0527 174.74 25.0521ZM162.081 50.8887C160.132 51.9674 166.145 55.7755 167.006 56.0141C167.846 56.2471 174.183 57.0874 174.259 55.6918C172.047 55.2023 169.826 55.4977 167.658 54.8442C165.007 54.044 163.983 52.7271 162.081 50.8887ZM256.855 109.697C256.972 107.96 257.042 106.274 257.395 104.564C257.468 104.209 258.065 102.573 257.933 102.36C257.724 102.026 256.136 101.748 255.807 101.636C255.555 105.038 255.268 108.428 254.796 111.809C255.906 111.426 255.616 109.899 256.855 109.697ZM49.5693 30.0291C49.5693 28.1678 49.0732 25.3982 48.7022 23.5917C48.3989 22.1152 47.3177 20.6784 46.6994 19.1931C46.507 20.2155 45.8313 21.7773 46.0473 22.8198C46.3297 24.1792 46.9735 23.9558 46.9735 25.6289C46.9735 26.6461 46.8053 27.8048 46.9905 28.8054C47.3542 30.7762 47.9376 30.4609 49.5693 30.0291ZM192.8 15.6675C190.569 14.4312 186.754 16.7826 184.754 17.864C182.379 19.1479 179.99 22.5994 179.027 25.1062C179.97 25.0013 180.768 24.9837 181.454 24.4756C181.807 24.214 182.179 23.4749 182.512 23.1264C183.373 22.2267 184.456 21.389 185.4 20.5704C187.649 18.6197 190.081 16.8934 192.8 15.6675ZM205.99 46.83C207.843 46.5038 209.979 45.6624 210.51 43.5749C211.022 41.5573 209.544 40.5805 207.737 40.3296C203.59 39.7531 200.786 45.7696 205.99 46.83ZM191.522 40.6041C193.566 42.0312 195.801 41.851 197.825 40.256C199.445 38.9792 201.028 36.796 199.191 35.2351C196.239 32.7274 192.01 37.8587 191.522 40.6041ZM279.693 198.551C278.414 198.629 276.35 199.967 275.228 200.626C273.82 201.452 272.339 202.324 270.977 203.086C268.15 204.668 264.975 206.443 261.842 207.63C258.769 208.793 255.671 210.256 252.534 211.632C251.191 212.22 249.313 212.908 247.791 212.748C246.398 212.602 244.936 211.17 243.688 210.543C241.75 209.568 240.49 208.304 238.942 206.745C238.268 206.066 236.551 203.213 235.64 203.106C234.862 203.015 232.736 204.717 232.128 205.082C231.189 205.647 229.772 206.574 228.88 207.284C227.997 207.987 227.948 207.47 227.886 208.393C227.845 209.021 229.284 210.252 229.728 210.758C231.218 212.458 232.775 214.121 234.183 215.894C235.392 217.416 236.518 219.051 237.557 220.695C238.564 222.291 240.431 224.137 240.837 226.002C243.181 223.707 245.483 224.826 248.429 224.135C249.704 223.835 250.838 223.128 252.032 222.709C253.028 222.36 254.098 222.246 255.123 222.019C259.67 221.015 264.082 219.05 268.335 217.293C269.328 216.883 270.152 216.098 271.112 215.623C272.14 215.115 273.263 214.946 274.3 214.478C276.968 213.275 279.673 212.01 282.31 210.723C285.14 209.341 288.121 208.147 290.898 206.689C292.575 205.808 295.829 204.23 296.604 202.365C294.751 202.697 293.195 203.753 291.479 204.287C288.453 205.228 288.601 202.379 288.601 200.208C287.588 200.208 285.554 201.66 284.585 202.111C283.333 202.693 281.691 204.232 280.301 204.336C276.861 204.592 278.523 200.067 279.693 198.551ZM158.185 44.0876C156.263 43.5078 155.879 39.8348 155.065 38.3161C153.865 36.0755 151.565 34.261 149.73 32.5103C148.043 30.9 146.236 29.5376 144.342 28.1854C142.403 26.8001 141.061 24.9777 139.278 23.45C131.829 17.0709 122.733 14.9112 113.12 14.5778C103.463 14.2429 93.7165 15.3096 84.0136 15.9297C82.7771 16.0087 81.672 16.0434 80.4385 16.252C80.1421 16.1625 79.8461 16.073 79.5498 15.9836L78.8635 16.4777C78.3879 16.5477 77.7113 16.6205 77.2732 16.7055C75.0123 17.1439 72.7523 17.7272 70.492 18.2384C65.7013 19.3215 61.0689 20.3172 56.2404 21.3292C55.0891 21.5702 52.2886 21.7255 51.3856 22.456C50.685 23.0229 50.9469 23.2459 51.1105 24.2874C51.2612 25.2449 51.4112 26.2024 51.5621 27.1602C51.8545 29.0191 51.7277 29.661 53.7375 29.4685C55.4655 29.3029 57.15 28.9966 58.8972 28.9173C61.4094 28.8028 63.963 28.6567 66.4755 28.7065C68.9648 28.756 71.8324 28.3428 74.2692 28.9813C73.5179 27.4065 73.0755 22.6362 75.0693 25.9372C76.0062 27.4891 75.7742 29.3909 77.7889 29.9448C79.4316 30.3962 81.2187 30.66 82.9121 31.0885C89.5865 32.7785 96.5436 33.9431 102.238 38.3426C107.818 42.6549 112.898 47.6186 120.041 49.1928C121.754 49.5704 123.837 49.7902 125.642 49.8771C126.692 49.9279 128.781 49.2913 129.495 50.2405C131.228 52.5439 124.807 55.2537 123.52 56.4014C120.904 58.7343 117.947 60.5573 115.681 63.2802C113.314 66.1255 111.279 69.226 109.535 72.4712C105.612 79.7718 102.842 87.5131 101.231 95.6385C100.469 99.4851 99.6073 103.891 100.293 107.827C100.569 109.415 101.459 110.996 102.828 111.901C103.274 112.196 103.831 112.4 104.346 112.554C104.832 112.714 105.331 112.808 105.842 112.837C105.899 112.55 106.008 112.285 106.169 112.042C106.531 111.854 107.292 111.951 107.547 111.781C108.276 111.293 108.944 110.355 109.661 109.789C110.904 108.807 112.247 107.874 113.616 107.08C117.066 105.08 120.823 103.904 124.516 102.646C132.117 100.056 140.079 97.9332 148.15 97.1426C152.409 96.7254 157.196 96.4689 161.418 97.2594C164.139 97.7692 169.663 100.16 169.805 103.465C172.273 99.2883 170.708 94.8934 170.179 90.4288C169.586 85.4385 168.57 80.7253 170.245 75.8001C171.385 72.45 173.345 68.0299 176.677 66.3186C177.87 65.706 180.417 66.0757 179.533 68.1005C179.511 68.1527 177.849 69.0985 177.613 69.374C176.804 70.3156 176.192 71.5462 175.589 72.6269C170.8 81.2218 175.062 90.6057 175.376 99.7267C175.521 103.938 180.201 107.427 183.319 109.755C185.742 111.565 188.305 113.835 191.153 114.768C190.572 112.033 191.658 111.251 194.082 112.882C195.412 113.776 196.212 115.8 193.933 115.902C195.729 117.447 199.399 118.643 201.683 119.238C204.358 119.934 207.096 120.554 209.883 120.949C215.448 121.736 221.115 121.486 226.71 121.544C232.472 121.603 237.279 120.064 242.572 118.066C245.001 117.148 247.285 116.087 249.596 114.882C250.379 114.473 252.157 113.998 252.588 113.104C253.143 111.951 252.313 108.961 252.363 107.643C252.415 106.239 253.457 103.322 253.139 102.044C252.835 100.82 253.605 101.68 252.362 101.068C252.026 100.902 251.272 100.816 250.861 100.77C248.559 100.51 245.838 100.724 243.601 101.012C241.039 101.342 238.664 100.897 236.173 101.191C232.715 101.6 229.166 102.213 225.826 103.203C220.554 104.766 215.676 104.655 210.965 101.665C208.972 100.4 206.625 99.1024 204.917 97.3716C202.621 95.0451 200.939 91.7331 199.643 88.7627C196.791 82.2278 194.714 75.3673 190.81 69.3385C189.136 66.7547 186.809 64.6522 184.66 62.4524C183.644 61.412 183.059 60.8126 181.667 60.3648C180.544 60.0038 178.262 59.8932 178.043 58.3616C173.257 60.9526 166.66 62.9675 161.733 59.5278C157.216 56.3745 156.67 48.9349 158.185 44.0876ZM157.936 106.533C151.699 107.221 145.66 107.737 139.526 109.157C133.338 110.59 126.883 112.774 121.009 114.93C118.705 115.776 115.785 116.373 113.699 117.683C112.151 118.654 112.344 118.618 113.455 120.408C114.199 121.608 114.825 122.949 115.621 124.1C118.856 128.78 123.287 132.782 127.006 137.028C131.114 141.718 135.927 146.362 140.635 150.471C145.163 154.424 149.628 158.659 154.443 162.21C164.478 169.613 174.641 176.914 185.071 183.75C190.863 187.547 196.517 191.437 202.325 195.261C205.345 197.249 208.162 199.445 211.371 201.106C214.681 202.819 218.726 205.219 221.451 207.75C223.354 204.386 227.376 202.208 230.386 200.032C230.988 199.597 231.634 199.01 232.21 198.523C233.305 197.596 233.361 197.75 232.775 196.689C232.131 195.523 230.375 194.583 229.455 193.618C228.614 192.735 228.058 191.84 227.294 190.896C224.754 187.754 221.481 185.145 218.637 182.287C215.898 179.536 213.353 176.742 210.677 173.812C209.351 172.361 207.845 171.317 206.574 169.848C204.809 167.809 203.069 165.721 201.326 163.661C198.199 159.964 195.571 156.041 192.528 152.326C186.992 145.565 182.792 137.923 177.945 130.671C174.971 126.221 171.293 122.066 168.589 117.439C167.1 114.891 165.665 112.351 164.598 109.567C163.99 107.98 164.137 107.857 162.653 107.393C161.221 106.945 159.414 106.634 157.936 106.533ZM80.4531 171.459C83.6104 171.154 86.8583 172.203 89.9223 172.332C92.9014 172.458 95.9489 172.782 98.9333 172.586C102.209 172.371 105.503 172.377 108.766 172.479C112.303 172.589 115.672 172.016 119.08 171.516C122.527 171.01 126.28 169.443 129.649 168.44C131.642 167.847 133.559 167.078 135.561 166.518C137.586 165.953 139.2 164.609 141.045 163.577C142.304 162.874 144.974 162.021 144.415 160.574C143.918 159.288 140.607 157.357 139.525 156.422C136.322 153.659 133.076 150.916 130.109 147.883C123.817 141.45 117.821 135.033 112.505 127.772C111.243 131.346 109.848 134.971 107.056 137.691C104.685 140.002 101.951 141.983 99.4171 144.088C94.4967 148.174 88.5763 151.086 82.6991 153.44C79.7907 154.605 76.9788 155.352 74.0482 156.382C72.6607 156.87 71.1836 156.775 69.8827 157.081C67.9118 157.545 65.8526 158.504 63.8562 159.067C61.042 159.862 58.197 160.419 55.2547 160.166C51.4254 159.837 48.2419 157.959 44.7547 156.601C44.9363 157.958 43.8942 162.767 44.6665 163.782C45.0946 164.345 47.8341 164.576 48.6829 164.766C52.1462 165.539 55.8328 166.006 59.2928 166.455C62.9622 166.93 66.4231 168.746 70.0032 169.592C73.3818 170.389 77.1139 171.132 80.4531 171.459ZM18.7938 191.251C19.0145 193.825 19.3361 197.717 21.4201 199.569C22.2183 197.631 21.7756 195.013 22.1286 192.948C22.339 191.719 22.6244 190.508 22.9215 189.297C23.09 188.61 23.1936 186.628 23.5527 186.229C26.1305 183.362 26.6525 191.895 26.9446 192.887C27.8983 190.586 27.5837 188.031 28.431 185.783C29.4445 183.094 31.0288 185.258 31.8929 186.946C32.1478 183.234 30.6893 179.491 30.7407 175.707C30.7965 171.672 31.4824 168.988 34.5727 166.271C36.0504 164.972 39.9969 163.382 40.7077 161.748C40.8289 161.471 40.798 159.423 40.719 159.137C40.3875 157.937 40.5113 158.184 39.0541 157.834C37.7771 157.527 36.5887 157.115 35.2968 156.923C31.7771 156.402 29.0652 156.328 26.0824 158.52C22.9802 160.799 21.5058 164.855 20.6781 168.496C18.9876 175.932 18.2084 183.642 18.7938 191.251ZM262.449 109.124C267.72 108.451 272.939 106.294 278.138 105.936C281.264 105.72 284.75 105.004 287.812 104.348C289.826 103.916 294.034 103.561 295.158 101.613C293.8 102.031 292.009 102.983 290.589 103.02C289.546 103.048 289.183 103.245 288.976 101.812C288.877 101.127 289.1 100.304 289.516 99.7652C290.233 98.8376 291.767 98.3835 292.809 97.7931C294.213 96.9979 295.519 96.1466 296.842 95.221C296.439 94.22 290.802 96.2272 289.919 96.5445C288.825 96.9378 287.715 97.3195 286.665 97.8213C285.976 98.1506 284.781 99.2136 284.003 99.1851C282.035 99.114 282.212 96.7387 283.165 95.374C284.516 93.4414 287.209 92.0026 289.023 90.4998C287.084 90.5825 285.322 91.7159 283.54 92.3942C281.571 93.1437 279.575 93.9953 277.648 94.8316C272.919 96.8851 267.882 98.2923 263.073 100.273C264.519 102.739 262.876 103.953 260.514 103.046C260.159 105.126 260.02 107.245 260.02 109.35C260.829 109.274 261.639 109.199 262.449 109.124ZM43.3049 25.1938C43.3314 24.7384 43.6762 22.5161 43.2674 22.1314C43.1243 21.997 40.8245 22.3209 40.5982 22.3541C39.1022 22.5738 37.8664 23.1337 36.4656 23.7305C33.0375 25.1911 29.5709 26.5087 26.1494 27.979C19.7436 30.7317 13.3985 33.2882 7.4182 36.8673C11.8622 36.4916 16.4084 35.2039 20.4548 33.3277C22.1661 32.5345 28.5899 27.1994 28.7791 31.8412C28.8627 33.8956 27.0939 34.6261 25.6006 35.6158C23.772 36.8275 21.9796 38.029 20.2815 39.4159C19.3785 40.1541 12.1792 44.996 12.5276 45.771C14.3562 45.3335 16.3221 43.9532 17.9326 42.9907C19.725 41.9187 21.6053 40.9659 23.4561 39.9921C24.4656 39.4604 26.7687 37.6144 27.8781 38.4216C29.7999 39.8202 27.1659 42.4192 26.3004 43.3754C27.9826 43.2008 30.2366 40.7515 31.5455 39.7306C33.2004 38.4392 34.9407 37.2859 36.6206 36.0151C38.3764 34.6868 40.2149 33.4412 41.9973 32.1452C43.6623 30.9351 43.3925 30.9418 43.2295 28.9478C43.127 27.6956 43.2328 26.444 43.3049 25.1938ZM116.114 110.585C118.28 110.363 120.221 109.03 122.301 108.612C124.35 108.201 126.284 107.06 128.299 106.413C130.95 105.562 133.632 104.932 136.37 104.451C138.668 104.048 140.885 103.174 143.186 102.907C147.931 102.355 152.463 101.718 157.241 102.397C159.607 102.734 161.678 103.23 163.794 104.361C166.148 105.619 166.38 105.557 168.908 104.444C168.117 102.317 165.119 100.905 163.107 100.471C160.076 99.819 156.899 100.113 153.812 100.216C148.481 100.394 142.947 101.552 137.839 102.988C128.048 105.74 118.637 108.946 109.638 113.531C110.399 114.577 111.202 113.306 112.084 112.768C113.373 111.982 114.799 111.348 116.114 110.585ZM199.412 31.1867C197.704 30.8492 195.996 30.7131 194.291 30.3072C192.136 29.7938 191.192 30.5747 189.186 31.5777C189.989 31.9434 191.012 32.5767 191.866 32.7974C193.37 33.1867 192.866 32.8721 194.296 32.2999C195.564 31.7918 197.951 31.5873 199.256 31.8525C202.75 32.5617 202.19 36.6875 201.855 39.4375C203.577 38.6005 203.795 37.0253 204.407 35.4223C205.07 33.6872 205.783 32.1117 206.293 30.3079C204.113 30.8784 201.677 31.2106 199.412 31.1867ZM226.843 96.5568C233.043 94.2419 240.006 94.833 246.383 94.2933C248.838 94.0856 252.23 94.4576 254.646 95.2442C255.803 95.6209 257.106 95.897 258.204 96.4071C258.793 96.6813 259.27 97.3394 259.876 97.5429C261.062 97.9405 261.001 97.7072 262.273 97.0098C263.388 96.3985 264.512 95.8157 265.658 95.2654C272.591 91.9392 279.587 88.9897 286.722 86.2158C288.574 85.4956 290.416 85.0104 292.32 84.3821C293.522 83.9855 295.623 83.1763 296.917 83.5879C301.425 85.0216 294.866 90.4082 293.388 91.7955C295.227 91.7096 298.605 90.8513 299.67 92.8974C300.111 93.746 299.956 94.987 299.561 95.8359C299.271 96.4576 298.64 96.8164 298.321 97.4031C297.721 98.5097 297.952 98.112 298.043 99.2202C298.296 102.297 297.694 103.66 295.131 105.633C292.707 107.499 289.574 108.294 286.684 109.111C281.63 110.54 276.328 110.944 271.209 112.177C268.802 112.757 266.289 113.132 263.875 113.57C261.195 114.056 258.041 113.679 255.772 115.168C251.237 118.142 247.078 121.855 242.044 124.006C237.602 125.906 233.46 126.835 228.687 127.655C224.193 128.426 219.539 127.878 215.2 127.989C210.125 128.119 205.418 127.772 200.581 126.309C195.662 124.822 190.916 122.918 186.731 120.074C184.366 118.466 182.012 116.917 179.788 115.107C177.074 112.899 175.227 110.284 173.197 107.447C172.032 108.705 171.1 109.403 169.574 110.208C174.233 115.326 178.166 121.264 182.587 126.593C184.43 128.815 185.958 131.209 187.705 133.478C189.435 135.723 190.584 138.501 192.483 140.59C194.255 142.54 195.455 144.799 196.958 146.963C198.8 149.616 201.279 151.937 203.241 154.519C205.265 157.185 207.336 159.813 209.535 162.313C211.573 164.629 213.741 166.911 215.647 169.318C219.525 174.214 224.119 178.639 228.529 183.061C229.433 183.967 230.425 184.845 231.228 185.844C231.82 186.581 232.395 187.069 233.108 187.836C233.705 188.478 234.434 189.602 234.922 190.379C235.784 191.751 236.3 192.353 237.432 193.539C238.178 194.321 239.667 195.879 239.348 197.093C239.152 197.838 238.25 197.864 237.996 198.486C237.855 198.833 238.147 199.275 238.136 199.623C238.083 201.332 238.911 201.805 240.274 203.057C241.647 204.32 243.42 205.329 245.037 206.27C246.257 206.981 247.521 207.945 248.872 207.298C249.811 206.847 250.786 205.988 251.773 205.479C254.272 204.189 256.972 203.031 259.52 201.992C265.216 199.668 270.925 197.139 276.392 194.163C279.476 192.484 282.84 190.821 286.236 190.011C287.765 189.646 289.379 188.729 290.505 190.091C291.622 191.442 290.902 193.284 290.275 194.65C291.856 194.422 293.953 193.976 294.977 195.543C295.364 196.137 295.113 197.704 295.536 198.049C295.723 198.201 297.233 197.869 297.532 197.948C301.387 198.963 300.043 204.676 298.103 206.828C293.673 211.745 287.064 214.169 281.298 217.001C279.789 217.742 278.261 218.376 276.706 218.985C274.715 219.766 272.893 220.752 270.871 221.481C267.504 222.695 264.249 224.459 260.967 225.799C257.615 227.169 253.884 227.852 250.363 228.867C247.377 229.728 241.038 231.694 240.974 226.868C238.154 229.063 234.55 221.896 233.115 220.203C231.82 218.677 230.533 217.126 229.305 215.546C228.184 214.103 227.082 210.595 225.614 209.654C224.716 209.08 223.723 210.23 222.342 210.504C219.946 210.98 218.758 210.305 216.737 209.191C213.033 207.152 209.619 204.643 205.822 202.768C202.063 200.912 198.855 198.219 195.33 195.963C191.952 193.801 188.297 191.999 185.125 189.598C178.906 184.888 171.673 181.635 165.837 176.404C162.829 173.707 159.299 171.461 156.089 168.961C154.626 167.822 153.079 166.852 151.56 165.798C150.704 165.205 149.882 164.322 148.946 163.871C148.016 163.423 148.489 163.247 147.62 163.586C147.124 163.779 146.556 164.677 146.148 165.039C140.12 170.396 133.311 172.929 125.702 175.319C123.98 175.86 122.376 176.448 120.628 176.906C118.961 177.343 117.74 178.094 115.925 178.357C112.576 178.841 109.278 178.867 105.906 178.887C102.585 178.907 99.1686 178.957 95.9439 179.245C92.6256 179.541 89.1743 178.972 85.9171 178.702C84.2684 178.566 82.565 178.322 80.913 178.071C79.3025 177.826 77.9426 178.137 76.3576 177.964C71.9024 177.477 67.9367 176.468 63.6919 175.015C59.8185 173.689 55.8627 173.449 51.9435 172.343C49.8601 171.754 47.5002 171.27 45.5801 170.285C44.4896 169.725 42.8841 167.713 42.3929 169.139C41.8108 168.388 41.4398 167.498 41.5032 166.533C40.0125 166.898 39.2585 168.824 38.165 169.833C36.9528 170.951 35.7594 171.684 34.9331 173.198C33.0843 176.585 34.2853 181.213 35.014 184.767C35.778 188.493 36.4682 192.709 36.0269 196.513C35.8659 197.899 35.4986 199.927 33.7928 200.018C32.0569 200.111 31.0404 197.385 30.4258 196.19C29.097 199.357 27.3534 200.473 24.8303 197.776C24.3504 199.573 25.6427 206.832 22.0387 205.991C19.3367 205.361 17.0837 199.449 16.28 197.227C13.6344 189.913 14.0506 181.516 14.9665 173.913C15.8549 166.539 16.6792 158.426 22.6553 153.14C25.2411 150.852 27.7639 150.477 31.0424 150.561C34.3361 150.646 38.9622 152.119 41.1574 154.635C41.7013 153.704 40.6102 152.695 41.0485 151.732C41.6343 150.445 42.8582 150.983 44.0442 151.275C46.7247 151.933 49.2149 153.16 51.9747 153.624C53.3877 153.862 54.8429 153.79 56.257 153.933C57.5011 154.06 57.8323 153.74 58.9122 153.549C59.7634 153.399 61.0556 153.612 61.8591 153.333C62.1949 153.216 62.7561 152.611 63.1745 152.406C63.8575 152.071 64.8793 151.919 65.6286 151.812C70.1382 151.17 74.4494 149.427 78.8157 147.942C84.1214 146.137 89.2739 144.398 93.9793 141.192C98.2865 138.257 102.924 135.363 106.482 131.524C108.077 129.803 109.001 127.826 109.864 125.684C110.624 123.803 109.643 123.561 108.723 121.814C107.914 120.279 107.771 118.831 106.378 117.903C104.341 116.549 101.932 116.288 99.9312 114.699C97.4711 112.745 97.5557 109.633 97.0141 106.657C95.9067 100.572 96.7968 93.227 98.3067 87.2941C99.9653 80.7771 102.391 74.4732 105.658 68.601C108.739 63.0651 112.904 58.9125 117.38 54.5644C116.254 53.7821 114.312 53.6656 112.971 53.0653C111.014 52.1884 109.412 50.8881 107.706 49.68C104.52 47.4241 101.634 44.9572 98.2141 43.0564C95.0379 41.2905 91.6875 39.7959 88.3009 38.6559C86.5828 38.0774 84.5462 38.2241 82.7472 37.7442C81.3434 37.3695 79.7485 37.1408 78.3889 36.6403C77.6874 36.3825 77.0721 35.8156 76.3493 35.6546C68.4899 33.9082 59.7902 34.256 51.6295 34.2116C49.8866 34.2019 47.1036 33.6912 45.4855 34.4499C43.7967 35.2418 41.9038 37.1933 40.3918 38.3137C36.8316 40.9506 33.071 43.2396 29.614 45.9953C25.5202 49.2578 21.3388 52.4917 17.0957 55.566C15.6398 56.6205 12.9831 59.1754 11.7956 56.5866C10.7772 54.3653 12.8266 52.1363 13.5727 50.2429C11.4745 51.444 7.09169 54.7758 5.99768 50.9219C4.93985 47.1954 8.29501 43.7016 10.494 41.1726C8.02703 41.6761 3.27226 43.0707 1.04098 41.3565C-1.24649 39.5988 0.715958 35.7602 2.34409 34.4117C7.30557 30.3019 13.9251 27.7706 19.8644 25.452C25.8913 23.0992 31.9619 21.3372 38.1455 19.6902C39.4175 19.3511 40.5116 18.2755 41.8317 18.157C43.3526 18.0202 42.7951 19.0162 43.5182 17.3259C43.8328 16.5905 43.7167 15.6918 44.1305 14.9872C46.1426 11.5646 48.7258 16.6797 49.5013 18.4677C53.8015 16.7009 58.1857 15.8665 62.5795 14.5662C66.0518 13.5384 69.6215 12.4161 73.1356 11.423C75.0285 10.8879 76.9427 10.6206 78.8565 10.2675C80.685 9.93018 82.8584 9.38458 84.8044 9.19663C88.1233 8.8755 91.6423 8.56425 94.9145 8.48885C110.896 8.11952 127.887 7.10165 140.835 18.5152C140.835 19.5559 144.169 22.3707 144.991 22.9442C147.283 24.5429 149.316 26.1128 151.441 28.0112C153.738 30.0639 155.576 31.8385 156.938 34.6258C158.111 37.0277 158.398 39.6781 159.024 42.2559C160.694 40.3532 161.208 42.1427 161.53 43.7086C161.875 45.3919 162.287 46.4036 163.362 47.7839C165.659 50.7351 168.676 52.282 172.367 52.6471C173.045 52.7141 175.287 52.9053 175.917 52.6457C177.062 52.1758 176.719 51.8947 177.21 50.6298C177.584 49.666 178.136 48.9608 178.624 48.0683C179.22 47.6432 179.445 47.0753 179.299 46.3647C179.316 46.0521 179.332 45.7391 179.348 45.4265C180.589 44.6973 182.002 48.0564 182.458 48.6624C183.782 50.4204 185.21 50.7188 187.36 50.7188C187.22 49.5426 186.909 49.4762 188.016 48.9385C188.699 48.607 189.678 48.84 190.326 49.1028C192.188 49.8585 192.149 50.2296 194.253 49.3667C195.81 48.7284 197.203 47.8987 198.612 46.989C199.81 46.2147 199.999 46.0829 200.459 44.7292C200.811 43.6933 200.754 42.316 200.886 41.2417C199.465 42.0943 198.632 43.7398 197.073 44.5861C195.491 45.4447 193.583 45.9817 191.861 45.1912C188.277 43.5463 189.288 38.9974 190.345 36.1116C188.706 35.8305 186.991 34.8558 185.944 33.5713C185.238 32.7064 184.728 31.6285 183.974 30.6404C182.254 28.3882 177.807 27.8489 176.964 31.2886C176.535 33.0397 177.554 33.6649 179.16 33.8876C181.072 34.1525 181.537 33.6819 180.841 35.9414C180.074 36.3363 179.836 36.9513 180.127 37.7864C180.079 38.0642 180.031 38.3416 179.984 38.6197C179.809 39.3197 179.436 39.8607 179.233 40.5331C178.655 42.4395 178.555 42.9615 176.399 43.5423C172.618 44.5619 168.227 45.0936 164.33 45.4278C163.033 45.5387 161.659 45.525 162.089 43.7644C162.443 42.3107 164.857 41.8185 166.081 41.3701C167.499 40.85 170.119 40.6081 171.333 39.8577C172.628 39.0578 172.504 37.6051 172.214 36.0605C171.852 34.1329 171.484 32.6663 171.543 30.5946C171.607 28.3262 172.423 27.5031 173.774 25.7072C170.212 26.6959 166.234 29.2823 162.536 29.2774C157.614 29.2704 158.526 24.2101 159.508 20.8822C157.709 21.1862 154.919 21.9369 154.037 19.6854C153.006 17.0529 155.578 14.0137 157.156 12.2587C155.088 12.0572 153.114 12.557 152.36 10.0613C151.836 8.32393 152.48 6.27321 153.674 4.96235C156.801 1.52921 161.663 0.842957 165.947 0.358696C168.317 0.0911595 170.732 -0.131804 173.109 0.0914586C175.413 0.307818 177.218 1.27873 179.32 2.25379C181.519 3.27346 183.013 4.69537 184.48 6.64135C185.17 7.55567 185.745 8.44215 186.132 9.52856C186.32 10.0586 186.497 12.6791 186.913 12.979C187.527 13.4238 191.294 11.8764 192.367 11.9199C193.552 11.9678 194.288 12.337 194.989 13.3322C195.368 13.8718 195.755 15.8659 196.465 16.0835C196.809 16.1886 198.95 15.306 199.453 15.2291C200.184 15.1171 200.891 14.9564 201.641 14.8843C203.97 14.6598 206.39 14.597 208.649 15.3117C213.158 16.7372 215.726 20.8278 214.547 25.6468C214.327 26.5452 213.713 27.2007 213.444 28.0523C213.082 29.197 213.214 30.3952 212.942 31.5787C212.37 34.0725 211.307 35.5534 209.156 36.8494C216.074 42.3572 208.57 54.8747 201.422 48.5592C199.391 51.4071 194.969 53.4449 191.651 54.2375C187.18 55.3055 183.029 54.6796 180.638 50.5548C180.367 51.2624 179.927 52.0244 179.793 52.7619C179.688 53.036 179.583 53.3099 179.478 53.5837C179.166 53.9992 179.316 54.2391 179.929 54.3032C180.346 55.4844 180.653 55.6042 180.037 57.0333C184.606 55.4512 189.422 59.5657 192.576 62.6154C194.701 64.6701 195.832 67.684 197.162 70.2558C198.723 73.2727 199.912 76.425 201.354 79.491C202.649 82.2464 203.449 85.24 204.863 87.9343C206.201 90.4842 208.366 92.3229 210.611 93.9568C212.694 95.4719 214.784 96.9866 217.449 97.6169C220.486 98.3351 223.875 97.3188 226.843 96.5568Z" fill="#27262D"/>
<path fill-rule="evenodd" clip-rule="evenodd" d="M23.2305 110.472C23.4654 106.728 29.1249 103.32 31.6909 101.029C35.0181 98.057 38.3586 95.056 42.012 92.4314C51.1617 85.8577 60.6694 79.9381 70.7977 75.0271C72.3475 74.2757 83.6439 68.9147 83.9549 71.9445C84.1414 73.7576 79.5428 74.6647 78.2858 75.207C75.5293 76.3975 72.9146 77.8933 70.2515 79.2554C62.2593 83.3419 55.0102 89.1182 47.6118 94.3424C43.1957 97.4606 39.0654 100.985 34.6925 104.147C32.3615 105.832 30.313 107.836 28.0623 109.583C26.4568 110.829 24.0014 113.461 23.2305 110.472Z" fill="#27262D"/>
<path fill-rule="evenodd" clip-rule="evenodd" d="M214.384 134.783C215.635 134.276 217.076 139.355 217.623 140.261C218.664 141.989 219.804 143.774 221.067 145.34C223.987 148.955 226.95 152.421 230.394 155.558C233.694 158.564 237.421 161.41 241.38 163.517C242.52 164.124 251.063 166.842 247.843 169.556C246.848 170.394 243.732 169.6 242.663 169.266C240.818 168.688 238.774 167.725 237.084 166.791C233.54 164.83 230.226 162.328 227.386 159.437C224.138 156.131 221.483 152.505 218.871 148.689C216.527 145.266 212.938 139.005 214.384 134.783Z" fill="#27262D"/>
<path fill-rule="evenodd" clip-rule="evenodd" d="M71.681 92.3205C71.1872 93.3998 70.335 93.1065 69.4131 93.45C67.9805 93.984 66.6192 94.9611 65.2931 95.7234C62.7441 97.1877 60.2203 98.7111 57.7261 100.267C53.0923 103.156 48.6156 106.285 44.4796 109.856C41.8735 107.235 54.9229 98.0022 56.6362 96.8996C59.1979 95.2511 61.8564 93.5505 64.6045 92.2253C66.7599 91.1855 71.5855 88.3591 71.681 92.3205Z" fill="#27262D"/>
<path fill-rule="evenodd" clip-rule="evenodd" d="M230.78 142.081C232.51 141.724 233.007 144.432 233.727 145.278C234.871 146.622 236.329 147.772 237.695 148.841C239.358 150.142 240.856 151.483 242.603 152.673C244.024 153.642 247.154 155.151 246.885 157.279C246.27 162.144 237.513 155.144 236.039 153.688C233.939 151.613 227.795 145.172 230.78 142.081Z" fill="#27262D"/>
<path fill-rule="evenodd" clip-rule="evenodd" d="M250.554 152.762C249.363 156.915 241.35 149.501 241.959 146.515C242.512 143.806 245.407 146.609 246.627 147.638C248.309 149.056 250.475 150.459 250.554 152.762Z" fill="#27262D"/>
<path fill-rule="evenodd" clip-rule="evenodd" d="M64.6482 107.594C62.7751 107.061 58.1397 109.411 60.9476 105.825C61.75 104.801 62.6553 103.824 63.7744 104.37C64.9067 104.923 65.4831 106.655 64.6482 107.594Z" fill="#27262D"/>
<path fill-rule="evenodd" clip-rule="evenodd" d="M181.527 56.5321C181.084 56.7166 180.642 56.9005 180.199 57.085C180.358 56.6423 180.516 56.1999 180.676 55.7576C180.842 56.2029 181.126 56.4608 181.527 56.5321Z" fill="#27262D"/>
<path fill-rule="evenodd" clip-rule="evenodd" d="M87.9433 9.02888C86.9212 9.21174 85.9933 9.24459 84.9566 9.2124C85.9681 9.03585 86.9212 9.03917 87.9433 9.02888Z" fill="#27262D"/>
<path fill-rule="evenodd" clip-rule="evenodd" d="M14.3867 184.199C14.4196 185.085 14.4528 185.97 14.4853 186.854C14.4521 185.968 14.4196 185.083 14.3867 184.199Z" fill="#27262D"/>
<path fill-rule="evenodd" clip-rule="evenodd" d="M214.826 24.5596C214.807 23.7848 214.788 23.0102 214.77 22.2366C215.082 23.0069 215.015 23.7821 214.826 24.5596Z" fill="#27262D"/>
<path fill-rule="evenodd" clip-rule="evenodd" d="M91.5918 8.88286C90.8176 8.88651 90.0427 8.89049 89.2688 8.89414C90.1562 8.63164 90.9543 8.62766 91.5918 8.88286Z" fill="#27262D"/>
<path fill-rule="evenodd" clip-rule="evenodd" d="M114.491 8.20204L112.5 8.05901C113.164 8.10679 113.827 8.15425 114.491 8.20204Z" fill="#27262D"/>
<path fill-rule="evenodd" clip-rule="evenodd" d="M29.5341 150.557C28.8661 150.571 28.1845 150.802 27.543 150.39C28.2064 150.446 28.8707 150.501 29.5341 150.557Z" fill="#27262D"/>
<path fill-rule="evenodd" clip-rule="evenodd" d="M296.351 91.6574C295.707 92.0842 295.023 91.751 294.359 91.8005C295.023 91.7527 295.687 91.7052 296.351 91.6574Z" fill="#27262D"/>
<path fill-rule="evenodd" clip-rule="evenodd" d="M164.268 0.704414C163.632 1.13882 162.946 0.880962 162.277 0.859723C162.941 0.807953 163.605 0.756183 164.268 0.704414Z" fill="#27262D"/>
<path fill-rule="evenodd" clip-rule="evenodd" d="M57.0812 153.92C56.528 153.926 55.9748 153.931 55.4219 153.937C55.9734 153.63 56.5266 153.686 57.0812 153.92Z" fill="#27262D"/>
<path fill-rule="evenodd" clip-rule="evenodd" d="M155.312 12.1341C155.645 12.1208 155.979 12.1075 156.308 12.0939C155.974 12.1072 155.643 12.1205 155.312 12.1341Z" fill="#27262D"/>
<path fill-rule="evenodd" clip-rule="evenodd" d="M104.867 8.07129C104.424 8.13368 103.982 8.19607 103.54 8.25813C103.941 7.7703 104.426 8.14563 104.867 8.07129Z" fill="#27262D"/>
<path fill-rule="evenodd" clip-rule="evenodd" d="M27.2109 199.332C27.5438 199.31 27.8766 199.289 28.2065 199.269C27.8727 199.29 27.5418 199.311 27.2109 199.332Z" fill="#27262D"/>
<path fill-rule="evenodd" clip-rule="evenodd" d="M180.044 37.8354C180.037 37.5028 180.03 37.1703 180.023 36.8398C180.03 37.1726 180.037 37.5042 180.044 37.8354Z" fill="#27262D"/>
<path fill-rule="evenodd" clip-rule="evenodd" d="M172.441 38.1674C172.415 38.6104 172.389 39.0531 172.363 39.4948C172.39 39.0518 172.415 38.6094 172.441 38.1674Z" fill="#27262D"/>
<path fill-rule="evenodd" clip-rule="evenodd" d="M99.2266 179.079C99.5597 179.063 99.8923 179.046 100.222 179.03C99.8883 179.046 99.5578 179.063 99.2266 179.079Z" fill="#27262D"/>
<path fill-rule="evenodd" clip-rule="evenodd" d="M5.64062 41.9878C5.97371 41.9855 6.3065 41.9828 6.6362 41.9805C6.30218 41.9828 5.97126 41.9855 5.64062 41.9878Z" fill="#27262D"/>
<path fill-rule="evenodd" clip-rule="evenodd" d="M250.886 94.5538C250.443 94.5535 250.001 94.5528 249.559 94.5522C250.002 94.3315 250.444 94.0969 250.886 94.5538Z" fill="#27262D"/>
<path fill-rule="evenodd" clip-rule="evenodd" d="M250.32 152.669C250.304 152.227 250.289 151.783 250.273 151.342C250.551 151.777 250.592 152.218 250.32 152.669Z" fill="#27262D"/>
<path fill-rule="evenodd" clip-rule="evenodd" d="M46.1289 34.3659C46.3509 34.3556 46.5736 34.3454 46.7926 34.3354C46.5693 34.3454 46.3493 34.3556 46.1289 34.3659Z" fill="#27262D"/>
<path fill-rule="evenodd" clip-rule="evenodd" d="M247.898 94.302C247.457 94.6219 247.014 94.6235 246.57 94.3096C247.013 94.3073 247.455 94.3046 247.898 94.302Z" fill="#27262D"/>
<path fill-rule="evenodd" clip-rule="evenodd" d="M62.0581 153.001C61.8918 153.504 61.4338 153.288 61.0625 153.283C61.3944 153.189 61.7265 153.095 62.0581 153.001Z" fill="#27262D"/>
<path fill-rule="evenodd" clip-rule="evenodd" d="M156.637 21.4278C156.859 21.4138 157.08 21.3996 157.3 21.386C157.078 21.4006 156.857 21.4138 156.637 21.4278Z" fill="#27262D"/>
<path fill-rule="evenodd" clip-rule="evenodd" d="M258.852 113.992C259.074 114 259.296 114.008 259.515 114.017C259.292 114.009 259.072 114 258.852 113.992Z" fill="#27262D"/>
<path fill-rule="evenodd" clip-rule="evenodd" d="M98.1027 110.851C98.0765 111.184 98.0503 111.516 98.0234 111.847C98.0493 111.513 98.0759 111.183 98.1027 110.851Z" fill="#27262D"/>
<path fill-rule="evenodd" clip-rule="evenodd" d="M162.941 45.296C163.164 45.3007 163.386 45.3057 163.605 45.31C163.382 45.305 163.161 45.3007 162.941 45.296Z" fill="#27262D"/>
<path fill-rule="evenodd" clip-rule="evenodd" d="M60.3984 174.054C60.6208 174.069 60.8431 174.084 61.0622 174.099C60.8391 174.084 60.6188 174.068 60.3984 174.054Z" fill="#27262D"/>
<path fill-rule="evenodd" clip-rule="evenodd" d="M237.945 94.8658C237.502 94.8648 237.059 94.8635 236.617 94.8622C237.061 94.5177 237.503 94.6272 237.945 94.8658Z" fill="#27262D"/>
<path fill-rule="evenodd" clip-rule="evenodd" d="M281.418 110.377C281.64 110.361 281.862 110.345 282.082 110.33C281.859 110.345 281.638 110.361 281.418 110.377Z" fill="#27262D"/>
<path fill-rule="evenodd" clip-rule="evenodd" d="M154.194 17.9221C154.165 18.2546 154.136 18.5869 154.105 18.9177C154.135 18.5846 154.164 18.2535 154.194 17.9221Z" fill="#27262D"/>
<path fill-rule="evenodd" clip-rule="evenodd" d="M116.149 110.53C114.801 111.281 113.346 111.91 112.019 112.677C111.082 113.218 110.318 114.49 109.512 113.427C111.289 112.558 114.17 110.344 116.149 110.53Z" fill="#27262D"/>
<path fill-rule="evenodd" clip-rule="evenodd" d="M30.7816 177.561C30.5095 176.784 30.5131 176.009 30.8081 175.238C30.7995 176.013 30.7902 176.787 30.7816 177.561Z" fill="#27262D"/>
<path fill-rule="evenodd" clip-rule="evenodd" d="M32.452 188.514C32.4745 188.956 32.4974 189.399 32.52 189.841C32.446 189.846 31.8719 188.542 32.452 188.514Z" fill="#27262D"/>
<path fill-rule="evenodd" clip-rule="evenodd" d="M43.2539 26.883C43.2894 26.3294 43.3256 25.7759 43.3608 25.2237C43.3253 25.7776 43.2894 26.3304 43.2539 26.883Z" fill="#27262D"/>
<path fill-rule="evenodd" clip-rule="evenodd" d="M200.773 31.04C200.329 31.034 199.885 31.0284 199.445 31.0234C199.89 31.0294 200.331 31.0347 200.773 31.04Z" fill="#27262D"/>
<path fill-rule="evenodd" clip-rule="evenodd" d="M19.0078 192.164C19.0576 192.607 19.1077 193.05 19.1571 193.492C19.107 193.049 19.0573 192.607 19.0078 192.164Z" fill="#27262D"/>
<path fill-rule="evenodd" clip-rule="evenodd" d="M76.6602 170.713C77.0982 170.818 77.597 170.343 77.9876 170.893C77.5446 170.833 77.1029 170.773 76.6602 170.713Z" fill="#27262D"/>
<path fill-rule="evenodd" clip-rule="evenodd" d="M18.7886 183.203C18.7627 183.536 18.7365 183.868 18.7109 184.199C18.7375 183.866 18.763 183.535 18.7886 183.203Z" fill="#27262D"/>
<path fill-rule="evenodd" clip-rule="evenodd" d="M28.3555 39.4949C28.3668 39.8271 28.3784 40.1596 28.3906 40.4905C28.3797 40.1573 28.3674 39.8261 28.3555 39.4949Z" fill="#27262D"/>
<path fill-rule="evenodd" clip-rule="evenodd" d="M23.3281 187.186C23.3743 186.854 23.4204 186.522 23.4665 186.19C23.42 186.523 23.3743 186.854 23.3281 187.186Z" fill="#27262D"/>
<path fill-rule="evenodd" clip-rule="evenodd" d="M260.238 107.532C260.521 107.864 260.505 108.196 260.245 108.528C260.243 108.195 260.241 107.864 260.238 107.532Z" fill="#27262D"/>
<path fill-rule="evenodd" clip-rule="evenodd" d="M158.629 106.402C158.406 106.381 158.185 106.361 157.965 106.34C158.188 106.36 158.408 106.381 158.629 106.402Z" fill="#27262D"/>
<path fill-rule="evenodd" clip-rule="evenodd" d="M236.074 112.816C233.617 113.173 235.882 109.774 236.548 109.302C237.323 108.754 238.143 108.536 238.893 107.877C239.363 107.465 239.895 106.472 240.616 106.54C242.206 106.69 241.489 108.97 241.015 109.947C240.086 111.861 238.143 112.848 236.074 112.816Z" fill="#27262D"/>
<path fill-rule="evenodd" clip-rule="evenodd" d="M156.339 73.6791C154.892 73.166 147.581 71.7765 150.819 68.8157C152.958 66.8594 158.902 71.8602 156.339 73.6791Z" fill="#27262D"/>
<path fill-rule="evenodd" clip-rule="evenodd" d="M122.794 96.8678C122.568 94.281 129.586 91.416 128.682 94.8146C128.472 95.6047 126.483 97.5547 125.941 98.0708C124.488 99.4536 122.795 99.1526 122.794 96.8678Z" fill="#27262D"/>
<path fill-rule="evenodd" clip-rule="evenodd" d="M57.0781 25.3661C57.5537 23.6895 58.0777 22.9017 59.739 22.2542C60.8009 21.8394 62.5604 21.4627 62.7144 23.1924C62.8286 24.469 61.0276 25.7105 60.1561 26.2538C58.598 27.2258 57.7398 27.174 57.0781 25.3661Z" fill="#27262D"/>
<path fill-rule="evenodd" clip-rule="evenodd" d="M151.988 87.0745C152.005 88.8341 151.39 90.9025 149.841 91.9592C148.627 92.7862 145.869 93.1754 146.916 90.7791C147.235 90.0493 148.135 89.6879 148.685 89.147C149.59 88.2563 149.665 87.2919 150.172 86.458C150.345 86.1726 150.071 85.4986 150.616 85.3323C151.525 85.0545 152.052 86.4364 151.988 87.0745Z" fill="#27262D"/>
<path fill-rule="evenodd" clip-rule="evenodd" d="M184.908 72.6839C186.159 72.682 187.341 73.1313 186.614 74.5589C186.062 75.6411 183.666 76.4714 182.583 76.6231C181.192 76.8179 179.637 76.3878 180.401 74.6246C181.037 73.1565 183.53 73.0248 184.908 72.6839Z" fill="#27262D"/>
<path fill-rule="evenodd" clip-rule="evenodd" d="M195.134 95.9173C195.082 99.1429 189.269 95.7716 189.867 93.3517C190.621 90.3025 194.668 94.4929 195.134 95.9173Z" fill="#27262D"/>
<path fill-rule="evenodd" clip-rule="evenodd" d="M128.428 39.159C128.428 41.8988 122.653 38.3901 123.152 35.993C123.816 32.7982 128.549 37.0895 128.428 39.159Z" fill="#27262D"/>
<path fill-rule="evenodd" clip-rule="evenodd" d="M122.728 27.5464C120.289 25.5961 125.882 20.5784 127.489 22.7879C128.943 24.789 124.201 27.4269 122.728 27.5464Z" fill="#27262D"/>
<path fill-rule="evenodd" clip-rule="evenodd" d="M124.417 68.7008C123.08 68.5807 121.539 68.5939 120.362 67.8274C119.503 67.2682 118.012 65.1081 119.321 64.1756C120.126 63.6015 122.159 65.2362 122.984 65.6656C124.392 66.398 125.328 66.8543 124.417 68.7008Z" fill="#27262D"/>
<path fill-rule="evenodd" clip-rule="evenodd" d="M181.011 86.9545C177.861 86.9957 176.865 83.1889 180.661 83.6801C181.669 83.8102 184.156 84.0531 184.18 85.3819C184.208 86.9144 182.202 86.7578 181.011 86.9545Z" fill="#27262D"/>
<path fill-rule="evenodd" clip-rule="evenodd" d="M149.005 51.8803C148.779 53.3259 148.388 54.3888 147.119 55.2341C146.028 55.9602 143.887 56.9266 144.035 54.7575C144.123 53.4666 148.423 48.6367 149.005 51.8803Z" fill="#27262D"/>
<path fill-rule="evenodd" clip-rule="evenodd" d="M87.6737 21.241C88.9271 21.8413 90.5639 28.2359 88.883 28.7981C86.2112 29.6924 86.8172 22.373 87.6737 21.241Z" fill="#27262D"/>
<path fill-rule="evenodd" clip-rule="evenodd" d="M142.141 81.3126C140.194 79.1028 145.296 74.71 146.525 76.9576C147.539 78.8141 143.325 80.5278 142.141 81.3126Z" fill="#27262D"/>
<path fill-rule="evenodd" clip-rule="evenodd" d="M107.194 22.7244C107.537 19.3384 111.431 24.3382 111.156 25.9663C110.674 28.8177 107.014 24.241 107.194 22.7244Z" fill="#27262D"/>
<path fill-rule="evenodd" clip-rule="evenodd" d="M110.178 106.948C110.157 109.208 105.72 106.864 106.237 104.478C106.821 101.783 110.145 105.688 110.178 106.948Z" fill="#27262D"/>
<path fill-rule="evenodd" clip-rule="evenodd" d="M199.777 108.532C201.093 104.601 201.862 107.275 202.231 109.756C202.349 110.549 202.884 112.742 201.509 112.49C200.231 112.256 199.881 109.364 199.777 108.532Z" fill="#27262D"/>
<path fill-rule="evenodd" clip-rule="evenodd" d="M215.865 110.851C216.896 111.558 218.956 116.838 216.641 116.088C214.875 115.517 214.509 111.893 215.865 110.851Z" fill="#27262D"/>
<path fill-rule="evenodd" clip-rule="evenodd" d="M163.848 89.2785C163.965 90.6968 164.157 91.182 164.912 92.3501C165.56 93.3527 165.983 93.8203 165.07 94.9201C163.986 94.0934 162.677 93.4506 162.353 92.0724C162.103 91.0074 162.438 89.3223 163.848 89.2785Z" fill="#27262D"/>
<path fill-rule="evenodd" clip-rule="evenodd" d="M133.003 74.6748C132.24 74.0685 129.579 70.8339 130.176 69.6604C130.914 68.2115 134.623 72.4473 133.003 74.6748Z" fill="#27262D"/>
<path fill-rule="evenodd" clip-rule="evenodd" d="M183.113 98.2395C183.937 98.9703 183.557 100.515 183.699 101.46C183.841 102.418 184.639 103.696 183.802 104.545C181.744 103.368 181.814 99.9194 183.113 98.2395Z" fill="#27262D"/>
<path fill-rule="evenodd" clip-rule="evenodd" d="M112.5 85.9504C112.486 84.8101 115.202 82.7353 115.766 84.0677C116.251 85.2116 113.232 88.6364 112.5 85.9504Z" fill="#27262D"/>
</svg>
