<svg width="16" height="16" viewBox="0 0 16 16" fill="none" xmlns="http://www.w3.org/2000/svg">
<path d="M3 0C2.40666 0 1.82664 0.175947 1.33329 0.505591C0.839943 0.835236 0.455426 1.30377 0.228363 1.85195C0.00129986 2.40013 -0.0581102 3.00333 0.0576455 3.58527C0.173401 4.16721 0.459123 4.70176 0.878681 5.12132C1.29824 5.54088 1.83279 5.8266 2.41473 5.94236C2.99667 6.05811 3.59987 5.9987 4.14805 5.77164C4.69623 5.54458 5.16477 5.16006 5.49441 4.66671C5.82405 4.17336 6 3.59334 6 3C6 2.20435 5.68393 1.44129 5.12132 0.87868C4.55871 0.316071 3.79565 0 3 0ZM3 4C2.80222 4 2.60888 3.94135 2.44443 3.83147C2.27998 3.72159 2.15181 3.56541 2.07612 3.38268C2.00043 3.19996 1.98063 2.99889 2.01922 2.80491C2.0578 2.61093 2.15304 2.43275 2.29289 2.29289C2.43275 2.15304 2.61093 2.0578 2.80491 2.01921C2.99889 1.98063 3.19996 2.00043 3.38268 2.07612C3.56541 2.15181 3.72159 2.27998 3.83147 2.44443C3.94135 2.60888 4 2.80222 4 3C4 3.26522 3.89464 3.51957 3.70711 3.70711C3.51957 3.89464 3.26522 4 3 4Z" fill="#967FE8"/>
<path d="M13 6C13.5933 6 14.1734 5.82405 14.6667 5.49441C15.1601 5.16477 15.5446 4.69623 15.7716 4.14805C15.9987 3.59987 16.0581 2.99667 15.9424 2.41473C15.8266 1.83279 15.5409 1.29824 15.1213 0.878681C14.7018 0.459123 14.1672 0.173401 13.5853 0.0576455C13.0033 -0.0581102 12.4001 0.00129986 11.8519 0.228363C11.3038 0.455426 10.8352 0.839943 10.5056 1.33329C10.1759 1.82664 10 2.40666 10 3C10 3.79565 10.3161 4.55871 10.8787 5.12132C11.4413 5.68393 12.2044 6 13 6ZM13 2C13.1978 2 13.3911 2.05865 13.5556 2.16853C13.72 2.27841 13.8482 2.43459 13.9239 2.61732C13.9996 2.80004 14.0194 3.00111 13.9808 3.19509C13.9422 3.38907 13.847 3.56726 13.7071 3.70711C13.5673 3.84696 13.3891 3.9422 13.1951 3.98079C13.0011 4.01937 12.8 3.99957 12.6173 3.92388C12.4346 3.84819 12.2784 3.72002 12.1685 3.55557C12.0586 3.39112 12 3.19778 12 3C12 2.73478 12.1054 2.48043 12.2929 2.29289C12.4804 2.10536 12.7348 2 13 2Z" fill="#967FE8"/>
<path d="M3 10C2.40666 10 1.82664 10.1759 1.33329 10.5056C0.839943 10.8352 0.455426 11.3038 0.228363 11.8519C0.00129986 12.4001 -0.0581102 13.0033 0.0576455 13.5853C0.173401 14.1672 0.459123 14.7018 0.878681 15.1213C1.29824 15.5409 1.83279 15.8266 2.41473 15.9424C2.99667 16.0581 3.59987 15.9987 4.14805 15.7716C4.69623 15.5446 5.16477 15.1601 5.49441 14.6667C5.82405 14.1734 6 13.5933 6 13C6 12.2044 5.68393 11.4413 5.12132 10.8787C4.55871 10.3161 3.79565 10 3 10ZM3 14C2.80222 14 2.60888 13.9414 2.44443 13.8315C2.27998 13.7216 2.15181 13.5654 2.07612 13.3827C2.00043 13.2 1.98063 12.9989 2.01922 12.8049C2.0578 12.6109 2.15304 12.4327 2.29289 12.2929C2.43275 12.153 2.61093 12.0578 2.80491 12.0192C2.99889 11.9806 3.19996 12.0004 3.38268 12.0761C3.56541 12.1518 3.72159 12.28 3.83147 12.4444C3.94135 12.6089 4 12.8022 4 13C4 13.2652 3.89464 13.5196 3.70711 13.7071C3.51957 13.8946 3.26522 14 3 14Z" fill="#967FE8"/>
<path d="M13 10C12.4067 10 11.8266 10.1759 11.3333 10.5056C10.8399 10.8352 10.4554 11.3038 10.2284 11.8519C10.0013 12.4001 9.94189 13.0033 10.0576 13.5853C10.1734 14.1672 10.4591 14.7018 10.8787 15.1213C11.2982 15.5409 11.8328 15.8266 12.4147 15.9424C12.9967 16.0581 13.5999 15.9987 14.1481 15.7716C14.6962 15.5446 15.1648 15.1601 15.4944 14.6667C15.8241 14.1734 16 13.5933 16 13C16 12.2044 15.6839 11.4413 15.1213 10.8787C14.5587 10.3161 13.7957 10 13 10ZM13 14C12.8022 14 12.6089 13.9414 12.4444 13.8315C12.28 13.7216 12.1518 13.5654 12.0761 13.3827C12.0004 13.2 11.9806 12.9989 12.0192 12.8049C12.0578 12.6109 12.153 12.4327 12.2929 12.2929C12.4327 12.153 12.6109 12.0578 12.8049 12.0192C12.9989 11.9806 13.2 12.0004 13.3827 12.0761C13.5654 12.1518 13.7216 12.28 13.8315 12.4444C13.9414 12.6089 14 12.8022 14 13C14 13.2652 13.8946 13.5196 13.7071 13.7071C13.5196 13.8946 13.2652 14 13 14Z" fill="#967FE8"/>
</svg>
