<svg width="24" height="18" viewBox="0 0 24 18" fill="none" xmlns="http://www.w3.org/2000/svg">
<path d="M23.8208 11.89C22.3208 6.47 21.8908 5 21.7408 4.51C21.5717 3.36911 21.0134 2.32174 20.1605 1.54537C19.3076 0.768992 18.2125 0.311356 17.0608 0.25C16.364 0.261894 15.6792 0.432971 15.0587 0.75015C14.4382 1.06733 13.8985 1.52221 13.4808 2.08H10.4808C10.0672 1.52746 9.53386 1.07576 8.92076 0.758821C8.30766 0.441878 7.63073 0.267919 6.94078 0.25C5.78906 0.311356 4.69397 0.768992 3.84105 1.54537C2.98814 2.32174 2.42985 3.36911 2.26078 4.51C2.11078 4.97 1.68078 6.51 0.180784 11.89C-0.156657 12.9839 -0.0778268 14.1639 0.402119 15.2031C0.882064 16.2424 1.72925 17.0676 2.78078 17.52C3.30472 17.706 3.86166 17.7807 4.41608 17.7393C4.97049 17.698 5.51021 17.5416 6.00078 17.28C6.52558 17.0127 6.98987 16.6404 7.36486 16.1863C7.73986 15.7322 8.01758 15.2059 8.18078 14.64L8.85078 12.89H15.2208L15.8208 14.54C15.978 15.12 16.2525 15.6616 16.6275 16.1312C17.0025 16.6008 17.4699 16.9884 18.0008 17.27C18.5926 17.5829 19.2514 17.7476 19.9208 17.75C20.3641 17.7484 20.8038 17.6706 21.2208 17.52C22.2723 17.0676 23.1195 16.2424 23.5994 15.2031C24.0794 14.1639 24.1582 12.9839 23.8208 11.89ZM20.4608 15.47C20.221 15.5492 19.9674 15.5777 19.7161 15.5536C19.4647 15.5295 19.2211 15.4533 19.0008 15.33C18.7183 15.1836 18.4705 14.9785 18.2738 14.7284C18.0772 14.4783 17.9364 14.189 17.8608 13.88L17.0008 11.42C16.925 11.2139 16.7893 11.0352 16.6111 10.9068C16.4328 10.7785 16.2203 10.7065 16.0008 10.7H8.06078C7.84393 10.7062 7.63365 10.7758 7.45592 10.9002C7.2782 11.0246 7.14083 11.1984 7.06078 11.4L6.06078 14C5.98291 14.283 5.84895 14.5474 5.66685 14.7776C5.48476 15.0078 5.25825 15.1991 5.00078 15.34C4.78563 15.4578 4.54856 15.5301 4.30429 15.5525C4.06001 15.5749 3.81375 15.5468 3.58078 15.47C3.0505 15.1994 2.63366 14.7492 2.40468 14.1996C2.17571 13.6501 2.14952 13.0371 2.33078 12.47C3.06078 9.84 4.25078 5.54 4.33078 5.25L4.40078 5C4.40078 5 4.74162 3.72678 5.20594 3.25879C5.67027 2.79081 6.28436 2.50098 6.94078 2.44C7.36698 2.46115 7.78052 2.59192 8.14139 2.81966C8.50226 3.04739 8.79827 3.36439 9.00078 3.74C9.09873 3.90166 9.23668 4.03535 9.40133 4.12819C9.56598 4.22102 9.75177 4.26986 9.94078 4.27H14.0408C14.2332 4.27334 14.4231 4.22616 14.5915 4.13315C14.76 4.04015 14.9011 3.90459 15.0008 3.74C15.201 3.36041 15.4978 3.04034 15.8613 2.8121C16.2247 2.58386 16.6419 2.45551 17.0708 2.44C17.7254 2.50319 18.3371 2.794 18.7994 3.26178C19.2617 3.72955 19.5281 5 19.5281 5L19.6008 5.21C19.6008 5.21 20.9308 9.89 21.6608 12.52C21.8329 13.0746 21.8074 13.6718 21.5886 14.2097C21.3698 14.7476 20.9712 15.193 20.4608 15.47Z" fill="#755EC6"/>
<path d="M14.8108 7.40999C14.6011 7.40999 14.3962 7.47216 14.2219 7.58863C14.0476 7.70511 13.9117 7.87066 13.8315 8.06435C13.7513 8.25804 13.7303 8.47117 13.7712 8.67679C13.8121 8.88241 13.913 9.07128 14.0613 9.21952C14.2095 9.36777 14.3984 9.46872 14.604 9.50962C14.8096 9.55052 15.0227 9.52953 15.2164 9.4493C15.4101 9.36907 15.5757 9.23321 15.6922 9.0589C15.8086 8.88458 15.8708 8.67964 15.8708 8.46999C15.8721 8.33042 15.8456 8.19198 15.7928 8.06277C15.74 7.93356 15.662 7.81618 15.5633 7.71748C15.4646 7.61878 15.3472 7.54075 15.218 7.48796C15.0888 7.43516 14.9504 7.40866 14.8108 7.40999Z" fill="#755EC6"/>
<path d="M17.5108 6.6C18.0907 6.6 18.5608 6.1299 18.5608 5.55C18.5608 4.9701 18.0907 4.5 17.5108 4.5C16.9309 4.5 16.4608 4.9701 16.4608 5.55C16.4608 6.1299 16.9309 6.6 17.5108 6.6Z" fill="#755EC6"/>
<path d="M7.61078 5.07001C7.21522 5.07001 6.82854 5.18731 6.49964 5.40707C6.17074 5.62683 5.9144 5.93919 5.76302 6.30464C5.61165 6.67009 5.57204 7.07223 5.64921 7.46019C5.72638 7.84815 5.91686 8.20452 6.19657 8.48422C6.47627 8.76393 6.83264 8.95441 7.2206 9.03158C7.60856 9.10875 8.0107 9.06914 8.37615 8.91777C8.7416 8.76639 9.05396 8.51005 9.27372 8.18115C9.49348 7.85225 9.61078 7.46557 9.61078 7.07001C9.61078 6.53957 9.40007 6.03087 9.02499 5.65579C8.64992 5.28072 8.14121 5.07001 7.61078 5.07001Z" fill="#755EC6"/>
</svg>
