<svg width="22" height="17" viewBox="0 0 22 17" fill="none" xmlns="http://www.w3.org/2000/svg">
<path d="M16.38 10.74C16.9125 10.742 17.4335 10.5859 17.8772 10.2915C18.3209 9.99715 18.6672 9.57772 18.8724 9.08637C19.0775 8.59501 19.1322 8.05383 19.0295 7.53136C18.9269 7.0089 18.6715 6.52865 18.2957 6.15145C17.9199 5.77424 17.4406 5.51705 16.9185 5.41244C16.3964 5.30783 15.855 5.36052 15.3629 5.56382C14.8708 5.76712 14.4501 6.1119 14.1541 6.55448C13.858 6.99706 13.7 7.51754 13.7 8.05C13.7 8.7617 13.982 9.4444 14.4843 9.94859C14.9867 10.4528 15.6683 10.7374 16.38 10.74Z" fill="#556980"/>
<path d="M18 11.72H14.89C15.7956 13.1495 16.2743 14.8078 16.27 16.5C16.27 16.67 16.27 16.83 16.27 17H20.78C21.0452 17 21.2996 16.8946 21.4871 16.7071C21.6746 16.5196 21.78 16.2652 21.78 16V15.46C21.7787 14.9658 21.6797 14.4768 21.4888 14.021C21.2979 13.5653 21.0188 13.1517 20.6675 12.8042C20.3163 12.4566 19.8998 12.1819 19.442 11.9958C18.9842 11.8098 18.4941 11.716 18 11.72Z" fill="#556980"/>
<path d="M7.5 9C8.39002 9 9.26005 8.73608 10.0001 8.24161C10.7401 7.74715 11.3169 7.04434 11.6575 6.22208C11.9981 5.39981 12.0872 4.49501 11.9135 3.62209C11.7399 2.74918 11.3113 1.94736 10.682 1.31802C10.0526 0.688683 9.25082 0.2601 8.37791 0.0864664C7.50499 -0.0871671 6.60019 0.00194785 5.77792 0.342542C4.95566 0.683137 4.25285 1.25991 3.75839 1.99993C3.26392 2.73995 3 3.60998 3 4.5C3.00264 5.69266 3.4776 6.83572 4.32094 7.67906C5.16428 8.5224 6.30734 8.99736 7.5 9ZM7.5 2C7.99445 2 8.4778 2.14662 8.88893 2.42133C9.30005 2.69603 9.62048 3.08648 9.8097 3.54329C9.99892 4.00011 10.0484 4.50277 9.95196 4.98773C9.8555 5.47268 9.6174 5.91814 9.26777 6.26777C8.91814 6.6174 8.47268 6.8555 7.98773 6.95196C7.50277 7.04843 7.00011 6.99892 6.54329 6.8097C6.08648 6.62048 5.69603 6.30005 5.42133 5.88893C5.14662 5.4778 5 4.99445 5 4.5C5 3.83696 5.26339 3.20107 5.73223 2.73223C6.20107 2.26339 6.83696 2 7.5 2Z" fill="#556980"/>
<path d="M9 10H6C4.4087 10 2.88258 10.6321 1.75736 11.7574C0.632141 12.8826 0 14.4087 0 16C0 16.2652 0.105357 16.5196 0.292893 16.7071C0.48043 16.8946 0.734784 17 1 17H14C14.2652 17 14.5196 16.8946 14.7071 16.7071C14.8946 16.5196 15 16.2652 15 16C15 14.4087 14.3679 12.8826 13.2426 11.7574C12.1174 10.6321 10.5913 10 9 10ZM2.13 15C2.35157 14.1419 2.85186 13.3816 3.55231 12.8386C4.25277 12.2956 5.11373 12.0007 6 12H9C9.88627 12.0007 10.7472 12.2956 11.4477 12.8386C12.1481 13.3816 12.6484 14.1419 12.87 15H2.13Z" fill="#556980"/>
</svg>
