<svg width="18" height="18" viewBox="0 0 18 18" fill="none" xmlns="http://www.w3.org/2000/svg">
<path d="M15.8604 0H2.14038C1.56127 0.0131256 1.01095 0.255147 0.609879 0.673088C0.208806 1.09103 -0.0103526 1.65085 0.00037614 2.23V17C0.000536117 17.1963 0.0584621 17.3882 0.166934 17.5518C0.275407 17.7154 0.429628 17.8434 0.610376 17.92C0.7337 17.9725 0.866328 17.9997 1.00038 18C1.25785 17.999 1.505 17.8987 1.69038 17.72L5.26038 14.31H15.8604C16.4395 14.2969 16.9898 14.0549 17.3909 13.6369C17.7919 13.219 18.0111 12.6592 18.0004 12.08V2.23C18.0111 1.65085 17.7919 1.09103 17.3909 0.673088C16.9898 0.255147 16.4395 0.0131256 15.8604 0ZM16.0004 12.08C16.0004 12.22 15.9204 12.31 15.8604 12.31H4.86038C4.60429 12.3083 4.35732 12.405 4.17038 12.58L2.00038 14.66V2.23C2.00038 2.09 2.08038 2 2.14038 2H15.8604C15.9204 2 16.0004 2.09 16.0004 2.23V12.08Z" fill="#556980"/>
<path d="M13.0004 4H5.00038C4.73516 4 4.48081 4.10536 4.29327 4.29289C4.10573 4.48043 4.00038 4.73478 4.00038 5C4.00038 5.26522 4.10573 5.51957 4.29327 5.70711C4.48081 5.89464 4.73516 6 5.00038 6H13.0004C13.2656 6 13.5199 5.89464 13.7075 5.70711C13.895 5.51957 14.0004 5.26522 14.0004 5C14.0004 4.73478 13.895 4.48043 13.7075 4.29289C13.5199 4.10536 13.2656 4 13.0004 4Z" fill="#556980"/>
<path d="M9.00038 8H5.00038C4.73516 8 4.48081 8.10536 4.29327 8.29289C4.10573 8.48043 4.00038 8.73478 4.00038 9C4.00038 9.26522 4.10573 9.51957 4.29327 9.70711C4.48081 9.89464 4.73516 10 5.00038 10H9.00038C9.26559 10 9.51995 9.89464 9.70748 9.70711C9.89502 9.51957 10.0004 9.26522 10.0004 9C10.0004 8.73478 9.89502 8.48043 9.70748 8.29289C9.51995 8.10536 9.26559 8 9.00038 8Z" fill="#556980"/>
</svg>
