<svg width="21" height="22" viewBox="0 0 21 22" fill="none" xmlns="http://www.w3.org/2000/svg">
<path d="M1.11 1C0.81561 1 0.533277 1.11695 0.325111 1.32511C0.116946 1.53328 0 1.81561 0 2.11V19.89C0 20.1844 0.116946 20.4667 0.325111 20.6749C0.533277 20.8831 0.81561 21 1.11 21C1.40439 21 1.68672 20.8831 1.89489 20.6749C2.10305 20.4667 2.22 20.1844 2.22 19.89V2.11C2.22 1.96423 2.19129 1.81989 2.13551 1.68522C2.07972 1.55055 1.99796 1.42818 1.89489 1.32511C1.79182 1.22204 1.66945 1.14028 1.53478 1.08449C1.40011 1.02871 1.25577 1 1.11 1Z" fill="#556980"/>
<path d="M5.56 1C5.26468 0.999988 4.98131 1.11661 4.77156 1.3245C4.5618 1.53238 4.44264 1.81469 4.44 2.11V19.89C4.46631 20.1675 4.59515 20.4252 4.80134 20.6128C5.00754 20.8003 5.27626 20.9043 5.555 20.9043C5.83374 20.9043 6.10247 20.8003 6.30866 20.6128C6.51485 20.4252 6.64369 20.1675 6.67 19.89V2.11C6.67 1.81561 6.55306 1.53328 6.34489 1.32511C6.13673 1.11695 5.85439 1 5.56 1Z" fill="#556980"/>
<path d="M10 1C9.70562 1 9.42329 1.11695 9.21513 1.32511C9.00696 1.53328 8.89001 1.81561 8.89001 2.11V19.89C8.89001 20.1844 9.00696 20.4667 9.21513 20.6749C9.42329 20.8831 9.70562 21 10 21C10.2944 21 10.5767 20.8831 10.7849 20.6749C10.9931 20.4667 11.11 20.1844 11.11 19.89V2.11C11.11 1.81561 10.9931 1.53328 10.7849 1.32511C10.5767 1.11695 10.2944 1 10 1Z" fill="#556980"/>
<path d="M20 19.62L15.52 1.84001C15.4912 1.69198 15.4325 1.55138 15.3476 1.42677C15.2626 1.30217 15.1532 1.19618 15.0259 1.11528C14.8987 1.03438 14.7563 0.980252 14.6074 0.956212C14.4585 0.932172 14.3063 0.938719 14.16 0.975454C14.0138 1.01219 13.8765 1.07834 13.7567 1.16987C13.6368 1.26141 13.5369 1.3764 13.463 1.50784C13.389 1.63927 13.3427 1.7844 13.3267 1.93435C13.3107 2.0843 13.3254 2.23594 13.37 2.38001L17.81 20.16C17.8719 20.3997 18.0114 20.6121 18.2068 20.7641C18.4022 20.9161 18.6425 20.999 18.89 21C18.9797 21.0098 19.0703 21.0098 19.16 21C19.3073 20.9673 19.4465 20.9052 19.5692 20.8174C19.6919 20.7296 19.7955 20.6178 19.874 20.489C19.9524 20.3601 20.004 20.2167 20.0257 20.0673C20.0474 19.918 20.0386 19.7659 20 19.62Z" fill="#556980"/>
</svg>
